<?xml version="1.0" encoding="UTF-8" standalone="no"?>
<!DOCTYPE svg PUBLIC "-//W3C//DTD SVG 1.1//EN"
 "http://www.w3.org/Graphics/SVG/1.1/DTD/svg11.dtd">
<!-- Generated by graphviz version 12.2.0 (0)
 -->
<!-- Title: PDG Pages: 1 -->
<svg width="467pt" height="229pt"
 viewBox="0.00 0.00 467.12 229.00" xmlns="http://www.w3.org/2000/svg" xmlns:xlink="http://www.w3.org/1999/xlink">
<g id="graph0" class="graph" transform="scale(1 1) rotate(0) translate(4 225)">
<title>PDG</title>
<polygon fill="white" stroke="none" points="-4,4 -4,-225 463.12,-225 463.12,4 -4,4"/>
<!-- node0 -->
<g id="node1" class="node">
<title>node0</title>
<polygon fill="none" stroke="black" points="246.25,-221 37.5,-221 37.5,-185 246.25,-185 246.25,-221"/>
<text text-anchor="middle" x="141.88" y="-198.32" font-family="Times,serif" font-size="14.00">ENTRY: forLoopArray(int[])</text>
</g>
<!-- node2 -->
<g id="node3" class="node">
<title>node2</title>
<polygon fill="none" stroke="black" points="203.12,-149 80.62,-149 80.62,-113 203.12,-113 203.12,-149"/>
<text text-anchor="middle" x="141.88" y="-126.33" font-family="Times,serif" font-size="14.00">3: int sum = 0;</text>
</g>
<!-- node0&#45;&gt;node2 -->
<g id="edge1" class="edge">
<title>node0&#45;&gt;node2</title>
<path fill="none" stroke="blue" d="M141.88,-184.7C141.88,-177.41 141.88,-168.73 141.88,-160.54"/>
<polygon fill="blue" stroke="blue" points="145.38,-160.62 141.88,-150.62 138.38,-160.62 145.38,-160.62"/>
</g>
<!-- node1 -->
<g id="node2" class="node">
<title>node1</title>
<polygon fill="none" stroke="black" points="459.12,-221 264.62,-221 264.62,-185 459.12,-185 459.12,-221"/>
<text text-anchor="middle" x="361.88" y="-198.32" font-family="Times,serif" font-size="14.00">EXIT: forLoopArray(int[])</text>
</g>
<!-- node3 -->
<g id="node4" class="node">
<title>node3</title>
<polygon fill="none" stroke="black" points="283.75,-77 0,-77 0,0 283.75,0 283.75,-77"/>
<text text-anchor="middle" x="141.88" y="-59.7" font-family="Times,serif" font-size="14.00">4: for (int i = 0; i &lt; arr.length; i++) {</text>
<text text-anchor="middle" x="141.88" y="-42.45" font-family="Times,serif" font-size="14.00"> &#160;&#160;&#160;int value = arr[i];</text>
<text text-anchor="middle" x="141.88" y="-25.2" font-family="Times,serif" font-size="14.00"> &#160;&#160;&#160;sum = sum + value;</text>
<text text-anchor="middle" x="141.88" y="-7.95" font-family="Times,serif" font-size="14.00">}</text>
</g>
<!-- node2&#45;&gt;node3 -->
<g id="edge2" class="edge">
<title>node2&#45;&gt;node3</title>
<path fill="none" stroke="blue" d="M141.88,-112.55C141.88,-105.55 141.88,-97.1 141.88,-88.47"/>
<polygon fill="blue" stroke="blue" points="145.38,-88.64 141.88,-78.64 138.38,-88.64 145.38,-88.64"/>
</g>
</g>
</svg>
