<?xml version="1.0" encoding="UTF-8" standalone="no"?>
<!DOCTYPE svg PUBLIC "-//W3C//DTD SVG 1.1//EN"
 "http://www.w3.org/Graphics/SVG/1.1/DTD/svg11.dtd">
<!-- Generated by graphviz version 12.2.0 (0)
 -->
<!-- Title: PDG Pages: 1 -->
<svg width="429pt" height="264pt"
 viewBox="0.00 0.00 429.12 263.50" xmlns="http://www.w3.org/2000/svg" xmlns:xlink="http://www.w3.org/1999/xlink">
<g id="graph0" class="graph" transform="scale(1 1) rotate(0) translate(4 259.5)">
<title>PDG</title>
<polygon fill="white" stroke="none" points="-4,4 -4,-259.5 425.12,-259.5 425.12,4 -4,4"/>
<!-- node0 -->
<g id="node1" class="node">
<title>node0</title>
<polygon fill="none" stroke="black" points="246.25,-255.5 37.5,-255.5 37.5,-219.5 246.25,-219.5 246.25,-255.5"/>
<text text-anchor="middle" x="141.88" y="-232.82" font-family="Times,serif" font-size="14.00">ENTRY: forLoopArray(int[])</text>
</g>
<!-- node2 -->
<g id="node3" class="node">
<title>node2</title>
<polygon fill="none" stroke="black" points="203.12,-166.25 80.62,-166.25 80.62,-130.25 203.12,-130.25 203.12,-166.25"/>
<text text-anchor="middle" x="141.88" y="-143.57" font-family="Times,serif" font-size="14.00">3: int sum = 0;</text>
</g>
<!-- node0&#45;&gt;node2 -->
<g id="edge1" class="edge">
<title>node0&#45;&gt;node2</title>
<path fill="none" stroke="blue" d="M141.88,-219.26C141.88,-207.43 141.88,-191.45 141.88,-177.75"/>
<polygon fill="blue" stroke="blue" points="145.38,-177.97 141.88,-167.97 138.38,-177.97 145.38,-177.97"/>
<text text-anchor="middle" x="154.25" y="-188.2" font-family="Times,serif" font-size="14.00">ctrl</text>
</g>
<!-- node1 -->
<g id="node2" class="node">
<title>node1</title>
<polygon fill="none" stroke="black" points="421.12,-166.25 226.62,-166.25 226.62,-130.25 421.12,-130.25 421.12,-166.25"/>
<text text-anchor="middle" x="323.88" y="-143.57" font-family="Times,serif" font-size="14.00">EXIT: forLoopArray(int[])</text>
</g>
<!-- node3 -->
<g id="node4" class="node">
<title>node3</title>
<polygon fill="none" stroke="black" points="283.75,-77 0,-77 0,0 283.75,0 283.75,-77"/>
<text text-anchor="middle" x="141.88" y="-59.7" font-family="Times,serif" font-size="14.00">4: for (int i = 0; i &lt; arr.length; i++) {</text>
<text text-anchor="middle" x="141.88" y="-42.45" font-family="Times,serif" font-size="14.00"> &#160;&#160;&#160;int value = arr[i];</text>
<text text-anchor="middle" x="141.88" y="-25.2" font-family="Times,serif" font-size="14.00"> &#160;&#160;&#160;sum = sum + value;</text>
<text text-anchor="middle" x="141.88" y="-7.95" font-family="Times,serif" font-size="14.00">}</text>
</g>
<!-- node2&#45;&gt;node3 -->
<g id="edge2" class="edge">
<title>node2&#45;&gt;node3</title>
<path fill="none" stroke="blue" d="M141.88,-129.94C141.88,-118.66 141.88,-103.32 141.88,-88.49"/>
<polygon fill="blue" stroke="blue" points="145.38,-88.83 141.88,-78.83 138.38,-88.83 145.38,-88.83"/>
<text text-anchor="middle" x="154.25" y="-98.95" font-family="Times,serif" font-size="14.00">ctrl</text>
</g>
<!-- node4 -->
<g id="node5" class="node">
<title>node4</title>
<polygon fill="none" stroke="black" points="383.25,-255.5 264.5,-255.5 264.5,-219.5 383.25,-219.5 383.25,-255.5"/>
<text text-anchor="middle" x="323.88" y="-232.82" font-family="Times,serif" font-size="14.00">8: return sum;</text>
</g>
<!-- node4&#45;&gt;node1 -->
<g id="edge3" class="edge">
<title>node4&#45;&gt;node1</title>
<path fill="none" stroke="blue" d="M323.88,-219.26C323.88,-207.43 323.88,-191.45 323.88,-177.75"/>
<polygon fill="blue" stroke="blue" points="327.38,-177.97 323.88,-167.97 320.38,-177.97 327.38,-177.97"/>
<text text-anchor="middle" x="336.25" y="-188.2" font-family="Times,serif" font-size="14.00">ctrl</text>
</g>
</g>
</svg>
