<?xml version="1.0" encoding="UTF-8" standalone="no"?>
<!DOCTYPE svg PUBLIC "-//W3C//DTD SVG 1.1//EN"
 "http://www.w3.org/Graphics/SVG/1.1/DTD/svg11.dtd">
<!-- Generated by graphviz version 12.2.0 (0)
 -->
<!-- Title: PDG Pages: 1 -->
<svg width="392pt" height="401pt"
 viewBox="0.00 0.00 391.56 401.00" xmlns="http://www.w3.org/2000/svg" xmlns:xlink="http://www.w3.org/1999/xlink">
<g id="graph0" class="graph" transform="scale(1 1) rotate(0) translate(4 397)">
<title>PDG</title>
<polygon fill="white" stroke="none" points="-4,4 -4,-397 387.56,-397 387.56,4 -4,4"/>
<!-- node0 -->
<g id="node1" class="node">
<title>node0</title>
<polygon fill="none" stroke="black" points="311.19,-393 102.44,-393 102.44,-357 311.19,-357 311.19,-393"/>
<text text-anchor="middle" x="206.81" y="-370.32" font-family="Times,serif" font-size="14.00">ENTRY: forLoopArray(int[])</text>
</g>
<!-- node1 -->
<g id="node2" class="node">
<title>node1</title>
<polygon fill="none" stroke="black" points="107.81,-214.5 7.81,-214.5 7.81,-178.5 107.81,-178.5 107.81,-214.5"/>
<text text-anchor="middle" x="57.81" y="-191.82" font-family="Times,serif" font-size="14.00">int sum = 0</text>
</g>
<!-- node0&#45;&gt;node1 -->
<g id="edge1" class="edge">
<title>node0&#45;&gt;node1</title>
<path fill="none" stroke="blue" d="M189.89,-356.78C176.35,-342.79 157.04,-322.4 141.06,-303.75 118.35,-277.24 93.88,-245.61 77.39,-223.79"/>
<polygon fill="blue" stroke="blue" points="80.35,-221.9 71.54,-216.01 74.75,-226.1 80.35,-221.9"/>
<text text-anchor="middle" x="153.44" y="-281.07" font-family="Times,serif" font-size="14.00">ctrl</text>
</g>
<!-- node2 -->
<g id="node3" class="node">
<title>node2</title>
<polygon fill="none" stroke="black" points="239.19,-303.75 174.44,-303.75 174.44,-267.75 239.19,-267.75 239.19,-303.75"/>
<text text-anchor="middle" x="206.81" y="-281.07" font-family="Times,serif" font-size="14.00">for (...)</text>
</g>
<!-- node0&#45;&gt;node2 -->
<g id="edge2" class="edge">
<title>node0&#45;&gt;node2</title>
<path fill="none" stroke="blue" d="M206.81,-356.76C206.81,-344.93 206.81,-328.95 206.81,-315.25"/>
<polygon fill="blue" stroke="blue" points="210.31,-315.47 206.81,-305.47 203.31,-315.47 210.31,-315.47"/>
<text text-anchor="middle" x="219.19" y="-325.7" font-family="Times,serif" font-size="14.00">ctrl</text>
</g>
<!-- node5 -->
<g id="node6" class="node">
<title>node5</title>
<polygon fill="none" stroke="black" points="211.94,-36 115.69,-36 115.69,0 211.94,0 211.94,-36"/>
<text text-anchor="middle" x="163.81" y="-13.32" font-family="Times,serif" font-size="14.00">return sum</text>
</g>
<!-- node0&#45;&gt;node5 -->
<g id="edge5" class="edge">
<title>node0&#45;&gt;node5</title>
<path fill="none" stroke="blue" d="M291.7,-356.57C326.52,-344 358.81,-322.65 358.81,-286.75 358.81,-286.75 358.81,-286.75 358.81,-106.25 358.81,-46.18 280.77,-27.2 223.43,-21.35"/>
<polygon fill="blue" stroke="blue" points="224.05,-17.9 213.77,-20.49 223.42,-24.87 224.05,-17.9"/>
<text text-anchor="middle" x="371.19" y="-191.82" font-family="Times,serif" font-size="14.00">ctrl</text>
</g>
<!-- node4 -->
<g id="node5" class="node">
<title>node4</title>
<polygon fill="none" stroke="black" points="241.94,-125.25 85.69,-125.25 85.69,-89.25 241.94,-89.25 241.94,-125.25"/>
<text text-anchor="middle" x="163.81" y="-102.58" font-family="Times,serif" font-size="14.00">sum = sum + value</text>
</g>
<!-- node1&#45;&gt;node4 -->
<g id="edge8" class="edge">
<title>node1&#45;&gt;node4</title>
<path fill="none" stroke="red" stroke-dasharray="5,2" d="M53.65,-178.36C52,-167.29 51.96,-153.16 59.31,-143.25 63.83,-137.16 69.46,-132.11 75.74,-127.94"/>
<polygon fill="red" stroke="red" points="77.11,-131.19 84.04,-123.18 73.62,-125.11 77.11,-131.19"/>
<text text-anchor="middle" x="94.56" y="-147.2" font-family="Times,serif" font-size="14.00">data: sum</text>
</g>
<!-- node1&#45;&gt;node5 -->
<g id="edge11" class="edge">
<title>node1&#45;&gt;node5</title>
<path fill="none" stroke="red" stroke-dasharray="5,2" d="M38.62,-178.24C16.97,-156.62 -12.88,-118.83 6.31,-89.25 27.93,-55.94 69.43,-38.28 104.41,-29.01"/>
<polygon fill="red" stroke="red" points="105.15,-32.43 114.03,-26.64 103.48,-25.63 105.15,-32.43"/>
<text text-anchor="middle" x="41.56" y="-102.58" font-family="Times,serif" font-size="14.00">data: sum</text>
</g>
<!-- node2&#45;&gt;node2 -->
<g id="edge6" class="edge">
<title>node2&#45;&gt;node2</title>
<path fill="none" stroke="red" stroke-dasharray="5,2" d="M239.27,-294.11C249.31,-293.94 257.19,-291.15 257.19,-285.75 257.19,-282.63 254.55,-280.38 250.39,-279"/>
<polygon fill="red" stroke="red" points="251.17,-275.58 240.77,-277.61 250.17,-282.51 251.17,-275.58"/>
<text text-anchor="middle" x="279.69" y="-281.07" font-family="Times,serif" font-size="14.00">data: i</text>
</g>
<!-- node3 -->
<g id="node4" class="node">
<title>node3</title>
<polygon fill="none" stroke="black" points="322.81,-214.5 186.81,-214.5 186.81,-178.5 322.81,-178.5 322.81,-214.5"/>
<text text-anchor="middle" x="254.81" y="-191.82" font-family="Times,serif" font-size="14.00">int value = arr[i]</text>
</g>
<!-- node2&#45;&gt;node3 -->
<g id="edge3" class="edge">
<title>node2&#45;&gt;node3</title>
<path fill="none" stroke="blue" d="M203.55,-267.34C202.41,-256.7 202.57,-243.15 208.06,-232.5 209.88,-228.97 212.24,-225.7 214.93,-222.69"/>
<polygon fill="blue" stroke="blue" points="217.21,-225.35 222.11,-215.96 212.42,-220.25 217.21,-225.35"/>
<text text-anchor="middle" x="220.44" y="-236.45" font-family="Times,serif" font-size="14.00">ctrl</text>
</g>
<!-- node2&#45;&gt;node3 -->
<g id="edge7" class="edge">
<title>node2&#45;&gt;node3</title>
<path fill="none" stroke="red" stroke-dasharray="5,2" d="M220.9,-267.51C225.03,-262.02 229.36,-255.8 232.81,-249.75 237.17,-242.11 241.17,-233.44 244.53,-225.38"/>
<polygon fill="red" stroke="red" points="247.68,-226.93 248.12,-216.34 241.17,-224.34 247.68,-226.93"/>
<text text-anchor="middle" x="263.7" y="-236.45" font-family="Times,serif" font-size="14.00">data: i</text>
</g>
<!-- node2&#45;&gt;node4 -->
<g id="edge4" class="edge">
<title>node2&#45;&gt;node4</title>
<path fill="none" stroke="blue" d="M188.22,-267.37C175.61,-254.24 160.01,-235.01 153.06,-214.5 144.44,-189.05 149.03,-158.35 154.63,-136.52"/>
<polygon fill="blue" stroke="blue" points="157.93,-137.71 157.27,-127.14 151.19,-135.82 157.93,-137.71"/>
<text text-anchor="middle" x="165.44" y="-191.82" font-family="Times,serif" font-size="14.00">ctrl</text>
</g>
<!-- node3&#45;&gt;node4 -->
<g id="edge10" class="edge">
<title>node3&#45;&gt;node4</title>
<path fill="none" stroke="red" stroke-dasharray="5,2" d="M236.83,-178.26C223.37,-165.36 204.77,-147.51 189.7,-133.07"/>
<polygon fill="red" stroke="red" points="192.49,-130.89 182.85,-126.5 187.64,-135.95 192.49,-130.89"/>
<text text-anchor="middle" x="256.84" y="-147.2" font-family="Times,serif" font-size="14.00">data: value</text>
</g>
<!-- node4&#45;&gt;node4 -->
<g id="edge9" class="edge">
<title>node4&#45;&gt;node4</title>
<path fill="none" stroke="red" stroke-dasharray="5,2" d="M242.26,-114.67C252.87,-113.43 259.94,-110.95 259.94,-107.25 259.94,-105.11 257.58,-103.38 253.53,-102.06"/>
<polygon fill="red" stroke="red" points="254.24,-98.63 243.75,-100.12 252.88,-105.5 254.24,-98.63"/>
<text text-anchor="middle" x="295.19" y="-102.58" font-family="Times,serif" font-size="14.00">data: sum</text>
</g>
<!-- node4&#45;&gt;node5 -->
<g id="edge12" class="edge">
<title>node4&#45;&gt;node5</title>
<path fill="none" stroke="red" stroke-dasharray="5,2" d="M163.81,-89.01C163.81,-77.18 163.81,-61.2 163.81,-47.5"/>
<polygon fill="red" stroke="red" points="167.31,-47.72 163.81,-37.72 160.31,-47.72 167.31,-47.72"/>
<text text-anchor="middle" x="199.06" y="-57.95" font-family="Times,serif" font-size="14.00">data: sum</text>
</g>
</g>
</svg>
