<?xml version="1.0" encoding="UTF-8" standalone="no"?>
<!DOCTYPE svg PUBLIC "-//W3C//DTD SVG 1.1//EN"
 "http://www.w3.org/Graphics/SVG/1.1/DTD/svg11.dtd">
<!-- Generated by graphviz version 12.2.0 (0)
 -->
<!-- Title: PDG Pages: 1 -->
<svg width="400pt" height="332pt"
 viewBox="0.00 0.00 399.62 332.00" xmlns="http://www.w3.org/2000/svg" xmlns:xlink="http://www.w3.org/1999/xlink">
<g id="graph0" class="graph" transform="scale(1 1) rotate(0) translate(4 328)">
<title>PDG</title>
<polygon fill="white" stroke="none" points="-4,4 -4,-328 395.62,-328 395.62,4 -4,4"/>
<!-- node0 -->
<g id="node1" class="node">
<title>node0</title>
<polygon fill="none" stroke="black" points="300.75,-324 92,-324 92,-288 300.75,-288 300.75,-324"/>
<text text-anchor="middle" x="196.38" y="-301.32" font-family="Times,serif" font-size="14.00">ENTRY: forLoopArray(int[])</text>
</g>
<!-- node2 -->
<g id="node3" class="node">
<title>node2</title>
<polygon fill="none" stroke="black" points="257.62,-252 135.12,-252 135.12,-216 257.62,-216 257.62,-252"/>
<text text-anchor="middle" x="196.38" y="-229.32" font-family="Times,serif" font-size="14.00">3: int sum = 0;</text>
</g>
<!-- node0&#45;&gt;node2 -->
<g id="edge2" class="edge">
<title>node0&#45;&gt;node2</title>
<path fill="none" stroke="blue" d="M196.38,-287.7C196.38,-280.41 196.38,-271.73 196.38,-263.54"/>
<polygon fill="blue" stroke="blue" points="199.88,-263.62 196.38,-253.62 192.88,-263.62 199.88,-263.62"/>
</g>
<!-- node1 -->
<g id="node2" class="node">
<title>node1</title>
<polygon fill="none" stroke="black" points="391.62,-36 197.12,-36 197.12,0 391.62,0 391.62,-36"/>
<text text-anchor="middle" x="294.38" y="-13.32" font-family="Times,serif" font-size="14.00">EXIT: forLoopArray(int[])</text>
</g>
<!-- node3 -->
<g id="node4" class="node">
<title>node3</title>
<polygon fill="none" stroke="black" points="329.25,-180 63.5,-180 63.5,-144 329.25,-144 329.25,-180"/>
<text text-anchor="middle" x="196.38" y="-157.32" font-family="Times,serif" font-size="14.00">for (int i = 0; i &lt; arr.length; i++) {</text>
</g>
<!-- node2&#45;&gt;node3 -->
<g id="edge3" class="edge">
<title>node2&#45;&gt;node3</title>
<path fill="none" stroke="blue" d="M196.38,-215.7C196.38,-208.41 196.38,-199.73 196.38,-191.54"/>
<polygon fill="blue" stroke="blue" points="199.88,-191.62 196.38,-181.62 192.88,-191.62 199.88,-191.62"/>
</g>
<!-- node4 -->
<g id="node5" class="node">
<title>node4</title>
<polygon fill="none" stroke="black" points="168.62,-108 10.12,-108 10.12,-72 168.62,-72 168.62,-108"/>
<text text-anchor="middle" x="89.38" y="-85.33" font-family="Times,serif" font-size="14.00">5: int value = arr[i];</text>
</g>
<!-- node3&#45;&gt;node4 -->
<g id="edge1" class="edge">
<title>node3&#45;&gt;node4</title>
<path fill="none" stroke="blue" d="M169.65,-143.52C156.14,-134.68 139.57,-123.84 125,-114.3"/>
<polygon fill="blue" stroke="blue" points="127.31,-111.63 117.03,-109.09 123.48,-117.49 127.31,-111.63"/>
</g>
<!-- node6 -->
<g id="node7" class="node">
<title>node6</title>
<polygon fill="none" stroke="black" points="347.75,-108 229,-108 229,-72 347.75,-72 347.75,-108"/>
<text text-anchor="middle" x="288.38" y="-85.33" font-family="Times,serif" font-size="14.00">8: return sum;</text>
</g>
<!-- node3&#45;&gt;node6 -->
<g id="edge4" class="edge">
<title>node3&#45;&gt;node6</title>
<path fill="none" stroke="blue" d="M219.12,-143.7C230.4,-135.11 244.21,-124.61 256.52,-115.24"/>
<polygon fill="blue" stroke="blue" points="258.53,-118.1 264.37,-109.26 254.29,-112.53 258.53,-118.1"/>
</g>
<!-- node5 -->
<g id="node6" class="node">
<title>node5</title>
<polygon fill="none" stroke="black" points="178.75,-36 0,-36 0,0 178.75,0 178.75,-36"/>
<text text-anchor="middle" x="89.38" y="-13.32" font-family="Times,serif" font-size="14.00">6: sum = sum + value;</text>
</g>
<!-- node4&#45;&gt;node5 -->
<g id="edge5" class="edge">
<title>node4&#45;&gt;node5</title>
<path fill="none" stroke="blue" d="M89.38,-71.7C89.38,-64.41 89.38,-55.73 89.38,-47.54"/>
<polygon fill="blue" stroke="blue" points="92.88,-47.62 89.38,-37.62 85.88,-47.62 92.88,-47.62"/>
</g>
<!-- node5&#45;&gt;node3 -->
<g id="edge6" class="edge">
<title>node5&#45;&gt;node3</title>
<path fill="none" stroke="blue" d="M133.3,-36.41C149.42,-44.88 166.4,-56.61 177.38,-72 189.87,-89.52 194.45,-113.58 195.99,-132.27"/>
<polygon fill="blue" stroke="blue" points="192.49,-132.35 196.54,-142.14 199.48,-131.96 192.49,-132.35"/>
</g>
<!-- node6&#45;&gt;node1 -->
<g id="edge7" class="edge">
<title>node6&#45;&gt;node1</title>
<path fill="none" stroke="blue" d="M289.86,-71.7C290.48,-64.41 291.23,-55.73 291.93,-47.54"/>
<polygon fill="blue" stroke="blue" points="295.41,-47.87 292.78,-37.61 288.44,-47.28 295.41,-47.87"/>
</g>
</g>
</svg>
