<?xml version="1.0" encoding="UTF-8" standalone="no"?>
<!DOCTYPE svg PUBLIC "-//W3C//DTD SVG 1.1//EN"
 "http://www.w3.org/Graphics/SVG/1.1/DTD/svg11.dtd">
<!-- Generated by graphviz version 12.2.0 (0)
 -->
<!-- Title: PDG Pages: 1 -->
<svg width="447pt" height="764pt"
 viewBox="0.00 0.00 446.88 764.00" xmlns="http://www.w3.org/2000/svg" xmlns:xlink="http://www.w3.org/1999/xlink">
<g id="graph0" class="graph" transform="scale(1 1) rotate(0) translate(4 760)">
<title>PDG</title>
<polygon fill="white" stroke="none" points="-4,4 -4,-760 442.88,-760 442.88,4 -4,4"/>
<!-- node0 -->
<g id="node1" class="node">
<title>node0</title>
<polygon fill="none" stroke="black" points="437.88,-756 205.88,-756 205.88,-720 437.88,-720 437.88,-756"/>
<text text-anchor="middle" x="321.88" y="-733.33" font-family="Times,serif" font-size="14.00">ENTRY: loopWithContinue(int)</text>
</g>
<!-- node2 -->
<g id="node3" class="node">
<title>node2</title>
<polygon fill="none" stroke="black" points="389.12,-684 254.62,-684 254.62,-648 389.12,-648 389.12,-684"/>
<text text-anchor="middle" x="321.88" y="-661.33" font-family="Times,serif" font-size="14.00">3: int result = 1;</text>
</g>
<!-- node0&#45;&gt;node2 -->
<g id="edge6" class="edge">
<title>node0&#45;&gt;node2</title>
<path fill="none" stroke="blue" d="M321.88,-719.7C321.88,-712.41 321.88,-703.73 321.88,-695.54"/>
<polygon fill="blue" stroke="blue" points="325.38,-695.62 321.88,-685.62 318.38,-695.62 325.38,-695.62"/>
</g>
<!-- node1 -->
<g id="node2" class="node">
<title>node1</title>
<polygon fill="none" stroke="black" points="343.75,-396 126,-396 126,-360 343.75,-360 343.75,-396"/>
<text text-anchor="middle" x="234.88" y="-373.32" font-family="Times,serif" font-size="14.00">EXIT: loopWithContinue(int)</text>
</g>
<!-- node3 -->
<g id="node4" class="node">
<title>node3</title>
<polygon fill="none" stroke="black" points="370.38,-612 273.38,-612 273.38,-576 370.38,-576 370.38,-612"/>
<text text-anchor="middle" x="321.88" y="-589.33" font-family="Times,serif" font-size="14.00">4: int i = 1;</text>
</g>
<!-- node2&#45;&gt;node3 -->
<g id="edge7" class="edge">
<title>node2&#45;&gt;node3</title>
<path fill="none" stroke="blue" d="M321.88,-647.7C321.88,-640.41 321.88,-631.73 321.88,-623.54"/>
<polygon fill="blue" stroke="blue" points="325.38,-623.62 321.88,-613.62 318.38,-623.62 325.38,-623.62"/>
</g>
<!-- node4 -->
<g id="node5" class="node">
<title>node4</title>
<polygon fill="none" stroke="black" points="379.75,-540 264,-540 264,-504 379.75,-504 379.75,-540"/>
<text text-anchor="middle" x="321.88" y="-517.33" font-family="Times,serif" font-size="14.00">while (i &lt;= n)</text>
</g>
<!-- node3&#45;&gt;node4 -->
<g id="edge8" class="edge">
<title>node3&#45;&gt;node4</title>
<path fill="none" stroke="blue" d="M321.88,-575.7C321.88,-568.41 321.88,-559.73 321.88,-551.54"/>
<polygon fill="blue" stroke="blue" points="325.38,-551.62 321.88,-541.62 318.38,-551.62 325.38,-551.62"/>
</g>
<!-- node5 -->
<g id="node6" class="node">
<title>node5</title>
<polygon fill="none" stroke="black" points="163.75,-468 0,-468 0,-432 163.75,-432 163.75,-468"/>
<text text-anchor="middle" x="81.88" y="-445.32" font-family="Times,serif" font-size="14.00">6: result = result * i;</text>
</g>
<!-- node4&#45;&gt;node5 -->
<g id="edge5" class="edge">
<title>node4&#45;&gt;node5</title>
<path fill="none" stroke="blue" d="M263.78,-504.05C230.21,-494.26 187.74,-481.88 152.29,-471.54"/>
<polygon fill="blue" stroke="blue" points="153.56,-468.26 142.98,-468.82 151.6,-474.98 153.56,-468.26"/>
</g>
<!-- node15 -->
<g id="node16" class="node">
<title>node15</title>
<polygon fill="none" stroke="black" points="323.75,-468 184,-468 184,-432 323.75,-432 323.75,-468"/>
<text text-anchor="middle" x="253.88" y="-445.32" font-family="Times,serif" font-size="14.00">21: return result;</text>
</g>
<!-- node4&#45;&gt;node15 -->
<g id="edge9" class="edge">
<title>node4&#45;&gt;node15</title>
<path fill="none" stroke="blue" d="M305.07,-503.7C297,-495.39 287.17,-485.28 278.3,-476.14"/>
<polygon fill="blue" stroke="blue" points="281.02,-473.92 271.55,-469.19 276,-478.8 281.02,-473.92"/>
</g>
<!-- node6 -->
<g id="node7" class="node">
<title>node6</title>
<polygon fill="none" stroke="black" points="107.5,-396 14.25,-396 14.25,-360 107.5,-360 107.5,-396"/>
<text text-anchor="middle" x="60.88" y="-373.32" font-family="Times,serif" font-size="14.00">if (i &gt; 100)</text>
</g>
<!-- node5&#45;&gt;node6 -->
<g id="edge10" class="edge">
<title>node5&#45;&gt;node6</title>
<path fill="none" stroke="blue" d="M76.68,-431.7C74.45,-424.24 71.77,-415.32 69.26,-406.97"/>
<polygon fill="blue" stroke="blue" points="72.67,-406.13 66.44,-397.55 65.96,-408.14 72.67,-406.13"/>
</g>
<!-- node7 -->
<g id="node8" class="node">
<title>node7</title>
<polygon fill="none" stroke="black" points="331.88,-324 231.88,-324 231.88,-288 331.88,-288 331.88,-324"/>
<text text-anchor="middle" x="281.88" y="-301.32" font-family="Times,serif" font-size="14.00">8: continue;</text>
</g>
<!-- node6&#45;&gt;node7 -->
<g id="edge1" class="edge">
<title>node6&#45;&gt;node7</title>
<path fill="none" stroke="blue" d="M107.74,-362.15C140.7,-351.72 185.11,-337.65 220.83,-326.34"/>
<polygon fill="blue" stroke="blue" points="221.7,-329.73 230.17,-323.38 219.58,-323.06 221.7,-329.73"/>
</g>
<!-- node8 -->
<g id="node9" class="node">
<title>node8</title>
<polygon fill="none" stroke="black" points="163.62,-324 56.12,-324 56.12,-288 163.62,-288 163.62,-324"/>
<text text-anchor="middle" x="109.88" y="-301.32" font-family="Times,serif" font-size="14.00">10: i = i + 1;</text>
</g>
<!-- node6&#45;&gt;node8 -->
<g id="edge4" class="edge">
<title>node6&#45;&gt;node8</title>
<path fill="none" stroke="blue" d="M72.99,-359.7C78.57,-351.73 85.31,-342.1 91.49,-333.26"/>
<polygon fill="blue" stroke="blue" points="94.17,-335.54 97.03,-325.34 88.43,-331.53 94.17,-335.54"/>
</g>
<!-- node7&#45;&gt;node4 -->
<g id="edge11" class="edge">
<title>node7&#45;&gt;node4</title>
<path fill="none" stroke="blue" d="M317.41,-324.29C331.12,-332.96 345.29,-344.87 352.88,-360 374.63,-403.4 353.64,-460.42 337.21,-493.66"/>
<polygon fill="blue" stroke="blue" points="334.26,-491.74 332.78,-502.23 340.48,-494.95 334.26,-491.74"/>
</g>
<!-- node9 -->
<g id="node10" class="node">
<title>node9</title>
<polygon fill="none" stroke="black" points="259.88,-252 153.88,-252 153.88,-216 259.88,-216 259.88,-252"/>
<text text-anchor="middle" x="206.88" y="-229.32" font-family="Times,serif" font-size="14.00">11: int j = 5;</text>
</g>
<!-- node8&#45;&gt;node9 -->
<g id="edge12" class="edge">
<title>node8&#45;&gt;node9</title>
<path fill="none" stroke="blue" d="M133.85,-287.7C145.86,-279.03 160.59,-268.4 173.67,-258.96"/>
<polygon fill="blue" stroke="blue" points="175.55,-261.92 181.61,-253.23 171.45,-256.25 175.55,-261.92"/>
</g>
<!-- node10 -->
<g id="node11" class="node">
<title>node10</title>
<polygon fill="none" stroke="black" points="285.25,-180 154.5,-180 154.5,-144 285.25,-144 285.25,-180"/>
<text text-anchor="middle" x="219.88" y="-157.32" font-family="Times,serif" font-size="14.00">while (j &lt; 1000)</text>
</g>
<!-- node9&#45;&gt;node10 -->
<g id="edge13" class="edge">
<title>node9&#45;&gt;node10</title>
<path fill="none" stroke="blue" d="M210.09,-215.7C211.46,-208.32 213.09,-199.52 214.63,-191.25"/>
<polygon fill="blue" stroke="blue" points="218.04,-192.06 216.42,-181.59 211.15,-190.79 218.04,-192.06"/>
</g>
<!-- node11 -->
<g id="node12" class="node">
<title>node11</title>
<polygon fill="none" stroke="black" points="276.62,-108 163.12,-108 163.12,-72 276.62,-72 276.62,-108"/>
<text text-anchor="middle" x="219.88" y="-85.33" font-family="Times,serif" font-size="14.00">if (i * j &gt; 404)</text>
</g>
<!-- node10&#45;&gt;node11 -->
<g id="edge3" class="edge">
<title>node10&#45;&gt;node11</title>
<path fill="none" stroke="blue" d="M219.88,-143.7C219.88,-136.41 219.88,-127.73 219.88,-119.54"/>
<polygon fill="blue" stroke="blue" points="223.38,-119.62 219.88,-109.62 216.38,-119.62 223.38,-119.62"/>
</g>
<!-- node14 -->
<g id="node15" class="node">
<title>node14</title>
<polygon fill="none" stroke="black" points="438.88,-108 356.88,-108 356.88,-72 438.88,-72 438.88,-108"/>
<text text-anchor="middle" x="397.88" y="-85.33" font-family="Times,serif" font-size="14.00">18: i &#45;= j;</text>
</g>
<!-- node10&#45;&gt;node14 -->
<g id="edge14" class="edge">
<title>node10&#45;&gt;node14</title>
<path fill="none" stroke="blue" d="M264.33,-143.52C289.13,-133.76 320.14,-121.57 346.04,-111.38"/>
<polygon fill="blue" stroke="blue" points="346.99,-114.77 355.02,-107.85 344.43,-108.26 346.99,-114.77"/>
</g>
<!-- node12 -->
<g id="node13" class="node">
<title>node12</title>
<polygon fill="none" stroke="black" points="211.38,-36 102.38,-36 102.38,0 211.38,0 211.38,-36"/>
<text text-anchor="middle" x="156.88" y="-13.32" font-family="Times,serif" font-size="14.00">14: continue;</text>
</g>
<!-- node11&#45;&gt;node12 -->
<g id="edge2" class="edge">
<title>node11&#45;&gt;node12</title>
<path fill="none" stroke="blue" d="M204.3,-71.7C196.9,-63.47 187.91,-53.48 179.75,-44.42"/>
<polygon fill="blue" stroke="blue" points="182.57,-42.32 173.28,-37.23 177.37,-47 182.57,-42.32"/>
</g>
<!-- node13 -->
<g id="node14" class="node">
<title>node13</title>
<polygon fill="none" stroke="black" points="347.62,-36 240.12,-36 240.12,0 347.62,0 347.62,-36"/>
<text text-anchor="middle" x="293.88" y="-13.32" font-family="Times,serif" font-size="14.00">16: j = j + 1;</text>
</g>
<!-- node11&#45;&gt;node13 -->
<g id="edge16" class="edge">
<title>node11&#45;&gt;node13</title>
<path fill="none" stroke="blue" d="M238.17,-71.7C246.97,-63.37 257.7,-53.22 267.37,-44.07"/>
<polygon fill="blue" stroke="blue" points="269.58,-46.8 274.44,-37.39 264.77,-41.72 269.58,-46.8"/>
</g>
<!-- node12&#45;&gt;node10 -->
<g id="edge15" class="edge">
<title>node12&#45;&gt;node10</title>
<path fill="none" stroke="blue" d="M151.74,-36.36C147.23,-55.04 142.91,-85.14 153.88,-108 159.32,-119.36 168.53,-129.06 178.36,-136.93"/>
<polygon fill="blue" stroke="blue" points="176.13,-139.64 186.26,-142.75 180.28,-134 176.13,-139.64"/>
</g>
<!-- node13&#45;&gt;node10 -->
<g id="edge17" class="edge">
<title>node13&#45;&gt;node10</title>
<path fill="none" stroke="blue" d="M296.14,-36.19C297.79,-54.99 297.97,-85.44 285.88,-108 279.87,-119.21 270.39,-128.89 260.46,-136.8"/>
<polygon fill="blue" stroke="blue" points="258.49,-133.91 252.52,-142.67 262.65,-139.54 258.49,-133.91"/>
</g>
<!-- node14&#45;&gt;node4 -->
<g id="edge18" class="edge">
<title>node14&#45;&gt;node4</title>
<path fill="none" stroke="blue" d="M400.3,-108.45C403.81,-135.2 409.88,-187.97 409.88,-233 409.88,-379 409.88,-379 409.88,-379 409.88,-425.58 375.23,-469.61 349.42,-495.95"/>
<polygon fill="blue" stroke="blue" points="347.14,-493.28 342.48,-502.8 352.06,-498.27 347.14,-493.28"/>
</g>
<!-- node15&#45;&gt;node1 -->
<g id="edge19" class="edge">
<title>node15&#45;&gt;node1</title>
<path fill="none" stroke="blue" d="M249.18,-431.7C247.15,-424.24 244.73,-415.32 242.47,-406.97"/>
<polygon fill="blue" stroke="blue" points="245.91,-406.3 239.91,-397.57 239.16,-408.13 245.91,-406.3"/>
</g>
</g>
</svg>
