<?xml version="1.0" encoding="UTF-8" standalone="no"?>
<!DOCTYPE svg PUBLIC "-//W3C//DTD SVG 1.1//EN"
 "http://www.w3.org/Graphics/SVG/1.1/DTD/svg11.dtd">
<!-- Generated by graphviz version 12.2.0 (0)
 -->
<!-- Title: PDG Pages: 1 -->
<svg width="948pt" height="993pt"
 viewBox="0.00 0.00 948.07 993.25" xmlns="http://www.w3.org/2000/svg" xmlns:xlink="http://www.w3.org/1999/xlink">
<g id="graph0" class="graph" transform="scale(1 1) rotate(0) translate(4 989.25)">
<title>PDG</title>
<polygon fill="white" stroke="none" points="-4,4 -4,-989.25 944.07,-989.25 944.07,4 -4,4"/>
<!-- node0 -->
<g id="node1" class="node">
<title>node0</title>
<polygon fill="none" stroke="black" points="584,-985.25 352,-985.25 352,-949.25 584,-949.25 584,-985.25"/>
<text text-anchor="middle" x="468" y="-962.58" font-family="Times,serif" font-size="14.00">ENTRY: loopWithContinue(int)</text>
</g>
<!-- node2 -->
<g id="node3" class="node">
<title>node2</title>
<polygon fill="none" stroke="black" points="535.25,-912.25 400.75,-912.25 400.75,-876.25 535.25,-876.25 535.25,-912.25"/>
<text text-anchor="middle" x="468" y="-889.58" font-family="Times,serif" font-size="14.00">3: int result = 1;</text>
</g>
<!-- node0&#45;&gt;node2 -->
<g id="edge6" class="edge">
<title>node0&#45;&gt;node2</title>
<path fill="none" stroke="blue" d="M468,-949.06C468,-941.48 468,-932.35 468,-923.79"/>
<polygon fill="blue" stroke="blue" points="471.5,-923.79 468,-913.79 464.5,-923.79 471.5,-923.79"/>
</g>
<!-- node1 -->
<g id="node2" class="node">
<title>node1</title>
<polygon fill="none" stroke="black" points="359.88,-482.25 142.12,-482.25 142.12,-446.25 359.88,-446.25 359.88,-482.25"/>
<text text-anchor="middle" x="251" y="-459.57" font-family="Times,serif" font-size="14.00">EXIT: loopWithContinue(int)</text>
</g>
<!-- node3 -->
<g id="node4" class="node">
<title>node3</title>
<polygon fill="none" stroke="black" points="516.5,-839.25 419.5,-839.25 419.5,-803.25 516.5,-803.25 516.5,-839.25"/>
<text text-anchor="middle" x="468" y="-816.58" font-family="Times,serif" font-size="14.00">4: int i = 1;</text>
</g>
<!-- node2&#45;&gt;node3 -->
<g id="edge7" class="edge">
<title>node2&#45;&gt;node3</title>
<path fill="none" stroke="blue" d="M468,-876.06C468,-868.48 468,-859.35 468,-850.79"/>
<polygon fill="blue" stroke="blue" points="471.5,-850.79 468,-840.79 464.5,-850.79 471.5,-850.79"/>
</g>
<!-- node5 -->
<g id="node6" class="node">
<title>node5</title>
<polygon fill="none" stroke="black" points="659.88,-660.75 496.12,-660.75 496.12,-624.75 659.88,-624.75 659.88,-660.75"/>
<text text-anchor="middle" x="578" y="-638.08" font-family="Times,serif" font-size="14.00">6: result = result * i;</text>
</g>
<!-- node2&#45;&gt;node5 -->
<g id="edge20" class="edge">
<title>node2&#45;&gt;node5</title>
<path fill="none" stroke="red" stroke-dasharray="5,2" d="M492.19,-875.92C503.96,-866.34 517.39,-853.5 526,-839.25 558.26,-785.85 570.79,-712.44 575.43,-672.49"/>
<polygon fill="red" stroke="red" points="578.89,-673.04 576.47,-662.73 571.93,-672.3 578.89,-673.04"/>
<text text-anchor="middle" x="576.95" y="-771.95" font-family="Times,serif" font-size="14.00">result</text>
</g>
<!-- node15 -->
<g id="node16" class="node">
<title>node15</title>
<polygon fill="none" stroke="black" points="312.88,-571.5 173.12,-571.5 173.12,-535.5 312.88,-535.5 312.88,-571.5"/>
<text text-anchor="middle" x="243" y="-548.83" font-family="Times,serif" font-size="14.00">21: return result;</text>
</g>
<!-- node2&#45;&gt;node15 -->
<g id="edge21" class="edge">
<title>node2&#45;&gt;node15</title>
<path fill="none" stroke="red" stroke-dasharray="5,2" d="M400.45,-889.87C270.85,-882.49 0,-862.26 0,-822.25 0,-822.25 0,-822.25 0,-686.38 0,-611.2 90.96,-578.65 161.57,-564.7"/>
<polygon fill="red" stroke="red" points="162.04,-568.18 171.23,-562.9 160.75,-561.3 162.04,-568.18"/>
<text text-anchor="middle" x="21" y="-727.33" font-family="Times,serif" font-size="14.00">result</text>
</g>
<!-- node4 -->
<g id="node5" class="node">
<title>node4</title>
<polygon fill="none" stroke="black" points="432.88,-750 317.12,-750 317.12,-714 432.88,-714 432.88,-750"/>
<text text-anchor="middle" x="375" y="-727.33" font-family="Times,serif" font-size="14.00">while (i &lt;= n)</text>
</g>
<!-- node3&#45;&gt;node4 -->
<g id="edge8" class="edge">
<title>node3&#45;&gt;node4</title>
<path fill="none" stroke="blue" d="M449.63,-803.01C435.87,-790.11 416.85,-772.26 401.46,-757.82"/>
<polygon fill="blue" stroke="blue" points="404.13,-755.53 394.44,-751.24 399.34,-760.63 404.13,-755.53"/>
</g>
<!-- node3&#45;&gt;node4 -->
<g id="edge23" class="edge">
<title>node3&#45;&gt;node4</title>
<path fill="none" stroke="red" stroke-dasharray="5,2" d="M428.38,-802.85C419.88,-797.95 411.39,-792.07 404.5,-785.25 397.34,-778.16 391.38,-768.98 386.74,-760.29"/>
<polygon fill="red" stroke="red" points="389.95,-758.9 382.4,-751.47 383.67,-761.99 389.95,-758.9"/>
<text text-anchor="middle" x="406.75" y="-771.95" font-family="Times,serif" font-size="14.00">i</text>
</g>
<!-- node3&#45;&gt;node5 -->
<g id="edge24" class="edge">
<title>node3&#45;&gt;node5</title>
<path fill="none" stroke="red" stroke-dasharray="5,2" d="M478.75,-803.01C497.97,-772.16 538.36,-707.35 561.25,-670.63"/>
<polygon fill="red" stroke="red" points="564.09,-672.69 566.41,-662.35 558.15,-668.98 564.09,-672.69"/>
<text text-anchor="middle" x="536.18" y="-727.33" font-family="Times,serif" font-size="14.00">i</text>
</g>
<!-- node6 -->
<g id="node7" class="node">
<title>node6</title>
<polygon fill="none" stroke="black" points="598.62,-571.5 505.38,-571.5 505.38,-535.5 598.62,-535.5 598.62,-571.5"/>
<text text-anchor="middle" x="552" y="-548.83" font-family="Times,serif" font-size="14.00">if (i &gt; 100)</text>
</g>
<!-- node3&#45;&gt;node6 -->
<g id="edge25" class="edge">
<title>node3&#45;&gt;node6</title>
<path fill="none" stroke="red" stroke-dasharray="5,2" d="M466.11,-802.85C463.02,-767.51 459.71,-685.58 487,-624.75 494.76,-607.46 508.5,-591.64 521.35,-579.4"/>
<polygon fill="red" stroke="red" points="523.44,-582.24 528.48,-572.92 518.73,-577.06 523.44,-582.24"/>
<text text-anchor="middle" x="472.77" y="-682.7" font-family="Times,serif" font-size="14.00">i</text>
</g>
<!-- node8 -->
<g id="node9" class="node">
<title>node8</title>
<polygon fill="none" stroke="black" points="688.75,-482.25 581.25,-482.25 581.25,-446.25 688.75,-446.25 688.75,-482.25"/>
<text text-anchor="middle" x="635" y="-459.57" font-family="Times,serif" font-size="14.00">10: i = i + 1;</text>
</g>
<!-- node3&#45;&gt;node8 -->
<g id="edge26" class="edge">
<title>node3&#45;&gt;node8</title>
<path fill="none" stroke="red" stroke-dasharray="5,2" d="M516.91,-802.95C583.91,-777.74 696,-729.42 696,-688.38 696,-688.38 696,-688.38 696,-552.5 696,-528.42 680.2,-506.25 664.68,-490.28"/>
<polygon fill="red" stroke="red" points="667.38,-488.03 657.76,-483.58 662.51,-493.05 667.38,-488.03"/>
<text text-anchor="middle" x="698.25" y="-638.08" font-family="Times,serif" font-size="14.00">i</text>
</g>
<!-- node11 -->
<g id="node12" class="node">
<title>node11</title>
<polygon fill="none" stroke="black" points="880.75,-214.5 767.25,-214.5 767.25,-178.5 880.75,-178.5 880.75,-214.5"/>
<text text-anchor="middle" x="824" y="-191.82" font-family="Times,serif" font-size="14.00">if (i * j &gt; 404)</text>
</g>
<!-- node3&#45;&gt;node11 -->
<g id="edge27" class="edge">
<title>node3&#45;&gt;node11</title>
<path fill="none" stroke="red" stroke-dasharray="5,2" d="M517,-819.48C621.74,-816.5 858,-802.12 858,-733 858,-733 858,-733 858,-284.75 858,-263.48 849.12,-241.16 840.43,-224.42"/>
<polygon fill="red" stroke="red" points="843.75,-223.18 835.86,-216.1 837.61,-226.55 843.75,-223.18"/>
<text text-anchor="middle" x="860.25" y="-504.2" font-family="Times,serif" font-size="14.00">i</text>
</g>
<!-- node14 -->
<g id="node15" class="node">
<title>node14</title>
<polygon fill="none" stroke="black" points="622,-303.75 540,-303.75 540,-267.75 622,-267.75 622,-303.75"/>
<text text-anchor="middle" x="581" y="-281.07" font-family="Times,serif" font-size="14.00">18: i &#45;= j;</text>
</g>
<!-- node3&#45;&gt;node14 -->
<g id="edge28" class="edge">
<title>node3&#45;&gt;node14</title>
<path fill="none" stroke="red" stroke-dasharray="5,2" d="M419.09,-817.55C306.39,-808.44 38,-768.9 38,-599.12 38,-599.12 38,-599.12 38,-374 38,-344.48 52.92,-335.58 79,-321.75 117.94,-301.1 407.37,-291.26 528.22,-288.02"/>
<polygon fill="red" stroke="red" points="528.3,-291.52 538.21,-287.75 528.12,-284.52 528.3,-291.52"/>
<text text-anchor="middle" x="40.25" y="-548.83" font-family="Times,serif" font-size="14.00">i</text>
</g>
<!-- node4&#45;&gt;node5 -->
<g id="edge5" class="edge">
<title>node4&#45;&gt;node5</title>
<path fill="none" stroke="blue" d="M430.61,-713.57C445.83,-708.36 462.2,-702.33 477,-696 497.28,-687.33 519.09,-676.28 537.23,-666.58"/>
<polygon fill="blue" stroke="blue" points="538.72,-669.75 545.85,-661.92 535.39,-663.6 538.72,-669.75"/>
</g>
<!-- node4&#45;&gt;node15 -->
<g id="edge9" class="edge">
<title>node4&#45;&gt;node15</title>
<path fill="none" stroke="blue" d="M347.01,-713.51C340,-708.38 332.83,-702.41 327,-696 295.15,-661 269.35,-612.04 255.1,-581.85"/>
<polygon fill="blue" stroke="blue" points="258.39,-580.62 251.02,-573.01 252.03,-583.56 258.39,-580.62"/>
</g>
<!-- node5&#45;&gt;node6 -->
<g id="edge10" class="edge">
<title>node5&#45;&gt;node6</title>
<path fill="none" stroke="blue" d="M572.86,-624.51C569.3,-612.56 564.48,-596.38 560.37,-582.58"/>
<polygon fill="blue" stroke="blue" points="563.77,-581.74 557.56,-573.15 557.06,-583.74 563.77,-581.74"/>
</g>
<!-- node5&#45;&gt;node15 -->
<g id="edge22" class="edge">
<title>node5&#45;&gt;node15</title>
<path fill="none" stroke="red" stroke-dasharray="5,2" d="M495.65,-631.49C458.41,-625.85 414.08,-617.73 375,-606.75 346.68,-598.8 316.08,-586.9 291.48,-576.47"/>
<polygon fill="red" stroke="red" points="292.94,-573.29 282.37,-572.55 290.17,-579.72 292.94,-573.29"/>
<text text-anchor="middle" x="396" y="-593.45" font-family="Times,serif" font-size="14.00">result</text>
</g>
<!-- node7 -->
<g id="node8" class="node">
<title>node7</title>
<polygon fill="none" stroke="black" points="478,-482.25 378,-482.25 378,-446.25 478,-446.25 478,-482.25"/>
<text text-anchor="middle" x="428" y="-459.57" font-family="Times,serif" font-size="14.00">8: continue;</text>
</g>
<!-- node6&#45;&gt;node7 -->
<g id="edge1" class="edge">
<title>node6&#45;&gt;node7</title>
<path fill="none" stroke="blue" d="M527.2,-535.05C508.53,-521.92 482.72,-503.75 462.11,-489.25"/>
<polygon fill="blue" stroke="blue" points="464.18,-486.43 453.99,-483.54 460.15,-492.15 464.18,-486.43"/>
</g>
<!-- node6&#45;&gt;node8 -->
<g id="edge4" class="edge">
<title>node6&#45;&gt;node8</title>
<path fill="none" stroke="blue" d="M575.18,-535.28C581.86,-529.89 588.97,-523.72 595,-517.5 602.63,-509.64 610.16,-500.33 616.59,-491.77"/>
<polygon fill="blue" stroke="blue" points="619.37,-493.9 622.44,-483.76 613.72,-489.77 619.37,-493.9"/>
</g>
<!-- node7&#45;&gt;node4 -->
<g id="edge11" class="edge">
<title>node7&#45;&gt;node4</title>
<path fill="none" stroke="blue" d="M413.85,-482.4C396.04,-505.19 366.43,-547.49 355,-589.5 344.53,-628.01 355.11,-673.98 364.42,-702.84"/>
<polygon fill="blue" stroke="blue" points="361.11,-703.97 367.65,-712.3 367.73,-701.7 361.11,-703.97"/>
</g>
<!-- node8&#45;&gt;node4 -->
<g id="edge29" class="edge">
<title>node8&#45;&gt;node4</title>
<path fill="none" stroke="red" stroke-dasharray="5,2" d="M584.96,-482.69C556.53,-494.41 521.6,-512.01 496,-535.5 442.65,-584.44 404.16,-662.16 386.25,-703.32"/>
<polygon fill="red" stroke="red" points="383.14,-701.7 382.44,-712.28 389.58,-704.44 383.14,-701.7"/>
<text text-anchor="middle" x="451.04" y="-593.45" font-family="Times,serif" font-size="14.00">i</text>
</g>
<!-- node8&#45;&gt;node5 -->
<g id="edge30" class="edge">
<title>node8&#45;&gt;node5</title>
<path fill="none" stroke="red" stroke-dasharray="5,2" d="M631.5,-482.42C626.97,-503.62 618.43,-540.67 608,-571.5 603.17,-585.78 596.71,-601.24 591.02,-614"/>
<polygon fill="red" stroke="red" points="587.86,-612.5 586.91,-623.05 594.24,-615.4 587.86,-612.5"/>
<text text-anchor="middle" x="620.84" y="-548.83" font-family="Times,serif" font-size="14.00">i</text>
</g>
<!-- node8&#45;&gt;node6 -->
<g id="edge31" class="edge">
<title>node8&#45;&gt;node6</title>
<path fill="none" stroke="red" stroke-dasharray="5,2" d="M612.12,-482.53C605.52,-487.92 598.49,-494.08 592.5,-500.25 584.83,-508.15 577.23,-517.46 570.71,-526.02"/>
<polygon fill="red" stroke="red" points="567.91,-523.92 564.77,-534.03 573.54,-528.08 567.91,-523.92"/>
<text text-anchor="middle" x="594.75" y="-504.2" font-family="Times,serif" font-size="14.00">i</text>
</g>
<!-- node9 -->
<g id="node10" class="node">
<title>node9</title>
<polygon fill="none" stroke="black" points="768,-393 662,-393 662,-357 768,-357 768,-393"/>
<text text-anchor="middle" x="715" y="-370.32" font-family="Times,serif" font-size="14.00">11: int j = 5;</text>
</g>
<!-- node8&#45;&gt;node9 -->
<g id="edge12" class="edge">
<title>node8&#45;&gt;node9</title>
<path fill="none" stroke="blue" d="M650.81,-446.01C662.42,-433.35 678.39,-415.92 691.5,-401.63"/>
<polygon fill="blue" stroke="blue" points="694.03,-404.05 698.2,-394.32 688.87,-399.32 694.03,-404.05"/>
</g>
<!-- node8&#45;&gt;node11 -->
<g id="edge32" class="edge">
<title>node8&#45;&gt;node11</title>
<path fill="none" stroke="red" stroke-dasharray="5,2" d="M689.12,-448.84C719.18,-438.15 754.87,-420.56 777,-393 816.3,-344.05 823.58,-267.41 824.43,-226.13"/>
<polygon fill="red" stroke="red" points="827.93,-226.3 824.51,-216.27 820.93,-226.25 827.93,-226.3"/>
<text text-anchor="middle" x="813.52" y="-325.7" font-family="Times,serif" font-size="14.00">i</text>
</g>
<!-- node8&#45;&gt;node14 -->
<g id="edge33" class="edge">
<title>node8&#45;&gt;node14</title>
<path fill="none" stroke="red" stroke-dasharray="5,2" d="M634.52,-445.89C633.17,-418.37 628.08,-363.56 609,-321.75 607.71,-318.93 606.15,-316.13 604.42,-313.43"/>
<polygon fill="red" stroke="red" points="607.27,-311.4 598.56,-305.36 601.6,-315.51 607.27,-311.4"/>
<text text-anchor="middle" x="631.23" y="-370.32" font-family="Times,serif" font-size="14.00">i</text>
</g>
<!-- node10 -->
<g id="node11" class="node">
<title>node10</title>
<polygon fill="none" stroke="black" points="775.38,-36 644.62,-36 644.62,0 775.38,0 775.38,-36"/>
<text text-anchor="middle" x="710" y="-13.32" font-family="Times,serif" font-size="14.00">while (j &lt; 1000)</text>
</g>
<!-- node9&#45;&gt;node10 -->
<g id="edge13" class="edge">
<title>node9&#45;&gt;node10</title>
<path fill="none" stroke="blue" d="M701.35,-356.77C697.38,-351.28 693.24,-345.06 690,-339 662.13,-286.83 653.62,-272.68 643,-214.5 635.48,-173.29 626.83,-87.06 647,-54 649.39,-50.09 652.38,-46.58 655.76,-43.43"/>
<polygon fill="blue" stroke="blue" points="657.9,-46.2 663.63,-37.29 653.6,-40.68 657.9,-46.2"/>
</g>
<!-- node9&#45;&gt;node10 -->
<g id="edge39" class="edge">
<title>node9&#45;&gt;node10</title>
<path fill="none" stroke="red" stroke-dasharray="5,2" d="M708.46,-356.63C697.96,-327.67 677.75,-267.48 670.5,-214.5 662.93,-159.19 665.93,-143.27 680,-89.25 683.77,-74.76 690.06,-59.38 695.9,-46.72"/>
<polygon fill="red" stroke="red" points="699.03,-48.28 700.19,-37.75 692.72,-45.26 699.03,-48.28"/>
<text text-anchor="middle" x="672.75" y="-191.82" font-family="Times,serif" font-size="14.00">j</text>
</g>
<!-- node9&#45;&gt;node11 -->
<g id="edge40" class="edge">
<title>node9&#45;&gt;node11</title>
<path fill="none" stroke="red" stroke-dasharray="5,2" d="M736.49,-356.72C742.29,-351.42 748.26,-345.31 753,-339 784.75,-296.72 782.13,-279.68 806,-232.5 807.22,-230.08 808.5,-227.57 809.78,-225.06"/>
<polygon fill="red" stroke="red" points="812.84,-226.77 814.29,-216.27 806.61,-223.57 812.84,-226.77"/>
<text text-anchor="middle" x="792.28" y="-281.07" font-family="Times,serif" font-size="14.00">j</text>
</g>
<!-- node13 -->
<g id="node14" class="node">
<title>node13</title>
<polygon fill="none" stroke="black" points="796.75,-125.25 689.25,-125.25 689.25,-89.25 796.75,-89.25 796.75,-125.25"/>
<text text-anchor="middle" x="743" y="-102.58" font-family="Times,serif" font-size="14.00">16: j = j + 1;</text>
</g>
<!-- node9&#45;&gt;node13 -->
<g id="edge41" class="edge">
<title>node9&#45;&gt;node13</title>
<path fill="none" stroke="red" stroke-dasharray="5,2" d="M716.84,-356.56C721.57,-311.69 734.19,-191.88 740,-136.75"/>
<polygon fill="red" stroke="red" points="743.47,-137.22 741.03,-126.91 736.51,-136.49 743.47,-137.22"/>
<text text-anchor="middle" x="731.9" y="-236.45" font-family="Times,serif" font-size="14.00">j</text>
</g>
<!-- node9&#45;&gt;node14 -->
<g id="edge42" class="edge">
<title>node9&#45;&gt;node14</title>
<path fill="none" stroke="red" stroke-dasharray="5,2" d="M688.21,-356.55C667.85,-343.3 639.63,-324.92 617.25,-310.36"/>
<polygon fill="red" stroke="red" points="619.31,-307.52 609.02,-304.99 615.49,-313.38 619.31,-307.52"/>
<text text-anchor="middle" x="662.25" y="-325.7" font-family="Times,serif" font-size="14.00">j</text>
</g>
<!-- node10&#45;&gt;node11 -->
<g id="edge3" class="edge">
<title>node10&#45;&gt;node11</title>
<path fill="none" stroke="blue" d="M775.82,-20.02C827.79,-24.74 897.29,-40.56 933,-89.25 956.67,-121.53 914.18,-152.8 875.52,-172.97"/>
<polygon fill="blue" stroke="blue" points="874.02,-169.8 866.66,-177.42 877.16,-176.06 874.02,-169.8"/>
</g>
<!-- node10&#45;&gt;node14 -->
<g id="edge14" class="edge">
<title>node10&#45;&gt;node14</title>
<path fill="none" stroke="blue" d="M644.36,-28.4C629.35,-33.61 614.92,-41.64 605,-54 557.92,-112.66 566.76,-208.53 574.98,-256.1"/>
<polygon fill="blue" stroke="blue" points="571.53,-256.69 576.8,-265.89 578.41,-255.41 571.53,-256.69"/>
</g>
<!-- node12 -->
<g id="node13" class="node">
<title>node12</title>
<polygon fill="none" stroke="black" points="923.5,-125.25 814.5,-125.25 814.5,-89.25 923.5,-89.25 923.5,-125.25"/>
<text text-anchor="middle" x="869" y="-102.58" font-family="Times,serif" font-size="14.00">14: continue;</text>
</g>
<!-- node11&#45;&gt;node12 -->
<g id="edge2" class="edge">
<title>node11&#45;&gt;node12</title>
<path fill="none" stroke="blue" d="M832.89,-178.26C839.18,-166.07 847.73,-149.48 854.94,-135.51"/>
<polygon fill="blue" stroke="blue" points="857.96,-137.29 859.43,-126.8 851.74,-134.08 857.96,-137.29"/>
</g>
<!-- node11&#45;&gt;node13 -->
<g id="edge16" class="edge">
<title>node11&#45;&gt;node13</title>
<path fill="none" stroke="blue" d="M808,-178.26C796.24,-165.6 780.06,-148.17 766.79,-133.88"/>
<polygon fill="blue" stroke="blue" points="769.37,-131.51 760,-126.56 764.24,-136.27 769.37,-131.51"/>
</g>
<!-- node12&#45;&gt;node10 -->
<g id="edge15" class="edge">
<title>node12&#45;&gt;node10</title>
<path fill="none" stroke="blue" d="M837.21,-88.8C812.62,-75.31 778.36,-56.51 751.6,-41.83"/>
<polygon fill="blue" stroke="blue" points="753.52,-38.89 743.07,-37.14 750.15,-45.02 753.52,-38.89"/>
</g>
<!-- node13&#45;&gt;node10 -->
<g id="edge17" class="edge">
<title>node13&#45;&gt;node10</title>
<path fill="none" stroke="blue" d="M732.5,-88.84C729.47,-83.34 726.36,-77.16 724,-71.25 720.96,-63.63 718.37,-55.13 716.27,-47.23"/>
<polygon fill="blue" stroke="blue" points="719.72,-46.61 713.91,-37.74 712.92,-48.29 719.72,-46.61"/>
</g>
<!-- node13&#45;&gt;node10 -->
<g id="edge43" class="edge">
<title>node13&#45;&gt;node10</title>
<path fill="none" stroke="red" stroke-dasharray="5,2" d="M736.48,-89.01C731.92,-76.94 725.72,-60.56 720.47,-46.67"/>
<polygon fill="red" stroke="red" points="723.85,-45.73 717.04,-37.62 717.31,-48.21 723.85,-45.73"/>
<text text-anchor="middle" x="731.71" y="-57.95" font-family="Times,serif" font-size="14.00">j</text>
</g>
<!-- node13&#45;&gt;node11 -->
<g id="edge44" class="edge">
<title>node13&#45;&gt;node11</title>
<path fill="none" stroke="red" stroke-dasharray="5,2" d="M774.05,-125.67C781.46,-130.72 788.97,-136.68 795,-143.25 801.61,-150.45 807.28,-159.43 811.81,-167.9"/>
<polygon fill="red" stroke="red" points="808.67,-169.44 816.25,-176.83 814.93,-166.32 808.67,-169.44"/>
<text text-anchor="middle" x="809.78" y="-147.2" font-family="Times,serif" font-size="14.00">j</text>
</g>
<!-- node13&#45;&gt;node14 -->
<g id="edge45" class="edge">
<title>node13&#45;&gt;node14</title>
<path fill="none" stroke="red" stroke-dasharray="5,2" d="M734.12,-125.73C722.33,-147.92 699.93,-186.66 674,-214.5 657.56,-232.15 636.26,-248.6 618.2,-261.13"/>
<polygon fill="red" stroke="red" points="616.65,-257.96 610.34,-266.47 620.58,-263.75 616.65,-257.96"/>
<text text-anchor="middle" x="703.77" y="-191.82" font-family="Times,serif" font-size="14.00">j</text>
</g>
<!-- node14&#45;&gt;node4 -->
<g id="edge18" class="edge">
<title>node14&#45;&gt;node4</title>
<path fill="none" stroke="blue" d="M539.59,-287.38C429.53,-289.38 135.69,-297 100,-321.75 79,-336.31 76,-348.45 76,-374 76,-643.75 76,-643.75 76,-643.75 76,-671.95 87.96,-681.26 112,-696 143.51,-715.31 238.85,-724.17 305.62,-728.08"/>
<polygon fill="blue" stroke="blue" points="305.22,-731.57 315.4,-728.63 305.61,-724.58 305.22,-731.57"/>
</g>
<!-- node14&#45;&gt;node4 -->
<g id="edge34" class="edge">
<title>node14&#45;&gt;node4</title>
<path fill="none" stroke="red" stroke-dasharray="5,2" d="M539.73,-286.94C448.08,-289.87 228.18,-311.33 133,-446.25 59.79,-550.02 240.03,-661.59 328.93,-708.35"/>
<polygon fill="red" stroke="red" points="327.21,-711.4 337.7,-712.9 330.43,-705.19 327.21,-711.4"/>
<text text-anchor="middle" x="120.34" y="-504.2" font-family="Times,serif" font-size="14.00">i</text>
</g>
<!-- node14&#45;&gt;node5 -->
<g id="edge35" class="edge">
<title>node14&#45;&gt;node5</title>
<path fill="none" stroke="red" stroke-dasharray="5,2" d="M572.86,-304.03C554.64,-343.78 511,-445.23 496,-535.5 493.38,-551.28 489.31,-556.96 496,-571.5 504.71,-590.43 521.32,-606.17 537.33,-617.92"/>
<polygon fill="red" stroke="red" points="535.16,-620.68 545.37,-623.51 539.16,-614.93 535.16,-620.68"/>
<text text-anchor="middle" x="519.92" y="-459.57" font-family="Times,serif" font-size="14.00">i</text>
</g>
<!-- node14&#45;&gt;node6 -->
<g id="edge36" class="edge">
<title>node14&#45;&gt;node6</title>
<path fill="none" stroke="red" stroke-dasharray="5,2" d="M579.13,-303.91C574.27,-348.46 561.19,-468.25 555.15,-523.66"/>
<polygon fill="red" stroke="red" points="551.67,-523.24 554.07,-533.56 558.63,-524 551.67,-523.24"/>
<text text-anchor="middle" x="569.42" y="-414.95" font-family="Times,serif" font-size="14.00">i</text>
</g>
<!-- node14&#45;&gt;node8 -->
<g id="edge37" class="edge">
<title>node14&#45;&gt;node8</title>
<path fill="none" stroke="red" stroke-dasharray="5,2" d="M586.3,-304.06C595.63,-334.56 615.07,-398.12 626.37,-435.03"/>
<polygon fill="red" stroke="red" points="623.01,-436.02 629.28,-444.56 629.7,-433.97 623.01,-436.02"/>
<text text-anchor="middle" x="615.62" y="-370.32" font-family="Times,serif" font-size="14.00">i</text>
</g>
<!-- node14&#45;&gt;node11 -->
<g id="edge38" class="edge">
<title>node14&#45;&gt;node11</title>
<path fill="none" stroke="red" stroke-dasharray="5,2" d="M622.38,-280.27C656.33,-275.58 705.13,-266.48 745,-249.75 747.52,-248.69 768.81,-234.59 788.65,-221.3"/>
<polygon fill="red" stroke="red" points="790.57,-224.23 796.93,-215.75 786.67,-218.41 790.57,-224.23"/>
<text text-anchor="middle" x="772.74" y="-236.45" font-family="Times,serif" font-size="14.00">i</text>
</g>
<!-- node15&#45;&gt;node1 -->
<g id="edge19" class="edge">
<title>node15&#45;&gt;node1</title>
<path fill="none" stroke="blue" d="M244.58,-535.26C245.67,-523.43 247.13,-507.45 248.39,-493.75"/>
<polygon fill="blue" stroke="blue" points="251.86,-494.24 249.28,-483.96 244.89,-493.6 251.86,-494.24"/>
</g>
</g>
</svg>
