<?xml version="1.0" encoding="UTF-8" standalone="no"?>
<!DOCTYPE svg PUBLIC "-//W3C//DTD SVG 1.1//EN"
 "http://www.w3.org/Graphics/SVG/1.1/DTD/svg11.dtd">
<!-- Generated by graphviz version 12.2.0 (0)
 -->
<!-- Title: PDG Pages: 1 -->
<svg width="334pt" height="1026pt"
 viewBox="0.00 0.00 334.12 1025.75" xmlns="http://www.w3.org/2000/svg" xmlns:xlink="http://www.w3.org/1999/xlink">
<g id="graph0" class="graph" transform="scale(1 1) rotate(0) translate(4 1021.75)">
<title>PDG</title>
<polygon fill="white" stroke="none" points="-4,4 -4,-1021.75 330.12,-1021.75 330.12,4 -4,4"/>
<!-- node2 -->
<g id="node1" class="node">
<title>node2</title>
<polygon fill="none" stroke="black" points="314.62,-928.5 180.12,-928.5 180.12,-892.5 314.62,-892.5 314.62,-928.5"/>
<text text-anchor="middle" x="247.38" y="-905.83" font-family="Times,serif" font-size="14.00">3: int result = 1;</text>
</g>
<!-- node3 -->
<g id="node2" class="node">
<title>node3</title>
<polygon fill="none" stroke="black" points="295.88,-839.25 198.88,-839.25 198.88,-803.25 295.88,-803.25 295.88,-839.25"/>
<text text-anchor="middle" x="247.38" y="-816.58" font-family="Times,serif" font-size="14.00">4: int i = 1;</text>
</g>
<!-- node2&#45;&gt;node3 -->
<g id="edge7" class="edge">
<title>node2&#45;&gt;node3</title>
<path fill="none" stroke="blue" d="M247.38,-892.26C247.38,-880.43 247.38,-864.45 247.38,-850.75"/>
<polygon fill="blue" stroke="blue" points="250.88,-850.97 247.38,-840.97 243.88,-850.97 250.88,-850.97"/>
<text text-anchor="middle" x="259.75" y="-861.2" font-family="Times,serif" font-size="14.00">ctrl</text>
</g>
<!-- node4 -->
<g id="node3" class="node">
<title>node4</title>
<polygon fill="none" stroke="black" points="305.25,-750 189.5,-750 189.5,-714 305.25,-714 305.25,-750"/>
<text text-anchor="middle" x="247.38" y="-727.33" font-family="Times,serif" font-size="14.00">while (i &lt;= n)</text>
</g>
<!-- node3&#45;&gt;node4 -->
<g id="edge8" class="edge">
<title>node3&#45;&gt;node4</title>
<path fill="none" stroke="blue" d="M247.38,-803.01C247.38,-791.18 247.38,-775.2 247.38,-761.5"/>
<polygon fill="blue" stroke="blue" points="250.88,-761.72 247.38,-751.72 243.88,-761.72 250.88,-761.72"/>
<text text-anchor="middle" x="259.75" y="-771.95" font-family="Times,serif" font-size="14.00">ctrl</text>
</g>
<!-- node5 -->
<g id="node4" class="node">
<title>node5</title>
<polygon fill="none" stroke="black" points="219.25,-660.75 55.5,-660.75 55.5,-624.75 219.25,-624.75 219.25,-660.75"/>
<text text-anchor="middle" x="137.38" y="-638.08" font-family="Times,serif" font-size="14.00">6: result = result * i;</text>
</g>
<!-- node4&#45;&gt;node5 -->
<g id="edge5" class="edge">
<title>node4&#45;&gt;node5</title>
<path fill="none" stroke="blue" d="M225.38,-713.55C208.89,-700.48 186.13,-682.42 167.88,-667.95"/>
<polygon fill="blue" stroke="blue" points="170.53,-665.58 160.52,-662.11 166.18,-671.06 170.53,-665.58"/>
<text text-anchor="middle" x="214.6" y="-682.7" font-family="Times,serif" font-size="14.00">ctrl</text>
</g>
<!-- node15 -->
<g id="node13" class="node">
<title>node15</title>
<polygon fill="none" stroke="black" points="265.25,-393 125.5,-393 125.5,-357 265.25,-357 265.25,-393"/>
<text text-anchor="middle" x="195.38" y="-370.32" font-family="Times,serif" font-size="14.00">21: return result;</text>
</g>
<!-- node4&#45;&gt;node15 -->
<g id="edge9" class="edge">
<title>node4&#45;&gt;node15</title>
<path fill="none" stroke="blue" d="M247.38,-713.62C247.38,-696.01 247.38,-667.99 247.38,-643.75 247.38,-643.75 247.38,-643.75 247.38,-463.25 247.38,-440.19 233.8,-417.92 220.53,-401.65"/>
<polygon fill="blue" stroke="blue" points="223.45,-399.68 214.26,-394.41 218.16,-404.26 223.45,-399.68"/>
<text text-anchor="middle" x="259.75" y="-548.83" font-family="Times,serif" font-size="14.00">ctrl</text>
</g>
<!-- node6 -->
<g id="node5" class="node">
<title>node6</title>
<polygon fill="none" stroke="black" points="184,-571.5 90.75,-571.5 90.75,-535.5 184,-535.5 184,-571.5"/>
<text text-anchor="middle" x="137.38" y="-548.83" font-family="Times,serif" font-size="14.00">if (i &gt; 100)</text>
</g>
<!-- node5&#45;&gt;node6 -->
<g id="edge10" class="edge">
<title>node5&#45;&gt;node6</title>
<path fill="none" stroke="blue" d="M137.38,-624.51C137.38,-612.68 137.38,-596.7 137.38,-583"/>
<polygon fill="blue" stroke="blue" points="140.88,-583.22 137.38,-573.22 133.88,-583.22 140.88,-583.22"/>
<text text-anchor="middle" x="149.75" y="-593.45" font-family="Times,serif" font-size="14.00">ctrl</text>
</g>
<!-- node7 -->
<g id="node6" class="node">
<title>node7</title>
<polygon fill="none" stroke="black" points="216.88,-482.25 137.88,-482.25 137.88,-446.25 216.88,-446.25 216.88,-482.25"/>
<text text-anchor="middle" x="177.38" y="-459.57" font-family="Times,serif" font-size="14.00">8: break;</text>
</g>
<!-- node6&#45;&gt;node7 -->
<g id="edge1" class="edge">
<title>node6&#45;&gt;node7</title>
<path fill="none" stroke="blue" d="M145.28,-535.26C150.87,-523.07 158.47,-506.48 164.88,-492.51"/>
<polygon fill="blue" stroke="blue" points="167.87,-494.38 168.86,-483.83 161.51,-491.46 167.87,-494.38"/>
<text text-anchor="middle" x="173.33" y="-504.2" font-family="Times,serif" font-size="14.00">ctrl</text>
</g>
<!-- node8 -->
<g id="node7" class="node">
<title>node8</title>
<polygon fill="none" stroke="black" points="119.12,-482.25 11.62,-482.25 11.62,-446.25 119.12,-446.25 119.12,-482.25"/>
<text text-anchor="middle" x="65.38" y="-459.57" font-family="Times,serif" font-size="14.00">10: i = i + 1;</text>
</g>
<!-- node6&#45;&gt;node8 -->
<g id="edge4" class="edge">
<title>node6&#45;&gt;node8</title>
<path fill="none" stroke="blue" d="M123.15,-535.26C112.8,-522.71 98.59,-505.5 86.86,-491.28"/>
<polygon fill="blue" stroke="blue" points="89.6,-489.1 80.53,-483.62 84.2,-493.56 89.6,-489.1"/>
<text text-anchor="middle" x="120.2" y="-504.2" font-family="Times,serif" font-size="14.00">ctrl</text>
</g>
<!-- node7&#45;&gt;node15 -->
<g id="edge11" class="edge">
<title>node7&#45;&gt;node15</title>
<path fill="none" stroke="blue" d="M180.93,-446.01C183.4,-434.06 186.73,-417.88 189.58,-404.08"/>
<polygon fill="blue" stroke="blue" points="192.93,-405.19 191.52,-394.68 186.07,-403.77 192.93,-405.19"/>
<text text-anchor="middle" x="200.36" y="-414.95" font-family="Times,serif" font-size="14.00">ctrl</text>
</g>
<!-- node9 -->
<g id="node8" class="node">
<title>node9</title>
<polygon fill="none" stroke="black" points="107.38,-393 1.38,-393 1.38,-357 107.38,-357 107.38,-393"/>
<text text-anchor="middle" x="54.38" y="-370.32" font-family="Times,serif" font-size="14.00">11: int j = 5;</text>
</g>
<!-- node8&#45;&gt;node9 -->
<g id="edge12" class="edge">
<title>node8&#45;&gt;node9</title>
<path fill="none" stroke="blue" d="M63.2,-446.01C61.71,-434.18 59.7,-418.2 57.97,-404.5"/>
<polygon fill="blue" stroke="blue" points="61.46,-404.19 56.73,-394.7 54.51,-405.06 61.46,-404.19"/>
<text text-anchor="middle" x="73.24" y="-414.95" font-family="Times,serif" font-size="14.00">ctrl</text>
</g>
<!-- node10 -->
<g id="node9" class="node">
<title>node10</title>
<polygon fill="none" stroke="black" points="130.75,-303.75 0,-303.75 0,-267.75 130.75,-267.75 130.75,-303.75"/>
<text text-anchor="middle" x="65.38" y="-281.07" font-family="Times,serif" font-size="14.00">while (j &lt; 1000)</text>
</g>
<!-- node9&#45;&gt;node10 -->
<g id="edge13" class="edge">
<title>node9&#45;&gt;node10</title>
<path fill="none" stroke="blue" d="M56.55,-356.76C58.04,-344.93 60.05,-328.95 61.78,-315.25"/>
<polygon fill="blue" stroke="blue" points="65.24,-315.81 63.02,-305.45 58.29,-314.94 65.24,-315.81"/>
<text text-anchor="middle" x="73.24" y="-325.7" font-family="Times,serif" font-size="14.00">ctrl</text>
</g>
<!-- node11 -->
<g id="node10" class="node">
<title>node11</title>
<polygon fill="none" stroke="black" points="207.12,-214.5 93.62,-214.5 93.62,-178.5 207.12,-178.5 207.12,-214.5"/>
<text text-anchor="middle" x="150.38" y="-191.82" font-family="Times,serif" font-size="14.00">if (i * j &gt; 404)</text>
</g>
<!-- node10&#45;&gt;node11 -->
<g id="edge3" class="edge">
<title>node10&#45;&gt;node11</title>
<path fill="none" stroke="blue" d="M82.17,-267.51C94.63,-254.73 111.8,-237.09 125.8,-222.72"/>
<polygon fill="blue" stroke="blue" points="128.09,-225.39 132.56,-215.79 123.08,-220.51 128.09,-225.39"/>
<text text-anchor="middle" x="127.86" y="-236.45" font-family="Times,serif" font-size="14.00">ctrl</text>
</g>
<!-- node14 -->
<g id="node12" class="node">
<title>node14</title>
<polygon fill="none" stroke="black" points="182.38,-36 100.38,-36 100.38,0 182.38,0 182.38,-36"/>
<text text-anchor="middle" x="141.38" y="-13.32" font-family="Times,serif" font-size="14.00">18: i &#45;= j;</text>
</g>
<!-- node10&#45;&gt;node14 -->
<g id="edge14" class="edge">
<title>node10&#45;&gt;node14</title>
<path fill="none" stroke="blue" d="M64.44,-267.27C63.2,-232.15 63.55,-151.09 88.38,-89.25 94.88,-73.05 106.14,-57.32 116.61,-44.86"/>
<polygon fill="blue" stroke="blue" points="119.06,-47.37 123.02,-37.55 113.79,-42.76 119.06,-47.37"/>
<text text-anchor="middle" x="85.04" y="-147.2" font-family="Times,serif" font-size="14.00">ctrl</text>
</g>
<!-- node12 -->
<g id="node11" class="node">
<title>node12</title>
<polygon fill="none" stroke="black" points="185.38,-125.25 97.38,-125.25 97.38,-89.25 185.38,-89.25 185.38,-125.25"/>
<text text-anchor="middle" x="141.38" y="-102.58" font-family="Times,serif" font-size="14.00">14: break;</text>
</g>
<!-- node11&#45;&gt;node12 -->
<g id="edge2" class="edge">
<title>node11&#45;&gt;node12</title>
<path fill="none" stroke="blue" d="M148.6,-178.26C147.38,-166.43 145.73,-150.45 144.31,-136.75"/>
<polygon fill="blue" stroke="blue" points="147.81,-136.55 143.3,-126.96 140.85,-137.26 147.81,-136.55"/>
<text text-anchor="middle" x="159.06" y="-147.2" font-family="Times,serif" font-size="14.00">ctrl</text>
</g>
<!-- node13 -->
<g id="node15" class="node">
<title>node13</title>
<polygon fill="none" stroke="black" points="271.62,-125.25 203.12,-125.25 203.12,-89.25 271.62,-89.25 271.62,-125.25"/>
<text text-anchor="middle" x="237.38" y="-102.58" font-family="Times,serif" font-size="14.00">node13</text>
</g>
<!-- node11&#45;&gt;node13 -->
<g id="edge16" class="edge">
<title>node11&#45;&gt;node13</title>
<path fill="none" stroke="blue" d="M167.56,-178.26C180.31,-165.48 197.89,-147.84 212.22,-133.47"/>
<polygon fill="blue" stroke="blue" points="214.57,-136.08 219.15,-126.52 209.61,-131.13 214.57,-136.08"/>
<text text-anchor="middle" x="214.04" y="-147.2" font-family="Times,serif" font-size="14.00">ctrl</text>
</g>
<!-- node12&#45;&gt;node14 -->
<g id="edge15" class="edge">
<title>node12&#45;&gt;node14</title>
<path fill="none" stroke="blue" d="M141.38,-89.01C141.38,-77.18 141.38,-61.2 141.38,-47.5"/>
<polygon fill="blue" stroke="blue" points="144.88,-47.72 141.38,-37.72 137.88,-47.72 144.88,-47.72"/>
<text text-anchor="middle" x="153.75" y="-57.95" font-family="Times,serif" font-size="14.00">ctrl</text>
</g>
<!-- node14&#45;&gt;node4 -->
<g id="edge17" class="edge">
<title>node14&#45;&gt;node4</title>
<path fill="none" stroke="blue" d="M182.58,-23.58C229.99,-31.39 301.38,-52.15 301.38,-106.25 301.38,-643.75 301.38,-643.75 301.38,-643.75 301.38,-666.9 287.46,-689.02 273.76,-705.2"/>
<polygon fill="blue" stroke="blue" points="271.35,-702.65 267.27,-712.42 276.56,-707.33 271.35,-702.65"/>
<text text-anchor="middle" x="313.75" y="-370.32" font-family="Times,serif" font-size="14.00">ctrl</text>
</g>
<!-- node1 -->
<g id="node16" class="node">
<title>node1</title>
<polygon fill="none" stroke="black" points="225.12,-303.75 165.62,-303.75 165.62,-267.75 225.12,-267.75 225.12,-303.75"/>
<text text-anchor="middle" x="195.38" y="-281.07" font-family="Times,serif" font-size="14.00">node1</text>
</g>
<!-- node15&#45;&gt;node1 -->
<g id="edge18" class="edge">
<title>node15&#45;&gt;node1</title>
<path fill="none" stroke="blue" d="M195.38,-356.76C195.38,-344.93 195.38,-328.95 195.38,-315.25"/>
<polygon fill="blue" stroke="blue" points="198.88,-315.47 195.38,-305.47 191.88,-315.47 198.88,-315.47"/>
<text text-anchor="middle" x="207.75" y="-325.7" font-family="Times,serif" font-size="14.00">ctrl</text>
</g>
<!-- node0 -->
<g id="node14" class="node">
<title>node0</title>
<polygon fill="none" stroke="black" points="277.12,-1017.75 217.62,-1017.75 217.62,-981.75 277.12,-981.75 277.12,-1017.75"/>
<text text-anchor="middle" x="247.38" y="-995.08" font-family="Times,serif" font-size="14.00">node0</text>
</g>
<!-- node0&#45;&gt;node2 -->
<g id="edge6" class="edge">
<title>node0&#45;&gt;node2</title>
<path fill="none" stroke="blue" d="M247.38,-981.51C247.38,-969.68 247.38,-953.7 247.38,-940"/>
<polygon fill="blue" stroke="blue" points="250.88,-940.22 247.38,-930.22 243.88,-940.22 250.88,-940.22"/>
<text text-anchor="middle" x="259.75" y="-950.45" font-family="Times,serif" font-size="14.00">ctrl</text>
</g>
</g>
</svg>
