<?xml version="1.0" encoding="UTF-8" standalone="no"?>
<!DOCTYPE svg PUBLIC "-//W3C//DTD SVG 1.1//EN"
 "http://www.w3.org/Graphics/SVG/1.1/DTD/svg11.dtd">
<!-- Generated by graphviz version 12.2.0 (0)
 -->
<!-- Title: PDG Pages: 1 -->
<svg width="420pt" height="836pt"
 viewBox="0.00 0.00 420.12 836.00" xmlns="http://www.w3.org/2000/svg" xmlns:xlink="http://www.w3.org/1999/xlink">
<g id="graph0" class="graph" transform="scale(1 1) rotate(0) translate(4 832)">
<title>PDG</title>
<polygon fill="white" stroke="none" points="-4,4 -4,-832 416.12,-832 416.12,4 -4,4"/>
<!-- node0 -->
<g id="node1" class="node">
<title>node0</title>
<polygon fill="none" stroke="black" points="412.12,-828 202.62,-828 202.62,-792 412.12,-792 412.12,-828"/>
<text text-anchor="middle" x="307.38" y="-805.33" font-family="Times,serif" font-size="14.00">ENTRY: loopWithBreak(int)</text>
</g>
<!-- node2 -->
<g id="node3" class="node">
<title>node2</title>
<polygon fill="none" stroke="black" points="374.62,-756 240.12,-756 240.12,-720 374.62,-720 374.62,-756"/>
<text text-anchor="middle" x="307.38" y="-733.33" font-family="Times,serif" font-size="14.00">3: int result = 1;</text>
</g>
<!-- node0&#45;&gt;node2 -->
<g id="edge6" class="edge">
<title>node0&#45;&gt;node2</title>
<path fill="none" stroke="blue" d="M307.38,-791.7C307.38,-784.41 307.38,-775.73 307.38,-767.54"/>
<polygon fill="blue" stroke="blue" points="310.88,-767.62 307.38,-757.62 303.88,-767.62 310.88,-767.62"/>
</g>
<!-- node1 -->
<g id="node2" class="node">
<title>node1</title>
<polygon fill="none" stroke="black" points="344,-252 148.75,-252 148.75,-216 344,-216 344,-252"/>
<text text-anchor="middle" x="246.38" y="-229.32" font-family="Times,serif" font-size="14.00">EXIT: loopWithBreak(int)</text>
</g>
<!-- node3 -->
<g id="node4" class="node">
<title>node3</title>
<polygon fill="none" stroke="black" points="355.88,-684 258.88,-684 258.88,-648 355.88,-648 355.88,-684"/>
<text text-anchor="middle" x="307.38" y="-661.33" font-family="Times,serif" font-size="14.00">4: int i = 1;</text>
</g>
<!-- node2&#45;&gt;node3 -->
<g id="edge7" class="edge">
<title>node2&#45;&gt;node3</title>
<path fill="none" stroke="blue" d="M307.38,-719.7C307.38,-712.41 307.38,-703.73 307.38,-695.54"/>
<polygon fill="blue" stroke="blue" points="310.88,-695.62 307.38,-685.62 303.88,-695.62 310.88,-695.62"/>
</g>
<!-- node4 -->
<g id="node5" class="node">
<title>node4</title>
<polygon fill="none" stroke="black" points="365.25,-612 249.5,-612 249.5,-576 365.25,-576 365.25,-612"/>
<text text-anchor="middle" x="307.38" y="-589.33" font-family="Times,serif" font-size="14.00">while (i &lt;= n)</text>
</g>
<!-- node3&#45;&gt;node4 -->
<g id="edge8" class="edge">
<title>node3&#45;&gt;node4</title>
<path fill="none" stroke="blue" d="M307.38,-647.7C307.38,-640.41 307.38,-631.73 307.38,-623.54"/>
<polygon fill="blue" stroke="blue" points="310.88,-623.62 307.38,-613.62 303.88,-623.62 310.88,-623.62"/>
</g>
<!-- node5 -->
<g id="node6" class="node">
<title>node5</title>
<polygon fill="none" stroke="black" points="279.25,-540 115.5,-540 115.5,-504 279.25,-504 279.25,-540"/>
<text text-anchor="middle" x="197.38" y="-517.33" font-family="Times,serif" font-size="14.00">6: result = result * i;</text>
</g>
<!-- node4&#45;&gt;node5 -->
<g id="edge5" class="edge">
<title>node4&#45;&gt;node5</title>
<path fill="none" stroke="blue" d="M279.9,-575.52C266.02,-566.68 248.98,-555.84 233.99,-546.3"/>
<polygon fill="blue" stroke="blue" points="236.09,-543.49 225.78,-541.07 232.33,-549.39 236.09,-543.49"/>
</g>
<!-- node15 -->
<g id="node16" class="node">
<title>node15</title>
<polygon fill="none" stroke="black" points="316.25,-324 176.5,-324 176.5,-288 316.25,-288 316.25,-324"/>
<text text-anchor="middle" x="246.38" y="-301.32" font-family="Times,serif" font-size="14.00">21: return result;</text>
</g>
<!-- node4&#45;&gt;node15 -->
<g id="edge9" class="edge">
<title>node4&#45;&gt;node15</title>
<path fill="none" stroke="blue" d="M307.65,-575.78C307.76,-536.41 305.13,-437.23 278.38,-360 275.26,-351 270.47,-341.88 265.53,-333.81"/>
<polygon fill="blue" stroke="blue" points="268.52,-331.98 260.14,-325.49 262.64,-335.79 268.52,-331.98"/>
</g>
<!-- node6 -->
<g id="node7" class="node">
<title>node6</title>
<polygon fill="none" stroke="black" points="244,-468 150.75,-468 150.75,-432 244,-432 244,-468"/>
<text text-anchor="middle" x="197.38" y="-445.32" font-family="Times,serif" font-size="14.00">if (i &gt; 100)</text>
</g>
<!-- node5&#45;&gt;node6 -->
<g id="edge10" class="edge">
<title>node5&#45;&gt;node6</title>
<path fill="none" stroke="blue" d="M197.38,-503.7C197.38,-496.41 197.38,-487.73 197.38,-479.54"/>
<polygon fill="blue" stroke="blue" points="200.88,-479.62 197.38,-469.62 193.88,-479.62 200.88,-479.62"/>
</g>
<!-- node7 -->
<g id="node8" class="node">
<title>node7</title>
<polygon fill="none" stroke="black" points="268.88,-396 189.88,-396 189.88,-360 268.88,-360 268.88,-396"/>
<text text-anchor="middle" x="229.38" y="-373.32" font-family="Times,serif" font-size="14.00">8: break;</text>
</g>
<!-- node6&#45;&gt;node7 -->
<g id="edge1" class="edge">
<title>node6&#45;&gt;node7</title>
<path fill="none" stroke="blue" d="M205.29,-431.7C208.77,-424.07 212.96,-414.92 216.85,-406.4"/>
<polygon fill="blue" stroke="blue" points="219.95,-408.03 220.93,-397.48 213.59,-405.12 219.95,-408.03"/>
</g>
<!-- node8 -->
<g id="node9" class="node">
<title>node8</title>
<polygon fill="none" stroke="black" points="157.12,-396 49.62,-396 49.62,-360 157.12,-360 157.12,-396"/>
<text text-anchor="middle" x="103.38" y="-373.32" font-family="Times,serif" font-size="14.00">10: i = i + 1;</text>
</g>
<!-- node6&#45;&gt;node8 -->
<g id="edge4" class="edge">
<title>node6&#45;&gt;node8</title>
<path fill="none" stroke="blue" d="M174.14,-431.7C162.5,-423.03 148.23,-412.4 135.55,-402.96"/>
<polygon fill="blue" stroke="blue" points="137.99,-400.42 127.88,-397.25 133.81,-406.03 137.99,-400.42"/>
</g>
<!-- node7&#45;&gt;node15 -->
<g id="edge11" class="edge">
<title>node7&#45;&gt;node15</title>
<path fill="none" stroke="blue" d="M233.58,-359.7C235.37,-352.32 237.5,-343.52 239.51,-335.25"/>
<polygon fill="blue" stroke="blue" points="242.9,-336.12 241.86,-325.58 236.1,-334.47 242.9,-336.12"/>
</g>
<!-- node9 -->
<g id="node10" class="node">
<title>node9</title>
<polygon fill="none" stroke="black" points="138.38,-324 32.38,-324 32.38,-288 138.38,-288 138.38,-324"/>
<text text-anchor="middle" x="85.38" y="-301.32" font-family="Times,serif" font-size="14.00">11: int j = 5;</text>
</g>
<!-- node8&#45;&gt;node9 -->
<g id="edge12" class="edge">
<title>node8&#45;&gt;node9</title>
<path fill="none" stroke="blue" d="M98.93,-359.7C97.03,-352.32 94.77,-343.52 92.64,-335.25"/>
<polygon fill="blue" stroke="blue" points="96.03,-334.38 90.15,-325.57 89.25,-336.13 96.03,-334.38"/>
</g>
<!-- node10 -->
<g id="node11" class="node">
<title>node10</title>
<polygon fill="none" stroke="black" points="130.75,-252 0,-252 0,-216 130.75,-216 130.75,-252"/>
<text text-anchor="middle" x="65.38" y="-229.32" font-family="Times,serif" font-size="14.00">while (j &lt; 1000)</text>
</g>
<!-- node9&#45;&gt;node10 -->
<g id="edge13" class="edge">
<title>node9&#45;&gt;node10</title>
<path fill="none" stroke="blue" d="M80.43,-287.7C78.3,-280.24 75.75,-271.32 73.37,-262.97"/>
<polygon fill="blue" stroke="blue" points="76.79,-262.21 70.68,-253.56 70.06,-264.14 76.79,-262.21"/>
</g>
<!-- node11 -->
<g id="node12" class="node">
<title>node11</title>
<polygon fill="none" stroke="black" points="226.12,-180 112.62,-180 112.62,-144 226.12,-144 226.12,-180"/>
<text text-anchor="middle" x="169.38" y="-157.32" font-family="Times,serif" font-size="14.00">if (i * j &gt; 404)</text>
</g>
<!-- node10&#45;&gt;node11 -->
<g id="edge3" class="edge">
<title>node10&#45;&gt;node11</title>
<path fill="none" stroke="blue" d="M91.35,-215.52C104.35,-206.76 120.28,-196.04 134.35,-186.58"/>
<polygon fill="blue" stroke="blue" points="136.13,-189.59 142.48,-181.11 132.22,-183.79 136.13,-189.59"/>
</g>
<!-- node14 -->
<g id="node15" class="node">
<title>node14</title>
<polygon fill="none" stroke="black" points="285.38,-36 203.38,-36 203.38,0 285.38,0 285.38,-36"/>
<text text-anchor="middle" x="244.38" y="-13.32" font-family="Times,serif" font-size="14.00">18: i &#45;= j;</text>
</g>
<!-- node10&#45;&gt;node14 -->
<g id="edge14" class="edge">
<title>node10&#45;&gt;node14</title>
<path fill="none" stroke="blue" d="M59.28,-215.66C49.24,-183.7 33.35,-114.89 65.38,-72 80.6,-51.61 144.52,-36.29 191.65,-27.49"/>
<polygon fill="blue" stroke="blue" points="192.22,-30.95 201.44,-25.72 190.97,-24.06 192.22,-30.95"/>
</g>
<!-- node12 -->
<g id="node13" class="node">
<title>node12</title>
<polygon fill="none" stroke="black" points="288.38,-108 200.38,-108 200.38,-72 288.38,-72 288.38,-108"/>
<text text-anchor="middle" x="244.38" y="-85.33" font-family="Times,serif" font-size="14.00">14: break;</text>
</g>
<!-- node11&#45;&gt;node12 -->
<g id="edge2" class="edge">
<title>node11&#45;&gt;node12</title>
<path fill="none" stroke="blue" d="M187.91,-143.7C196.84,-135.37 207.71,-125.22 217.52,-116.07"/>
<polygon fill="blue" stroke="blue" points="219.76,-118.76 224.68,-109.38 214.98,-113.64 219.76,-118.76"/>
</g>
<!-- node13 -->
<g id="node14" class="node">
<title>node13</title>
<polygon fill="none" stroke="black" points="182.12,-108 74.62,-108 74.62,-72 182.12,-72 182.12,-108"/>
<text text-anchor="middle" x="128.38" y="-85.33" font-family="Times,serif" font-size="14.00">16: j = j + 1;</text>
</g>
<!-- node11&#45;&gt;node13 -->
<g id="edge16" class="edge">
<title>node11&#45;&gt;node13</title>
<path fill="none" stroke="blue" d="M159.24,-143.7C154.67,-135.9 149.17,-126.51 144.09,-117.83"/>
<polygon fill="blue" stroke="blue" points="147.23,-116.27 139.16,-109.41 141.19,-119.81 147.23,-116.27"/>
</g>
<!-- node12&#45;&gt;node14 -->
<g id="edge15" class="edge">
<title>node12&#45;&gt;node14</title>
<path fill="none" stroke="blue" d="M244.38,-71.7C244.38,-64.41 244.38,-55.73 244.38,-47.54"/>
<polygon fill="blue" stroke="blue" points="247.88,-47.62 244.38,-37.62 240.88,-47.62 247.88,-47.62"/>
</g>
<!-- node13&#45;&gt;node10 -->
<g id="edge17" class="edge">
<title>node13&#45;&gt;node10</title>
<path fill="none" stroke="blue" d="M120.11,-108.11C115.16,-118.46 108.79,-131.94 103.38,-144 94.24,-164.34 84.37,-187.5 76.97,-205.1"/>
<polygon fill="blue" stroke="blue" points="73.83,-203.55 73.2,-214.13 80.29,-206.25 73.83,-203.55"/>
</g>
<!-- node14&#45;&gt;node4 -->
<g id="edge18" class="edge">
<title>node14&#45;&gt;node4</title>
<path fill="none" stroke="blue" d="M276.67,-36.39C314.59,-59.44 372.38,-103.91 372.38,-161 372.38,-451 372.38,-451 372.38,-451 372.38,-494.47 346.89,-539.18 327.83,-566.53"/>
<polygon fill="blue" stroke="blue" points="325.05,-564.4 322.04,-574.56 330.73,-568.49 325.05,-564.4"/>
</g>
<!-- node15&#45;&gt;node1 -->
<g id="edge19" class="edge">
<title>node15&#45;&gt;node1</title>
<path fill="none" stroke="blue" d="M246.38,-287.7C246.38,-280.41 246.38,-271.73 246.38,-263.54"/>
<polygon fill="blue" stroke="blue" points="249.88,-263.62 246.38,-253.62 242.88,-263.62 249.88,-263.62"/>
</g>
</g>
</svg>
