<?xml version="1.0" encoding="UTF-8" standalone="no"?>
<!DOCTYPE svg PUBLIC "-//W3C//DTD SVG 1.1//EN"
 "http://www.w3.org/Graphics/SVG/1.1/DTD/svg11.dtd">
<!-- Generated by graphviz version 12.2.0 (0)
 -->
<!-- Title: PDG Pages: 1 -->
<svg width="440pt" height="937pt"
 viewBox="0.00 0.00 439.88 936.50" xmlns="http://www.w3.org/2000/svg" xmlns:xlink="http://www.w3.org/1999/xlink">
<g id="graph0" class="graph" transform="scale(1 1) rotate(0) translate(4 932.5)">
<title>PDG</title>
<polygon fill="white" stroke="none" points="-4,4 -4,-932.5 435.88,-932.5 435.88,4 -4,4"/>
<!-- node2 -->
<g id="node1" class="node">
<title>node2</title>
<polygon fill="none" stroke="black" points="165.25,-839.25 30.75,-839.25 30.75,-803.25 165.25,-803.25 165.25,-839.25"/>
<text text-anchor="middle" x="98" y="-816.58" font-family="Times,serif" font-size="14.00">3: int result = 1;</text>
</g>
<!-- node3 -->
<g id="node2" class="node">
<title>node3</title>
<polygon fill="none" stroke="black" points="146.5,-750 49.5,-750 49.5,-714 146.5,-714 146.5,-750"/>
<text text-anchor="middle" x="98" y="-727.33" font-family="Times,serif" font-size="14.00">4: int i = 1;</text>
</g>
<!-- node2&#45;&gt;node3 -->
<g id="edge7" class="edge">
<title>node2&#45;&gt;node3</title>
<path fill="none" stroke="blue" d="M98,-803.01C98,-791.18 98,-775.2 98,-761.5"/>
<polygon fill="blue" stroke="blue" points="101.5,-761.72 98,-751.72 94.5,-761.72 101.5,-761.72"/>
<text text-anchor="middle" x="110.38" y="-771.95" font-family="Times,serif" font-size="14.00">ctrl</text>
</g>
<!-- node4 -->
<g id="node3" class="node">
<title>node4</title>
<polygon fill="none" stroke="black" points="155.88,-660.75 40.12,-660.75 40.12,-624.75 155.88,-624.75 155.88,-660.75"/>
<text text-anchor="middle" x="98" y="-638.08" font-family="Times,serif" font-size="14.00">while (i &lt;= n)</text>
</g>
<!-- node3&#45;&gt;node4 -->
<g id="edge8" class="edge">
<title>node3&#45;&gt;node4</title>
<path fill="none" stroke="blue" d="M98,-713.76C98,-701.93 98,-685.95 98,-672.25"/>
<polygon fill="blue" stroke="blue" points="101.5,-672.47 98,-662.47 94.5,-672.47 101.5,-672.47"/>
<text text-anchor="middle" x="110.38" y="-682.7" font-family="Times,serif" font-size="14.00">ctrl</text>
</g>
<!-- node5 -->
<g id="node4" class="node">
<title>node5</title>
<polygon fill="none" stroke="black" points="273.88,-571.5 110.12,-571.5 110.12,-535.5 273.88,-535.5 273.88,-571.5"/>
<text text-anchor="middle" x="192" y="-548.83" font-family="Times,serif" font-size="14.00">6: result = result * i;</text>
</g>
<!-- node4&#45;&gt;node5 -->
<g id="edge5" class="edge">
<title>node4&#45;&gt;node5</title>
<path fill="none" stroke="blue" d="M116.57,-624.51C130.48,-611.61 149.7,-593.76 165.26,-579.32"/>
<polygon fill="blue" stroke="blue" points="167.41,-582.1 172.36,-572.73 162.65,-576.97 167.41,-582.1"/>
<text text-anchor="middle" x="165.79" y="-593.45" font-family="Times,serif" font-size="14.00">ctrl</text>
</g>
<!-- node15 -->
<g id="node13" class="node">
<title>node15</title>
<polygon fill="none" stroke="black" points="431.88,-571.5 292.12,-571.5 292.12,-535.5 431.88,-535.5 431.88,-571.5"/>
<text text-anchor="middle" x="362" y="-548.83" font-family="Times,serif" font-size="14.00">21: return result;</text>
</g>
<!-- node4&#45;&gt;node15 -->
<g id="edge9" class="edge">
<title>node4&#45;&gt;node15</title>
<path fill="none" stroke="blue" d="M150.79,-624.3C193.33,-610.25 253.28,-590.43 298.45,-575.5"/>
<polygon fill="blue" stroke="blue" points="299.47,-578.85 307.86,-572.39 297.27,-572.21 299.47,-578.85"/>
<text text-anchor="middle" x="266.02" y="-593.45" font-family="Times,serif" font-size="14.00">ctrl</text>
</g>
<!-- node6 -->
<g id="node5" class="node">
<title>node6</title>
<polygon fill="none" stroke="black" points="238.62,-482.25 145.38,-482.25 145.38,-446.25 238.62,-446.25 238.62,-482.25"/>
<text text-anchor="middle" x="192" y="-459.57" font-family="Times,serif" font-size="14.00">if (i &gt; 100)</text>
</g>
<!-- node5&#45;&gt;node6 -->
<g id="edge10" class="edge">
<title>node5&#45;&gt;node6</title>
<path fill="none" stroke="blue" d="M192,-535.26C192,-523.43 192,-507.45 192,-493.75"/>
<polygon fill="blue" stroke="blue" points="195.5,-493.97 192,-483.97 188.5,-493.97 195.5,-493.97"/>
<text text-anchor="middle" x="204.38" y="-504.2" font-family="Times,serif" font-size="14.00">ctrl</text>
</g>
<!-- node7 -->
<g id="node6" class="node">
<title>node7</title>
<polygon fill="none" stroke="black" points="176,-393 76,-393 76,-357 176,-357 176,-393"/>
<text text-anchor="middle" x="126" y="-370.32" font-family="Times,serif" font-size="14.00">8: continue;</text>
</g>
<!-- node6&#45;&gt;node7 -->
<g id="edge1" class="edge">
<title>node6&#45;&gt;node7</title>
<path fill="none" stroke="blue" d="M178.96,-446.01C169.47,-433.46 156.45,-416.25 145.69,-402.03"/>
<polygon fill="blue" stroke="blue" points="148.75,-400.27 139.93,-394.41 143.17,-404.5 148.75,-400.27"/>
<text text-anchor="middle" x="177.29" y="-414.95" font-family="Times,serif" font-size="14.00">ctrl</text>
</g>
<!-- node8 -->
<g id="node7" class="node">
<title>node8</title>
<polygon fill="none" stroke="black" points="301.75,-393 194.25,-393 194.25,-357 301.75,-357 301.75,-393"/>
<text text-anchor="middle" x="248" y="-370.32" font-family="Times,serif" font-size="14.00">10: i = i + 1;</text>
</g>
<!-- node6&#45;&gt;node8 -->
<g id="edge4" class="edge">
<title>node6&#45;&gt;node8</title>
<path fill="none" stroke="blue" d="M203.06,-446.01C210.96,-433.7 221.75,-416.91 230.77,-402.85"/>
<polygon fill="blue" stroke="blue" points="233.69,-404.78 236.14,-394.48 227.79,-401 233.69,-404.78"/>
<text text-anchor="middle" x="237.39" y="-414.95" font-family="Times,serif" font-size="14.00">ctrl</text>
</g>
<!-- node7&#45;&gt;node4 -->
<g id="edge11" class="edge">
<title>node7&#45;&gt;node4</title>
<path fill="none" stroke="blue" d="M122.58,-393.14C116.93,-422.26 105.81,-483.31 101,-535.5 98.58,-561.74 97.93,-591.76 97.82,-613.18"/>
<polygon fill="blue" stroke="blue" points="94.32,-612.89 97.82,-622.9 101.32,-612.9 94.32,-612.89"/>
<text text-anchor="middle" x="117.14" y="-504.2" font-family="Times,serif" font-size="14.00">ctrl</text>
</g>
<!-- node9 -->
<g id="node8" class="node">
<title>node9</title>
<polygon fill="none" stroke="black" points="266,-303.75 160,-303.75 160,-267.75 266,-267.75 266,-303.75"/>
<text text-anchor="middle" x="213" y="-281.07" font-family="Times,serif" font-size="14.00">11: int j = 5;</text>
</g>
<!-- node8&#45;&gt;node9 -->
<g id="edge12" class="edge">
<title>node8&#45;&gt;node9</title>
<path fill="none" stroke="blue" d="M241.09,-356.76C236.24,-344.69 229.67,-328.31 224.1,-314.42"/>
<polygon fill="blue" stroke="blue" points="227.44,-313.33 220.46,-305.36 220.94,-315.94 227.44,-313.33"/>
<text text-anchor="middle" x="246.01" y="-325.7" font-family="Times,serif" font-size="14.00">ctrl</text>
</g>
<!-- node10 -->
<g id="node9" class="node">
<title>node10</title>
<polygon fill="none" stroke="black" points="222.38,-214.5 91.62,-214.5 91.62,-178.5 222.38,-178.5 222.38,-214.5"/>
<text text-anchor="middle" x="157" y="-191.82" font-family="Times,serif" font-size="14.00">while (j &lt; 1000)</text>
</g>
<!-- node9&#45;&gt;node10 -->
<g id="edge13" class="edge">
<title>node9&#45;&gt;node10</title>
<path fill="none" stroke="blue" d="M201.94,-267.51C194.04,-255.2 183.25,-238.41 174.23,-224.35"/>
<polygon fill="blue" stroke="blue" points="177.21,-222.5 168.86,-215.98 171.31,-226.28 177.21,-222.5"/>
<text text-anchor="middle" x="202.39" y="-236.45" font-family="Times,serif" font-size="14.00">ctrl</text>
</g>
<!-- node11 -->
<g id="node10" class="node">
<title>node11</title>
<polygon fill="none" stroke="black" points="278.75,-125.25 165.25,-125.25 165.25,-89.25 278.75,-89.25 278.75,-125.25"/>
<text text-anchor="middle" x="222" y="-102.58" font-family="Times,serif" font-size="14.00">if (i * j &gt; 404)</text>
</g>
<!-- node10&#45;&gt;node11 -->
<g id="edge3" class="edge">
<title>node10&#45;&gt;node11</title>
<path fill="none" stroke="blue" d="M169.84,-178.26C179.19,-165.71 192.01,-148.5 202.61,-134.28"/>
<polygon fill="blue" stroke="blue" points="205.11,-136.78 208.28,-126.67 199.5,-132.59 205.11,-136.78"/>
<text text-anchor="middle" x="207.7" y="-147.2" font-family="Times,serif" font-size="14.00">ctrl</text>
</g>
<!-- node14 -->
<g id="node12" class="node">
<title>node14</title>
<polygon fill="none" stroke="black" points="82,-125.25 0,-125.25 0,-89.25 82,-89.25 82,-125.25"/>
<text text-anchor="middle" x="41" y="-102.58" font-family="Times,serif" font-size="14.00">18: i &#45;= j;</text>
</g>
<!-- node10&#45;&gt;node14 -->
<g id="edge14" class="edge">
<title>node10&#45;&gt;node14</title>
<path fill="none" stroke="blue" d="M112.21,-178.19C102.17,-173.26 91.94,-167.34 83.25,-160.5 74,-153.22 65.47,-143.55 58.54,-134.52"/>
<polygon fill="blue" stroke="blue" points="61.54,-132.7 52.82,-126.68 55.89,-136.82 61.54,-132.7"/>
<text text-anchor="middle" x="95.62" y="-147.2" font-family="Times,serif" font-size="14.00">ctrl</text>
</g>
<!-- node12 -->
<g id="node11" class="node">
<title>node12</title>
<polygon fill="none" stroke="black" points="176.5,-36 67.5,-36 67.5,0 176.5,0 176.5,-36"/>
<text text-anchor="middle" x="122" y="-13.32" font-family="Times,serif" font-size="14.00">14: continue;</text>
</g>
<!-- node11&#45;&gt;node12 -->
<g id="edge2" class="edge">
<title>node11&#45;&gt;node12</title>
<path fill="none" stroke="blue" d="M202.24,-89.01C187.31,-75.99 166.62,-57.93 149.99,-43.42"/>
<polygon fill="blue" stroke="blue" points="152.69,-41.13 142.86,-37.2 148.09,-46.41 152.69,-41.13"/>
<text text-anchor="middle" x="193.33" y="-57.95" font-family="Times,serif" font-size="14.00">ctrl</text>
</g>
<!-- node13 -->
<g id="node15" class="node">
<title>node13</title>
<polygon fill="none" stroke="black" points="263.25,-36 194.75,-36 194.75,0 263.25,0 263.25,-36"/>
<text text-anchor="middle" x="229" y="-13.32" font-family="Times,serif" font-size="14.00">node13</text>
</g>
<!-- node11&#45;&gt;node13 -->
<g id="edge16" class="edge">
<title>node11&#45;&gt;node13</title>
<path fill="none" stroke="blue" d="M223.38,-89.01C224.33,-77.18 225.61,-61.2 226.71,-47.5"/>
<polygon fill="blue" stroke="blue" points="230.19,-47.96 227.5,-37.71 223.21,-47.4 230.19,-47.96"/>
<text text-anchor="middle" x="238.5" y="-57.95" font-family="Times,serif" font-size="14.00">ctrl</text>
</g>
<!-- node12&#45;&gt;node10 -->
<g id="edge15" class="edge">
<title>node12&#45;&gt;node10</title>
<path fill="none" stroke="blue" d="M122.11,-36.14C122.55,-57.32 124.37,-94.34 131.25,-125.25 134.46,-139.67 139.9,-155.13 144.95,-167.87"/>
<polygon fill="blue" stroke="blue" points="141.61,-168.96 148.65,-176.88 148.09,-166.3 141.61,-168.96"/>
<text text-anchor="middle" x="143.62" y="-102.58" font-family="Times,serif" font-size="14.00">ctrl</text>
</g>
<!-- node14&#45;&gt;node4 -->
<g id="edge17" class="edge">
<title>node14&#45;&gt;node4</title>
<path fill="none" stroke="blue" d="M38.47,-125.59C36.12,-143.16 33,-171.16 33,-195.5 33,-554.5 33,-554.5 33,-554.5 33,-578.95 49.62,-600.98 66.05,-616.79"/>
<polygon fill="blue" stroke="blue" points="63.65,-619.34 73.41,-623.45 68.34,-614.15 63.65,-619.34"/>
<text text-anchor="middle" x="45.38" y="-370.32" font-family="Times,serif" font-size="14.00">ctrl</text>
</g>
<!-- node1 -->
<g id="node16" class="node">
<title>node1</title>
<polygon fill="none" stroke="black" points="391.75,-482.25 332.25,-482.25 332.25,-446.25 391.75,-446.25 391.75,-482.25"/>
<text text-anchor="middle" x="362" y="-459.57" font-family="Times,serif" font-size="14.00">node1</text>
</g>
<!-- node15&#45;&gt;node1 -->
<g id="edge18" class="edge">
<title>node15&#45;&gt;node1</title>
<path fill="none" stroke="blue" d="M362,-535.26C362,-523.43 362,-507.45 362,-493.75"/>
<polygon fill="blue" stroke="blue" points="365.5,-493.97 362,-483.97 358.5,-493.97 365.5,-493.97"/>
<text text-anchor="middle" x="374.38" y="-504.2" font-family="Times,serif" font-size="14.00">ctrl</text>
</g>
<!-- node0 -->
<g id="node14" class="node">
<title>node0</title>
<polygon fill="none" stroke="black" points="127.75,-928.5 68.25,-928.5 68.25,-892.5 127.75,-892.5 127.75,-928.5"/>
<text text-anchor="middle" x="98" y="-905.83" font-family="Times,serif" font-size="14.00">node0</text>
</g>
<!-- node0&#45;&gt;node2 -->
<g id="edge6" class="edge">
<title>node0&#45;&gt;node2</title>
<path fill="none" stroke="blue" d="M98,-892.26C98,-880.43 98,-864.45 98,-850.75"/>
<polygon fill="blue" stroke="blue" points="101.5,-850.97 98,-840.97 94.5,-850.97 101.5,-850.97"/>
<text text-anchor="middle" x="110.38" y="-861.2" font-family="Times,serif" font-size="14.00">ctrl</text>
</g>
</g>
</svg>
