<?xml version="1.0" encoding="UTF-8" standalone="no"?>
<!DOCTYPE svg PUBLIC "-//W3C//DTD SVG 1.1//EN"
 "http://www.w3.org/Graphics/SVG/1.1/DTD/svg11.dtd">
<!-- Generated by graphviz version 12.2.0 (0)
 -->
<!-- Title: PDG Pages: 1 -->
<svg width="670pt" height="993pt"
 viewBox="0.00 0.00 670.12 993.25" xmlns="http://www.w3.org/2000/svg" xmlns:xlink="http://www.w3.org/1999/xlink">
<g id="graph0" class="graph" transform="scale(1 1) rotate(0) translate(4 989.25)">
<title>PDG</title>
<polygon fill="white" stroke="none" points="-4,4 -4,-989.25 666.12,-989.25 666.12,4 -4,4"/>
<!-- node0 -->
<g id="node1" class="node">
<title>node0</title>
<polygon fill="none" stroke="black" points="375.38,-985.25 165.88,-985.25 165.88,-949.25 375.38,-949.25 375.38,-985.25"/>
<text text-anchor="middle" x="270.62" y="-962.58" font-family="Times,serif" font-size="14.00">ENTRY: loopWithBreak(int)</text>
</g>
<!-- node2 -->
<g id="node3" class="node">
<title>node2</title>
<polygon fill="none" stroke="black" points="337.88,-912.25 203.38,-912.25 203.38,-876.25 337.88,-876.25 337.88,-912.25"/>
<text text-anchor="middle" x="270.62" y="-889.58" font-family="Times,serif" font-size="14.00">3: int result = 1;</text>
</g>
<!-- node0&#45;&gt;node2 -->
<g id="edge6" class="edge">
<title>node0&#45;&gt;node2</title>
<path fill="none" stroke="blue" d="M270.62,-949.06C270.62,-941.48 270.62,-932.35 270.62,-923.79"/>
<polygon fill="blue" stroke="blue" points="274.13,-923.79 270.63,-913.79 267.13,-923.79 274.13,-923.79"/>
</g>
<!-- node1 -->
<g id="node2" class="node">
<title>node1</title>
<polygon fill="none" stroke="black" points="195.25,-303.75 0,-303.75 0,-267.75 195.25,-267.75 195.25,-303.75"/>
<text text-anchor="middle" x="97.62" y="-281.07" font-family="Times,serif" font-size="14.00">EXIT: loopWithBreak(int)</text>
</g>
<!-- node3 -->
<g id="node4" class="node">
<title>node3</title>
<polygon fill="none" stroke="black" points="508.12,-839.25 411.12,-839.25 411.12,-803.25 508.12,-803.25 508.12,-839.25"/>
<text text-anchor="middle" x="459.62" y="-816.58" font-family="Times,serif" font-size="14.00">4: int i = 1;</text>
</g>
<!-- node2&#45;&gt;node3 -->
<g id="edge7" class="edge">
<title>node2&#45;&gt;node3</title>
<path fill="none" stroke="blue" d="M316.86,-875.88C342.72,-866.17 375.16,-853.98 402.58,-843.68"/>
<polygon fill="blue" stroke="blue" points="403.67,-847.01 411.8,-840.22 401.2,-840.46 403.67,-847.01"/>
</g>
<!-- node5 -->
<g id="node6" class="node">
<title>node5</title>
<polygon fill="none" stroke="black" points="431.5,-660.75 267.75,-660.75 267.75,-624.75 431.5,-624.75 431.5,-660.75"/>
<text text-anchor="middle" x="349.62" y="-638.08" font-family="Times,serif" font-size="14.00">6: result = result * i;</text>
</g>
<!-- node2&#45;&gt;node5 -->
<g id="edge20" class="edge">
<title>node2&#45;&gt;node5</title>
<path fill="none" stroke="red" stroke-dasharray="5,2" d="M276.05,-876.1C289.47,-833.73 324.29,-723.76 340.75,-671.77"/>
<polygon fill="red" stroke="red" points="344.02,-673.05 343.7,-662.46 337.34,-670.94 344.02,-673.05"/>
<text text-anchor="middle" x="331.12" y="-771.95" font-family="Times,serif" font-size="14.00">result</text>
</g>
<!-- node15 -->
<g id="node16" class="node">
<title>node15</title>
<polygon fill="none" stroke="black" points="188.5,-393 48.75,-393 48.75,-357 188.5,-357 188.5,-393"/>
<text text-anchor="middle" x="118.62" y="-370.32" font-family="Times,serif" font-size="14.00">21: return result;</text>
</g>
<!-- node2&#45;&gt;node15 -->
<g id="edge21" class="edge">
<title>node2&#45;&gt;node15</title>
<path fill="none" stroke="red" stroke-dasharray="5,2" d="M202.93,-880.92C148.69,-869.06 81.62,-848.98 81.62,-822.25 81.62,-822.25 81.62,-822.25 81.62,-463.25 81.62,-441.86 91.17,-419.69 100.56,-403.05"/>
<polygon fill="red" stroke="red" points="103.39,-405.14 105.53,-394.76 97.39,-401.54 103.39,-405.14"/>
<text text-anchor="middle" x="102.62" y="-638.08" font-family="Times,serif" font-size="14.00">result</text>
</g>
<!-- node4 -->
<g id="node5" class="node">
<title>node4</title>
<polygon fill="none" stroke="black" points="517.5,-750 401.75,-750 401.75,-714 517.5,-714 517.5,-750"/>
<text text-anchor="middle" x="459.62" y="-727.33" font-family="Times,serif" font-size="14.00">while (i &lt;= n)</text>
</g>
<!-- node3&#45;&gt;node4 -->
<g id="edge8" class="edge">
<title>node3&#45;&gt;node4</title>
<path fill="none" stroke="blue" d="M459.62,-803.01C459.62,-791.18 459.62,-775.2 459.62,-761.5"/>
<polygon fill="blue" stroke="blue" points="463.13,-761.72 459.63,-751.72 456.13,-761.72 463.13,-761.72"/>
</g>
<!-- node3&#45;&gt;node4 -->
<g id="edge23" class="edge">
<title>node3&#45;&gt;node4</title>
<path fill="none" stroke="red" stroke-dasharray="5,2" d="M456.94,-802.85C456.2,-797.24 455.49,-791 455.12,-785.25 454.64,-777.6 454.64,-775.65 455.12,-768 455.26,-765.93 455.43,-763.8 455.64,-761.66"/>
<polygon fill="red" stroke="red" points="459.09,-762.24 456.77,-751.91 452.14,-761.44 459.09,-762.24"/>
<text text-anchor="middle" x="457.38" y="-771.95" font-family="Times,serif" font-size="14.00">i</text>
</g>
<!-- node3&#45;&gt;node5 -->
<g id="edge24" class="edge">
<title>node3&#45;&gt;node5</title>
<path fill="none" stroke="red" stroke-dasharray="5,2" d="M437.33,-802.96C421.73,-789.86 401.39,-770.65 388.12,-750 372.58,-725.79 362.21,-694.45 356.19,-672.1"/>
<polygon fill="red" stroke="red" points="359.6,-671.3 353.73,-662.47 352.81,-673.03 359.6,-671.3"/>
<text text-anchor="middle" x="390.38" y="-727.33" font-family="Times,serif" font-size="14.00">i</text>
</g>
<!-- node6 -->
<g id="node7" class="node">
<title>node6</title>
<polygon fill="none" stroke="black" points="340.25,-571.5 247,-571.5 247,-535.5 340.25,-535.5 340.25,-571.5"/>
<text text-anchor="middle" x="293.62" y="-548.83" font-family="Times,serif" font-size="14.00">if (i &gt; 100)</text>
</g>
<!-- node3&#45;&gt;node6 -->
<g id="edge25" class="edge">
<title>node3&#45;&gt;node6</title>
<path fill="none" stroke="red" stroke-dasharray="5,2" d="M419.43,-802.81C370.34,-778.94 289.97,-730.91 258.62,-660.75 246.93,-634.57 260.36,-603.26 273.83,-581.43"/>
<polygon fill="red" stroke="red" points="276.74,-583.38 279.3,-573.1 270.89,-579.54 276.74,-583.38"/>
<text text-anchor="middle" x="280.89" y="-682.7" font-family="Times,serif" font-size="14.00">i</text>
</g>
<!-- node8 -->
<g id="node9" class="node">
<title>node8</title>
<polygon fill="none" stroke="black" points="429.38,-482.25 321.88,-482.25 321.88,-446.25 429.38,-446.25 429.38,-482.25"/>
<text text-anchor="middle" x="375.62" y="-459.57" font-family="Times,serif" font-size="14.00">10: i = i + 1;</text>
</g>
<!-- node3&#45;&gt;node8 -->
<g id="edge26" class="edge">
<title>node3&#45;&gt;node8</title>
<path fill="none" stroke="red" stroke-dasharray="5,2" d="M479.82,-802.76C494.29,-789.42 513.47,-769.99 526.62,-750 557.75,-702.73 558.99,-680.57 549.62,-624.75 539.94,-567.02 549.79,-539.79 506.62,-500.25 484.87,-480.32 469.91,-488.5 440.61,-483.34"/>
<polygon fill="red" stroke="red" points="441.62,-479.98 431.1,-481.22 440.1,-486.81 441.62,-479.98"/>
<text text-anchor="middle" x="556.53" y="-638.08" font-family="Times,serif" font-size="14.00">i</text>
</g>
<!-- node11 -->
<g id="node12" class="node">
<title>node11</title>
<polygon fill="none" stroke="black" points="568.38,-214.5 454.88,-214.5 454.88,-178.5 568.38,-178.5 568.38,-214.5"/>
<text text-anchor="middle" x="511.62" y="-191.82" font-family="Times,serif" font-size="14.00">if (i * j &gt; 404)</text>
</g>
<!-- node3&#45;&gt;node11 -->
<g id="edge27" class="edge">
<title>node3&#45;&gt;node11</title>
<path fill="none" stroke="red" stroke-dasharray="5,2" d="M508.57,-819.18C567.2,-814.99 657.62,-797.99 657.62,-733 657.62,-733 657.62,-733 657.62,-284.75 657.62,-245.07 617.4,-223.01 579.18,-211"/>
<polygon fill="red" stroke="red" points="580.52,-207.75 569.94,-208.3 578.56,-214.47 580.52,-207.75"/>
<text text-anchor="middle" x="659.88" y="-504.2" font-family="Times,serif" font-size="14.00">i</text>
</g>
<!-- node14 -->
<g id="node15" class="node">
<title>node14</title>
<polygon fill="none" stroke="black" points="467.62,-303.75 385.62,-303.75 385.62,-267.75 467.62,-267.75 467.62,-303.75"/>
<text text-anchor="middle" x="426.62" y="-281.07" font-family="Times,serif" font-size="14.00">18: i &#45;= j;</text>
</g>
<!-- node3&#45;&gt;node14 -->
<g id="edge28" class="edge">
<title>node3&#45;&gt;node14</title>
<path fill="none" stroke="red" stroke-dasharray="5,2" d="M508.5,-814.33C555.55,-805.58 619.62,-784.26 619.62,-733 619.62,-733 619.62,-733 619.62,-374 619.62,-305.13 548.24,-325.97 478.47,-305.48"/>
<polygon fill="red" stroke="red" points="479.77,-302.23 469.18,-302.45 477.6,-308.88 479.77,-302.23"/>
<text text-anchor="middle" x="621.88" y="-548.83" font-family="Times,serif" font-size="14.00">i</text>
</g>
<!-- node4&#45;&gt;node5 -->
<g id="edge5" class="edge">
<title>node4&#45;&gt;node5</title>
<path fill="none" stroke="blue" d="M437.63,-713.55C421.14,-700.48 398.38,-682.42 380.13,-667.95"/>
<polygon fill="blue" stroke="blue" points="382.78,-665.58 372.77,-662.11 378.43,-671.06 382.78,-665.58"/>
</g>
<!-- node4&#45;&gt;node15 -->
<g id="edge9" class="edge">
<title>node4&#45;&gt;node15</title>
<path fill="none" stroke="blue" d="M402.75,-713.57C347.32,-696.2 269.8,-670.71 258.62,-660.75 166.54,-578.69 193.95,-520.73 137.62,-411 136.33,-408.47 134.95,-405.85 133.57,-403.23"/>
<polygon fill="blue" stroke="blue" points="136.79,-401.84 128.97,-394.7 130.63,-405.16 136.79,-401.84"/>
</g>
<!-- node5&#45;&gt;node6 -->
<g id="edge10" class="edge">
<title>node5&#45;&gt;node6</title>
<path fill="none" stroke="blue" d="M338.56,-624.51C330.66,-612.2 319.88,-595.41 310.86,-581.35"/>
<polygon fill="blue" stroke="blue" points="313.83,-579.5 305.48,-572.98 307.94,-583.28 313.83,-579.5"/>
</g>
<!-- node5&#45;&gt;node15 -->
<g id="edge22" class="edge">
<title>node5&#45;&gt;node15</title>
<path fill="none" stroke="red" stroke-dasharray="5,2" d="M312.23,-624.36C264.36,-599.94 182.93,-550.7 143.62,-482.25 129.85,-458.26 123.66,-427.09 120.88,-404.72"/>
<polygon fill="red" stroke="red" points="124.36,-404.37 119.82,-394.8 117.4,-405.12 124.36,-404.37"/>
<text text-anchor="middle" x="189.59" y="-504.2" font-family="Times,serif" font-size="14.00">result</text>
</g>
<!-- node7 -->
<g id="node8" class="node">
<title>node7</title>
<polygon fill="none" stroke="black" points="265.12,-482.25 186.12,-482.25 186.12,-446.25 265.12,-446.25 265.12,-482.25"/>
<text text-anchor="middle" x="225.62" y="-459.57" font-family="Times,serif" font-size="14.00">8: break;</text>
</g>
<!-- node6&#45;&gt;node7 -->
<g id="edge1" class="edge">
<title>node6&#45;&gt;node7</title>
<path fill="none" stroke="blue" d="M280.19,-535.26C270.41,-522.71 257,-505.5 245.91,-491.28"/>
<polygon fill="blue" stroke="blue" points="248.87,-489.38 239.96,-483.65 243.35,-493.68 248.87,-489.38"/>
</g>
<!-- node6&#45;&gt;node8 -->
<g id="edge4" class="edge">
<title>node6&#45;&gt;node8</title>
<path fill="none" stroke="blue" d="M305.75,-535.33C313.52,-524.78 324.09,-511.23 334.62,-500.25 337.91,-496.83 341.49,-493.4 345.13,-490.08"/>
<polygon fill="blue" stroke="blue" points="347.27,-492.87 352.48,-483.65 342.65,-487.6 347.27,-492.87"/>
</g>
<!-- node7&#45;&gt;node15 -->
<g id="edge11" class="edge">
<title>node7&#45;&gt;node15</title>
<path fill="none" stroke="blue" d="M209.34,-445.94C198.99,-435.33 185.05,-421.78 171.62,-411 166.84,-407.16 161.63,-403.34 156.41,-399.7"/>
<polygon fill="blue" stroke="blue" points="158.59,-396.95 148.34,-394.26 154.67,-402.75 158.59,-396.95"/>
</g>
<!-- node8&#45;&gt;node4 -->
<g id="edge29" class="edge">
<title>node8&#45;&gt;node4</title>
<path fill="none" stroke="red" stroke-dasharray="5,2" d="M386.02,-482.7C399.52,-506.17 422.88,-549.56 435.62,-589.5 447.76,-627.51 454.1,-673.33 457.15,-702.32"/>
<polygon fill="red" stroke="red" points="453.66,-702.52 458.12,-712.13 460.62,-701.84 453.66,-702.52"/>
<text text-anchor="middle" x="442.49" y="-593.45" font-family="Times,serif" font-size="14.00">i</text>
</g>
<!-- node8&#45;&gt;node5 -->
<g id="edge30" class="edge">
<title>node8&#45;&gt;node5</title>
<path fill="none" stroke="red" stroke-dasharray="5,2" d="M373.07,-482.56C368.58,-513.06 359.22,-576.62 353.78,-613.53"/>
<polygon fill="red" stroke="red" points="350.38,-612.6 352.39,-623.01 357.31,-613.62 350.38,-612.6"/>
<text text-anchor="middle" x="367.46" y="-548.83" font-family="Times,serif" font-size="14.00">i</text>
</g>
<!-- node8&#45;&gt;node6 -->
<g id="edge31" class="edge">
<title>node8&#45;&gt;node6</title>
<path fill="none" stroke="red" stroke-dasharray="5,2" d="M363.09,-482.35C355.09,-492.87 344.26,-506.41 333.62,-517.5 330.32,-520.95 326.72,-524.43 323.07,-527.79"/>
<polygon fill="red" stroke="red" points="320.86,-525.07 315.73,-534.35 325.52,-530.3 320.86,-525.07"/>
<text text-anchor="middle" x="350.55" y="-504.2" font-family="Times,serif" font-size="14.00">i</text>
</g>
<!-- node9 -->
<g id="node10" class="node">
<title>node9</title>
<polygon fill="none" stroke="black" points="312.62,-393 206.62,-393 206.62,-357 312.62,-357 312.62,-393"/>
<text text-anchor="middle" x="259.62" y="-370.32" font-family="Times,serif" font-size="14.00">11: int j = 5;</text>
</g>
<!-- node8&#45;&gt;node9 -->
<g id="edge12" class="edge">
<title>node8&#45;&gt;node9</title>
<path fill="none" stroke="blue" d="M326.34,-445.83C316.27,-441.02 306.15,-435.17 297.62,-428.25 289.02,-421.26 281.4,-411.89 275.28,-403.01"/>
<polygon fill="blue" stroke="blue" points="278.22,-401.12 269.86,-394.61 272.34,-404.91 278.22,-401.12"/>
</g>
<!-- node8&#45;&gt;node11 -->
<g id="edge32" class="edge">
<title>node8&#45;&gt;node11</title>
<path fill="none" stroke="red" stroke-dasharray="5,2" d="M398.37,-446.08C404.9,-440.69 411.81,-434.51 417.62,-428.25 463.91,-378.41 477.83,-365.37 506.62,-303.75 520.29,-274.51 524.68,-264.52 520.62,-232.5 520.35,-230.31 519.98,-228.05 519.54,-225.8"/>
<polygon fill="red" stroke="red" points="523,-225.21 517.33,-216.25 516.18,-226.79 523,-225.21"/>
<text text-anchor="middle" x="500.03" y="-325.7" font-family="Times,serif" font-size="14.00">i</text>
</g>
<!-- node8&#45;&gt;node14 -->
<g id="edge33" class="edge">
<title>node8&#45;&gt;node14</title>
<path fill="none" stroke="red" stroke-dasharray="5,2" d="M390.22,-445.99C394.13,-440.6 398,-434.44 400.62,-428.25 416.32,-391.23 422.56,-344.81 425.03,-315.45"/>
<polygon fill="red" stroke="red" points="428.51,-315.73 425.76,-305.5 421.53,-315.22 428.51,-315.73"/>
<text text-anchor="middle" x="422.15" y="-370.32" font-family="Times,serif" font-size="14.00">i</text>
</g>
<!-- node10 -->
<g id="node11" class="node">
<title>node10</title>
<polygon fill="none" stroke="black" points="389,-36 258.25,-36 258.25,0 389,0 389,-36"/>
<text text-anchor="middle" x="323.62" y="-13.32" font-family="Times,serif" font-size="14.00">while (j &lt; 1000)</text>
</g>
<!-- node9&#45;&gt;node10 -->
<g id="edge13" class="edge">
<title>node9&#45;&gt;node10</title>
<path fill="none" stroke="blue" d="M247.84,-356.81C237.34,-339.81 223.62,-312.64 223.62,-286.75 223.62,-286.75 223.62,-286.75 223.62,-106.25 223.62,-77.8 246.89,-56.49 270.98,-42.06"/>
<polygon fill="blue" stroke="blue" points="272.59,-45.17 279.61,-37.23 269.17,-39.06 272.59,-45.17"/>
</g>
<!-- node9&#45;&gt;node10 -->
<g id="edge39" class="edge">
<title>node9&#45;&gt;node10</title>
<path fill="none" stroke="red" stroke-dasharray="5,2" d="M262.59,-356.63C270.82,-308.5 294.82,-169.33 316.62,-54 317.01,-51.94 317.42,-49.82 317.84,-47.68"/>
<polygon fill="red" stroke="red" points="321.26,-48.41 319.77,-37.92 314.4,-47.05 321.26,-48.41"/>
<text text-anchor="middle" x="295.64" y="-191.82" font-family="Times,serif" font-size="14.00">j</text>
</g>
<!-- node9&#45;&gt;node11 -->
<g id="edge40" class="edge">
<title>node9&#45;&gt;node11</title>
<path fill="none" stroke="red" stroke-dasharray="5,2" d="M313.04,-370.16C361.83,-363.87 432.83,-347.32 476.62,-303.75 497.47,-283.01 505.9,-249.63 509.31,-225.82"/>
<polygon fill="red" stroke="red" points="512.75,-226.53 510.47,-216.19 505.8,-225.7 512.75,-226.53"/>
<text text-anchor="middle" x="500.8" y="-281.07" font-family="Times,serif" font-size="14.00">j</text>
</g>
<!-- node13 -->
<g id="node14" class="node">
<title>node13</title>
<polygon fill="none" stroke="black" points="444.38,-125.25 336.88,-125.25 336.88,-89.25 444.38,-89.25 444.38,-125.25"/>
<text text-anchor="middle" x="390.62" y="-102.58" font-family="Times,serif" font-size="14.00">16: j = j + 1;</text>
</g>
<!-- node9&#45;&gt;node13 -->
<g id="edge41" class="edge">
<title>node9&#45;&gt;node13</title>
<path fill="none" stroke="red" stroke-dasharray="5,2" d="M271.01,-356.8C274.56,-351.21 278.38,-344.92 281.62,-339 320.7,-267.69 359.77,-180.03 378.76,-136.12"/>
<polygon fill="red" stroke="red" points="381.91,-137.64 382.65,-127.07 375.48,-134.87 381.91,-137.64"/>
<text text-anchor="middle" x="337.1" y="-236.45" font-family="Times,serif" font-size="14.00">j</text>
</g>
<!-- node9&#45;&gt;node14 -->
<g id="edge42" class="edge">
<title>node9&#45;&gt;node14</title>
<path fill="none" stroke="red" stroke-dasharray="5,2" d="M284.07,-356.66C302.58,-343.7 326.56,-327.29 337.12,-321.75 349.01,-315.51 362.27,-309.74 374.86,-304.76"/>
<polygon fill="red" stroke="red" points="375.75,-308.16 383.83,-301.3 373.24,-301.63 375.75,-308.16"/>
<text text-anchor="middle" x="339.38" y="-325.7" font-family="Times,serif" font-size="14.00">j</text>
</g>
<!-- node10&#45;&gt;node11 -->
<g id="edge3" class="edge">
<title>node10&#45;&gt;node11</title>
<path fill="none" stroke="blue" d="M389.38,-29.61C451.83,-41.18 539.15,-61.79 559.62,-89.25 578.1,-114.03 557.45,-147.06 537.78,-169.68"/>
<polygon fill="blue" stroke="blue" points="535.28,-167.23 531.11,-176.97 540.44,-171.95 535.28,-167.23"/>
</g>
<!-- node10&#45;&gt;node14 -->
<g id="edge14" class="edge">
<title>node10&#45;&gt;node14</title>
<path fill="none" stroke="blue" d="M321.61,-36.38C319.73,-57.79 318.42,-95.06 327.62,-125.25 343.47,-177.24 380.67,-229.17 404.69,-259.06"/>
<polygon fill="blue" stroke="blue" points="401.68,-260.92 410.73,-266.44 407.1,-256.48 401.68,-260.92"/>
</g>
<!-- node12 -->
<g id="node13" class="node">
<title>node12</title>
<polygon fill="none" stroke="black" points="550.62,-125.25 462.62,-125.25 462.62,-89.25 550.62,-89.25 550.62,-125.25"/>
<text text-anchor="middle" x="506.62" y="-102.58" font-family="Times,serif" font-size="14.00">14: break;</text>
</g>
<!-- node11&#45;&gt;node12 -->
<g id="edge2" class="edge">
<title>node11&#45;&gt;node12</title>
<path fill="none" stroke="blue" d="M510.64,-178.26C509.96,-166.43 509.04,-150.45 508.26,-136.75"/>
<polygon fill="blue" stroke="blue" points="511.76,-136.75 507.7,-126.96 504.78,-137.15 511.76,-136.75"/>
</g>
<!-- node11&#45;&gt;node13 -->
<g id="edge16" class="edge">
<title>node11&#45;&gt;node13</title>
<path fill="none" stroke="blue" d="M487.43,-178.05C469.21,-164.92 444.02,-146.75 423.91,-132.25"/>
<polygon fill="blue" stroke="blue" points="426.16,-129.56 416.01,-126.55 422.07,-135.24 426.16,-129.56"/>
</g>
<!-- node12&#45;&gt;node14 -->
<g id="edge15" class="edge">
<title>node12&#45;&gt;node14</title>
<path fill="none" stroke="blue" d="M479.95,-125.58C473.39,-130.71 466.77,-136.72 461.62,-143.25 435.75,-176.05 428.69,-225.39 426.94,-256.3"/>
<polygon fill="blue" stroke="blue" points="423.46,-255.91 426.55,-266.04 430.45,-256.18 423.46,-255.91"/>
</g>
<!-- node13&#45;&gt;node10 -->
<g id="edge17" class="edge">
<title>node13&#45;&gt;node10</title>
<path fill="none" stroke="blue" d="M372.58,-89.1C367.19,-83.62 361.45,-77.37 356.62,-71.25 350.4,-63.34 344.3,-54.21 339.07,-45.81"/>
<polygon fill="blue" stroke="blue" points="342.14,-44.11 333.97,-37.36 336.15,-47.73 342.14,-44.11"/>
</g>
<!-- node13&#45;&gt;node10 -->
<g id="edge43" class="edge">
<title>node13&#45;&gt;node10</title>
<path fill="none" stroke="red" stroke-dasharray="5,2" d="M380.34,-88.77C373.95,-78.36 365.32,-65.06 356.62,-54 354.18,-50.89 351.5,-47.72 348.77,-44.64"/>
<polygon fill="red" stroke="red" points="351.43,-42.36 342.08,-37.37 346.27,-47.1 351.43,-42.36"/>
<text text-anchor="middle" x="370.93" y="-57.95" font-family="Times,serif" font-size="14.00">j</text>
</g>
<!-- node13&#45;&gt;node11 -->
<g id="edge44" class="edge">
<title>node13&#45;&gt;node11</title>
<path fill="none" stroke="red" stroke-dasharray="5,2" d="M435.97,-125.74C446.19,-130.66 456.65,-136.53 465.62,-143.25 475.49,-150.64 484.8,-160.44 492.43,-169.55"/>
<polygon fill="red" stroke="red" points="489.52,-171.52 498.5,-177.13 494.98,-167.14 489.52,-171.52"/>
<text text-anchor="middle" x="486.16" y="-147.2" font-family="Times,serif" font-size="14.00">j</text>
</g>
<!-- node13&#45;&gt;node14 -->
<g id="edge45" class="edge">
<title>node13&#45;&gt;node14</title>
<path fill="none" stroke="red" stroke-dasharray="5,2" d="M392.04,-125.5C394.53,-152.42 400.61,-205.87 412.62,-249.75 413.26,-252.07 414,-254.44 414.8,-256.81"/>
<polygon fill="red" stroke="red" points="411.52,-258.03 418.32,-266.15 418.08,-255.56 411.52,-258.03"/>
<text text-anchor="middle" x="406.55" y="-191.82" font-family="Times,serif" font-size="14.00">j</text>
</g>
<!-- node14&#45;&gt;node4 -->
<g id="edge18" class="edge">
<title>node14&#45;&gt;node4</title>
<path fill="none" stroke="blue" d="M468,-302.85C486.07,-310.25 503.82,-318.17 506.62,-321.75 516.41,-334.27 511.29,-341.16 512.62,-357 525.31,-507.13 582.74,-563.17 511.62,-696 509.63,-699.72 507.05,-703.12 504.1,-706.2"/>
<polygon fill="blue" stroke="blue" points="501.96,-703.43 496.74,-712.65 506.57,-708.7 501.96,-703.43"/>
</g>
<!-- node14&#45;&gt;node4 -->
<g id="edge34" class="edge">
<title>node14&#45;&gt;node4</title>
<path fill="none" stroke="red" stroke-dasharray="5,2" d="M441.87,-303.91C445.94,-309.3 449.95,-315.49 452.62,-321.75 458.87,-336.36 456.99,-341.19 458.62,-357 473.31,-499.33 467.22,-535.69 469.62,-678.75 469.75,-686.42 470.69,-688.41 469.62,-696 469.32,-698.21 468.9,-700.47 468.42,-702.73"/>
<polygon fill="red" stroke="red" points="465.06,-701.74 465.96,-712.29 471.84,-703.48 465.06,-701.74"/>
<text text-anchor="middle" x="470.96" y="-504.2" font-family="Times,serif" font-size="14.00">i</text>
</g>
<!-- node14&#45;&gt;node5 -->
<g id="edge35" class="edge">
<title>node14&#45;&gt;node5</title>
<path fill="none" stroke="red" stroke-dasharray="5,2" d="M433.15,-303.95C434.96,-309.55 436.69,-315.84 437.62,-321.75 454.24,-427.21 443.85,-462.03 438.62,-482.25 425.44,-533.22 391.92,-585.17 369.99,-615.38"/>
<polygon fill="red" stroke="red" points="367.35,-613.06 364.22,-623.19 372.98,-617.23 367.35,-613.06"/>
<text text-anchor="middle" x="447.64" y="-459.57" font-family="Times,serif" font-size="14.00">i</text>
</g>
<!-- node14&#45;&gt;node6 -->
<g id="edge36" class="edge">
<title>node14&#45;&gt;node6</title>
<path fill="none" stroke="red" stroke-dasharray="5,2" d="M410.41,-303.81C385.2,-331.39 336.94,-388.54 312.62,-446.25 302.07,-471.31 297.37,-502.1 295.29,-524.08"/>
<polygon fill="red" stroke="red" points="291.82,-523.52 294.5,-533.77 298.8,-524.09 291.82,-523.52"/>
<text text-anchor="middle" x="332.28" y="-414.95" font-family="Times,serif" font-size="14.00">i</text>
</g>
<!-- node14&#45;&gt;node8 -->
<g id="edge37" class="edge">
<title>node14&#45;&gt;node8</title>
<path fill="none" stroke="red" stroke-dasharray="5,2" d="M420.85,-304C416.16,-318.18 409.47,-338.82 404.12,-357 396.4,-383.28 388.38,-413.47 382.83,-434.93"/>
<polygon fill="red" stroke="red" points="379.49,-433.86 380.39,-444.41 386.27,-435.6 379.49,-433.86"/>
<text text-anchor="middle" x="406.38" y="-370.32" font-family="Times,serif" font-size="14.00">i</text>
</g>
<!-- node14&#45;&gt;node11 -->
<g id="edge38" class="edge">
<title>node14&#45;&gt;node11</title>
<path fill="none" stroke="red" stroke-dasharray="5,2" d="M443.42,-267.51C455.88,-254.73 473.05,-237.09 487.05,-222.72"/>
<polygon fill="red" stroke="red" points="489.34,-225.39 493.81,-215.79 484.33,-220.51 489.34,-225.39"/>
<text text-anchor="middle" x="478.99" y="-236.45" font-family="Times,serif" font-size="14.00">i</text>
</g>
<!-- node15&#45;&gt;node1 -->
<g id="edge19" class="edge">
<title>node15&#45;&gt;node1</title>
<path fill="none" stroke="blue" d="M114.48,-356.76C111.6,-344.81 107.71,-328.63 104.38,-314.83"/>
<polygon fill="blue" stroke="blue" points="107.86,-314.33 102.12,-305.42 101.06,-315.96 107.86,-314.33"/>
</g>
</g>
</svg>
