<?xml version="1.0" encoding="UTF-8" standalone="no"?>
<!DOCTYPE svg PUBLIC "-//W3C//DTD SVG 1.1//EN"
 "http://www.w3.org/Graphics/SVG/1.1/DTD/svg11.dtd">
<!-- Generated by graphviz version 12.2.0 (0)
 -->
<!-- Title: PDG Pages: 1 -->
<svg width="405pt" height="1026pt"
 viewBox="0.00 0.00 405.12 1025.75" xmlns="http://www.w3.org/2000/svg" xmlns:xlink="http://www.w3.org/1999/xlink">
<g id="graph0" class="graph" transform="scale(1 1) rotate(0) translate(4 1021.75)">
<title>PDG</title>
<polygon fill="white" stroke="none" points="-4,4 -4,-1021.75 401.12,-1021.75 401.12,4 -4,4"/>
<!-- node0 -->
<g id="node1" class="node">
<title>node0</title>
<polygon fill="none" stroke="black" points="380.12,-1017.75 170.62,-1017.75 170.62,-981.75 380.12,-981.75 380.12,-1017.75"/>
<text text-anchor="middle" x="275.38" y="-995.08" font-family="Times,serif" font-size="14.00">ENTRY: loopWithBreak(int)</text>
</g>
<!-- node2 -->
<g id="node3" class="node">
<title>node2</title>
<polygon fill="none" stroke="black" points="342.62,-928.5 208.12,-928.5 208.12,-892.5 342.62,-892.5 342.62,-928.5"/>
<text text-anchor="middle" x="275.38" y="-905.83" font-family="Times,serif" font-size="14.00">3: int result = 1;</text>
</g>
<!-- node0&#45;&gt;node2 -->
<g id="edge6" class="edge">
<title>node0&#45;&gt;node2</title>
<path fill="none" stroke="blue" d="M275.38,-981.51C275.38,-969.68 275.38,-953.7 275.38,-940"/>
<polygon fill="blue" stroke="blue" points="278.88,-940.22 275.38,-930.22 271.88,-940.22 278.88,-940.22"/>
<text text-anchor="middle" x="287.75" y="-950.45" font-family="Times,serif" font-size="14.00">ctrl</text>
</g>
<!-- node1 -->
<g id="node2" class="node">
<title>node1</title>
<polygon fill="none" stroke="black" points="344,-303.75 148.75,-303.75 148.75,-267.75 344,-267.75 344,-303.75"/>
<text text-anchor="middle" x="246.38" y="-281.07" font-family="Times,serif" font-size="14.00">EXIT: loopWithBreak(int)</text>
</g>
<!-- node3 -->
<g id="node4" class="node">
<title>node3</title>
<polygon fill="none" stroke="black" points="323.88,-839.25 226.88,-839.25 226.88,-803.25 323.88,-803.25 323.88,-839.25"/>
<text text-anchor="middle" x="275.38" y="-816.58" font-family="Times,serif" font-size="14.00">4: int i = 1;</text>
</g>
<!-- node2&#45;&gt;node3 -->
<g id="edge7" class="edge">
<title>node2&#45;&gt;node3</title>
<path fill="none" stroke="blue" d="M275.38,-892.26C275.38,-880.43 275.38,-864.45 275.38,-850.75"/>
<polygon fill="blue" stroke="blue" points="278.88,-850.97 275.38,-840.97 271.88,-850.97 278.88,-850.97"/>
<text text-anchor="middle" x="287.75" y="-861.2" font-family="Times,serif" font-size="14.00">ctrl</text>
</g>
<!-- node4 -->
<g id="node5" class="node">
<title>node4</title>
<polygon fill="none" stroke="black" points="333.25,-750 217.5,-750 217.5,-714 333.25,-714 333.25,-750"/>
<text text-anchor="middle" x="275.38" y="-727.33" font-family="Times,serif" font-size="14.00">while (i &lt;= n)</text>
</g>
<!-- node3&#45;&gt;node4 -->
<g id="edge8" class="edge">
<title>node3&#45;&gt;node4</title>
<path fill="none" stroke="blue" d="M275.38,-803.01C275.38,-791.18 275.38,-775.2 275.38,-761.5"/>
<polygon fill="blue" stroke="blue" points="278.88,-761.72 275.38,-751.72 271.88,-761.72 278.88,-761.72"/>
<text text-anchor="middle" x="287.75" y="-771.95" font-family="Times,serif" font-size="14.00">ctrl</text>
</g>
<!-- node5 -->
<g id="node6" class="node">
<title>node5</title>
<polygon fill="none" stroke="black" points="247.25,-660.75 83.5,-660.75 83.5,-624.75 247.25,-624.75 247.25,-660.75"/>
<text text-anchor="middle" x="165.38" y="-638.08" font-family="Times,serif" font-size="14.00">6: result = result * i;</text>
</g>
<!-- node4&#45;&gt;node5 -->
<g id="edge5" class="edge">
<title>node4&#45;&gt;node5</title>
<path fill="none" stroke="blue" d="M253.38,-713.55C236.89,-700.48 214.13,-682.42 195.88,-667.95"/>
<polygon fill="blue" stroke="blue" points="198.53,-665.58 188.52,-662.11 194.18,-671.06 198.53,-665.58"/>
<text text-anchor="middle" x="242.6" y="-682.7" font-family="Times,serif" font-size="14.00">ctrl</text>
</g>
<!-- node15 -->
<g id="node16" class="node">
<title>node15</title>
<polygon fill="none" stroke="black" points="316.25,-393 176.5,-393 176.5,-357 316.25,-357 316.25,-393"/>
<text text-anchor="middle" x="246.38" y="-370.32" font-family="Times,serif" font-size="14.00">21: return result;</text>
</g>
<!-- node4&#45;&gt;node15 -->
<g id="edge9" class="edge">
<title>node4&#45;&gt;node15</title>
<path fill="none" stroke="blue" d="M275.38,-713.62C275.38,-696.01 275.38,-667.99 275.38,-643.75 275.38,-643.75 275.38,-643.75 275.38,-463.25 275.38,-442.56 267.94,-420.46 260.6,-403.67"/>
<polygon fill="blue" stroke="blue" points="263.89,-402.45 256.51,-394.85 257.54,-405.4 263.89,-402.45"/>
<text text-anchor="middle" x="287.75" y="-548.83" font-family="Times,serif" font-size="14.00">ctrl</text>
</g>
<!-- node6 -->
<g id="node7" class="node">
<title>node6</title>
<polygon fill="none" stroke="black" points="212,-571.5 118.75,-571.5 118.75,-535.5 212,-535.5 212,-571.5"/>
<text text-anchor="middle" x="165.38" y="-548.83" font-family="Times,serif" font-size="14.00">if (i &gt; 100)</text>
</g>
<!-- node5&#45;&gt;node6 -->
<g id="edge10" class="edge">
<title>node5&#45;&gt;node6</title>
<path fill="none" stroke="blue" d="M165.38,-624.51C165.38,-612.68 165.38,-596.7 165.38,-583"/>
<polygon fill="blue" stroke="blue" points="168.88,-583.22 165.38,-573.22 161.88,-583.22 168.88,-583.22"/>
<text text-anchor="middle" x="177.75" y="-593.45" font-family="Times,serif" font-size="14.00">ctrl</text>
</g>
<!-- node7 -->
<g id="node8" class="node">
<title>node7</title>
<polygon fill="none" stroke="black" points="246.88,-482.25 167.88,-482.25 167.88,-446.25 246.88,-446.25 246.88,-482.25"/>
<text text-anchor="middle" x="207.38" y="-459.57" font-family="Times,serif" font-size="14.00">8: break;</text>
</g>
<!-- node6&#45;&gt;node7 -->
<g id="edge1" class="edge">
<title>node6&#45;&gt;node7</title>
<path fill="none" stroke="blue" d="M173.67,-535.26C179.54,-523.07 187.53,-506.48 194.25,-492.51"/>
<polygon fill="blue" stroke="blue" points="197.25,-494.34 198.44,-483.82 190.95,-491.31 197.25,-494.34"/>
<text text-anchor="middle" x="202.51" y="-504.2" font-family="Times,serif" font-size="14.00">ctrl</text>
</g>
<!-- node8 -->
<g id="node9" class="node">
<title>node8</title>
<polygon fill="none" stroke="black" points="150.12,-482.25 42.62,-482.25 42.62,-446.25 150.12,-446.25 150.12,-482.25"/>
<text text-anchor="middle" x="96.38" y="-459.57" font-family="Times,serif" font-size="14.00">10: i = i + 1;</text>
</g>
<!-- node6&#45;&gt;node8 -->
<g id="edge4" class="edge">
<title>node6&#45;&gt;node8</title>
<path fill="none" stroke="blue" d="M151.74,-535.26C141.82,-522.71 128.21,-505.5 116.96,-491.28"/>
<polygon fill="blue" stroke="blue" points="119.87,-489.31 110.92,-483.64 114.38,-493.65 119.87,-489.31"/>
<text text-anchor="middle" x="149.43" y="-504.2" font-family="Times,serif" font-size="14.00">ctrl</text>
</g>
<!-- node7&#45;&gt;node15 -->
<g id="edge11" class="edge">
<title>node7&#45;&gt;node15</title>
<path fill="none" stroke="blue" d="M215.08,-446.01C220.48,-433.94 227.8,-417.56 234.01,-403.67"/>
<polygon fill="blue" stroke="blue" points="237.18,-405.14 238.07,-394.58 230.79,-402.28 237.18,-405.14"/>
<text text-anchor="middle" x="242.74" y="-414.95" font-family="Times,serif" font-size="14.00">ctrl</text>
</g>
<!-- node9 -->
<g id="node10" class="node">
<title>node9</title>
<polygon fill="none" stroke="black" points="148.38,-393 42.38,-393 42.38,-357 148.38,-357 148.38,-393"/>
<text text-anchor="middle" x="95.38" y="-370.32" font-family="Times,serif" font-size="14.00">11: int j = 5;</text>
</g>
<!-- node8&#45;&gt;node9 -->
<g id="edge12" class="edge">
<title>node8&#45;&gt;node9</title>
<path fill="none" stroke="blue" d="M96.18,-446.01C96.04,-434.18 95.86,-418.2 95.7,-404.5"/>
<polygon fill="blue" stroke="blue" points="99.2,-404.67 95.59,-394.72 92.2,-404.75 99.2,-404.67"/>
<text text-anchor="middle" x="108.34" y="-414.95" font-family="Times,serif" font-size="14.00">ctrl</text>
</g>
<!-- node10 -->
<g id="node11" class="node">
<title>node10</title>
<polygon fill="none" stroke="black" points="130.75,-303.75 0,-303.75 0,-267.75 130.75,-267.75 130.75,-303.75"/>
<text text-anchor="middle" x="65.38" y="-281.07" font-family="Times,serif" font-size="14.00">while (j &lt; 1000)</text>
</g>
<!-- node9&#45;&gt;node10 -->
<g id="edge13" class="edge">
<title>node9&#45;&gt;node10</title>
<path fill="none" stroke="blue" d="M89.45,-356.76C85.34,-344.81 79.78,-328.63 75.03,-314.83"/>
<polygon fill="blue" stroke="blue" points="78.34,-313.7 71.78,-305.38 71.72,-315.98 78.34,-313.7"/>
<text text-anchor="middle" x="95.44" y="-325.7" font-family="Times,serif" font-size="14.00">ctrl</text>
</g>
<!-- node11 -->
<g id="node12" class="node">
<title>node11</title>
<polygon fill="none" stroke="black" points="245.12,-214.5 131.62,-214.5 131.62,-178.5 245.12,-178.5 245.12,-214.5"/>
<text text-anchor="middle" x="188.38" y="-191.82" font-family="Times,serif" font-size="14.00">if (i * j &gt; 404)</text>
</g>
<!-- node10&#45;&gt;node11 -->
<g id="edge3" class="edge">
<title>node10&#45;&gt;node11</title>
<path fill="none" stroke="blue" d="M89.97,-267.3C108.49,-254.17 134.09,-236 154.54,-221.5"/>
<polygon fill="blue" stroke="blue" points="156.46,-224.43 162.59,-215.79 152.41,-218.72 156.46,-224.43"/>
<text text-anchor="middle" x="150.27" y="-236.45" font-family="Times,serif" font-size="14.00">ctrl</text>
</g>
<!-- node14 -->
<g id="node15" class="node">
<title>node14</title>
<polygon fill="none" stroke="black" points="281.38,-36 199.38,-36 199.38,0 281.38,0 281.38,-36"/>
<text text-anchor="middle" x="240.38" y="-13.32" font-family="Times,serif" font-size="14.00">18: i &#45;= j;</text>
</g>
<!-- node10&#45;&gt;node14 -->
<g id="edge14" class="edge">
<title>node10&#45;&gt;node14</title>
<path fill="none" stroke="blue" d="M58.93,-267.47C46.49,-230.93 23.61,-144.65 61.38,-89.25 89.54,-47.94 146.02,-30.92 188.04,-23.91"/>
<polygon fill="blue" stroke="blue" points="188.34,-27.4 197.7,-22.45 187.29,-20.48 188.34,-27.4"/>
<text text-anchor="middle" x="54.24" y="-147.2" font-family="Times,serif" font-size="14.00">ctrl</text>
</g>
<!-- node12 -->
<g id="node13" class="node">
<title>node12</title>
<polygon fill="none" stroke="black" points="284.38,-125.25 196.38,-125.25 196.38,-89.25 284.38,-89.25 284.38,-125.25"/>
<text text-anchor="middle" x="240.38" y="-102.58" font-family="Times,serif" font-size="14.00">14: break;</text>
</g>
<!-- node11&#45;&gt;node12 -->
<g id="edge2" class="edge">
<title>node11&#45;&gt;node12</title>
<path fill="none" stroke="blue" d="M198.65,-178.26C205.98,-165.95 216,-149.16 224.37,-135.1"/>
<polygon fill="blue" stroke="blue" points="227.23,-137.13 229.35,-126.75 221.22,-133.55 227.23,-137.13"/>
<text text-anchor="middle" x="231.41" y="-147.2" font-family="Times,serif" font-size="14.00">ctrl</text>
</g>
<!-- node13 -->
<g id="node14" class="node">
<title>node13</title>
<polygon fill="none" stroke="black" points="178.12,-125.25 70.62,-125.25 70.62,-89.25 178.12,-89.25 178.12,-125.25"/>
<text text-anchor="middle" x="124.38" y="-102.58" font-family="Times,serif" font-size="14.00">16: j = j + 1;</text>
</g>
<!-- node11&#45;&gt;node13 -->
<g id="edge16" class="edge">
<title>node11&#45;&gt;node13</title>
<path fill="none" stroke="blue" d="M175.73,-178.26C166.61,-165.83 154.14,-148.83 143.77,-134.69"/>
<polygon fill="blue" stroke="blue" points="146.63,-132.67 137.89,-126.67 140.98,-136.81 146.63,-132.67"/>
<text text-anchor="middle" x="174.48" y="-147.2" font-family="Times,serif" font-size="14.00">ctrl</text>
</g>
<!-- node12&#45;&gt;node14 -->
<g id="edge15" class="edge">
<title>node12&#45;&gt;node14</title>
<path fill="none" stroke="blue" d="M240.38,-89.01C240.38,-77.18 240.38,-61.2 240.38,-47.5"/>
<polygon fill="blue" stroke="blue" points="243.88,-47.72 240.38,-37.72 236.88,-47.72 243.88,-47.72"/>
<text text-anchor="middle" x="252.75" y="-57.95" font-family="Times,serif" font-size="14.00">ctrl</text>
</g>
<!-- node13&#45;&gt;node10 -->
<g id="edge17" class="edge">
<title>node13&#45;&gt;node10</title>
<path fill="none" stroke="blue" d="M117.33,-125.74C111.73,-139.88 103.83,-160.35 97.62,-178.5 88.68,-204.67 79.64,-234.87 73.41,-256.37"/>
<polygon fill="blue" stroke="blue" points="70.08,-255.3 70.68,-265.88 76.8,-257.23 70.08,-255.3"/>
<text text-anchor="middle" x="110" y="-191.82" font-family="Times,serif" font-size="14.00">ctrl</text>
</g>
<!-- node14&#45;&gt;node4 -->
<g id="edge18" class="edge">
<title>node14&#45;&gt;node4</title>
<path fill="none" stroke="blue" d="M281.78,-27.96C320.49,-39.06 372.38,-62.16 372.38,-106.25 372.38,-643.75 372.38,-643.75 372.38,-643.75 372.38,-672.02 349.32,-693.46 325.69,-708.02"/>
<polygon fill="blue" stroke="blue" points="324.17,-704.85 317.26,-712.88 327.67,-710.91 324.17,-704.85"/>
<text text-anchor="middle" x="384.75" y="-370.32" font-family="Times,serif" font-size="14.00">ctrl</text>
</g>
<!-- node15&#45;&gt;node1 -->
<g id="edge19" class="edge">
<title>node15&#45;&gt;node1</title>
<path fill="none" stroke="blue" d="M246.38,-356.76C246.38,-344.93 246.38,-328.95 246.38,-315.25"/>
<polygon fill="blue" stroke="blue" points="249.88,-315.47 246.38,-305.47 242.88,-315.47 249.88,-315.47"/>
<text text-anchor="middle" x="258.75" y="-325.7" font-family="Times,serif" font-size="14.00">ctrl</text>
</g>
</g>
</svg>
