<?xml version="1.0" encoding="UTF-8" standalone="no"?>
<!DOCTYPE svg PUBLIC "-//W3C//DTD SVG 1.1//EN"
 "http://www.w3.org/Graphics/SVG/1.1/DTD/svg11.dtd">
<!-- Generated by graphviz version 12.2.0 (0)
 -->
<!-- Title: PDG Pages: 1 -->
<svg width="274pt" height="404pt"
 viewBox="0.00 0.00 274.38 404.00" xmlns="http://www.w3.org/2000/svg" xmlns:xlink="http://www.w3.org/1999/xlink">
<g id="graph0" class="graph" transform="scale(1 1) rotate(0) translate(4 400)">
<title>PDG</title>
<polygon fill="white" stroke="none" points="-4,4 -4,-400 270.38,-400 270.38,4 -4,4"/>
<!-- node0 -->
<g id="node1" class="node">
<title>node0</title>
<polygon fill="none" stroke="black" points="234.75,-396 34.25,-396 34.25,-360 234.75,-360 234.75,-396"/>
<text text-anchor="middle" x="134.5" y="-373.32" font-family="Times,serif" font-size="14.00">ENTRY: multipleReturns()</text>
</g>
<!-- node2 -->
<g id="node3" class="node">
<title>node2</title>
<polygon fill="none" stroke="black" points="184.88,-324 84.12,-324 84.12,-288 184.88,-288 184.88,-324"/>
<text text-anchor="middle" x="134.5" y="-301.32" font-family="Times,serif" font-size="14.00">3: int a = 1;</text>
</g>
<!-- node0&#45;&gt;node2 -->
<g id="edge3" class="edge">
<title>node0&#45;&gt;node2</title>
<path fill="none" stroke="blue" d="M134.5,-359.7C134.5,-352.41 134.5,-343.73 134.5,-335.54"/>
<polygon fill="blue" stroke="blue" points="138,-335.62 134.5,-325.62 131,-335.62 138,-335.62"/>
</g>
<!-- node1 -->
<g id="node2" class="node">
<title>node1</title>
<polygon fill="none" stroke="black" points="227.62,-36 41.38,-36 41.38,0 227.62,0 227.62,-36"/>
<text text-anchor="middle" x="134.5" y="-13.32" font-family="Times,serif" font-size="14.00">EXIT: multipleReturns()</text>
</g>
<!-- node3 -->
<g id="node4" class="node">
<title>node3</title>
<polygon fill="none" stroke="black" points="185.25,-252 83.75,-252 83.75,-216 185.25,-216 185.25,-252"/>
<text text-anchor="middle" x="134.5" y="-229.32" font-family="Times,serif" font-size="14.00">4: int b = 5;</text>
</g>
<!-- node2&#45;&gt;node3 -->
<g id="edge4" class="edge">
<title>node2&#45;&gt;node3</title>
<path fill="none" stroke="blue" d="M134.5,-287.7C134.5,-280.41 134.5,-271.73 134.5,-263.54"/>
<polygon fill="blue" stroke="blue" points="138,-263.62 134.5,-253.62 131,-263.62 138,-263.62"/>
</g>
<!-- node4 -->
<g id="node5" class="node">
<title>node4</title>
<polygon fill="none" stroke="black" points="174,-180 95,-180 95,-144 174,-144 174,-180"/>
<text text-anchor="middle" x="134.5" y="-157.32" font-family="Times,serif" font-size="14.00">if (a &lt; b)</text>
</g>
<!-- node3&#45;&gt;node4 -->
<g id="edge5" class="edge">
<title>node3&#45;&gt;node4</title>
<path fill="none" stroke="blue" d="M134.5,-215.7C134.5,-208.41 134.5,-199.73 134.5,-191.54"/>
<polygon fill="blue" stroke="blue" points="138,-191.62 134.5,-181.62 131,-191.62 138,-191.62"/>
</g>
<!-- node5 -->
<g id="node6" class="node">
<title>node5</title>
<polygon fill="none" stroke="black" points="127,-108 0,-108 0,-72 127,-72 127,-108"/>
<text text-anchor="middle" x="63.5" y="-85.33" font-family="Times,serif" font-size="14.00">6: return a + b;</text>
</g>
<!-- node4&#45;&gt;node5 -->
<g id="edge1" class="edge">
<title>node4&#45;&gt;node5</title>
<path fill="none" stroke="blue" d="M116.95,-143.7C108.52,-135.39 98.27,-125.28 89,-116.14"/>
<polygon fill="blue" stroke="blue" points="91.5,-113.7 81.93,-109.17 86.59,-118.68 91.5,-113.7"/>
</g>
<!-- node6 -->
<g id="node7" class="node">
<title>node6</title>
<polygon fill="none" stroke="black" points="266.38,-108 144.62,-108 144.62,-72 266.38,-72 266.38,-108"/>
<text text-anchor="middle" x="205.5" y="-85.33" font-family="Times,serif" font-size="14.00">8: return a * b;</text>
</g>
<!-- node4&#45;&gt;node6 -->
<g id="edge2" class="edge">
<title>node4&#45;&gt;node6</title>
<path fill="none" stroke="blue" d="M152.05,-143.7C160.48,-135.39 170.73,-125.28 180,-116.14"/>
<polygon fill="blue" stroke="blue" points="182.41,-118.68 187.07,-109.17 177.5,-113.7 182.41,-118.68"/>
</g>
<!-- node5&#45;&gt;node1 -->
<g id="edge6" class="edge">
<title>node5&#45;&gt;node1</title>
<path fill="none" stroke="blue" d="M81.05,-71.7C89.48,-63.39 99.73,-53.28 109,-44.14"/>
<polygon fill="blue" stroke="blue" points="111.41,-46.68 116.07,-37.17 106.5,-41.7 111.41,-46.68"/>
</g>
<!-- node6&#45;&gt;node1 -->
<g id="edge7" class="edge">
<title>node6&#45;&gt;node1</title>
<path fill="none" stroke="blue" d="M187.95,-71.7C179.52,-63.39 169.27,-53.28 160,-44.14"/>
<polygon fill="blue" stroke="blue" points="162.5,-41.7 152.93,-37.17 157.59,-46.68 162.5,-41.7"/>
</g>
</g>
</svg>
