<?xml version="1.0" encoding="UTF-8" standalone="no"?>
<!DOCTYPE svg PUBLIC "-//W3C//DTD SVG 1.1//EN"
 "http://www.w3.org/Graphics/SVG/1.1/DTD/svg11.dtd">
<!-- Generated by graphviz version 12.2.0 (0)
 -->
<!-- Title: PDG Pages: 1 -->
<svg width="274pt" height="490pt"
 viewBox="0.00 0.00 274.38 490.25" xmlns="http://www.w3.org/2000/svg" xmlns:xlink="http://www.w3.org/1999/xlink">
<g id="graph0" class="graph" transform="scale(1 1) rotate(0) translate(4 486.25)">
<title>PDG</title>
<polygon fill="white" stroke="none" points="-4,4 -4,-486.25 270.38,-486.25 270.38,4 -4,4"/>
<!-- node0 -->
<g id="node1" class="node">
<title>node0</title>
<polygon fill="none" stroke="black" points="234.75,-482.25 34.25,-482.25 34.25,-446.25 234.75,-446.25 234.75,-482.25"/>
<text text-anchor="middle" x="134.5" y="-459.57" font-family="Times,serif" font-size="14.00">ENTRY: multipleReturns()</text>
</g>
<!-- node2 -->
<g id="node3" class="node">
<title>node2</title>
<polygon fill="none" stroke="black" points="184.88,-393 84.12,-393 84.12,-357 184.88,-357 184.88,-393"/>
<text text-anchor="middle" x="134.5" y="-370.32" font-family="Times,serif" font-size="14.00">3: int a = 1;</text>
</g>
<!-- node0&#45;&gt;node2 -->
<g id="edge3" class="edge">
<title>node0&#45;&gt;node2</title>
<path fill="none" stroke="blue" d="M134.5,-446.01C134.5,-434.18 134.5,-418.2 134.5,-404.5"/>
<polygon fill="blue" stroke="blue" points="138,-404.72 134.5,-394.72 131,-404.72 138,-404.72"/>
<text text-anchor="middle" x="146.88" y="-414.95" font-family="Times,serif" font-size="14.00">ctrl</text>
</g>
<!-- node1 -->
<g id="node2" class="node">
<title>node1</title>
<polygon fill="none" stroke="black" points="227.62,-36 41.38,-36 41.38,0 227.62,0 227.62,-36"/>
<text text-anchor="middle" x="134.5" y="-13.32" font-family="Times,serif" font-size="14.00">EXIT: multipleReturns()</text>
</g>
<!-- node3 -->
<g id="node4" class="node">
<title>node3</title>
<polygon fill="none" stroke="black" points="185.25,-303.75 83.75,-303.75 83.75,-267.75 185.25,-267.75 185.25,-303.75"/>
<text text-anchor="middle" x="134.5" y="-281.07" font-family="Times,serif" font-size="14.00">4: int b = 5;</text>
</g>
<!-- node2&#45;&gt;node3 -->
<g id="edge4" class="edge">
<title>node2&#45;&gt;node3</title>
<path fill="none" stroke="blue" d="M134.5,-356.76C134.5,-344.93 134.5,-328.95 134.5,-315.25"/>
<polygon fill="blue" stroke="blue" points="138,-315.47 134.5,-305.47 131,-315.47 138,-315.47"/>
<text text-anchor="middle" x="146.88" y="-325.7" font-family="Times,serif" font-size="14.00">ctrl</text>
</g>
<!-- node4 -->
<g id="node5" class="node">
<title>node4</title>
<polygon fill="none" stroke="black" points="174,-214.5 95,-214.5 95,-178.5 174,-178.5 174,-214.5"/>
<text text-anchor="middle" x="134.5" y="-191.82" font-family="Times,serif" font-size="14.00">if (a &lt; b)</text>
</g>
<!-- node3&#45;&gt;node4 -->
<g id="edge5" class="edge">
<title>node3&#45;&gt;node4</title>
<path fill="none" stroke="blue" d="M134.5,-267.51C134.5,-255.68 134.5,-239.7 134.5,-226"/>
<polygon fill="blue" stroke="blue" points="138,-226.22 134.5,-216.22 131,-226.22 138,-226.22"/>
<text text-anchor="middle" x="146.88" y="-236.45" font-family="Times,serif" font-size="14.00">ctrl</text>
</g>
<!-- node5 -->
<g id="node6" class="node">
<title>node5</title>
<polygon fill="none" stroke="black" points="127,-125.25 0,-125.25 0,-89.25 127,-89.25 127,-125.25"/>
<text text-anchor="middle" x="63.5" y="-102.58" font-family="Times,serif" font-size="14.00">6: return a + b;</text>
</g>
<!-- node4&#45;&gt;node5 -->
<g id="edge1" class="edge">
<title>node4&#45;&gt;node5</title>
<path fill="none" stroke="blue" d="M120.47,-178.26C110.26,-165.71 96.26,-148.5 84.69,-134.28"/>
<polygon fill="blue" stroke="blue" points="87.48,-132.17 78.45,-126.63 82.05,-136.59 87.48,-132.17"/>
<text text-anchor="middle" x="117.73" y="-147.2" font-family="Times,serif" font-size="14.00">ctrl</text>
</g>
<!-- node6 -->
<g id="node7" class="node">
<title>node6</title>
<polygon fill="none" stroke="black" points="266.38,-125.25 144.62,-125.25 144.62,-89.25 266.38,-89.25 266.38,-125.25"/>
<text text-anchor="middle" x="205.5" y="-102.58" font-family="Times,serif" font-size="14.00">8: return a * b;</text>
</g>
<!-- node4&#45;&gt;node6 -->
<g id="edge2" class="edge">
<title>node4&#45;&gt;node6</title>
<path fill="none" stroke="blue" d="M148.53,-178.26C158.74,-165.71 172.74,-148.5 184.31,-134.28"/>
<polygon fill="blue" stroke="blue" points="186.95,-136.59 190.55,-126.63 181.52,-132.17 186.95,-136.59"/>
<text text-anchor="middle" x="188.73" y="-147.2" font-family="Times,serif" font-size="14.00">ctrl</text>
</g>
<!-- node5&#45;&gt;node1 -->
<g id="edge6" class="edge">
<title>node5&#45;&gt;node1</title>
<path fill="none" stroke="blue" d="M77.53,-89.01C87.74,-76.46 101.74,-59.25 113.31,-45.03"/>
<polygon fill="blue" stroke="blue" points="115.95,-47.34 119.55,-37.38 110.52,-42.92 115.95,-47.34"/>
<text text-anchor="middle" x="117.73" y="-57.95" font-family="Times,serif" font-size="14.00">ctrl</text>
</g>
<!-- node6&#45;&gt;node1 -->
<g id="edge7" class="edge">
<title>node6&#45;&gt;node1</title>
<path fill="none" stroke="blue" d="M191.47,-89.01C181.26,-76.46 167.26,-59.25 155.69,-45.03"/>
<polygon fill="blue" stroke="blue" points="158.48,-42.92 149.45,-37.38 153.05,-47.34 158.48,-42.92"/>
<text text-anchor="middle" x="188.73" y="-57.95" font-family="Times,serif" font-size="14.00">ctrl</text>
</g>
</g>
</svg>
