<?xml version="1.0" encoding="UTF-8" standalone="no"?>
<!DOCTYPE svg PUBLIC "-//W3C//DTD SVG 1.1//EN"
 "http://www.w3.org/Graphics/SVG/1.1/DTD/svg11.dtd">
<!-- Generated by graphviz version 12.2.0 (0)
 -->
<!-- Title: PDG Pages: 1 -->
<svg width="386pt" height="312pt"
 viewBox="0.00 0.00 386.13 311.75" xmlns="http://www.w3.org/2000/svg" xmlns:xlink="http://www.w3.org/1999/xlink">
<g id="graph0" class="graph" transform="scale(1 1) rotate(0) translate(4 307.75)">
<title>PDG</title>
<polygon fill="white" stroke="none" points="-4,4 -4,-307.75 382.13,-307.75 382.13,4 -4,4"/>
<!-- node0 -->
<g id="node1" class="node">
<title>node0</title>
<polygon fill="none" stroke="black" points="273.07,-303.75 72.57,-303.75 72.57,-267.75 273.07,-267.75 273.07,-303.75"/>
<text text-anchor="middle" x="172.82" y="-281.07" font-family="Times,serif" font-size="14.00">ENTRY: multipleReturns()</text>
</g>
<!-- node1 -->
<g id="node2" class="node">
<title>node1</title>
<polygon fill="none" stroke="black" points="125.94,-214.5 47.69,-214.5 47.69,-178.5 125.94,-178.5 125.94,-214.5"/>
<text text-anchor="middle" x="86.82" y="-191.82" font-family="Times,serif" font-size="14.00">int a = 1</text>
</g>
<!-- node0&#45;&gt;node1 -->
<g id="edge1" class="edge">
<title>node0&#45;&gt;node1</title>
<path fill="none" stroke="blue" d="M152.75,-267.32C146.63,-261.82 139.97,-255.65 134.07,-249.75 125.72,-241.41 116.96,-231.93 109.27,-223.36"/>
<polygon fill="blue" stroke="blue" points="111.98,-221.14 102.72,-215.98 106.74,-225.78 111.98,-221.14"/>
<text text-anchor="middle" x="146.44" y="-236.45" font-family="Times,serif" font-size="14.00">ctrl</text>
</g>
<!-- node2 -->
<g id="node3" class="node">
<title>node2</title>
<polygon fill="none" stroke="black" points="302.32,-214.5 223.32,-214.5 223.32,-178.5 302.32,-178.5 302.32,-214.5"/>
<text text-anchor="middle" x="262.82" y="-191.82" font-family="Times,serif" font-size="14.00">int b = 5</text>
</g>
<!-- node0&#45;&gt;node2 -->
<g id="edge2" class="edge">
<title>node0&#45;&gt;node2</title>
<path fill="none" stroke="blue" d="M190.6,-267.51C203.91,-254.61 222.32,-236.76 237.21,-222.32"/>
<polygon fill="blue" stroke="blue" points="239.25,-225.23 243.99,-215.76 234.37,-220.2 239.25,-225.23"/>
<text text-anchor="middle" x="238.26" y="-236.45" font-family="Times,serif" font-size="14.00">ctrl</text>
</g>
<!-- node3 -->
<g id="node4" class="node">
<title>node3</title>
<polygon fill="none" stroke="black" points="221.32,-125.25 142.32,-125.25 142.32,-89.25 221.32,-89.25 221.32,-125.25"/>
<text text-anchor="middle" x="181.82" y="-102.58" font-family="Times,serif" font-size="14.00">if (a &lt; b)</text>
</g>
<!-- node0&#45;&gt;node3 -->
<g id="edge3" class="edge">
<title>node0&#45;&gt;node3</title>
<path fill="none" stroke="blue" d="M173.7,-267.51C175.25,-237.19 178.46,-174.06 180.35,-137.03"/>
<polygon fill="blue" stroke="blue" points="183.85,-137.24 180.86,-127.08 176.86,-136.89 183.85,-137.24"/>
<text text-anchor="middle" x="190.59" y="-191.82" font-family="Times,serif" font-size="14.00">ctrl</text>
</g>
<!-- node1&#45;&gt;node3 -->
<g id="edge6" class="edge">
<title>node1&#45;&gt;node3</title>
<path fill="none" stroke="red" stroke-dasharray="5,2" d="M91.17,-178.22C94.72,-167.1 100.69,-152.96 110.07,-143.25 116.3,-136.8 123.96,-131.37 131.93,-126.87"/>
<polygon fill="red" stroke="red" points="133.47,-130.01 140.77,-122.33 130.27,-123.79 133.47,-130.01"/>
<text text-anchor="middle" x="134.44" y="-147.2" font-family="Times,serif" font-size="14.00">data: a</text>
</g>
<!-- node4 -->
<g id="node5" class="node">
<title>node4</title>
<polygon fill="none" stroke="black" points="294.07,-36 189.57,-36 189.57,0 294.07,0 294.07,-36"/>
<text text-anchor="middle" x="241.82" y="-13.32" font-family="Times,serif" font-size="14.00">return a + b</text>
</g>
<!-- node1&#45;&gt;node4 -->
<g id="edge10" class="edge">
<title>node1&#45;&gt;node4</title>
<path fill="none" stroke="red" stroke-dasharray="5,2" d="M81.46,-178.01C75.74,-155.82 69.45,-117.08 85.07,-89.25 95.07,-71.42 139.33,-52.54 178.27,-38.85"/>
<polygon fill="red" stroke="red" points="179.33,-42.18 187.65,-35.62 177.06,-35.56 179.33,-42.18"/>
<text text-anchor="middle" x="109.44" y="-102.58" font-family="Times,serif" font-size="14.00">data: a</text>
</g>
<!-- node5 -->
<g id="node6" class="node">
<title>node5</title>
<polygon fill="none" stroke="black" points="171.44,-36 72.19,-36 72.19,0 171.44,0 171.44,-36"/>
<text text-anchor="middle" x="121.82" y="-13.32" font-family="Times,serif" font-size="14.00">return a * b</text>
</g>
<!-- node1&#45;&gt;node5 -->
<g id="edge8" class="edge">
<title>node1&#45;&gt;node5</title>
<path fill="none" stroke="red" stroke-dasharray="5,2" d="M56.92,-178.04C26.48,-157.88 -13.76,-123.12 5.07,-89.25 17.33,-67.21 39.62,-51.34 61.47,-40.33"/>
<polygon fill="red" stroke="red" points="62.87,-43.54 70.41,-36.1 59.87,-37.21 62.87,-43.54"/>
<text text-anchor="middle" x="29.44" y="-102.58" font-family="Times,serif" font-size="14.00">data: a</text>
</g>
<!-- node2&#45;&gt;node3 -->
<g id="edge7" class="edge">
<title>node2&#45;&gt;node3</title>
<path fill="none" stroke="red" stroke-dasharray="5,2" d="M228.53,-178.05C220.91,-173.1 213.33,-167.2 207.32,-160.5 200.97,-153.42 195.84,-144.47 191.89,-135.99"/>
<polygon fill="red" stroke="red" points="195.24,-134.91 188.11,-127.07 188.79,-137.65 195.24,-134.91"/>
<text text-anchor="middle" x="232.07" y="-147.2" font-family="Times,serif" font-size="14.00">data: b</text>
</g>
<!-- node2&#45;&gt;node4 -->
<g id="edge11" class="edge">
<title>node2&#45;&gt;node4</title>
<path fill="none" stroke="red" stroke-dasharray="5,2" d="M285,-178.06C308.27,-157.49 339.59,-121.95 324.82,-89.25 316.25,-70.27 299.64,-54.6 283.53,-42.91"/>
<polygon fill="red" stroke="red" points="285.63,-40.11 275.4,-37.35 281.68,-45.89 285.63,-40.11"/>
<text text-anchor="middle" x="353.38" y="-102.58" font-family="Times,serif" font-size="14.00">data: b</text>
</g>
<!-- node2&#45;&gt;node5 -->
<g id="edge9" class="edge">
<title>node2&#45;&gt;node5</title>
<path fill="none" stroke="red" stroke-dasharray="5,2" d="M266.29,-178.31C271.13,-149.03 276.2,-89.23 245.82,-54 228.23,-33.6 213.06,-41.91 182.63,-36.02"/>
<polygon fill="red" stroke="red" points="183.71,-32.68 173.18,-33.76 182.09,-39.49 183.71,-32.68"/>
<text text-anchor="middle" x="294.42" y="-102.58" font-family="Times,serif" font-size="14.00">data: b</text>
</g>
<!-- node3&#45;&gt;node4 -->
<g id="edge4" class="edge">
<title>node3&#45;&gt;node4</title>
<path fill="none" stroke="blue" d="M193.67,-89.01C202.22,-76.58 213.91,-59.58 223.64,-45.44"/>
<polygon fill="blue" stroke="blue" points="226.35,-47.67 229.13,-37.45 220.58,-43.71 226.35,-47.67"/>
<text text-anchor="middle" x="229.57" y="-57.95" font-family="Times,serif" font-size="14.00">ctrl</text>
</g>
<!-- node3&#45;&gt;node5 -->
<g id="edge5" class="edge">
<title>node3&#45;&gt;node5</title>
<path fill="none" stroke="blue" d="M169.97,-89.01C161.42,-76.58 149.73,-59.58 140,-45.44"/>
<polygon fill="blue" stroke="blue" points="143.06,-43.71 134.51,-37.45 137.29,-47.67 143.06,-43.71"/>
<text text-anchor="middle" x="169.57" y="-57.95" font-family="Times,serif" font-size="14.00">ctrl</text>
</g>
</g>
</svg>
