<?xml version="1.0" encoding="UTF-8" standalone="no"?>
<!DOCTYPE svg PUBLIC "-//W3C//DTD SVG 1.1//EN"
 "http://www.w3.org/Graphics/SVG/1.1/DTD/svg11.dtd">
<!-- Generated by graphviz version 12.2.0 (0)
 -->
<!-- Title: PDG Pages: 1 -->
<svg width="286pt" height="425pt"
 viewBox="0.00 0.00 286.12 425.25" xmlns="http://www.w3.org/2000/svg" xmlns:xlink="http://www.w3.org/1999/xlink">
<g id="graph0" class="graph" transform="scale(1 1) rotate(0) translate(4 421.25)">
<title>PDG</title>
<polygon fill="white" stroke="none" points="-4,4 -4,-421.25 282.12,-421.25 282.12,4 -4,4"/>
<!-- node0 -->
<g id="node1" class="node">
<title>node0</title>
<polygon fill="none" stroke="black" points="200.5,-417.25 0,-417.25 0,-381.25 200.5,-381.25 200.5,-417.25"/>
<text text-anchor="middle" x="100.25" y="-394.57" font-family="Times,serif" font-size="14.00">ENTRY: multipleReturns()</text>
</g>
<!-- node2 -->
<g id="node3" class="node">
<title>node2</title>
<polygon fill="none" stroke="black" points="150.62,-344.25 49.88,-344.25 49.88,-308.25 150.62,-308.25 150.62,-344.25"/>
<text text-anchor="middle" x="100.25" y="-321.57" font-family="Times,serif" font-size="14.00">3: int a = 1;</text>
</g>
<!-- node0&#45;&gt;node2 -->
<g id="edge3" class="edge">
<title>node0&#45;&gt;node2</title>
<path fill="none" stroke="blue" d="M100.25,-381.06C100.25,-373.48 100.25,-364.35 100.25,-355.79"/>
<polygon fill="blue" stroke="blue" points="103.75,-355.79 100.25,-345.79 96.75,-355.79 103.75,-355.79"/>
</g>
<!-- node1 -->
<g id="node2" class="node">
<title>node1</title>
<polygon fill="none" stroke="black" points="238.38,-36 52.12,-36 52.12,0 238.38,0 238.38,-36"/>
<text text-anchor="middle" x="145.25" y="-13.32" font-family="Times,serif" font-size="14.00">EXIT: multipleReturns()</text>
</g>
<!-- node3 -->
<g id="node4" class="node">
<title>node3</title>
<polygon fill="none" stroke="black" points="190,-271.25 88.5,-271.25 88.5,-235.25 190,-235.25 190,-271.25"/>
<text text-anchor="middle" x="139.25" y="-248.57" font-family="Times,serif" font-size="14.00">4: int b = 5;</text>
</g>
<!-- node2&#45;&gt;node3 -->
<g id="edge4" class="edge">
<title>node2&#45;&gt;node3</title>
<path fill="none" stroke="blue" d="M109.69,-308.06C114.1,-300.04 119.45,-290.3 124.38,-281.32"/>
<polygon fill="blue" stroke="blue" points="127.42,-283.06 129.17,-272.61 121.29,-279.69 127.42,-283.06"/>
</g>
<!-- node4 -->
<g id="node5" class="node">
<title>node4</title>
<polygon fill="none" stroke="black" points="180.75,-182 101.75,-182 101.75,-146 180.75,-146 180.75,-182"/>
<text text-anchor="middle" x="141.25" y="-159.32" font-family="Times,serif" font-size="14.00">if (a &lt; b)</text>
</g>
<!-- node2&#45;&gt;node4 -->
<g id="edge8" class="edge">
<title>node2&#45;&gt;node4</title>
<path fill="none" stroke="red" stroke-dasharray="5,2" d="M87.42,-308.04C75.41,-289.71 60.75,-259.99 71,-235.25 78.49,-217.17 93.14,-201.32 107.13,-189.27"/>
<polygon fill="red" stroke="red" points="108.99,-192.27 114.51,-183.23 104.56,-186.85 108.99,-192.27"/>
<text text-anchor="middle" x="75.12" y="-248.57" font-family="Times,serif" font-size="14.00">a</text>
</g>
<!-- node5 -->
<g id="node6" class="node">
<title>node5</title>
<polygon fill="none" stroke="black" points="138.75,-109 11.75,-109 11.75,-73 138.75,-73 138.75,-109"/>
<text text-anchor="middle" x="75.25" y="-86.33" font-family="Times,serif" font-size="14.00">6: return a + b;</text>
</g>
<!-- node2&#45;&gt;node5 -->
<g id="edge9" class="edge">
<title>node2&#45;&gt;node5</title>
<path fill="none" stroke="red" stroke-dasharray="5,2" d="M83.58,-307.9C75.42,-298.03 66.63,-284.93 63.25,-271.25 50.38,-219.16 60.23,-156.12 68.07,-120.38"/>
<polygon fill="red" stroke="red" points="71.44,-121.37 70.28,-110.83 64.62,-119.79 71.44,-121.37"/>
<text text-anchor="middle" x="61.44" y="-203.95" font-family="Times,serif" font-size="14.00">a</text>
</g>
<!-- node6 -->
<g id="node7" class="node">
<title>node6</title>
<polygon fill="none" stroke="black" points="278.12,-109 156.38,-109 156.38,-73 278.12,-73 278.12,-109"/>
<text text-anchor="middle" x="217.25" y="-86.33" font-family="Times,serif" font-size="14.00">8: return a * b;</text>
</g>
<!-- node2&#45;&gt;node6 -->
<g id="edge10" class="edge">
<title>node2&#45;&gt;node6</title>
<path fill="none" stroke="red" stroke-dasharray="5,2" d="M150.99,-307.96C168.74,-299.51 187.23,-287.56 199.25,-271.25 231.9,-226.95 228.17,-158.87 222.65,-120.62"/>
<polygon fill="red" stroke="red" points="226.11,-120.13 221.07,-110.81 219.2,-121.24 226.11,-120.13"/>
<text text-anchor="middle" x="228.69" y="-203.95" font-family="Times,serif" font-size="14.00">a</text>
</g>
<!-- node3&#45;&gt;node4 -->
<g id="edge5" class="edge">
<title>node3&#45;&gt;node4</title>
<path fill="none" stroke="blue" d="M135.89,-234.83C134.35,-224.67 133.1,-211.61 134.25,-200 134.46,-197.92 134.73,-195.77 135.05,-193.62"/>
<polygon fill="blue" stroke="blue" points="138.48,-194.3 136.81,-183.83 131.6,-193.06 138.48,-194.3"/>
</g>
<!-- node3&#45;&gt;node4 -->
<g id="edge11" class="edge">
<title>node3&#45;&gt;node4</title>
<path fill="none" stroke="red" stroke-dasharray="5,2" d="M139.65,-235.01C139.92,-223.18 140.28,-207.2 140.6,-193.5"/>
<polygon fill="red" stroke="red" points="144.09,-193.79 140.82,-183.72 137.09,-193.63 144.09,-193.79"/>
<text text-anchor="middle" x="144.93" y="-203.95" font-family="Times,serif" font-size="14.00">b</text>
</g>
<!-- node3&#45;&gt;node5 -->
<g id="edge12" class="edge">
<title>node3&#45;&gt;node5</title>
<path fill="none" stroke="red" stroke-dasharray="5,2" d="M121.12,-235.01C108.47,-221.79 92.45,-202.41 84.25,-182 76.41,-162.49 74.31,-138.77 74.09,-120.58"/>
<polygon fill="red" stroke="red" points="77.59,-120.8 74.17,-110.77 70.59,-120.74 77.59,-120.8"/>
<text text-anchor="middle" x="88.75" y="-159.32" font-family="Times,serif" font-size="14.00">b</text>
</g>
<!-- node3&#45;&gt;node6 -->
<g id="edge13" class="edge">
<title>node3&#45;&gt;node6</title>
<path fill="none" stroke="red" stroke-dasharray="5,2" d="M154.46,-234.84C165.69,-221.25 180.62,-201.45 190.25,-182 199.99,-162.33 206.95,-138.48 211.36,-120.27"/>
<polygon fill="red" stroke="red" points="214.73,-121.23 213.56,-110.7 207.91,-119.67 214.73,-121.23"/>
<text text-anchor="middle" x="208.75" y="-159.32" font-family="Times,serif" font-size="14.00">b</text>
</g>
<!-- node4&#45;&gt;node5 -->
<g id="edge1" class="edge">
<title>node4&#45;&gt;node5</title>
<path fill="none" stroke="blue" d="M125.27,-145.81C117.33,-137.27 107.57,-126.77 98.79,-117.32"/>
<polygon fill="blue" stroke="blue" points="101.48,-115.08 92.11,-110.14 96.36,-119.84 101.48,-115.08"/>
</g>
<!-- node4&#45;&gt;node6 -->
<g id="edge2" class="edge">
<title>node4&#45;&gt;node6</title>
<path fill="none" stroke="blue" d="M159.65,-145.81C168.91,-137.16 180.32,-126.5 190.53,-116.96"/>
<polygon fill="blue" stroke="blue" points="192.73,-119.69 197.65,-110.31 187.96,-114.58 192.73,-119.69"/>
</g>
<!-- node5&#45;&gt;node1 -->
<g id="edge6" class="edge">
<title>node5&#45;&gt;node1</title>
<path fill="none" stroke="blue" d="M92.2,-72.81C100.71,-64.18 111.18,-53.56 120.57,-44.03"/>
<polygon fill="blue" stroke="blue" points="122.87,-46.68 127.4,-37.11 117.89,-41.77 122.87,-46.68"/>
</g>
<!-- node6&#45;&gt;node1 -->
<g id="edge7" class="edge">
<title>node6&#45;&gt;node1</title>
<path fill="none" stroke="blue" d="M199.82,-72.81C191.13,-64.24 180.45,-53.71 170.85,-44.24"/>
<polygon fill="blue" stroke="blue" points="173.42,-41.87 163.85,-37.34 168.51,-46.85 173.42,-41.87"/>
</g>
</g>
</svg>
