<?xml version="1.0" encoding="UTF-8" standalone="no"?>
<!DOCTYPE svg PUBLIC "-//W3C//DTD SVG 1.1//EN"
 "http://www.w3.org/Graphics/SVG/1.1/DTD/svg11.dtd">
<!-- Generated by graphviz version 12.2.0 (0)
 -->
<!-- Title: PDG Pages: 1 -->
<svg width="423pt" height="847pt"
 viewBox="0.00 0.00 422.62 847.25" xmlns="http://www.w3.org/2000/svg" xmlns:xlink="http://www.w3.org/1999/xlink">
<g id="graph0" class="graph" transform="scale(1 1) rotate(0) translate(4 843.25)">
<title>PDG</title>
<polygon fill="white" stroke="none" points="-4,4 -4,-843.25 418.62,-843.25 418.62,4 -4,4"/>
<!-- node2 -->
<g id="node1" class="node">
<title>node2</title>
<polygon fill="none" stroke="black" points="392.12,-750 257.62,-750 257.62,-714 392.12,-714 392.12,-750"/>
<text text-anchor="middle" x="324.88" y="-727.33" font-family="Times,serif" font-size="14.00">3: int result = 1;</text>
</g>
<!-- node3 -->
<g id="node2" class="node">
<title>node3</title>
<polygon fill="none" stroke="black" points="373.38,-660.75 276.38,-660.75 276.38,-624.75 373.38,-624.75 373.38,-660.75"/>
<text text-anchor="middle" x="324.88" y="-638.08" font-family="Times,serif" font-size="14.00">4: int i = 1;</text>
</g>
<!-- node2&#45;&gt;node3 -->
<g id="edge6" class="edge">
<title>node2&#45;&gt;node3</title>
<path fill="none" stroke="blue" d="M324.88,-713.76C324.88,-701.93 324.88,-685.95 324.88,-672.25"/>
<polygon fill="blue" stroke="blue" points="328.38,-672.47 324.88,-662.47 321.38,-672.47 328.38,-672.47"/>
<text text-anchor="middle" x="337.25" y="-682.7" font-family="Times,serif" font-size="14.00">ctrl</text>
</g>
<!-- node4 -->
<g id="node3" class="node">
<title>node4</title>
<polygon fill="none" stroke="black" points="382.75,-571.5 267,-571.5 267,-535.5 382.75,-535.5 382.75,-571.5"/>
<text text-anchor="middle" x="324.88" y="-548.83" font-family="Times,serif" font-size="14.00">while (i &lt;= n)</text>
</g>
<!-- node3&#45;&gt;node4 -->
<g id="edge7" class="edge">
<title>node3&#45;&gt;node4</title>
<path fill="none" stroke="blue" d="M324.88,-624.51C324.88,-612.68 324.88,-596.7 324.88,-583"/>
<polygon fill="blue" stroke="blue" points="328.38,-583.22 324.88,-573.22 321.38,-583.22 328.38,-583.22"/>
<text text-anchor="middle" x="337.25" y="-593.45" font-family="Times,serif" font-size="14.00">ctrl</text>
</g>
<!-- node5 -->
<g id="node4" class="node">
<title>node5</title>
<polygon fill="none" stroke="black" points="163.75,-482.25 0,-482.25 0,-446.25 163.75,-446.25 163.75,-482.25"/>
<text text-anchor="middle" x="81.88" y="-459.57" font-family="Times,serif" font-size="14.00">6: result = result * i;</text>
</g>
<!-- node4&#45;&gt;node5 -->
<g id="edge4" class="edge">
<title>node4&#45;&gt;node5</title>
<path fill="none" stroke="blue" d="M276.28,-535.05C237.38,-521.08 182.65,-501.43 141.16,-486.54"/>
<polygon fill="blue" stroke="blue" points="142.4,-483.26 131.81,-483.18 140.03,-489.85 142.4,-483.26"/>
<text text-anchor="middle" x="237.52" y="-504.2" font-family="Times,serif" font-size="14.00">ctrl</text>
</g>
<!-- node13 -->
<g id="node12" class="node">
<title>node13</title>
<polygon fill="none" stroke="black" points="321.75,-482.25 182,-482.25 182,-446.25 321.75,-446.25 321.75,-482.25"/>
<text text-anchor="middle" x="251.88" y="-459.57" font-family="Times,serif" font-size="14.00">18: return result;</text>
</g>
<!-- node4&#45;&gt;node13 -->
<g id="edge8" class="edge">
<title>node4&#45;&gt;node13</title>
<path fill="none" stroke="blue" d="M310.45,-535.26C299.85,-522.6 285.28,-505.17 273.32,-490.88"/>
<polygon fill="blue" stroke="blue" points="276.34,-489.04 267.24,-483.61 270.97,-493.53 276.34,-489.04"/>
<text text-anchor="middle" x="307.29" y="-504.2" font-family="Times,serif" font-size="14.00">ctrl</text>
</g>
<!-- node6 -->
<g id="node5" class="node">
<title>node6</title>
<polygon fill="none" stroke="black" points="205.5,-393 112.25,-393 112.25,-357 205.5,-357 205.5,-393"/>
<text text-anchor="middle" x="158.88" y="-370.32" font-family="Times,serif" font-size="14.00">if (i &gt; 100)</text>
</g>
<!-- node5&#45;&gt;node6 -->
<g id="edge9" class="edge">
<title>node5&#45;&gt;node6</title>
<path fill="none" stroke="blue" d="M97.09,-446.01C108.27,-433.35 123.64,-415.92 136.26,-401.63"/>
<polygon fill="blue" stroke="blue" points="138.7,-404.15 142.69,-394.34 133.45,-399.52 138.7,-404.15"/>
<text text-anchor="middle" x="139.65" y="-414.95" font-family="Times,serif" font-size="14.00">ctrl</text>
</g>
<!-- node7 -->
<g id="node6" class="node">
<title>node7</title>
<polygon fill="none" stroke="black" points="350.38,-303.75 247.38,-303.75 247.38,-267.75 350.38,-267.75 350.38,-303.75"/>
<text text-anchor="middle" x="298.88" y="-281.07" font-family="Times,serif" font-size="14.00">8: i += 101;</text>
</g>
<!-- node6&#45;&gt;node7 -->
<g id="edge1" class="edge">
<title>node6&#45;&gt;node7</title>
<path fill="none" stroke="blue" d="M186.87,-356.55C208.23,-343.24 237.89,-324.76 261.31,-310.16"/>
<polygon fill="blue" stroke="blue" points="263.01,-313.23 269.64,-304.97 259.31,-307.29 263.01,-313.23"/>
<text text-anchor="middle" x="253.79" y="-325.7" font-family="Times,serif" font-size="14.00">ctrl</text>
</g>
<!-- node8 -->
<g id="node7" class="node">
<title>node8</title>
<polygon fill="none" stroke="black" points="224.62,-303.75 117.12,-303.75 117.12,-267.75 224.62,-267.75 224.62,-303.75"/>
<text text-anchor="middle" x="170.88" y="-281.07" font-family="Times,serif" font-size="14.00">10: i = i + 1;</text>
</g>
<!-- node6&#45;&gt;node8 -->
<g id="edge3" class="edge">
<title>node6&#45;&gt;node8</title>
<path fill="none" stroke="blue" d="M161.25,-356.76C162.87,-344.93 165.07,-328.95 166.96,-315.25"/>
<polygon fill="blue" stroke="blue" points="170.41,-315.84 168.3,-305.45 163.47,-314.88 170.41,-315.84"/>
<text text-anchor="middle" x="178.32" y="-325.7" font-family="Times,serif" font-size="14.00">ctrl</text>
</g>
<!-- node7&#45;&gt;node4 -->
<g id="edge10" class="edge">
<title>node7&#45;&gt;node4</title>
<path fill="none" stroke="blue" d="M303.46,-303.81C310.99,-332.81 325.65,-393.69 330.88,-446.25 332.46,-462.17 331.56,-466.26 330.88,-482.25 330.29,-495.97 329.07,-511.15 327.88,-523.88"/>
<polygon fill="blue" stroke="blue" points="324.41,-523.4 326.91,-533.7 331.37,-524.09 324.41,-523.4"/>
<text text-anchor="middle" x="341.08" y="-414.95" font-family="Times,serif" font-size="14.00">ctrl</text>
</g>
<!-- node9 -->
<g id="node8" class="node">
<title>node9</title>
<polygon fill="none" stroke="black" points="276.88,-214.5 170.88,-214.5 170.88,-178.5 276.88,-178.5 276.88,-214.5"/>
<text text-anchor="middle" x="223.88" y="-191.82" font-family="Times,serif" font-size="14.00">11: int j = 5;</text>
</g>
<!-- node8&#45;&gt;node9 -->
<g id="edge11" class="edge">
<title>node8&#45;&gt;node9</title>
<path fill="none" stroke="blue" d="M181.35,-267.51C188.82,-255.2 199.03,-238.41 207.57,-224.35"/>
<polygon fill="blue" stroke="blue" points="210.44,-226.36 212.64,-216 204.46,-222.73 210.44,-226.36"/>
<text text-anchor="middle" x="214.5" y="-236.45" font-family="Times,serif" font-size="14.00">ctrl</text>
</g>
<!-- node10 -->
<g id="node9" class="node">
<title>node10</title>
<polygon fill="none" stroke="black" points="317.25,-125.25 186.5,-125.25 186.5,-89.25 317.25,-89.25 317.25,-125.25"/>
<text text-anchor="middle" x="251.88" y="-102.58" font-family="Times,serif" font-size="14.00">while (j &lt; 1000)</text>
</g>
<!-- node9&#45;&gt;node10 -->
<g id="edge12" class="edge">
<title>node9&#45;&gt;node10</title>
<path fill="none" stroke="blue" d="M229.41,-178.26C233.24,-166.31 238.43,-150.13 242.86,-136.33"/>
<polygon fill="blue" stroke="blue" points="246.17,-137.48 245.89,-126.89 239.5,-135.35 246.17,-137.48"/>
<text text-anchor="middle" x="252.76" y="-147.2" font-family="Times,serif" font-size="14.00">ctrl</text>
</g>
<!-- node11 -->
<g id="node10" class="node">
<title>node11</title>
<polygon fill="none" stroke="black" points="295.62,-36 188.12,-36 188.12,0 295.62,0 295.62,-36"/>
<text text-anchor="middle" x="241.88" y="-13.32" font-family="Times,serif" font-size="14.00">13: j = j + 1;</text>
</g>
<!-- node10&#45;&gt;node11 -->
<g id="edge2" class="edge">
<title>node10&#45;&gt;node11</title>
<path fill="none" stroke="blue" d="M256.05,-89.17C257.93,-78.9 259.26,-65.6 256.88,-54 256.4,-51.67 255.76,-49.31 255.01,-46.97"/>
<polygon fill="blue" stroke="blue" points="258.33,-45.85 251.49,-37.77 251.8,-48.36 258.33,-45.85"/>
<text text-anchor="middle" x="270.53" y="-57.95" font-family="Times,serif" font-size="14.00">ctrl</text>
</g>
<!-- node12 -->
<g id="node11" class="node">
<title>node12</title>
<polygon fill="none" stroke="black" points="401.88,-36 319.88,-36 319.88,0 401.88,0 401.88,-36"/>
<text text-anchor="middle" x="360.88" y="-13.32" font-family="Times,serif" font-size="14.00">15: i &#45;= j;</text>
</g>
<!-- node10&#45;&gt;node12 -->
<g id="edge13" class="edge">
<title>node10&#45;&gt;node12</title>
<path fill="none" stroke="blue" d="M273.67,-88.8C289.86,-75.84 312.16,-58 330.15,-43.59"/>
<polygon fill="blue" stroke="blue" points="332.32,-46.34 337.94,-37.36 327.94,-40.88 332.32,-46.34"/>
<text text-anchor="middle" x="328.51" y="-57.95" font-family="Times,serif" font-size="14.00">ctrl</text>
</g>
<!-- node11&#45;&gt;node10 -->
<g id="edge14" class="edge">
<title>node11&#45;&gt;node10</title>
<path fill="none" stroke="blue" d="M232.56,-36.04C228.15,-46.3 224.54,-59.59 228.12,-71.25 228.93,-73.86 229.99,-76.44 231.23,-78.96"/>
<polygon fill="blue" stroke="blue" points="228.18,-80.68 236.29,-87.49 234.2,-77.11 228.18,-80.68"/>
<text text-anchor="middle" x="240.5" y="-57.95" font-family="Times,serif" font-size="14.00">ctrl</text>
</g>
<!-- node12&#45;&gt;node4 -->
<g id="edge15" class="edge">
<title>node12&#45;&gt;node4</title>
<path fill="none" stroke="blue" d="M370.37,-36.48C378.83,-53.71 389.88,-81.03 389.88,-106.25 389.88,-465.25 389.88,-465.25 389.88,-465.25 389.88,-489.7 373.26,-511.73 356.83,-527.54"/>
<polygon fill="blue" stroke="blue" points="354.53,-524.9 349.46,-534.2 359.23,-530.09 354.53,-524.9"/>
<text text-anchor="middle" x="402.25" y="-281.07" font-family="Times,serif" font-size="14.00">ctrl</text>
</g>
<!-- node1 -->
<g id="node14" class="node">
<title>node1</title>
<polygon fill="none" stroke="black" points="282.62,-393 223.12,-393 223.12,-357 282.62,-357 282.62,-393"/>
<text text-anchor="middle" x="252.88" y="-370.32" font-family="Times,serif" font-size="14.00">node1</text>
</g>
<!-- node13&#45;&gt;node1 -->
<g id="edge16" class="edge">
<title>node13&#45;&gt;node1</title>
<path fill="none" stroke="blue" d="M252.07,-446.01C252.21,-434.18 252.39,-418.2 252.55,-404.5"/>
<polygon fill="blue" stroke="blue" points="256.05,-404.75 252.66,-394.72 249.05,-404.67 256.05,-404.75"/>
<text text-anchor="middle" x="264.84" y="-414.95" font-family="Times,serif" font-size="14.00">ctrl</text>
</g>
<!-- node0 -->
<g id="node13" class="node">
<title>node0</title>
<polygon fill="none" stroke="black" points="354.62,-839.25 295.12,-839.25 295.12,-803.25 354.62,-803.25 354.62,-839.25"/>
<text text-anchor="middle" x="324.88" y="-816.58" font-family="Times,serif" font-size="14.00">node0</text>
</g>
<!-- node0&#45;&gt;node2 -->
<g id="edge5" class="edge">
<title>node0&#45;&gt;node2</title>
<path fill="none" stroke="blue" d="M324.88,-803.01C324.88,-791.18 324.88,-775.2 324.88,-761.5"/>
<polygon fill="blue" stroke="blue" points="328.38,-761.72 324.88,-751.72 321.38,-761.72 328.38,-761.72"/>
<text text-anchor="middle" x="337.25" y="-771.95" font-family="Times,serif" font-size="14.00">ctrl</text>
</g>
</g>
</svg>
