<?xml version="1.0" encoding="UTF-8" standalone="no"?>
<!DOCTYPE svg PUBLIC "-//W3C//DTD SVG 1.1//EN"
 "http://www.w3.org/Graphics/SVG/1.1/DTD/svg11.dtd">
<!-- Generated by graphviz version 12.2.0 (0)
 -->
<!-- Title: PDG Pages: 1 -->
<svg width="440pt" height="847pt"
 viewBox="0.00 0.00 440.00 847.25" xmlns="http://www.w3.org/2000/svg" xmlns:xlink="http://www.w3.org/1999/xlink">
<g id="graph0" class="graph" transform="scale(1 1) rotate(0) translate(4 843.25)">
<title>PDG</title>
<polygon fill="white" stroke="none" points="-4,4 -4,-843.25 436,-843.25 436,4 -4,4"/>
<!-- node0 -->
<g id="node1" class="node">
<title>node0</title>
<polygon fill="none" stroke="black" points="432,-839.25 227.75,-839.25 227.75,-803.25 432,-803.25 432,-839.25"/>
<text text-anchor="middle" x="329.88" y="-816.58" font-family="Times,serif" font-size="14.00">ENTRY: nestedLoops(int[])</text>
</g>
<!-- node2 -->
<g id="node3" class="node">
<title>node2</title>
<polygon fill="none" stroke="black" points="397.12,-750 262.62,-750 262.62,-714 397.12,-714 397.12,-750"/>
<text text-anchor="middle" x="329.88" y="-727.33" font-family="Times,serif" font-size="14.00">3: int result = 1;</text>
</g>
<!-- node0&#45;&gt;node2 -->
<g id="edge5" class="edge">
<title>node0&#45;&gt;node2</title>
<path fill="none" stroke="blue" d="M329.88,-803.01C329.88,-791.18 329.88,-775.2 329.88,-761.5"/>
<polygon fill="blue" stroke="blue" points="333.38,-761.72 329.88,-751.72 326.38,-761.72 333.38,-761.72"/>
<text text-anchor="middle" x="342.25" y="-771.95" font-family="Times,serif" font-size="14.00">ctrl</text>
</g>
<!-- node1 -->
<g id="node2" class="node">
<title>node1</title>
<polygon fill="none" stroke="black" points="327.88,-393 137.88,-393 137.88,-357 327.88,-357 327.88,-393"/>
<text text-anchor="middle" x="232.88" y="-370.32" font-family="Times,serif" font-size="14.00">EXIT: nestedLoops(int[])</text>
</g>
<!-- node3 -->
<g id="node4" class="node">
<title>node3</title>
<polygon fill="none" stroke="black" points="378.38,-660.75 281.38,-660.75 281.38,-624.75 378.38,-624.75 378.38,-660.75"/>
<text text-anchor="middle" x="329.88" y="-638.08" font-family="Times,serif" font-size="14.00">4: int i = 1;</text>
</g>
<!-- node2&#45;&gt;node3 -->
<g id="edge6" class="edge">
<title>node2&#45;&gt;node3</title>
<path fill="none" stroke="blue" d="M329.88,-713.76C329.88,-701.93 329.88,-685.95 329.88,-672.25"/>
<polygon fill="blue" stroke="blue" points="333.38,-672.47 329.88,-662.47 326.38,-672.47 333.38,-672.47"/>
<text text-anchor="middle" x="342.25" y="-682.7" font-family="Times,serif" font-size="14.00">ctrl</text>
</g>
<!-- node4 -->
<g id="node5" class="node">
<title>node4</title>
<polygon fill="none" stroke="black" points="387.75,-571.5 272,-571.5 272,-535.5 387.75,-535.5 387.75,-571.5"/>
<text text-anchor="middle" x="329.88" y="-548.83" font-family="Times,serif" font-size="14.00">while (i &lt;= n)</text>
</g>
<!-- node3&#45;&gt;node4 -->
<g id="edge7" class="edge">
<title>node3&#45;&gt;node4</title>
<path fill="none" stroke="blue" d="M329.88,-624.51C329.88,-612.68 329.88,-596.7 329.88,-583"/>
<polygon fill="blue" stroke="blue" points="333.38,-583.22 329.88,-573.22 326.38,-583.22 333.38,-583.22"/>
<text text-anchor="middle" x="342.25" y="-593.45" font-family="Times,serif" font-size="14.00">ctrl</text>
</g>
<!-- node5 -->
<g id="node6" class="node">
<title>node5</title>
<polygon fill="none" stroke="black" points="163.75,-482.25 0,-482.25 0,-446.25 163.75,-446.25 163.75,-482.25"/>
<text text-anchor="middle" x="81.88" y="-459.57" font-family="Times,serif" font-size="14.00">6: result = result * i;</text>
</g>
<!-- node4&#45;&gt;node5 -->
<g id="edge4" class="edge">
<title>node4&#45;&gt;node5</title>
<path fill="none" stroke="blue" d="M280.28,-535.05C240.49,-521.05 184.48,-501.35 142.11,-486.44"/>
<polygon fill="blue" stroke="blue" points="143.4,-483.19 132.81,-483.17 141.08,-489.79 143.4,-483.19"/>
<text text-anchor="middle" x="240.46" y="-504.2" font-family="Times,serif" font-size="14.00">ctrl</text>
</g>
<!-- node13 -->
<g id="node14" class="node">
<title>node13</title>
<polygon fill="none" stroke="black" points="325.75,-482.25 186,-482.25 186,-446.25 325.75,-446.25 325.75,-482.25"/>
<text text-anchor="middle" x="255.88" y="-459.57" font-family="Times,serif" font-size="14.00">18: return result;</text>
</g>
<!-- node4&#45;&gt;node13 -->
<g id="edge8" class="edge">
<title>node4&#45;&gt;node13</title>
<path fill="none" stroke="blue" d="M315.25,-535.26C304.51,-522.6 289.74,-505.17 277.61,-490.88"/>
<polygon fill="blue" stroke="blue" points="280.58,-488.97 271.44,-483.61 275.24,-493.5 280.58,-488.97"/>
<text text-anchor="middle" x="311.88" y="-504.2" font-family="Times,serif" font-size="14.00">ctrl</text>
</g>
<!-- node6 -->
<g id="node7" class="node">
<title>node6</title>
<polygon fill="none" stroke="black" points="119.5,-393 26.25,-393 26.25,-357 119.5,-357 119.5,-393"/>
<text text-anchor="middle" x="72.88" y="-370.32" font-family="Times,serif" font-size="14.00">if (i &gt; 100)</text>
</g>
<!-- node5&#45;&gt;node6 -->
<g id="edge9" class="edge">
<title>node5&#45;&gt;node6</title>
<path fill="none" stroke="blue" d="M80.1,-446.01C78.88,-434.18 77.23,-418.2 75.81,-404.5"/>
<polygon fill="blue" stroke="blue" points="79.31,-404.3 74.8,-394.71 72.35,-405.01 79.31,-404.3"/>
<text text-anchor="middle" x="90.56" y="-414.95" font-family="Times,serif" font-size="14.00">ctrl</text>
</g>
<!-- node7 -->
<g id="node8" class="node">
<title>node7</title>
<polygon fill="none" stroke="black" points="345.38,-303.75 242.38,-303.75 242.38,-267.75 345.38,-267.75 345.38,-303.75"/>
<text text-anchor="middle" x="293.88" y="-281.07" font-family="Times,serif" font-size="14.00">8: i += 101;</text>
</g>
<!-- node6&#45;&gt;node7 -->
<g id="edge1" class="edge">
<title>node6&#45;&gt;node7</title>
<path fill="none" stroke="blue" d="M117.07,-356.55C152.3,-342.64 201.8,-323.1 239.47,-308.23"/>
<polygon fill="blue" stroke="blue" points="240.34,-311.65 248.35,-304.72 237.77,-305.14 240.34,-311.65"/>
<text text-anchor="middle" x="215.54" y="-325.7" font-family="Times,serif" font-size="14.00">ctrl</text>
</g>
<!-- node8 -->
<g id="node9" class="node">
<title>node8</title>
<polygon fill="none" stroke="black" points="196.62,-303.75 89.12,-303.75 89.12,-267.75 196.62,-267.75 196.62,-303.75"/>
<text text-anchor="middle" x="142.88" y="-281.07" font-family="Times,serif" font-size="14.00">10: i = i + 1;</text>
</g>
<!-- node6&#45;&gt;node8 -->
<g id="edge3" class="edge">
<title>node6&#45;&gt;node8</title>
<path fill="none" stroke="blue" d="M86.7,-356.76C96.77,-344.21 110.58,-327 121.99,-312.78"/>
<polygon fill="blue" stroke="blue" points="124.6,-315.12 128.13,-305.13 119.14,-310.74 124.6,-315.12"/>
<text text-anchor="middle" x="126.52" y="-325.7" font-family="Times,serif" font-size="14.00">ctrl</text>
</g>
<!-- node7&#45;&gt;node4 -->
<g id="edge10" class="edge">
<title>node7&#45;&gt;node4</title>
<path fill="none" stroke="blue" d="M308.37,-304.22C318.56,-317.7 331.33,-337.32 336.88,-357 353.07,-414.5 343.71,-485.27 336.26,-523.94"/>
<polygon fill="blue" stroke="blue" points="332.86,-523.1 334.3,-533.6 339.72,-524.5 332.86,-523.1"/>
<text text-anchor="middle" x="358.17" y="-414.95" font-family="Times,serif" font-size="14.00">ctrl</text>
</g>
<!-- node9 -->
<g id="node10" class="node">
<title>node9</title>
<polygon fill="none" stroke="black" points="231.88,-214.5 125.88,-214.5 125.88,-178.5 231.88,-178.5 231.88,-214.5"/>
<text text-anchor="middle" x="178.88" y="-191.82" font-family="Times,serif" font-size="14.00">11: int j = 5;</text>
</g>
<!-- node8&#45;&gt;node9 -->
<g id="edge11" class="edge">
<title>node8&#45;&gt;node9</title>
<path fill="none" stroke="blue" d="M149.99,-267.51C154.97,-255.44 161.73,-239.06 167.46,-225.17"/>
<polygon fill="blue" stroke="blue" points="170.62,-226.68 171.2,-216.1 164.15,-224.01 170.62,-226.68"/>
<text text-anchor="middle" x="176.47" y="-236.45" font-family="Times,serif" font-size="14.00">ctrl</text>
</g>
<!-- node10 -->
<g id="node11" class="node">
<title>node10</title>
<polygon fill="none" stroke="black" points="315.25,-125.25 184.5,-125.25 184.5,-89.25 315.25,-89.25 315.25,-125.25"/>
<text text-anchor="middle" x="249.88" y="-102.58" font-family="Times,serif" font-size="14.00">while (j &lt; 1000)</text>
</g>
<!-- node9&#45;&gt;node10 -->
<g id="edge12" class="edge">
<title>node9&#45;&gt;node10</title>
<path fill="none" stroke="blue" d="M192.9,-178.26C203.11,-165.71 217.12,-148.5 228.69,-134.28"/>
<polygon fill="blue" stroke="blue" points="231.32,-136.59 234.92,-126.63 225.89,-132.17 231.32,-136.59"/>
<text text-anchor="middle" x="233.11" y="-147.2" font-family="Times,serif" font-size="14.00">ctrl</text>
</g>
<!-- node11 -->
<g id="node12" class="node">
<title>node11</title>
<polygon fill="none" stroke="black" points="306.62,-36 199.12,-36 199.12,0 306.62,0 306.62,-36"/>
<text text-anchor="middle" x="252.88" y="-13.32" font-family="Times,serif" font-size="14.00">13: j = j + 1;</text>
</g>
<!-- node10&#45;&gt;node11 -->
<g id="edge2" class="edge">
<title>node10&#45;&gt;node11</title>
<path fill="none" stroke="blue" d="M252.86,-88.86C253.68,-83.25 254.47,-77.01 254.88,-71.25 255.42,-63.64 255.39,-55.4 255.1,-47.76"/>
<polygon fill="blue" stroke="blue" points="258.61,-47.74 254.57,-37.94 251.62,-48.12 258.61,-47.74"/>
<text text-anchor="middle" x="267.68" y="-57.95" font-family="Times,serif" font-size="14.00">ctrl</text>
</g>
<!-- node12 -->
<g id="node13" class="node">
<title>node12</title>
<polygon fill="none" stroke="black" points="421.88,-36 339.88,-36 339.88,0 421.88,0 421.88,-36"/>
<text text-anchor="middle" x="380.88" y="-13.32" font-family="Times,serif" font-size="14.00">15: i &#45;= j;</text>
</g>
<!-- node10&#45;&gt;node12 -->
<g id="edge13" class="edge">
<title>node10&#45;&gt;node12</title>
<path fill="none" stroke="blue" d="M276.07,-88.8C295.97,-75.55 323.56,-57.17 345.43,-42.61"/>
<polygon fill="blue" stroke="blue" points="347.08,-45.71 353.47,-37.26 343.2,-39.89 347.08,-45.71"/>
<text text-anchor="middle" x="339.48" y="-57.95" font-family="Times,serif" font-size="14.00">ctrl</text>
</g>
<!-- node11&#45;&gt;node10 -->
<g id="edge14" class="edge">
<title>node11&#45;&gt;node10</title>
<path fill="none" stroke="blue" d="M236.22,-36.2C232.12,-41.5 228.28,-47.62 226.12,-54 223.28,-62.4 225.29,-71.28 229.11,-79.28"/>
<polygon fill="blue" stroke="blue" points="226.08,-81.03 234.17,-87.88 232.12,-77.49 226.08,-81.03"/>
<text text-anchor="middle" x="238.5" y="-57.95" font-family="Times,serif" font-size="14.00">ctrl</text>
</g>
<!-- node12&#45;&gt;node4 -->
<g id="edge15" class="edge">
<title>node12&#45;&gt;node4</title>
<path fill="none" stroke="blue" d="M385.62,-36.23C390.02,-53.72 395.88,-81.66 395.88,-106.25 395.88,-465.25 395.88,-465.25 395.88,-465.25 395.88,-490.06 378.69,-512.27 361.86,-528.07"/>
<polygon fill="blue" stroke="blue" points="360,-525.04 354.84,-534.29 364.64,-530.28 360,-525.04"/>
<text text-anchor="middle" x="408.25" y="-281.07" font-family="Times,serif" font-size="14.00">ctrl</text>
</g>
<!-- node13&#45;&gt;node1 -->
<g id="edge16" class="edge">
<title>node13&#45;&gt;node1</title>
<path fill="none" stroke="blue" d="M251.33,-446.01C248.18,-434.06 243.92,-417.88 240.28,-404.08"/>
<polygon fill="blue" stroke="blue" points="243.73,-403.44 237.8,-394.67 236.96,-405.23 243.73,-403.44"/>
<text text-anchor="middle" x="258.81" y="-414.95" font-family="Times,serif" font-size="14.00">ctrl</text>
</g>
</g>
</svg>
