<?xml version="1.0" encoding="UTF-8" standalone="no"?>
<!DOCTYPE svg PUBLIC "-//W3C//DTD SVG 1.1//EN"
 "http://www.w3.org/Graphics/SVG/1.1/DTD/svg11.dtd">
<!-- Generated by graphviz version 12.2.0 (0)
 -->
<!-- Title: PDG Pages: 1 -->
<svg width="831pt" height="977pt"
 viewBox="0.00 0.00 831.38 977.00" xmlns="http://www.w3.org/2000/svg" xmlns:xlink="http://www.w3.org/1999/xlink">
<g id="graph0" class="graph" transform="scale(1 1) rotate(0) translate(4 973)">
<title>PDG</title>
<polygon fill="white" stroke="none" points="-4,4 -4,-973 827.38,-973 827.38,4 -4,4"/>
<!-- node0 -->
<g id="node1" class="node">
<title>node0</title>
<polygon fill="none" stroke="black" points="820.5,-969 616.25,-969 616.25,-933 820.5,-933 820.5,-969"/>
<text text-anchor="middle" x="718.38" y="-946.33" font-family="Times,serif" font-size="14.00">ENTRY: nestedLoops(int[])</text>
</g>
<!-- node2 -->
<g id="node3" class="node">
<title>node2</title>
<polygon fill="none" stroke="black" points="785.62,-896 651.12,-896 651.12,-860 785.62,-860 785.62,-896"/>
<text text-anchor="middle" x="718.38" y="-873.33" font-family="Times,serif" font-size="14.00">3: int result = 1;</text>
</g>
<!-- node0&#45;&gt;node2 -->
<g id="edge5" class="edge">
<title>node0&#45;&gt;node2</title>
<path fill="none" stroke="blue" d="M718.38,-932.81C718.38,-925.23 718.38,-916.1 718.38,-907.54"/>
<polygon fill="blue" stroke="blue" points="721.88,-907.54 718.38,-897.54 714.88,-907.54 721.88,-907.54"/>
</g>
<!-- node1 -->
<g id="node2" class="node">
<title>node1</title>
<polygon fill="none" stroke="black" points="649.38,-466 459.38,-466 459.38,-430 649.38,-430 649.38,-466"/>
<text text-anchor="middle" x="554.38" y="-443.32" font-family="Times,serif" font-size="14.00">EXIT: nestedLoops(int[])</text>
</g>
<!-- node3 -->
<g id="node4" class="node">
<title>node3</title>
<polygon fill="none" stroke="black" points="433.88,-823 336.88,-823 336.88,-787 433.88,-787 433.88,-823"/>
<text text-anchor="middle" x="385.38" y="-800.33" font-family="Times,serif" font-size="14.00">4: int i = 1;</text>
</g>
<!-- node2&#45;&gt;node3 -->
<g id="edge6" class="edge">
<title>node2&#45;&gt;node3</title>
<path fill="none" stroke="blue" d="M650.99,-862.63C590.77,-849.79 503.35,-831.15 445.46,-818.81"/>
<polygon fill="blue" stroke="blue" points="446.29,-815.41 435.78,-816.75 444.83,-822.26 446.29,-815.41"/>
</g>
<!-- node5 -->
<g id="node6" class="node">
<title>node5</title>
<polygon fill="none" stroke="black" points="653.25,-644.5 489.5,-644.5 489.5,-608.5 653.25,-608.5 653.25,-644.5"/>
<text text-anchor="middle" x="571.38" y="-621.83" font-family="Times,serif" font-size="14.00">6: result = result * i;</text>
</g>
<!-- node2&#45;&gt;node5 -->
<g id="edge17" class="edge">
<title>node2&#45;&gt;node5</title>
<path fill="none" stroke="red" stroke-dasharray="5,2" d="M708.27,-859.85C683.15,-817.21 617.69,-706.12 587.31,-654.54"/>
<polygon fill="red" stroke="red" points="590.41,-652.91 582.32,-646.07 584.38,-656.47 590.41,-652.91"/>
<text text-anchor="middle" x="674.34" y="-755.7" font-family="Times,serif" font-size="14.00">result</text>
</g>
<!-- node13 -->
<g id="node14" class="node">
<title>node13</title>
<polygon fill="none" stroke="black" points="639.25,-555.25 499.5,-555.25 499.5,-519.25 639.25,-519.25 639.25,-555.25"/>
<text text-anchor="middle" x="569.38" y="-532.58" font-family="Times,serif" font-size="14.00">18: return result;</text>
</g>
<!-- node2&#45;&gt;node13 -->
<g id="edge18" class="edge">
<title>node2&#45;&gt;node13</title>
<path fill="none" stroke="red" stroke-dasharray="5,2" d="M746.93,-859.6C763.59,-847.05 781.38,-828.41 781.38,-806 781.38,-806 781.38,-806 781.38,-625.5 781.38,-566.7 710.78,-546.71 651.06,-540.32"/>
<polygon fill="red" stroke="red" points="651.46,-536.84 641.18,-539.39 650.81,-543.81 651.46,-536.84"/>
<text text-anchor="middle" x="802.38" y="-711.08" font-family="Times,serif" font-size="14.00">result</text>
</g>
<!-- node4 -->
<g id="node5" class="node">
<title>node4</title>
<polygon fill="none" stroke="black" points="443.25,-733.75 327.5,-733.75 327.5,-697.75 443.25,-697.75 443.25,-733.75"/>
<text text-anchor="middle" x="385.38" y="-711.08" font-family="Times,serif" font-size="14.00">while (i &lt;= n)</text>
</g>
<!-- node3&#45;&gt;node4 -->
<g id="edge7" class="edge">
<title>node3&#45;&gt;node4</title>
<path fill="none" stroke="blue" d="M385.38,-786.76C385.38,-774.93 385.38,-758.95 385.38,-745.25"/>
<polygon fill="blue" stroke="blue" points="388.88,-745.47 385.38,-735.47 381.88,-745.47 388.88,-745.47"/>
</g>
<!-- node3&#45;&gt;node4 -->
<g id="edge20" class="edge">
<title>node3&#45;&gt;node4</title>
<path fill="none" stroke="red" stroke-dasharray="5,2" d="M382.69,-786.6C381.95,-780.99 381.24,-774.75 380.88,-769 380.39,-761.35 380.39,-759.4 380.88,-751.75 381.01,-749.68 381.18,-747.55 381.39,-745.41"/>
<polygon fill="red" stroke="red" points="384.84,-745.99 382.52,-735.66 377.89,-745.19 384.84,-745.99"/>
<text text-anchor="middle" x="383.12" y="-755.7" font-family="Times,serif" font-size="14.00">i</text>
</g>
<!-- node3&#45;&gt;node5 -->
<g id="edge21" class="edge">
<title>node3&#45;&gt;node5</title>
<path fill="none" stroke="red" stroke-dasharray="5,2" d="M403.55,-786.76C436.61,-755.38 506.7,-688.88 545.01,-652.52"/>
<polygon fill="red" stroke="red" points="547.19,-655.28 552.03,-645.86 542.37,-650.2 547.19,-655.28"/>
<text text-anchor="middle" x="499.11" y="-711.08" font-family="Times,serif" font-size="14.00">i</text>
</g>
<!-- node6 -->
<g id="node7" class="node">
<title>node6</title>
<polygon fill="none" stroke="black" points="357,-555.25 263.75,-555.25 263.75,-519.25 357,-519.25 357,-555.25"/>
<text text-anchor="middle" x="310.38" y="-532.58" font-family="Times,serif" font-size="14.00">if (i &gt; 100)</text>
</g>
<!-- node3&#45;&gt;node6 -->
<g id="edge22" class="edge">
<title>node3&#45;&gt;node6</title>
<path fill="none" stroke="red" stroke-dasharray="5,2" d="M353.33,-786.57C319.39,-766.08 267.77,-728.58 245.88,-679.75 227.65,-639.12 259.69,-592.11 284.78,-563.8"/>
<polygon fill="red" stroke="red" points="287.06,-566.49 291.26,-556.76 281.91,-561.75 287.06,-566.49"/>
<text text-anchor="middle" x="248.12" y="-666.45" font-family="Times,serif" font-size="14.00">i</text>
</g>
<!-- node7 -->
<g id="node8" class="node">
<title>node7</title>
<polygon fill="none" stroke="black" points="326.88,-466 223.88,-466 223.88,-430 326.88,-430 326.88,-466"/>
<text text-anchor="middle" x="275.38" y="-443.32" font-family="Times,serif" font-size="14.00">8: i += 101;</text>
</g>
<!-- node3&#45;&gt;node7 -->
<g id="edge23" class="edge">
<title>node3&#45;&gt;node7</title>
<path fill="none" stroke="red" stroke-dasharray="5,2" d="M336.53,-790.66C307.37,-780.08 272.24,-762.24 252.38,-733.75 188.87,-642.71 209.21,-587.09 250.38,-484 251.5,-481.17 252.91,-478.36 254.47,-475.62"/>
<polygon fill="red" stroke="red" points="257.26,-477.75 259.79,-467.46 251.4,-473.93 257.26,-477.75"/>
<text text-anchor="middle" x="215.54" y="-621.83" font-family="Times,serif" font-size="14.00">i</text>
</g>
<!-- node8 -->
<g id="node9" class="node">
<title>node8</title>
<polygon fill="none" stroke="black" points="392.12,-287.5 284.62,-287.5 284.62,-251.5 392.12,-251.5 392.12,-287.5"/>
<text text-anchor="middle" x="338.38" y="-264.82" font-family="Times,serif" font-size="14.00">10: i = i + 1;</text>
</g>
<!-- node3&#45;&gt;node8 -->
<g id="edge24" class="edge">
<title>node3&#45;&gt;node8</title>
<path fill="none" stroke="red" stroke-dasharray="5,2" d="M434.14,-789.36C535.88,-755.47 761.38,-661.43 761.38,-493.62 761.38,-493.62 761.38,-493.62 761.38,-357.75 761.38,-285.64 522.58,-272.63 403.83,-270.62"/>
<polygon fill="red" stroke="red" points="403.94,-267.13 393.89,-270.48 403.84,-274.13 403.94,-267.13"/>
<text text-anchor="middle" x="761.24" y="-532.58" font-family="Times,serif" font-size="14.00">i</text>
</g>
<!-- node12 -->
<g id="node13" class="node">
<title>node12</title>
<polygon fill="none" stroke="black" points="240.38,-376.75 158.38,-376.75 158.38,-340.75 240.38,-340.75 240.38,-376.75"/>
<text text-anchor="middle" x="199.38" y="-354.07" font-family="Times,serif" font-size="14.00">15: i &#45;= j;</text>
</g>
<!-- node3&#45;&gt;node12 -->
<g id="edge25" class="edge">
<title>node3&#45;&gt;node12</title>
<path fill="none" stroke="red" stroke-dasharray="5,2" d="M336.66,-800.58C248.46,-793.04 71.38,-771.14 71.38,-716.75 71.38,-716.75 71.38,-716.75 71.38,-447 71.38,-408.25 111.93,-385.48 147.38,-372.98"/>
<polygon fill="red" stroke="red" points="148.33,-376.35 156.73,-369.89 146.14,-369.7 148.33,-376.35"/>
<text text-anchor="middle" x="73.62" y="-577.2" font-family="Times,serif" font-size="14.00">i</text>
</g>
<!-- node4&#45;&gt;node5 -->
<g id="edge4" class="edge">
<title>node4&#45;&gt;node5</title>
<path fill="none" stroke="blue" d="M433.49,-697.34C447.18,-692.04 461.99,-685.96 475.38,-679.75 494.37,-670.93 514.82,-660.01 531.95,-650.43"/>
<polygon fill="blue" stroke="blue" points="533.31,-653.69 540.3,-645.72 529.87,-647.59 533.31,-653.69"/>
</g>
<!-- node4&#45;&gt;node13 -->
<g id="edge8" class="edge">
<title>node4&#45;&gt;node13</title>
<path fill="none" stroke="blue" d="M415.99,-697.37C423.49,-692.27 431.15,-686.29 437.38,-679.75 462.87,-652.96 455.91,-636.24 480.38,-608.5 495.76,-591.06 515.89,-574.76 533.12,-562.26"/>
<polygon fill="blue" stroke="blue" points="534.97,-565.23 541.11,-556.59 530.93,-559.52 534.97,-565.23"/>
</g>
<!-- node5&#45;&gt;node6 -->
<g id="edge9" class="edge">
<title>node5&#45;&gt;node6</title>
<path fill="none" stroke="blue" d="M489.01,-623.12C449.25,-619.18 401.93,-610.21 363.38,-590.5 351.04,-584.2 339.75,-574.01 330.78,-564.3"/>
<polygon fill="blue" stroke="blue" points="333.44,-562.02 324.23,-556.78 328.16,-566.62 333.44,-562.02"/>
</g>
<!-- node5&#45;&gt;node13 -->
<g id="edge19" class="edge">
<title>node5&#45;&gt;node13</title>
<path fill="none" stroke="red" stroke-dasharray="5,2" d="M570.98,-608.26C570.71,-596.43 570.34,-580.45 570.03,-566.75"/>
<polygon fill="red" stroke="red" points="573.53,-566.88 569.8,-556.97 566.53,-567.04 573.53,-566.88"/>
<text text-anchor="middle" x="591.55" y="-577.2" font-family="Times,serif" font-size="14.00">result</text>
</g>
<!-- node6&#45;&gt;node7 -->
<g id="edge1" class="edge">
<title>node6&#45;&gt;node7</title>
<path fill="none" stroke="blue" d="M303.46,-519.01C298.62,-506.94 292.05,-490.56 286.48,-476.67"/>
<polygon fill="blue" stroke="blue" points="289.81,-475.58 282.84,-467.61 283.31,-478.19 289.81,-475.58"/>
</g>
<!-- node6&#45;&gt;node8 -->
<g id="edge3" class="edge">
<title>node6&#45;&gt;node8</title>
<path fill="none" stroke="blue" d="M318.65,-518.81C324.82,-504.87 332.77,-484.64 336.38,-466 347.67,-407.66 344.45,-337.7 341.29,-299.28"/>
<polygon fill="blue" stroke="blue" points="344.79,-299.13 340.42,-289.48 337.82,-299.75 344.79,-299.13"/>
</g>
<!-- node7&#45;&gt;node4 -->
<g id="edge10" class="edge">
<title>node7&#45;&gt;node4</title>
<path fill="none" stroke="blue" d="M266.38,-466.35C256.55,-487.74 243.54,-524.98 254.38,-555.25 274.36,-611.07 323.23,-661.35 355.3,-689.95"/>
<polygon fill="blue" stroke="blue" points="352.89,-692.49 362.72,-696.43 357.49,-687.22 352.89,-692.49"/>
</g>
<!-- node7&#45;&gt;node4 -->
<g id="edge26" class="edge">
<title>node7&#45;&gt;node4</title>
<path fill="none" stroke="red" stroke-dasharray="5,2" d="M298.47,-466.47C325.09,-486.67 365.34,-517.38 366.38,-519.25 395.76,-572.39 393.46,-646.2 389.33,-686.21"/>
<polygon fill="red" stroke="red" points="385.88,-685.64 388.2,-695.98 392.83,-686.45 385.88,-685.64"/>
<text text-anchor="middle" x="390.54" y="-577.2" font-family="Times,serif" font-size="14.00">i</text>
</g>
<!-- node7&#45;&gt;node5 -->
<g id="edge27" class="edge">
<title>node7&#45;&gt;node5</title>
<path fill="none" stroke="red" stroke-dasharray="5,2" d="M311.15,-466.39C321.93,-471.84 333.73,-478 344.38,-484 413.57,-523.02 491.65,-573.07 535.84,-601.99"/>
<polygon fill="red" stroke="red" points="533.72,-604.79 544,-607.35 537.56,-598.93 533.72,-604.79"/>
<text text-anchor="middle" x="464.78" y="-532.58" font-family="Times,serif" font-size="14.00">i</text>
</g>
<!-- node7&#45;&gt;node6 -->
<g id="edge28" class="edge">
<title>node7&#45;&gt;node6</title>
<path fill="none" stroke="red" stroke-dasharray="5,2" d="M275.6,-466.07C276.27,-476.58 278.12,-490.13 282.88,-501.25 284.09,-504.08 285.59,-506.88 287.26,-509.59"/>
<polygon fill="red" stroke="red" points="284.34,-511.52 292.97,-517.66 290.05,-507.47 284.34,-511.52"/>
<text text-anchor="middle" x="285.12" y="-487.95" font-family="Times,serif" font-size="14.00">i</text>
</g>
<!-- node7&#45;&gt;node8 -->
<g id="edge29" class="edge">
<title>node7&#45;&gt;node8</title>
<path fill="none" stroke="red" stroke-dasharray="5,2" d="M276.19,-429.7C278.17,-401.8 285,-345.89 308.38,-305.5 310.12,-302.48 312.15,-299.47 314.3,-296.56"/>
<polygon fill="red" stroke="red" points="316.94,-298.86 320.49,-288.88 311.49,-294.47 316.94,-298.86"/>
<text text-anchor="middle" x="294.77" y="-354.07" font-family="Times,serif" font-size="14.00">i</text>
</g>
<!-- node7&#45;&gt;node12 -->
<g id="edge30" class="edge">
<title>node7&#45;&gt;node12</title>
<path fill="none" stroke="red" stroke-dasharray="5,2" d="M255.63,-429.85C249.7,-424.36 243.32,-418.12 237.88,-412 230.69,-403.93 223.48,-394.57 217.28,-386.03"/>
<polygon fill="red" stroke="red" points="220.28,-384.2 211.64,-378.07 214.57,-388.25 220.28,-384.2"/>
<text text-anchor="middle" x="240.12" y="-398.7" font-family="Times,serif" font-size="14.00">i</text>
</g>
<!-- node8&#45;&gt;node4 -->
<g id="edge31" class="edge">
<title>node8&#45;&gt;node4</title>
<path fill="none" stroke="red" stroke-dasharray="5,2" d="M358.96,-287.77C364.04,-292.98 368.99,-299.05 372.38,-305.5 379.8,-319.64 377.04,-324.95 379.38,-340.75 396.82,-459.03 399.59,-489.08 405.38,-608.5 406.91,-640.13 412.6,-649.17 404.38,-679.75 403.72,-682.19 402.86,-684.65 401.88,-687.07"/>
<polygon fill="red" stroke="red" points="398.81,-685.38 397.6,-695.9 405.11,-688.43 398.81,-685.38"/>
<text text-anchor="middle" x="401.35" y="-487.95" font-family="Times,serif" font-size="14.00">i</text>
</g>
<!-- node8&#45;&gt;node5 -->
<g id="edge32" class="edge">
<title>node8&#45;&gt;node5</title>
<path fill="none" stroke="red" stroke-dasharray="5,2" d="M392.4,-277.63C471.86,-291.33 617.77,-329.49 682.38,-430 712.61,-477.04 695.32,-505.2 670.38,-555.25 661.57,-572.91 658.66,-578.02 643.38,-590.5 637.94,-594.94 631.84,-598.99 625.55,-602.64"/>
<polygon fill="red" stroke="red" points="624.06,-599.47 616.93,-607.3 627.39,-605.63 624.06,-599.47"/>
<text text-anchor="middle" x="699.65" y="-443.32" font-family="Times,serif" font-size="14.00">i</text>
</g>
<!-- node8&#45;&gt;node6 -->
<g id="edge33" class="edge">
<title>node8&#45;&gt;node6</title>
<path fill="none" stroke="red" stroke-dasharray="5,2" d="M349.04,-287.72C351.93,-293.21 354.72,-299.43 356.38,-305.5 375.12,-374.35 364.53,-395.69 352.38,-466 349.62,-481.93 351.17,-487.08 343.38,-501.25 341.7,-504.3 339.69,-507.28 337.51,-510.14"/>
<polygon fill="red" stroke="red" points="334.95,-507.75 331.11,-517.62 340.27,-512.3 334.95,-507.75"/>
<text text-anchor="middle" x="367.11" y="-398.7" font-family="Times,serif" font-size="14.00">i</text>
</g>
<!-- node8&#45;&gt;node7 -->
<g id="edge34" class="edge">
<title>node8&#45;&gt;node7</title>
<path fill="none" stroke="red" stroke-dasharray="5,2" d="M333.88,-287.82C326.63,-314.82 311.37,-368.39 293.38,-412 292.34,-414.5 291.2,-417.07 290,-419.63"/>
<polygon fill="red" stroke="red" points="286.92,-417.96 285.61,-428.47 293.19,-421.07 286.92,-417.96"/>
<text text-anchor="middle" x="320.45" y="-354.07" font-family="Times,serif" font-size="14.00">i</text>
</g>
<!-- node9 -->
<g id="node10" class="node">
<title>node9</title>
<polygon fill="none" stroke="black" points="163.38,-214.5 57.38,-214.5 57.38,-178.5 163.38,-178.5 163.38,-214.5"/>
<text text-anchor="middle" x="110.38" y="-191.82" font-family="Times,serif" font-size="14.00">11: int j = 5;</text>
</g>
<!-- node8&#45;&gt;node9 -->
<g id="edge11" class="edge">
<title>node8&#45;&gt;node9</title>
<path fill="none" stroke="blue" d="M284.34,-251.67C251.43,-241.42 209.19,-228.27 174.58,-217.49"/>
<polygon fill="blue" stroke="blue" points="175.66,-214.16 165.07,-214.53 173.58,-220.85 175.66,-214.16"/>
</g>
<!-- node8&#45;&gt;node12 -->
<g id="edge35" class="edge">
<title>node8&#45;&gt;node12</title>
<path fill="none" stroke="red" stroke-dasharray="5,2" d="M284.33,-282.77C268.38,-288.05 251.55,-295.41 237.88,-305.5 228.68,-312.28 220.74,-321.88 214.49,-331"/>
<polygon fill="red" stroke="red" points="211.63,-328.97 209.21,-339.29 217.54,-332.73 211.63,-328.97"/>
<text text-anchor="middle" x="240.12" y="-309.45" font-family="Times,serif" font-size="14.00">i</text>
</g>
<!-- node10 -->
<g id="node11" class="node">
<title>node10</title>
<polygon fill="none" stroke="black" points="130.75,-125.25 0,-125.25 0,-89.25 130.75,-89.25 130.75,-125.25"/>
<text text-anchor="middle" x="65.38" y="-102.58" font-family="Times,serif" font-size="14.00">while (j &lt; 1000)</text>
</g>
<!-- node9&#45;&gt;node10 -->
<g id="edge12" class="edge">
<title>node9&#45;&gt;node10</title>
<path fill="none" stroke="blue" d="M94.52,-178.21C90.15,-172.82 85.7,-166.66 82.38,-160.5 78.31,-152.97 75.01,-144.3 72.43,-136.21"/>
<polygon fill="blue" stroke="blue" points="75.85,-135.43 69.69,-126.8 69.13,-137.38 75.85,-135.43"/>
</g>
<!-- node9&#45;&gt;node10 -->
<g id="edge41" class="edge">
<title>node9&#45;&gt;node10</title>
<path fill="none" stroke="red" stroke-dasharray="5,2" d="M101.48,-178.26C95.2,-166.07 86.64,-149.48 79.43,-135.51"/>
<polygon fill="red" stroke="red" points="82.64,-134.08 74.94,-126.8 76.41,-137.29 82.64,-134.08"/>
<text text-anchor="middle" x="94.16" y="-147.2" font-family="Times,serif" font-size="14.00">j</text>
</g>
<!-- node11 -->
<g id="node12" class="node">
<title>node11</title>
<polygon fill="none" stroke="black" points="148.12,-36 40.62,-36 40.62,0 148.12,0 148.12,-36"/>
<text text-anchor="middle" x="94.38" y="-13.32" font-family="Times,serif" font-size="14.00">13: j = j + 1;</text>
</g>
<!-- node9&#45;&gt;node11 -->
<g id="edge42" class="edge">
<title>node9&#45;&gt;node11</title>
<path fill="none" stroke="red" stroke-dasharray="5,2" d="M121.09,-178.15C132.72,-157.06 148.51,-120.45 139.38,-89.25 134.74,-73.41 125.31,-57.75 116.28,-45.25"/>
<polygon fill="red" stroke="red" points="119.28,-43.42 110.45,-37.57 113.7,-47.65 119.28,-43.42"/>
<text text-anchor="middle" x="144.35" y="-102.58" font-family="Times,serif" font-size="14.00">j</text>
</g>
<!-- node9&#45;&gt;node12 -->
<g id="edge43" class="edge">
<title>node9&#45;&gt;node12</title>
<path fill="none" stroke="red" stroke-dasharray="5,2" d="M120.06,-214.93C135.5,-242.73 165.82,-297.34 184.18,-330.38"/>
<polygon fill="red" stroke="red" points="181.03,-331.93 188.95,-338.97 187.15,-328.53 181.03,-331.93"/>
<text text-anchor="middle" x="162.31" y="-264.82" font-family="Times,serif" font-size="14.00">j</text>
</g>
<!-- node10&#45;&gt;node11 -->
<g id="edge2" class="edge">
<title>node10&#45;&gt;node11</title>
<path fill="none" stroke="blue" d="M65.6,-89.01C68.3,-76.94 73.47,-60.56 78.85,-46.67"/>
<polygon fill="blue" stroke="blue" points="82.01,-48.18 82.58,-37.6 75.54,-45.52 82.01,-48.18"/>
</g>
<!-- node10&#45;&gt;node12 -->
<g id="edge13" class="edge">
<title>node10&#45;&gt;node12</title>
<path fill="none" stroke="blue" d="M56.99,-125.53C47.72,-147.16 35.69,-184.98 48.38,-214.5 71.03,-267.22 123.69,-309.66 160.4,-334.28"/>
<polygon fill="blue" stroke="blue" points="158.28,-337.08 168.57,-339.62 162.11,-331.22 158.28,-337.08"/>
</g>
<!-- node11&#45;&gt;node10 -->
<g id="edge14" class="edge">
<title>node11&#45;&gt;node10</title>
<path fill="none" stroke="blue" d="M94.16,-36.2C91.46,-48.26 86.29,-64.65 80.92,-78.54"/>
<polygon fill="blue" stroke="blue" points="77.75,-77.03 77.18,-87.61 84.23,-79.7 77.75,-77.03"/>
</g>
<!-- node11&#45;&gt;node10 -->
<g id="edge44" class="edge">
<title>node11&#45;&gt;node10</title>
<path fill="none" stroke="red" stroke-dasharray="5,2" d="M80.38,-36.25C76.69,-41.64 73.12,-47.81 70.88,-54 68.19,-61.4 66.69,-69.75 65.88,-77.57"/>
<polygon fill="red" stroke="red" points="62.4,-77.11 65.22,-87.33 69.39,-77.59 62.4,-77.11"/>
<text text-anchor="middle" x="73.12" y="-57.95" font-family="Times,serif" font-size="14.00">j</text>
</g>
<!-- node11&#45;&gt;node12 -->
<g id="edge45" class="edge">
<title>node11&#45;&gt;node12</title>
<path fill="none" stroke="red" stroke-dasharray="5,2" d="M140.12,-36.37C168.42,-50.41 199.38,-73.31 199.38,-106.25 199.38,-270.5 199.38,-270.5 199.38,-270.5 199.38,-290 199.38,-311.96 199.38,-328.96"/>
<polygon fill="red" stroke="red" points="195.88,-328.85 199.38,-338.85 202.88,-328.85 195.88,-328.85"/>
<text text-anchor="middle" x="201.62" y="-191.82" font-family="Times,serif" font-size="14.00">j</text>
</g>
<!-- node12&#45;&gt;node4 -->
<g id="edge15" class="edge">
<title>node12&#45;&gt;node4</title>
<path fill="none" stroke="blue" d="M162.77,-377.24C137.85,-391.97 109.38,-415.66 109.38,-447 109.38,-582.88 109.38,-582.88 109.38,-582.88 109.38,-600.15 138.98,-672.5 148.38,-679.75 173.89,-699.45 255.4,-708.13 315.74,-711.91"/>
<polygon fill="blue" stroke="blue" points="315.42,-715.39 325.61,-712.49 315.83,-708.4 315.42,-715.39"/>
</g>
<!-- node12&#45;&gt;node4 -->
<g id="edge36" class="edge">
<title>node12&#45;&gt;node4</title>
<path fill="none" stroke="red" stroke-dasharray="5,2" d="M194.61,-377.06C193.29,-382.66 192.03,-388.93 191.38,-394.75 190.52,-402.37 191.16,-404.34 191.38,-412 194.25,-515.54 168.1,-548.66 207.38,-644.5 224.49,-686.27 273.57,-703.49 315.87,-710.45"/>
<polygon fill="red" stroke="red" points="315.12,-713.88 325.52,-711.86 316.13,-706.95 315.12,-713.88"/>
<text text-anchor="middle" x="188.59" y="-532.58" font-family="Times,serif" font-size="14.00">i</text>
</g>
<!-- node12&#45;&gt;node5 -->
<g id="edge37" class="edge">
<title>node12&#45;&gt;node5</title>
<path fill="none" stroke="red" stroke-dasharray="5,2" d="M240.78,-376.62C272.42,-388.71 317.42,-404.18 358.38,-412 391.18,-418.26 635.48,-405.69 658.38,-430 696.66,-470.65 671.37,-504.36 648.38,-555.25 639.97,-573.86 624.01,-589.71 608.79,-601.63"/>
<polygon fill="red" stroke="red" points="607.13,-598.5 601.19,-607.27 611.31,-604.12 607.13,-598.5"/>
<text text-anchor="middle" x="679.48" y="-487.95" font-family="Times,serif" font-size="14.00">i</text>
</g>
<!-- node12&#45;&gt;node6 -->
<g id="edge38" class="edge">
<title>node12&#45;&gt;node6</title>
<path fill="none" stroke="red" stroke-dasharray="5,2" d="M196.9,-376.9C194.59,-399.08 193.58,-438.17 209.88,-466 221.6,-486.02 241.56,-501.73 260.61,-513.17"/>
<polygon fill="red" stroke="red" points="258.71,-516.11 269.13,-518.01 262.17,-510.03 258.71,-516.11"/>
<text text-anchor="middle" x="212.12" y="-443.32" font-family="Times,serif" font-size="14.00">i</text>
</g>
<!-- node12&#45;&gt;node7 -->
<g id="edge39" class="edge">
<title>node12&#45;&gt;node7</title>
<path fill="none" stroke="red" stroke-dasharray="5,2" d="M220.43,-377.1C226.49,-382.5 232.93,-388.64 238.38,-394.75 245.39,-402.62 252.29,-411.84 258.19,-420.32"/>
<polygon fill="red" stroke="red" points="255.26,-422.23 263.76,-428.56 261.06,-418.31 255.26,-422.23"/>
<text text-anchor="middle" x="253.87" y="-398.7" font-family="Times,serif" font-size="14.00">i</text>
</g>
<!-- node12&#45;&gt;node8 -->
<g id="edge40" class="edge">
<title>node12&#45;&gt;node8</title>
<path fill="none" stroke="red" stroke-dasharray="5,2" d="M219.2,-340.31C232.01,-329.54 249.31,-315.84 265.88,-305.5 272.89,-301.13 280.53,-296.9 288.13,-293"/>
<polygon fill="red" stroke="red" points="289.66,-296.15 297.06,-288.56 286.55,-289.88 289.66,-296.15"/>
<text text-anchor="middle" x="268.12" y="-309.45" font-family="Times,serif" font-size="14.00">i</text>
</g>
<!-- node13&#45;&gt;node1 -->
<g id="edge16" class="edge">
<title>node13&#45;&gt;node1</title>
<path fill="none" stroke="blue" d="M566.41,-519.01C564.38,-507.18 561.63,-491.2 559.27,-477.5"/>
<polygon fill="blue" stroke="blue" points="562.73,-476.96 557.59,-467.69 555.83,-478.14 562.73,-476.96"/>
</g>
</g>
</svg>
