<?xml version="1.0" encoding="UTF-8" standalone="no"?>
<!DOCTYPE svg PUBLIC "-//W3C//DTD SVG 1.1//EN"
 "http://www.w3.org/Graphics/SVG/1.1/DTD/svg11.dtd">
<!-- Generated by graphviz version 12.2.0 (0)
 -->
<!-- Title: PDG Pages: 1 -->
<svg width="349pt" height="836pt"
 viewBox="0.00 0.00 348.62 836.00" xmlns="http://www.w3.org/2000/svg" xmlns:xlink="http://www.w3.org/1999/xlink">
<g id="graph0" class="graph" transform="scale(1 1) rotate(0) translate(4 832)">
<title>PDG</title>
<polygon fill="white" stroke="none" points="-4,4 -4,-832 344.62,-832 344.62,4 -4,4"/>
<!-- node0 -->
<g id="node1" class="node">
<title>node0</title>
<polygon fill="none" stroke="black" points="314.75,-828 52.75,-828 52.75,-792 314.75,-792 314.75,-828"/>
<text text-anchor="middle" x="183.75" y="-805.33" font-family="Times,serif" font-size="14.00">ENTRY: nestedControl(int, int, int)</text>
</g>
<!-- node2 -->
<g id="node3" class="node">
<title>node2</title>
<polygon fill="none" stroke="black" points="244.62,-756 122.88,-756 122.88,-720 244.62,-720 244.62,-756"/>
<text text-anchor="middle" x="183.75" y="-733.33" font-family="Times,serif" font-size="14.00">3: int max = a;</text>
</g>
<!-- node0&#45;&gt;node2 -->
<g id="edge5" class="edge">
<title>node0&#45;&gt;node2</title>
<path fill="none" stroke="blue" d="M183.75,-791.7C183.75,-784.41 183.75,-775.73 183.75,-767.54"/>
<polygon fill="blue" stroke="blue" points="187.25,-767.62 183.75,-757.62 180.25,-767.62 187.25,-767.62"/>
</g>
<!-- node1 -->
<g id="node2" class="node">
<title>node1</title>
<polygon fill="none" stroke="black" points="340.62,-36 92.88,-36 92.88,0 340.62,0 340.62,-36"/>
<text text-anchor="middle" x="216.75" y="-13.32" font-family="Times,serif" font-size="14.00">EXIT: nestedControl(int, int, int)</text>
</g>
<!-- node3 -->
<g id="node4" class="node">
<title>node3</title>
<polygon fill="none" stroke="black" points="234.12,-684 133.38,-684 133.38,-648 234.12,-648 234.12,-684"/>
<text text-anchor="middle" x="183.75" y="-661.33" font-family="Times,serif" font-size="14.00">if (b &gt; max)</text>
</g>
<!-- node2&#45;&gt;node3 -->
<g id="edge6" class="edge">
<title>node2&#45;&gt;node3</title>
<path fill="none" stroke="blue" d="M183.75,-719.7C183.75,-712.41 183.75,-703.73 183.75,-695.54"/>
<polygon fill="blue" stroke="blue" points="187.25,-695.62 183.75,-685.62 180.25,-695.62 187.25,-695.62"/>
</g>
<!-- node4 -->
<g id="node5" class="node">
<title>node4</title>
<polygon fill="none" stroke="black" points="195,-612 96.5,-612 96.5,-576 195,-576 195,-612"/>
<text text-anchor="middle" x="145.75" y="-589.33" font-family="Times,serif" font-size="14.00">5: max = b;</text>
</g>
<!-- node3&#45;&gt;node4 -->
<g id="edge1" class="edge">
<title>node3&#45;&gt;node4</title>
<path fill="none" stroke="blue" d="M174.36,-647.7C170.17,-639.98 165.14,-630.71 160.47,-622.11"/>
<polygon fill="blue" stroke="blue" points="163.6,-620.55 155.76,-613.43 157.45,-623.89 163.6,-620.55"/>
</g>
<!-- node5 -->
<g id="node6" class="node">
<title>node5</title>
<polygon fill="none" stroke="black" points="233.38,-540 134.12,-540 134.12,-504 233.38,-504 233.38,-540"/>
<text text-anchor="middle" x="183.75" y="-517.33" font-family="Times,serif" font-size="14.00">if (c &gt; max)</text>
</g>
<!-- node3&#45;&gt;node5 -->
<g id="edge8" class="edge">
<title>node3&#45;&gt;node5</title>
<path fill="none" stroke="blue" d="M192.06,-647.79C196.49,-637.63 201.49,-624.38 203.75,-612 206.62,-596.26 206.62,-591.74 203.75,-576 202.21,-567.58 199.41,-558.77 196.38,-550.79"/>
<polygon fill="blue" stroke="blue" points="199.65,-549.54 192.63,-541.61 193.17,-552.19 199.65,-549.54"/>
</g>
<!-- node4&#45;&gt;node5 -->
<g id="edge7" class="edge">
<title>node4&#45;&gt;node5</title>
<path fill="none" stroke="blue" d="M155.14,-575.7C159.33,-567.98 164.36,-558.71 169.03,-550.11"/>
<polygon fill="blue" stroke="blue" points="172.05,-551.89 173.74,-541.43 165.9,-548.55 172.05,-551.89"/>
</g>
<!-- node6 -->
<g id="node7" class="node">
<title>node6</title>
<polygon fill="none" stroke="black" points="194.25,-468 97.25,-468 97.25,-432 194.25,-432 194.25,-468"/>
<text text-anchor="middle" x="145.75" y="-445.32" font-family="Times,serif" font-size="14.00">8: max = c;</text>
</g>
<!-- node5&#45;&gt;node6 -->
<g id="edge2" class="edge">
<title>node5&#45;&gt;node6</title>
<path fill="none" stroke="blue" d="M174.36,-503.7C170.17,-495.98 165.14,-486.71 160.47,-478.11"/>
<polygon fill="blue" stroke="blue" points="163.6,-476.55 155.76,-469.43 157.45,-479.89 163.6,-476.55"/>
</g>
<!-- node7 -->
<g id="node8" class="node">
<title>node7</title>
<polygon fill="none" stroke="black" points="238.62,-396 128.88,-396 128.88,-360 238.62,-360 238.62,-396"/>
<text text-anchor="middle" x="183.75" y="-373.32" font-family="Times,serif" font-size="14.00">if (max &gt; 10)</text>
</g>
<!-- node5&#45;&gt;node7 -->
<g id="edge10" class="edge">
<title>node5&#45;&gt;node7</title>
<path fill="none" stroke="blue" d="M192.06,-503.79C196.49,-493.63 201.49,-480.38 203.75,-468 206.62,-452.26 206.62,-447.74 203.75,-432 202.21,-423.58 199.41,-414.77 196.38,-406.79"/>
<polygon fill="blue" stroke="blue" points="199.65,-405.54 192.63,-397.61 193.17,-408.19 199.65,-405.54"/>
</g>
<!-- node6&#45;&gt;node7 -->
<g id="edge9" class="edge">
<title>node6&#45;&gt;node7</title>
<path fill="none" stroke="blue" d="M155.14,-431.7C159.33,-423.98 164.36,-414.71 169.03,-406.11"/>
<polygon fill="blue" stroke="blue" points="172.05,-407.89 173.74,-397.43 165.9,-404.55 172.05,-407.89"/>
</g>
<!-- node8 -->
<g id="node9" class="node">
<title>node8</title>
<polygon fill="none" stroke="black" points="196.75,-324 90.75,-324 90.75,-288 196.75,-288 196.75,-324"/>
<text text-anchor="middle" x="143.75" y="-301.32" font-family="Times,serif" font-size="14.00">12: int i = 0;</text>
</g>
<!-- node7&#45;&gt;node8 -->
<g id="edge4" class="edge">
<title>node7&#45;&gt;node8</title>
<path fill="none" stroke="blue" d="M173.86,-359.7C169.41,-351.9 164.04,-342.51 159.08,-333.83"/>
<polygon fill="blue" stroke="blue" points="162.28,-332.36 154.27,-325.42 156.2,-335.84 162.28,-332.36"/>
</g>
<!-- node12 -->
<g id="node13" class="node">
<title>node12</title>
<polygon fill="none" stroke="black" points="280.62,-108 152.88,-108 152.88,-72 280.62,-72 280.62,-108"/>
<text text-anchor="middle" x="216.75" y="-85.33" font-family="Times,serif" font-size="14.00">19: return max;</text>
</g>
<!-- node7&#45;&gt;node12 -->
<g id="edge15" class="edge">
<title>node7&#45;&gt;node12</title>
<path fill="none" stroke="blue" d="M191.87,-359.62C196.41,-349.41 201.91,-336.16 205.75,-324 225.5,-261.49 230.6,-245.17 237.75,-180 239.5,-164.1 240.75,-159.72 237.75,-144 236.14,-135.54 233.19,-126.71 230.01,-118.74"/>
<polygon fill="blue" stroke="blue" points="233.23,-117.36 226.07,-109.56 226.8,-120.13 233.23,-117.36"/>
</g>
<!-- node9 -->
<g id="node10" class="node">
<title>node9</title>
<polygon fill="none" stroke="black" points="173.12,-252 48.38,-252 48.38,-216 173.12,-216 173.12,-252"/>
<text text-anchor="middle" x="110.75" y="-229.32" font-family="Times,serif" font-size="14.00">while (i &lt; max)</text>
</g>
<!-- node8&#45;&gt;node9 -->
<g id="edge11" class="edge">
<title>node8&#45;&gt;node9</title>
<path fill="none" stroke="blue" d="M135.59,-287.7C132,-280.07 127.68,-270.92 123.67,-262.4"/>
<polygon fill="blue" stroke="blue" points="126.89,-261.03 119.46,-253.47 120.56,-264.01 126.89,-261.03"/>
</g>
<!-- node10 -->
<g id="node11" class="node">
<title>node10</title>
<polygon fill="none" stroke="black" points="107.5,-180 0,-180 0,-144 107.5,-144 107.5,-180"/>
<text text-anchor="middle" x="53.75" y="-157.32" font-family="Times,serif" font-size="14.00">14: i = i + 1;</text>
</g>
<!-- node9&#45;&gt;node10 -->
<g id="edge3" class="edge">
<title>node9&#45;&gt;node10</title>
<path fill="none" stroke="blue" d="M90.74,-215.7C83.43,-207.73 75.38,-198.1 68.58,-189.26"/>
<polygon fill="blue" stroke="blue" points="71.45,-187.27 62.68,-181.32 65.83,-191.44 71.45,-187.27"/>
</g>
<!-- node11 -->
<g id="node12" class="node">
<title>node11</title>
<polygon fill="none" stroke="black" points="228.25,-180 125.25,-180 125.25,-144 228.25,-144 228.25,-180"/>
<text text-anchor="middle" x="176.75" y="-157.32" font-family="Times,serif" font-size="14.00">16: max = i;</text>
</g>
<!-- node9&#45;&gt;node11 -->
<g id="edge12" class="edge">
<title>node9&#45;&gt;node11</title>
<path fill="none" stroke="blue" d="M127.06,-215.7C134.82,-207.47 144.24,-197.48 152.78,-188.42"/>
<polygon fill="blue" stroke="blue" points="155.27,-190.88 159.58,-181.21 150.18,-186.08 155.27,-190.88"/>
</g>
<!-- node10&#45;&gt;node9 -->
<g id="edge13" class="edge">
<title>node10&#45;&gt;node9</title>
<path fill="none" stroke="blue" d="M73.57,-180.1C80.87,-188.04 88.93,-197.67 95.75,-206.51"/>
<polygon fill="blue" stroke="blue" points="92.9,-208.54 101.67,-214.48 98.52,-204.37 92.9,-208.54"/>
</g>
<!-- node11&#45;&gt;node12 -->
<g id="edge14" class="edge">
<title>node11&#45;&gt;node12</title>
<path fill="none" stroke="blue" d="M186.64,-143.7C191.09,-135.9 196.46,-126.51 201.42,-117.83"/>
<polygon fill="blue" stroke="blue" points="204.3,-119.84 206.23,-109.42 198.22,-116.36 204.3,-119.84"/>
</g>
<!-- node12&#45;&gt;node1 -->
<g id="edge16" class="edge">
<title>node12&#45;&gt;node1</title>
<path fill="none" stroke="blue" d="M216.75,-71.7C216.75,-64.41 216.75,-55.73 216.75,-47.54"/>
<polygon fill="blue" stroke="blue" points="220.25,-47.62 216.75,-37.62 213.25,-47.62 220.25,-47.62"/>
</g>
</g>
</svg>
