<?xml version="1.0" encoding="UTF-8" standalone="no"?>
<!DOCTYPE svg PUBLIC "-//W3C//DTD SVG 1.1//EN"
 "http://www.w3.org/Graphics/SVG/1.1/DTD/svg11.dtd">
<!-- Generated by graphviz version 12.2.0 (0)
 -->
<!-- Title: PDG Pages: 1 -->
<svg width="1149pt" height="937pt"
 viewBox="0.00 0.00 1148.75 936.50" xmlns="http://www.w3.org/2000/svg" xmlns:xlink="http://www.w3.org/1999/xlink">
<g id="graph0" class="graph" transform="scale(1 1) rotate(0) translate(4 932.5)">
<title>PDG</title>
<polygon fill="white" stroke="none" points="-4,4 -4,-932.5 1144.75,-932.5 1144.75,4 -4,4"/>
<!-- node0 -->
<g id="node1" class="node">
<title>node0</title>
<polygon fill="none" stroke="black" points="560,-928.5 298,-928.5 298,-892.5 560,-892.5 560,-928.5"/>
<text text-anchor="middle" x="429" y="-905.83" font-family="Times,serif" font-size="14.00">ENTRY: nestedControl(int, int, int)</text>
</g>
<!-- node1 -->
<g id="node2" class="node">
<title>node1</title>
<polygon fill="none" stroke="black" points="478.62,-839.25 379.38,-839.25 379.38,-803.25 478.62,-803.25 478.62,-839.25"/>
<text text-anchor="middle" x="429" y="-816.58" font-family="Times,serif" font-size="14.00">int max = a</text>
</g>
<!-- node0&#45;&gt;node1 -->
<g id="edge1" class="edge">
<title>node0&#45;&gt;node1</title>
<path fill="none" stroke="blue" d="M429,-892.26C429,-880.43 429,-864.45 429,-850.75"/>
<polygon fill="blue" stroke="blue" points="432.5,-850.97 429,-840.97 425.5,-850.97 432.5,-850.97"/>
<text text-anchor="middle" x="441.38" y="-861.2" font-family="Times,serif" font-size="14.00">ctrl</text>
</g>
<!-- node2 -->
<g id="node3" class="node">
<title>node2</title>
<polygon fill="none" stroke="black" points="661.38,-750 560.62,-750 560.62,-714 661.38,-714 661.38,-750"/>
<text text-anchor="middle" x="611" y="-727.33" font-family="Times,serif" font-size="14.00">if (b &gt; max)</text>
</g>
<!-- node0&#45;&gt;node2 -->
<g id="edge2" class="edge">
<title>node0&#45;&gt;node2</title>
<path fill="none" stroke="blue" d="M476.6,-892.14C520.46,-873.28 582.86,-838.53 611,-785.25 614.76,-778.14 615.91,-769.68 615.81,-761.67"/>
<polygon fill="blue" stroke="blue" points="619.32,-761.65 615.05,-751.96 612.35,-762.2 619.32,-761.65"/>
<text text-anchor="middle" x="611.17" y="-816.58" font-family="Times,serif" font-size="14.00">ctrl</text>
</g>
<!-- node4 -->
<g id="node5" class="node">
<title>node4</title>
<polygon fill="none" stroke="black" points="375.62,-571.5 276.38,-571.5 276.38,-535.5 375.62,-535.5 375.62,-571.5"/>
<text text-anchor="middle" x="326" y="-548.83" font-family="Times,serif" font-size="14.00">if (c &gt; max)</text>
</g>
<!-- node0&#45;&gt;node4 -->
<g id="edge4" class="edge">
<title>node0&#45;&gt;node4</title>
<path fill="none" stroke="blue" d="M297.65,-893.56C229.59,-877.89 152.1,-846.83 110,-785.25 51.79,-700.11 195.5,-615.6 276,-576.69"/>
<polygon fill="blue" stroke="blue" points="277.07,-580.06 284.6,-572.6 274.06,-573.74 277.07,-580.06"/>
<text text-anchor="middle" x="115.19" y="-727.33" font-family="Times,serif" font-size="14.00">ctrl</text>
</g>
<!-- node6 -->
<g id="node7" class="node">
<title>node6</title>
<polygon fill="none" stroke="black" points="353.88,-303.75 244.12,-303.75 244.12,-267.75 353.88,-267.75 353.88,-303.75"/>
<text text-anchor="middle" x="299" y="-281.07" font-family="Times,serif" font-size="14.00">if (max &gt; 10)</text>
</g>
<!-- node0&#45;&gt;node6 -->
<g id="edge6" class="edge">
<title>node0&#45;&gt;node6</title>
<path fill="none" stroke="blue" d="M297.55,-905.9C179.62,-898.98 25,-879.07 25,-822.25 25,-822.25 25,-822.25 25,-374 25,-330.55 151.67,-305.85 232.76,-294.49"/>
<polygon fill="blue" stroke="blue" points="232.95,-298 242.38,-293.18 232,-291.06 232.95,-298"/>
<text text-anchor="middle" x="37.38" y="-593.45" font-family="Times,serif" font-size="14.00">ctrl</text>
</g>
<!-- node11 -->
<g id="node12" class="node">
<title>node11</title>
<polygon fill="none" stroke="black" points="844.12,-303.75 747.88,-303.75 747.88,-267.75 844.12,-267.75 844.12,-303.75"/>
<text text-anchor="middle" x="796" y="-281.07" font-family="Times,serif" font-size="14.00">return max</text>
</g>
<!-- node0&#45;&gt;node11 -->
<g id="edge11" class="edge">
<title>node0&#45;&gt;node11</title>
<path fill="none" stroke="blue" d="M560.24,-905.85C759.65,-898.52 1116,-877.67 1116,-822.25 1116,-822.25 1116,-822.25 1116,-507.88 1116,-478.48 1113.74,-466.03 1092,-446.25 1028.09,-388.08 979.76,-436.34 905,-393 865.78,-370.26 864.48,-353.38 832,-321.75 828.79,-318.62 825.42,-315.34 822.08,-312.09"/>
<polygon fill="blue" stroke="blue" points="824.65,-309.71 815.04,-305.25 819.77,-314.73 824.65,-309.71"/>
<text text-anchor="middle" x="1128.38" y="-593.45" font-family="Times,serif" font-size="14.00">ctrl</text>
</g>
<!-- node1&#45;&gt;node2 -->
<g id="edge44" class="edge">
<title>node1&#45;&gt;node2</title>
<path fill="none" stroke="red" stroke-dasharray="5,2" d="M465.39,-802.8C493.91,-789.13 533.79,-770.02 564.6,-755.25"/>
<polygon fill="red" stroke="red" points="565.8,-758.55 573.31,-751.07 562.77,-752.24 565.8,-758.55"/>
<text text-anchor="middle" x="571.55" y="-771.95" font-family="Times,serif" font-size="14.00">data: max</text>
</g>
<!-- node3 -->
<g id="node4" class="node">
<title>node3</title>
<polygon fill="none" stroke="black" points="595,-660.75 519,-660.75 519,-624.75 595,-624.75 595,-660.75"/>
<text text-anchor="middle" x="557" y="-638.08" font-family="Times,serif" font-size="14.00">max = b</text>
</g>
<!-- node1&#45;&gt;node3 -->
<g id="edge26" class="edge">
<title>node1&#45;&gt;node3</title>
<path fill="none" stroke="red" stroke-dasharray="5,2" d="M435.27,-802.99C443.74,-781.03 460.24,-742.55 481.5,-714 494.08,-697.11 511.03,-680.92 525.68,-668.34"/>
<polygon fill="red" stroke="red" points="527.87,-671.08 533.29,-661.98 523.38,-665.71 527.87,-671.08"/>
<text text-anchor="middle" x="516.75" y="-727.33" font-family="Times,serif" font-size="14.00">data: max</text>
</g>
<!-- node1&#45;&gt;node4 -->
<g id="edge34" class="edge">
<title>node1&#45;&gt;node4</title>
<path fill="none" stroke="red" stroke-dasharray="5,2" d="M415.01,-802.79C397.13,-779.67 366.36,-737 348.5,-696 332.16,-658.5 331.04,-647.35 326,-606.75 325.06,-599.19 324.74,-590.96 324.73,-583.32"/>
<polygon fill="red" stroke="red" points="328.23,-583.56 324.9,-573.5 321.23,-583.43 328.23,-583.56"/>
<text text-anchor="middle" x="383.75" y="-682.7" font-family="Times,serif" font-size="14.00">data: max</text>
</g>
<!-- node5 -->
<g id="node6" class="node">
<title>node5</title>
<polygon fill="none" stroke="black" points="462.25,-482.25 387.75,-482.25 387.75,-446.25 462.25,-446.25 462.25,-482.25"/>
<text text-anchor="middle" x="425" y="-459.57" font-family="Times,serif" font-size="14.00">max = c</text>
</g>
<!-- node1&#45;&gt;node5 -->
<g id="edge18" class="edge">
<title>node1&#45;&gt;node5</title>
<path fill="none" stroke="red" stroke-dasharray="5,2" d="M379.06,-817.13C325.49,-810.75 248,-791.43 248,-733 248,-733 248,-733 248,-597.12 248,-551.04 248.04,-527.78 285,-500.25 317.6,-475.97 337.1,-491.52 376.51,-483.57"/>
<polygon fill="red" stroke="red" points="377.25,-487 386.11,-481.2 375.56,-480.2 377.25,-487"/>
<text text-anchor="middle" x="283.25" y="-638.08" font-family="Times,serif" font-size="14.00">data: max</text>
</g>
<!-- node1&#45;&gt;node6 -->
<g id="edge30" class="edge">
<title>node1&#45;&gt;node6</title>
<path fill="none" stroke="red" stroke-dasharray="5,2" d="M379.19,-818.72C337.76,-815.78 278.16,-807.6 231,-785.25 103.09,-724.63 71,-651.42 71,-509.88 71,-509.88 71,-509.88 71,-374 71,-339.07 165.51,-312.95 232.84,-298.78"/>
<polygon fill="red" stroke="red" points="233.23,-302.27 242.33,-296.83 231.82,-295.41 233.23,-302.27"/>
<text text-anchor="middle" x="108.74" y="-548.83" font-family="Times,serif" font-size="14.00">data: max</text>
</g>
<!-- node8 -->
<g id="node9" class="node">
<title>node8</title>
<polygon fill="none" stroke="black" points="529.38,-125.25 404.62,-125.25 404.62,-89.25 529.38,-89.25 529.38,-125.25"/>
<text text-anchor="middle" x="467" y="-102.58" font-family="Times,serif" font-size="14.00">while (i &lt; max)</text>
</g>
<!-- node1&#45;&gt;node8 -->
<g id="edge38" class="edge">
<title>node1&#45;&gt;node8</title>
<path fill="none" stroke="red" stroke-dasharray="5,2" d="M478.91,-813.52C504.1,-810.23 535.15,-806.32 563,-803.25 614.28,-797.59 1022,-784.59 1022,-733 1022,-733 1022,-733 1022,-597.12 1022,-518.65 1017,-499.1 1017,-420.62 1017,-420.62 1017,-420.62 1017,-195.5 1017,-135.29 950.5,-157.51 892,-143.25 771.48,-113.88 626.67,-107.96 540.99,-107.38"/>
<polygon fill="red" stroke="red" points="541.08,-103.88 531.07,-107.34 541.05,-110.88 541.08,-103.88"/>
<text text-anchor="middle" x="1053.47" y="-459.57" font-family="Times,serif" font-size="14.00">data: max</text>
</g>
<!-- node10 -->
<g id="node11" class="node">
<title>node10</title>
<polygon fill="none" stroke="black" points="448.75,-393 377.25,-393 377.25,-357 448.75,-357 448.75,-393"/>
<text text-anchor="middle" x="413" y="-370.32" font-family="Times,serif" font-size="14.00">max = i</text>
</g>
<!-- node1&#45;&gt;node10 -->
<g id="edge12" class="edge">
<title>node1&#45;&gt;node10</title>
<path fill="none" stroke="red" stroke-dasharray="5,2" d="M379.17,-814.99C335.15,-809.49 275.08,-799.64 256,-785.25 184.66,-731.45 184.66,-693.56 163.5,-606.75 137.06,-498.26 225.82,-469.39 321,-411 338.53,-400.25 346.97,-401.02 366.11,-394.9"/>
<polygon fill="red" stroke="red" points="367.13,-398.25 375.4,-391.63 364.8,-391.65 367.13,-398.25"/>
<text text-anchor="middle" x="198.75" y="-593.45" font-family="Times,serif" font-size="14.00">data: max</text>
</g>
<!-- node1&#45;&gt;node11 -->
<g id="edge22" class="edge">
<title>node1&#45;&gt;node11</title>
<path fill="none" stroke="red" stroke-dasharray="5,2" d="M479.09,-814.02C604.68,-798.05 923,-755.37 923,-733 923,-733 923,-733 923,-597.12 923,-538.24 843.69,-378.6 810.42,-314.22"/>
<polygon fill="red" stroke="red" points="813.55,-312.64 805.83,-305.38 807.34,-315.87 813.55,-312.64"/>
<text text-anchor="middle" x="954.69" y="-548.83" font-family="Times,serif" font-size="14.00">data: max</text>
</g>
<!-- node2&#45;&gt;node3 -->
<g id="edge3" class="edge">
<title>node2&#45;&gt;node3</title>
<path fill="none" stroke="blue" d="M617.44,-713.94C620.39,-703.18 622.04,-689.36 616,-678.75 613.09,-673.64 609.11,-669.2 604.58,-665.36"/>
<polygon fill="blue" stroke="blue" points="606.71,-662.59 596.55,-659.59 602.63,-668.27 606.71,-662.59"/>
<text text-anchor="middle" x="632.45" y="-682.7" font-family="Times,serif" font-size="14.00">ctrl</text>
</g>
<!-- node3&#45;&gt;node2 -->
<g id="edge45" class="edge">
<title>node3&#45;&gt;node2</title>
<path fill="none" stroke="red" stroke-dasharray="5,2" d="M545,-661.17C539.27,-671.81 534.95,-685.37 541.5,-696 544.16,-700.32 547.54,-704.13 551.37,-707.48"/>
<polygon fill="red" stroke="red" points="549.01,-710.09 559.14,-713.21 553.17,-704.46 549.01,-710.09"/>
<text text-anchor="middle" x="576.75" y="-682.7" font-family="Times,serif" font-size="14.00">data: max</text>
</g>
<!-- node3&#45;&gt;node3 -->
<g id="edge27" class="edge">
<title>node3&#45;&gt;node3</title>
<path fill="none" stroke="red" stroke-dasharray="5,2" d="M595.48,-651.03C605.47,-650.52 613,-647.76 613,-642.75 613,-639.93 610.62,-637.82 606.75,-636.43"/>
<polygon fill="red" stroke="red" points="607.42,-632.99 596.97,-634.73 606.22,-639.89 607.42,-632.99"/>
<text text-anchor="middle" x="648.25" y="-638.08" font-family="Times,serif" font-size="14.00">data: max</text>
</g>
<!-- node3&#45;&gt;node4 -->
<g id="edge35" class="edge">
<title>node3&#45;&gt;node4</title>
<path fill="none" stroke="red" stroke-dasharray="5,2" d="M518.75,-640.42C463.77,-637.71 366.17,-629.73 340.5,-606.75 333.67,-600.64 329.94,-591.62 327.94,-582.79"/>
<polygon fill="red" stroke="red" points="331.42,-582.38 326.42,-573.04 324.5,-583.46 331.42,-582.38"/>
<text text-anchor="middle" x="375.75" y="-593.45" font-family="Times,serif" font-size="14.00">data: max</text>
</g>
<!-- node3&#45;&gt;node5 -->
<g id="edge19" class="edge">
<title>node3&#45;&gt;node5</title>
<path fill="none" stroke="red" stroke-dasharray="5,2" d="M542.88,-624.58C533.12,-613.5 519.34,-599.37 505,-589.5 488.78,-578.33 477.99,-585.86 464.5,-571.5 458.91,-565.55 443.96,-522.66 434.15,-493.22"/>
<polygon fill="red" stroke="red" points="437.48,-492.16 431.02,-483.77 430.84,-494.36 437.48,-492.16"/>
<text text-anchor="middle" x="499.75" y="-548.83" font-family="Times,serif" font-size="14.00">data: max</text>
</g>
<!-- node3&#45;&gt;node6 -->
<g id="edge31" class="edge">
<title>node3&#45;&gt;node6</title>
<path fill="none" stroke="red" stroke-dasharray="5,2" d="M518.61,-642.19C428.86,-640.79 207.18,-622.72 131.5,-482.25 93.35,-411.43 191.63,-343.56 253.37,-309.5"/>
<polygon fill="red" stroke="red" points="254.84,-312.68 261.98,-304.84 251.52,-306.52 254.84,-312.68"/>
<text text-anchor="middle" x="166.75" y="-459.57" font-family="Times,serif" font-size="14.00">data: max</text>
</g>
<!-- node3&#45;&gt;node8 -->
<g id="edge39" class="edge">
<title>node3&#45;&gt;node8</title>
<path fill="none" stroke="red" stroke-dasharray="5,2" d="M595.29,-632.97C618.36,-627 648.02,-618.13 673,-606.75 759.54,-567.33 787.09,-556.1 847,-482.25 893.69,-424.7 918,-405.48 918,-331.38 918,-331.38 918,-331.38 918,-195.5 918,-119.63 668.9,-108.34 540.95,-107.55"/>
<polygon fill="red" stroke="red" points="541.24,-104.05 531.22,-107.51 541.21,-111.05 541.24,-104.05"/>
<text text-anchor="middle" x="952.08" y="-370.32" font-family="Times,serif" font-size="14.00">data: max</text>
</g>
<!-- node3&#45;&gt;node10 -->
<g id="edge13" class="edge">
<title>node3&#45;&gt;node10</title>
<path fill="none" stroke="red" stroke-dasharray="5,2" d="M581.8,-624.28C608.27,-603.4 643.99,-567.27 625,-535.5 616.33,-520.99 602.98,-529.9 591.5,-517.5 567.98,-492.1 582.42,-472.63 560,-446.25 541.44,-424.41 531.56,-423.96 506,-411 491.39,-403.59 474.82,-396.87 459.76,-391.33"/>
<polygon fill="red" stroke="red" points="461.13,-388.11 450.53,-388.03 458.77,-394.7 461.13,-388.11"/>
<text text-anchor="middle" x="626.75" y="-504.2" font-family="Times,serif" font-size="14.00">data: max</text>
</g>
<!-- node3&#45;&gt;node11 -->
<g id="edge23" class="edge">
<title>node3&#45;&gt;node11</title>
<path fill="none" stroke="red" stroke-dasharray="5,2" d="M595.26,-629.94C611.26,-624.15 629.66,-616.34 645,-606.75 694.96,-575.53 712.43,-567.86 743,-517.5 782.37,-452.65 792.52,-361.36 795.12,-315.47"/>
<polygon fill="red" stroke="red" points="798.61,-315.71 795.59,-305.56 791.62,-315.38 798.61,-315.71"/>
<text text-anchor="middle" x="808.21" y="-459.57" font-family="Times,serif" font-size="14.00">data: max</text>
</g>
<!-- node4&#45;&gt;node5 -->
<g id="edge5" class="edge">
<title>node4&#45;&gt;node5</title>
<path fill="none" stroke="blue" d="M345.56,-535.26C360.34,-522.24 380.82,-504.18 397.29,-489.67"/>
<polygon fill="blue" stroke="blue" points="399.16,-492.69 404.35,-483.45 394.53,-487.44 399.16,-492.69"/>
<text text-anchor="middle" x="396.74" y="-504.2" font-family="Times,serif" font-size="14.00">ctrl</text>
</g>
<!-- node5&#45;&gt;node2 -->
<g id="edge46" class="edge">
<title>node5&#45;&gt;node2</title>
<path fill="none" stroke="red" stroke-dasharray="5,2" d="M421.48,-482.41C416.68,-510.13 410.76,-565.78 430.5,-606.75 454.38,-656.3 508.86,-689.51 551.75,-709.04"/>
<polygon fill="red" stroke="red" points="550.16,-712.16 560.72,-712.98 552.98,-705.75 550.16,-712.16"/>
<text text-anchor="middle" x="465.75" y="-593.45" font-family="Times,serif" font-size="14.00">data: max</text>
</g>
<!-- node5&#45;&gt;node3 -->
<g id="edge28" class="edge">
<title>node5&#45;&gt;node3</title>
<path fill="none" stroke="red" stroke-dasharray="5,2" d="M462.53,-479.98C486.9,-491.48 517.32,-509.84 535,-535.5 550.76,-558.38 555.67,-590.16 556.99,-613"/>
<polygon fill="red" stroke="red" points="553.49,-612.96 557.34,-622.83 560.48,-612.71 553.49,-612.96"/>
<text text-anchor="middle" x="585.88" y="-548.83" font-family="Times,serif" font-size="14.00">data: max</text>
</g>
<!-- node5&#45;&gt;node4 -->
<g id="edge36" class="edge">
<title>node5&#45;&gt;node4</title>
<path fill="none" stroke="red" stroke-dasharray="5,2" d="M387.59,-472.71C350.52,-480.48 298.42,-492.57 292.5,-500.25 286.16,-508.49 289.35,-517.94 295.8,-526.52"/>
<polygon fill="red" stroke="red" points="293.15,-528.8 302.42,-533.92 298.37,-524.14 293.15,-528.8"/>
<text text-anchor="middle" x="327.75" y="-504.2" font-family="Times,serif" font-size="14.00">data: max</text>
</g>
<!-- node5&#45;&gt;node5 -->
<g id="edge20" class="edge">
<title>node5&#45;&gt;node5</title>
<path fill="none" stroke="red" stroke-dasharray="5,2" d="M462.7,-472.54C472.69,-472.07 480.25,-469.31 480.25,-464.25 480.25,-461.41 477.86,-459.29 473.99,-457.89"/>
<polygon fill="red" stroke="red" points="474.64,-454.46 464.19,-456.21 473.46,-461.35 474.64,-454.46"/>
<text text-anchor="middle" x="515.5" y="-459.57" font-family="Times,serif" font-size="14.00">data: max</text>
</g>
<!-- node5&#45;&gt;node6 -->
<g id="edge32" class="edge">
<title>node5&#45;&gt;node6</title>
<path fill="none" stroke="red" stroke-dasharray="5,2" d="M387.35,-448.01C353.2,-433.28 306.81,-410.66 297.5,-393 284.88,-369.07 287.21,-337.69 291.5,-315.25"/>
<polygon fill="red" stroke="red" points="294.9,-316.11 293.61,-305.59 288.06,-314.61 294.9,-316.11"/>
<text text-anchor="middle" x="332.75" y="-370.32" font-family="Times,serif" font-size="14.00">data: max</text>
</g>
<!-- node5&#45;&gt;node8 -->
<g id="edge40" class="edge">
<title>node5&#45;&gt;node8</title>
<path fill="none" stroke="red" stroke-dasharray="5,2" d="M462.52,-456.64C503.99,-446.92 565,-424.4 565,-376 565,-376 565,-376 565,-195.5 565,-167.17 541.87,-145.77 518.09,-131.26"/>
<polygon fill="red" stroke="red" points="520.01,-128.33 509.59,-126.41 516.54,-134.41 520.01,-128.33"/>
<text text-anchor="middle" x="600.25" y="-281.07" font-family="Times,serif" font-size="14.00">data: max</text>
</g>
<!-- node5&#45;&gt;node10 -->
<g id="edge14" class="edge">
<title>node5&#45;&gt;node10</title>
<path fill="none" stroke="red" stroke-dasharray="5,2" d="M429.37,-446.13C431.32,-435.84 432.66,-422.54 430,-411 429.43,-408.54 428.67,-406.05 427.78,-403.6"/>
<polygon fill="red" stroke="red" points="431.08,-402.4 423.88,-394.62 424.66,-405.19 431.08,-402.4"/>
<text text-anchor="middle" x="466.74" y="-414.95" font-family="Times,serif" font-size="14.00">data: max</text>
</g>
<!-- node5&#45;&gt;node11 -->
<g id="edge24" class="edge">
<title>node5&#45;&gt;node11</title>
<path fill="none" stroke="red" stroke-dasharray="5,2" d="M462.55,-458.52C494.46,-453.61 541,-444.34 579,-428.25 651.27,-397.64 725.85,-343.01 766,-311.33"/>
<polygon fill="red" stroke="red" points="768.16,-314.09 773.79,-305.12 763.79,-308.62 768.16,-314.09"/>
<text text-anchor="middle" x="736.43" y="-370.32" font-family="Times,serif" font-size="14.00">data: max</text>
</g>
<!-- node7 -->
<g id="node8" class="node">
<title>node7</title>
<polygon fill="none" stroke="black" points="447.25,-214.5 372.75,-214.5 372.75,-178.5 447.25,-178.5 447.25,-214.5"/>
<text text-anchor="middle" x="410" y="-191.82" font-family="Times,serif" font-size="14.00">int i = 0</text>
</g>
<!-- node6&#45;&gt;node7 -->
<g id="edge7" class="edge">
<title>node6&#45;&gt;node7</title>
<path fill="none" stroke="blue" d="M321.46,-267.34C328.67,-261.74 336.68,-255.49 344,-249.75 355.5,-240.73 368.08,-230.78 379.15,-222.01"/>
<polygon fill="blue" stroke="blue" points="381.19,-224.86 386.85,-215.9 376.84,-219.38 381.19,-224.86"/>
<text text-anchor="middle" x="378.2" y="-236.45" font-family="Times,serif" font-size="14.00">ctrl</text>
</g>
<!-- node6&#45;&gt;node8 -->
<g id="edge8" class="edge">
<title>node6&#45;&gt;node8</title>
<path fill="none" stroke="blue" d="M301.74,-267.4C306.12,-244.64 316.62,-204.56 339.25,-178.5 357.39,-157.61 383.34,-141.75 407.11,-130.43"/>
<polygon fill="blue" stroke="blue" points="408.46,-133.66 416.11,-126.33 405.56,-127.29 408.46,-133.66"/>
<text text-anchor="middle" x="351.62" y="-191.82" font-family="Times,serif" font-size="14.00">ctrl</text>
</g>
<!-- node6&#45;&gt;node10 -->
<g id="edge10" class="edge">
<title>node6&#45;&gt;node10</title>
<path fill="none" stroke="blue" d="M298.95,-304.23C299.83,-315.44 302.75,-329.6 311.25,-339 313.32,-341.29 340.36,-350.54 366.04,-358.95"/>
<polygon fill="blue" stroke="blue" points="364.85,-362.25 375.44,-362.02 367.02,-355.59 364.85,-362.25"/>
<text text-anchor="middle" x="323.62" y="-325.7" font-family="Times,serif" font-size="14.00">ctrl</text>
</g>
<!-- node7&#45;&gt;node8 -->
<g id="edge42" class="edge">
<title>node7&#45;&gt;node8</title>
<path fill="none" stroke="red" stroke-dasharray="5,2" d="M410.17,-178.36C411,-167.56 413.43,-153.74 420,-143.25 422.24,-139.68 424.98,-136.35 428.01,-133.27"/>
<polygon fill="red" stroke="red" points="430.23,-135.98 435.41,-126.73 425.6,-130.73 430.23,-135.98"/>
<text text-anchor="middle" x="442.5" y="-147.2" font-family="Times,serif" font-size="14.00">data: i</text>
</g>
<!-- node9 -->
<g id="node10" class="node">
<title>node9</title>
<polygon fill="none" stroke="black" points="359,-36 283,-36 283,0 359,0 359,-36"/>
<text text-anchor="middle" x="321" y="-13.32" font-family="Times,serif" font-size="14.00">i = i + 1</text>
</g>
<!-- node7&#45;&gt;node9 -->
<g id="edge48" class="edge">
<title>node7&#45;&gt;node9</title>
<path fill="none" stroke="red" stroke-dasharray="5,2" d="M391.62,-178.01C378.58,-164.67 361.58,-145.24 351,-125.25 337.99,-100.67 330.09,-69.81 325.68,-47.69"/>
<polygon fill="red" stroke="red" points="329.13,-47.08 323.86,-37.89 322.25,-48.36 329.13,-47.08"/>
<text text-anchor="middle" x="373.5" y="-102.58" font-family="Times,serif" font-size="14.00">data: i</text>
</g>
<!-- node7&#45;&gt;node10 -->
<g id="edge16" class="edge">
<title>node7&#45;&gt;node10</title>
<path fill="none" stroke="red" stroke-dasharray="5,2" d="M410.34,-214.73C411.12,-236 413.68,-273.12 422,-303.75 424.3,-312.2 428.18,-313.19 430,-321.75 431.59,-329.25 431.72,-331.53 430,-339 429.43,-341.46 428.67,-343.95 427.78,-346.4"/>
<polygon fill="red" stroke="red" points="424.66,-344.81 423.88,-355.38 431.08,-347.6 424.66,-344.81"/>
<text text-anchor="middle" x="444.5" y="-281.07" font-family="Times,serif" font-size="14.00">data: i</text>
</g>
<!-- node8&#45;&gt;node9 -->
<g id="edge9" class="edge">
<title>node8&#45;&gt;node9</title>
<path fill="none" stroke="blue" d="M437.81,-88.8C415.43,-75.43 384.33,-56.84 359.85,-42.21"/>
<polygon fill="blue" stroke="blue" points="361.82,-39.32 351.44,-37.19 358.23,-45.33 361.82,-39.32"/>
<text text-anchor="middle" x="419.45" y="-57.95" font-family="Times,serif" font-size="14.00">ctrl</text>
</g>
<!-- node9&#45;&gt;node8 -->
<g id="edge43" class="edge">
<title>node9&#45;&gt;node8</title>
<path fill="none" stroke="red" stroke-dasharray="5,2" d="M359.47,-23.51C383.52,-27.96 414,-36.74 436,-54 444.23,-60.46 450.74,-69.76 455.62,-78.72"/>
<polygon fill="red" stroke="red" points="452.4,-80.11 459.95,-87.55 458.69,-77.03 452.4,-80.11"/>
<text text-anchor="middle" x="472.77" y="-57.95" font-family="Times,serif" font-size="14.00">data: i</text>
</g>
<!-- node9&#45;&gt;node9 -->
<g id="edge49" class="edge">
<title>node9&#45;&gt;node9</title>
<path fill="none" stroke="red" stroke-dasharray="5,2" d="M359.48,-26.28C369.47,-25.77 377,-23.01 377,-18 377,-15.18 374.62,-13.07 370.75,-11.68"/>
<polygon fill="red" stroke="red" points="371.42,-8.24 360.97,-9.98 370.22,-15.14 371.42,-8.24"/>
<text text-anchor="middle" x="399.5" y="-13.32" font-family="Times,serif" font-size="14.00">data: i</text>
</g>
<!-- node9&#45;&gt;node10 -->
<g id="edge17" class="edge">
<title>node9&#45;&gt;node10</title>
<path fill="none" stroke="red" stroke-dasharray="5,2" d="M282.6,-21.34C197.4,-27.58 0,-48.28 0,-106.25 0,-286.75 0,-286.75 0,-286.75 0,-367.59 269.06,-335.73 365.99,-355.85"/>
<polygon fill="red" stroke="red" points="364.91,-359.19 375.46,-358.2 366.6,-352.39 364.91,-359.19"/>
<text text-anchor="middle" x="22.5" y="-191.82" font-family="Times,serif" font-size="14.00">data: i</text>
</g>
<!-- node10&#45;&gt;node2 -->
<g id="edge47" class="edge">
<title>node10&#45;&gt;node2</title>
<path fill="none" stroke="red" stroke-dasharray="5,2" d="M449.12,-379.7C543.08,-389.69 789.57,-418.34 813,-446.25 859.61,-501.76 824.23,-546.45 784,-606.75 753.29,-652.78 699.38,-687.45 659.88,-708.31"/>
<polygon fill="red" stroke="red" points="658.29,-705.19 651.01,-712.88 661.5,-711.41 658.29,-705.19"/>
<text text-anchor="middle" x="862.29" y="-548.83" font-family="Times,serif" font-size="14.00">data: max</text>
</g>
<!-- node10&#45;&gt;node3 -->
<g id="edge29" class="edge">
<title>node10&#45;&gt;node3</title>
<path fill="none" stroke="red" stroke-dasharray="5,2" d="M448.97,-380.79C507.46,-390.81 620.76,-420.14 662,-500.25 685.07,-545.07 658.76,-571.23 623,-606.75 617.68,-612.03 611.4,-616.71 604.87,-620.79"/>
<polygon fill="red" stroke="red" points="603.44,-617.58 596.5,-625.59 606.92,-623.65 603.44,-617.58"/>
<text text-anchor="middle" x="703.86" y="-504.2" font-family="Times,serif" font-size="14.00">data: max</text>
</g>
<!-- node10&#45;&gt;node4 -->
<g id="edge37" class="edge">
<title>node10&#45;&gt;node4</title>
<path fill="none" stroke="red" stroke-dasharray="5,2" d="M376.98,-392.16C354.26,-404.08 326.01,-422.36 308.5,-446.25 304.46,-451.76 273.74,-493.09 285,-517.5 286.57,-520.9 288.65,-524.09 291.04,-527.06"/>
<polygon fill="red" stroke="red" points="288.44,-529.41 297.9,-534.17 293.48,-524.54 288.44,-529.41"/>
<text text-anchor="middle" x="343.75" y="-459.57" font-family="Times,serif" font-size="14.00">data: max</text>
</g>
<!-- node10&#45;&gt;node5 -->
<g id="edge21" class="edge">
<title>node10&#45;&gt;node5</title>
<path fill="none" stroke="red" stroke-dasharray="5,2" d="M377.07,-391.32C360.6,-400.69 346.51,-413.67 355.5,-428.25 360.64,-436.6 368.46,-443.03 377.02,-447.95"/>
<polygon fill="red" stroke="red" points="375.42,-451.07 385.93,-452.4 378.54,-444.8 375.42,-451.07"/>
<text text-anchor="middle" x="390.75" y="-414.95" font-family="Times,serif" font-size="14.00">data: max</text>
</g>
<!-- node10&#45;&gt;node6 -->
<g id="edge33" class="edge">
<title>node10&#45;&gt;node6</title>
<path fill="none" stroke="red" stroke-dasharray="5,2" d="M384.75,-356.52C376.46,-351.12 367.48,-345.01 359.5,-339 348.27,-330.54 336.45,-320.59 326.27,-311.66"/>
<polygon fill="red" stroke="red" points="328.73,-309.16 318.93,-305.14 324.08,-314.39 328.73,-309.16"/>
<text text-anchor="middle" x="394.75" y="-325.7" font-family="Times,serif" font-size="14.00">data: max</text>
</g>
<!-- node10&#45;&gt;node8 -->
<g id="edge41" class="edge">
<title>node10&#45;&gt;node8</title>
<path fill="none" stroke="red" stroke-dasharray="5,2" d="M432.56,-356.55C445.48,-343.52 461.07,-324.45 467,-303.75 483.44,-246.36 477.29,-175.55 471.83,-136.84"/>
<polygon fill="red" stroke="red" points="475.33,-136.55 470.37,-127.19 468.4,-137.6 475.33,-136.55"/>
<text text-anchor="middle" x="512.57" y="-236.45" font-family="Times,serif" font-size="14.00">data: max</text>
</g>
<!-- node10&#45;&gt;node10 -->
<g id="edge15" class="edge">
<title>node10&#45;&gt;node10</title>
<path fill="none" stroke="red" stroke-dasharray="5,2" d="M449.17,-383.32C459.14,-382.91 466.75,-380.14 466.75,-375 466.75,-372.11 464.34,-369.96 460.46,-368.57"/>
<polygon fill="red" stroke="red" points="461.11,-365.13 450.67,-366.93 459.95,-372.04 461.11,-365.13"/>
<text text-anchor="middle" x="502" y="-370.32" font-family="Times,serif" font-size="14.00">data: max</text>
</g>
<!-- node10&#45;&gt;node11 -->
<g id="edge25" class="edge">
<title>node10&#45;&gt;node11</title>
<path fill="none" stroke="red" stroke-dasharray="5,2" d="M449.22,-363.72C489.06,-352.61 555.05,-334.74 612.5,-321.75 653.6,-312.46 700.26,-303.58 736.23,-297.09"/>
<polygon fill="red" stroke="red" points="736.8,-300.55 746.03,-295.34 735.57,-293.66 736.8,-300.55"/>
<text text-anchor="middle" x="647.75" y="-325.7" font-family="Times,serif" font-size="14.00">data: max</text>
</g>
</g>
</svg>
