<?xml version="1.0" encoding="UTF-8" standalone="no"?>
<!DOCTYPE svg PUBLIC "-//W3C//DTD SVG 1.1//EN"
 "http://www.w3.org/Graphics/SVG/1.1/DTD/svg11.dtd">
<!-- Generated by graphviz version 12.2.0 (0)
 -->
<!-- Title: PDG Pages: 1 -->
<svg width="581pt" height="1083pt"
 viewBox="0.00 0.00 581.00 1082.50" xmlns="http://www.w3.org/2000/svg" xmlns:xlink="http://www.w3.org/1999/xlink">
<g id="graph0" class="graph" transform="scale(1 1) rotate(0) translate(4 1078.5)">
<title>PDG</title>
<polygon fill="white" stroke="none" points="-4,4 -4,-1078.5 577,-1078.5 577,4 -4,4"/>
<!-- node0 -->
<g id="node1" class="node">
<title>node0</title>
<polygon fill="none" stroke="black" points="305,-1074.5 43,-1074.5 43,-1038.5 305,-1038.5 305,-1074.5"/>
<text text-anchor="middle" x="174" y="-1051.83" font-family="Times,serif" font-size="14.00">ENTRY: nestedControl(int, int, int)</text>
</g>
<!-- node2 -->
<g id="node3" class="node">
<title>node2</title>
<polygon fill="none" stroke="black" points="234.88,-1001.5 113.12,-1001.5 113.12,-965.5 234.88,-965.5 234.88,-1001.5"/>
<text text-anchor="middle" x="174" y="-978.83" font-family="Times,serif" font-size="14.00">3: int max = a;</text>
</g>
<!-- node0&#45;&gt;node2 -->
<g id="edge5" class="edge">
<title>node0&#45;&gt;node2</title>
<path fill="none" stroke="blue" d="M174,-1038.31C174,-1030.73 174,-1021.6 174,-1013.04"/>
<polygon fill="blue" stroke="blue" points="177.5,-1013.04 174,-1003.04 170.5,-1013.04 177.5,-1013.04"/>
</g>
<!-- node1 -->
<g id="node2" class="node">
<title>node1</title>
<polygon fill="none" stroke="black" points="313.88,-36 66.12,-36 66.12,0 313.88,0 313.88,-36"/>
<text text-anchor="middle" x="190" y="-13.32" font-family="Times,serif" font-size="14.00">EXIT: nestedControl(int, int, int)</text>
</g>
<!-- node3 -->
<g id="node4" class="node">
<title>node3</title>
<polygon fill="none" stroke="black" points="269.38,-912.25 168.62,-912.25 168.62,-876.25 269.38,-876.25 269.38,-912.25"/>
<text text-anchor="middle" x="219" y="-889.58" font-family="Times,serif" font-size="14.00">if (b &gt; max)</text>
</g>
<!-- node2&#45;&gt;node3 -->
<g id="edge6" class="edge">
<title>node2&#45;&gt;node3</title>
<path fill="none" stroke="blue" d="M192.16,-965.19C196.9,-959.89 201.62,-953.79 205,-947.5 208.94,-940.16 211.84,-931.64 213.93,-923.63"/>
<polygon fill="blue" stroke="blue" points="217.33,-924.47 216.13,-913.94 210.5,-922.92 217.33,-924.47"/>
</g>
<!-- node2&#45;&gt;node3 -->
<g id="edge17" class="edge">
<title>node2&#45;&gt;node3</title>
<path fill="none" stroke="red" stroke-dasharray="5,2" d="M168.74,-965.12C166.53,-954.5 165.56,-940.94 171,-930.25 172.89,-926.54 175.37,-923.13 178.22,-920.01"/>
<polygon fill="red" stroke="red" points="180.33,-922.83 185.33,-913.49 175.6,-917.67 180.33,-922.83"/>
<text text-anchor="middle" x="186" y="-934.2" font-family="Times,serif" font-size="14.00">max</text>
</g>
<!-- node4 -->
<g id="node5" class="node">
<title>node4</title>
<polygon fill="none" stroke="black" points="354.25,-823 255.75,-823 255.75,-787 354.25,-787 354.25,-823"/>
<text text-anchor="middle" x="305" y="-800.33" font-family="Times,serif" font-size="14.00">5: max = b;</text>
</g>
<!-- node2&#45;&gt;node4 -->
<g id="edge18" class="edge">
<title>node2&#45;&gt;node4</title>
<path fill="none" stroke="red" stroke-dasharray="5,2" d="M212.94,-965.04C235.14,-953.18 261.71,-935.42 278,-912.25 294.15,-889.29 300.65,-857.51 303.26,-834.71"/>
<polygon fill="red" stroke="red" points="306.73,-835.17 304.18,-824.89 299.76,-834.52 306.73,-835.17"/>
<text text-anchor="middle" x="309.79" y="-889.58" font-family="Times,serif" font-size="14.00">max</text>
</g>
<!-- node5 -->
<g id="node6" class="node">
<title>node5</title>
<polygon fill="none" stroke="black" points="230.62,-733.75 131.38,-733.75 131.38,-697.75 230.62,-697.75 230.62,-733.75"/>
<text text-anchor="middle" x="181" y="-711.08" font-family="Times,serif" font-size="14.00">if (c &gt; max)</text>
</g>
<!-- node2&#45;&gt;node5 -->
<g id="edge19" class="edge">
<title>node2&#45;&gt;node5</title>
<path fill="none" stroke="red" stroke-dasharray="5,2" d="M167.75,-965.25C165.95,-959.65 164.16,-953.37 163,-947.5 159.96,-932.07 160.67,-927.96 160,-912.25 157.47,-852.7 168.16,-783.44 175.21,-745.41"/>
<polygon fill="red" stroke="red" points="178.63,-746.18 177.07,-735.7 171.75,-744.87 178.63,-746.18"/>
<text text-anchor="middle" x="176.97" y="-844.95" font-family="Times,serif" font-size="14.00">max</text>
</g>
<!-- node6 -->
<g id="node7" class="node">
<title>node6</title>
<polygon fill="none" stroke="black" points="334.5,-644.5 237.5,-644.5 237.5,-608.5 334.5,-608.5 334.5,-644.5"/>
<text text-anchor="middle" x="286" y="-621.83" font-family="Times,serif" font-size="14.00">8: max = c;</text>
</g>
<!-- node2&#45;&gt;node6 -->
<g id="edge20" class="edge">
<title>node2&#45;&gt;node6</title>
<path fill="none" stroke="red" stroke-dasharray="5,2" d="M235.07,-977.81C325.64,-969.16 485,-946.63 485,-895.25 485,-895.25 485,-895.25 485,-759.38 485,-691.92 404.56,-656.93 345.97,-640.39"/>
<polygon fill="red" stroke="red" points="346.96,-637.04 336.4,-637.81 345.14,-643.8 346.96,-637.04"/>
<text text-anchor="middle" x="500" y="-800.33" font-family="Times,serif" font-size="14.00">max</text>
</g>
<!-- node7 -->
<g id="node8" class="node">
<title>node7</title>
<polygon fill="none" stroke="black" points="237.88,-555.25 128.12,-555.25 128.12,-519.25 237.88,-519.25 237.88,-555.25"/>
<text text-anchor="middle" x="183" y="-532.58" font-family="Times,serif" font-size="14.00">if (max &gt; 10)</text>
</g>
<!-- node2&#45;&gt;node7 -->
<g id="edge21" class="edge">
<title>node2&#45;&gt;node7</title>
<path fill="none" stroke="red" stroke-dasharray="5,2" d="M147.56,-965.08C127.38,-949.46 103,-924.54 103,-895.25 103,-895.25 103,-895.25 103,-625.5 103,-599.12 123.11,-577.26 143.16,-562.02"/>
<polygon fill="red" stroke="red" points="144.97,-565.04 151.07,-556.37 140.9,-559.34 144.97,-565.04"/>
<text text-anchor="middle" x="118" y="-755.7" font-family="Times,serif" font-size="14.00">max</text>
</g>
<!-- node9 -->
<g id="node10" class="node">
<title>node9</title>
<polygon fill="none" stroke="black" points="365.38,-376.75 240.62,-376.75 240.62,-340.75 365.38,-340.75 365.38,-376.75"/>
<text text-anchor="middle" x="303" y="-354.07" font-family="Times,serif" font-size="14.00">while (i &lt; max)</text>
</g>
<!-- node2&#45;&gt;node9 -->
<g id="edge22" class="edge">
<title>node2&#45;&gt;node9</title>
<path fill="none" stroke="red" stroke-dasharray="5,2" d="M235.35,-980.54C340.27,-975.51 543,-957.71 543,-895.25 543,-895.25 543,-895.25 543,-491.62 543,-462.23 540.37,-450.18 519,-430 498.05,-410.21 430.6,-390.11 376.58,-376.52"/>
<polygon fill="red" stroke="red" points="377.64,-373.17 367.1,-374.16 375.96,-379.97 377.64,-373.17"/>
<text text-anchor="middle" x="558" y="-666.45" font-family="Times,serif" font-size="14.00">max</text>
</g>
<!-- node11 -->
<g id="node12" class="node">
<title>node11</title>
<polygon fill="none" stroke="black" points="242.5,-198.25 139.5,-198.25 139.5,-162.25 242.5,-162.25 242.5,-198.25"/>
<text text-anchor="middle" x="191" y="-175.57" font-family="Times,serif" font-size="14.00">16: max = i;</text>
</g>
<!-- node2&#45;&gt;node11 -->
<g id="edge23" class="edge">
<title>node2&#45;&gt;node11</title>
<path fill="none" stroke="red" stroke-dasharray="5,2" d="M120.41,-965.1C90.02,-951.51 58,-929.14 58,-895.25 58,-895.25 58,-895.25 58,-313.12 58,-263.58 105.12,-226.29 143.27,-204.22"/>
<polygon fill="red" stroke="red" points="144.88,-207.33 151.92,-199.41 141.48,-201.21 144.88,-207.33"/>
<text text-anchor="middle" x="73" y="-577.2" font-family="Times,serif" font-size="14.00">max</text>
</g>
<!-- node12 -->
<g id="node13" class="node">
<title>node12</title>
<polygon fill="none" stroke="black" points="253.88,-109 126.12,-109 126.12,-73 253.88,-73 253.88,-109"/>
<text text-anchor="middle" x="190" y="-86.33" font-family="Times,serif" font-size="14.00">19: return max;</text>
</g>
<!-- node2&#45;&gt;node12 -->
<g id="edge24" class="edge">
<title>node2&#45;&gt;node12</title>
<path fill="none" stroke="red" stroke-dasharray="5,2" d="M112.65,-976.69C62.56,-968.16 0,-947.12 0,-895.25 0,-895.25 0,-895.25 0,-179.25 0,-126.39 61.49,-105.43 114.51,-97.19"/>
<polygon fill="red" stroke="red" points="114.76,-100.69 124.18,-95.83 113.79,-93.76 114.76,-100.69"/>
<text text-anchor="middle" x="15" y="-532.58" font-family="Times,serif" font-size="14.00">max</text>
</g>
<!-- node3&#45;&gt;node4 -->
<g id="edge1" class="edge">
<title>node3&#45;&gt;node4</title>
<path fill="none" stroke="blue" d="M235.99,-876.01C248.59,-863.23 265.97,-845.59 280.14,-831.22"/>
<polygon fill="blue" stroke="blue" points="282.45,-833.86 286.98,-824.28 277.47,-828.94 282.45,-833.86"/>
</g>
<!-- node3&#45;&gt;node5 -->
<g id="edge8" class="edge">
<title>node3&#45;&gt;node5</title>
<path fill="none" stroke="blue" d="M214.93,-876C209.31,-852.04 198.98,-807.32 191,-769 189.4,-761.31 187.76,-752.97 186.28,-745.26"/>
<polygon fill="blue" stroke="blue" points="189.77,-744.86 184.47,-735.68 182.89,-746.16 189.77,-744.86"/>
</g>
<!-- node4&#45;&gt;node5 -->
<g id="edge7" class="edge">
<title>node4&#45;&gt;node5</title>
<path fill="none" stroke="blue" d="M285.45,-786.69C273.09,-776.09 256.56,-762.54 241,-751.75 235.21,-747.74 228.94,-743.73 222.71,-739.94"/>
<polygon fill="blue" stroke="blue" points="224.71,-737.06 214.33,-734.96 221.14,-743.08 224.71,-737.06"/>
</g>
<!-- node4&#45;&gt;node5 -->
<g id="edge25" class="edge">
<title>node4&#45;&gt;node5</title>
<path fill="none" stroke="red" stroke-dasharray="5,2" d="M255.48,-794.29C238.6,-789.04 220.58,-781.05 207,-769 199.57,-762.4 194.01,-753.18 189.99,-744.33"/>
<polygon fill="red" stroke="red" points="193.34,-743.29 186.38,-735.31 186.84,-745.89 193.34,-743.29"/>
<text text-anchor="middle" x="222" y="-755.7" font-family="Times,serif" font-size="14.00">max</text>
</g>
<!-- node4&#45;&gt;node6 -->
<g id="edge26" class="edge">
<title>node4&#45;&gt;node6</title>
<path fill="none" stroke="red" stroke-dasharray="5,2" d="M303.14,-786.76C299.87,-756.31 293.02,-692.76 289.05,-655.8"/>
<polygon fill="red" stroke="red" points="292.58,-655.89 288.03,-646.32 285.62,-656.64 292.58,-655.89"/>
<text text-anchor="middle" x="312.39" y="-711.08" font-family="Times,serif" font-size="14.00">max</text>
</g>
<!-- node4&#45;&gt;node7 -->
<g id="edge27" class="edge">
<title>node4&#45;&gt;node7</title>
<path fill="none" stroke="red" stroke-dasharray="5,2" d="M294.61,-786.57C273.69,-750.87 225.99,-666.36 197,-590.5 194.07,-582.84 191.51,-574.32 189.41,-566.43"/>
<polygon fill="red" stroke="red" points="192.86,-565.79 187.04,-556.94 186.07,-567.49 192.86,-565.79"/>
<text text-anchor="middle" x="250.96" y="-666.45" font-family="Times,serif" font-size="14.00">max</text>
</g>
<!-- node4&#45;&gt;node9 -->
<g id="edge28" class="edge">
<title>node4&#45;&gt;node9</title>
<path fill="none" stroke="red" stroke-dasharray="5,2" d="M312.56,-786.71C318.41,-772.69 326.28,-752.27 331,-733.75 358.43,-626.12 354.58,-594.11 340,-484 334.65,-443.6 332.2,-433.3 319,-394.75 318.17,-392.34 317.24,-389.86 316.24,-387.4"/>
<polygon fill="red" stroke="red" points="319.48,-386.07 312.27,-378.31 313.07,-388.87 319.48,-386.07"/>
<text text-anchor="middle" x="366.07" y="-577.2" font-family="Times,serif" font-size="14.00">max</text>
</g>
<!-- node4&#45;&gt;node11 -->
<g id="edge29" class="edge">
<title>node4&#45;&gt;node11</title>
<path fill="none" stroke="red" stroke-dasharray="5,2" d="M323.34,-786.53C328.23,-781.23 333.2,-775.17 337,-769 388.22,-685.89 459.91,-435.14 435,-340.75 413.73,-260.15 318.81,-217.23 253.83,-196.88"/>
<polygon fill="red" stroke="red" points="254.9,-193.55 244.32,-194.01 252.88,-200.25 254.9,-193.55"/>
<text text-anchor="middle" x="445.53" y="-487.95" font-family="Times,serif" font-size="14.00">max</text>
</g>
<!-- node4&#45;&gt;node12 -->
<g id="edge30" class="edge">
<title>node4&#45;&gt;node12</title>
<path fill="none" stroke="red" stroke-dasharray="5,2" d="M335.04,-786.56C342.4,-781.47 349.9,-775.5 356,-769 368.47,-755.7 369.08,-750.17 377,-733.75 452.86,-576.53 497,-534.32 497,-359.75 497,-359.75 497,-359.75 497,-179.25 497,-131.29 356.64,-108.3 265.74,-98.44"/>
<polygon fill="red" stroke="red" points="266.17,-94.96 255.86,-97.4 265.44,-101.92 266.17,-94.96"/>
<text text-anchor="middle" x="508.97" y="-443.32" font-family="Times,serif" font-size="14.00">max</text>
</g>
<!-- node5&#45;&gt;node6 -->
<g id="edge2" class="edge">
<title>node5&#45;&gt;node6</title>
<path fill="none" stroke="blue" d="M219.86,-697.3C228.92,-692.31 238.2,-686.4 246,-679.75 254.68,-672.35 262.68,-662.77 269.2,-653.84"/>
<polygon fill="blue" stroke="blue" points="271.97,-655.99 274.8,-645.78 266.22,-652 271.97,-655.99"/>
</g>
<!-- node5&#45;&gt;node7 -->
<g id="edge10" class="edge">
<title>node5&#45;&gt;node7</title>
<path fill="none" stroke="blue" d="M177.56,-697.66C172.7,-670.95 165.17,-617.78 172,-573.25 172.34,-571.03 172.8,-568.76 173.33,-566.49"/>
<polygon fill="blue" stroke="blue" points="176.69,-567.48 176.04,-556.91 169.95,-565.58 176.69,-567.48"/>
</g>
<!-- node6&#45;&gt;node7 -->
<g id="edge9" class="edge">
<title>node6&#45;&gt;node7</title>
<path fill="none" stroke="blue" d="M275.99,-608.47C268.9,-597.46 258.62,-583.34 247,-573.25 242.1,-568.99 236.6,-565.04 230.93,-561.44"/>
<polygon fill="blue" stroke="blue" points="232.99,-558.59 222.61,-556.49 229.41,-564.61 232.99,-558.59"/>
</g>
<!-- node6&#45;&gt;node7 -->
<g id="edge31" class="edge">
<title>node6&#45;&gt;node7</title>
<path fill="none" stroke="red" stroke-dasharray="5,2" d="M238.95,-608.12C229.69,-603.33 220.52,-597.48 213,-590.5 205.59,-583.62 199.5,-574.48 194.78,-565.78"/>
<polygon fill="red" stroke="red" points="197.97,-564.32 190.39,-556.91 191.69,-567.42 197.97,-564.32"/>
<text text-anchor="middle" x="228" y="-577.2" font-family="Times,serif" font-size="14.00">max</text>
</g>
<!-- node6&#45;&gt;node9 -->
<g id="edge32" class="edge">
<title>node6&#45;&gt;node9</title>
<path fill="none" stroke="red" stroke-dasharray="5,2" d="M292.46,-608.29C294.27,-602.69 296.02,-596.41 297,-590.5 309,-518.57 306.97,-432.31 304.79,-388.44"/>
<polygon fill="red" stroke="red" points="308.29,-388.29 304.26,-378.5 301.3,-388.67 308.29,-388.29"/>
<text text-anchor="middle" x="321.1" y="-487.95" font-family="Times,serif" font-size="14.00">max</text>
</g>
<!-- node6&#45;&gt;node11 -->
<g id="edge33" class="edge">
<title>node6&#45;&gt;node11</title>
<path fill="none" stroke="red" stroke-dasharray="5,2" d="M283.52,-608.12C279.48,-585.34 269.52,-545.24 247,-519.25 216.31,-483.84 179.31,-506.65 156,-466 108.12,-382.5 152.47,-262.8 177.09,-209.13"/>
<polygon fill="red" stroke="red" points="180.26,-210.63 181.36,-200.09 173.93,-207.64 180.26,-210.63"/>
<text text-anchor="middle" x="152.36" y="-398.7" font-family="Times,serif" font-size="14.00">max</text>
</g>
<!-- node6&#45;&gt;node12 -->
<g id="edge34" class="edge">
<title>node6&#45;&gt;node12</title>
<path fill="none" stroke="red" stroke-dasharray="5,2" d="M334.88,-617.76C352.72,-612.69 371.76,-604.32 385,-590.5 401.8,-572.96 401,-562.54 401,-538.25 401,-538.25 401,-538.25 401,-179.25 401,-118.7 325.89,-99.35 265.29,-93.58"/>
<polygon fill="red" stroke="red" points="265.93,-90.12 255.67,-92.78 265.35,-97.1 265.93,-90.12"/>
<text text-anchor="middle" x="416" y="-354.07" font-family="Times,serif" font-size="14.00">max</text>
</g>
<!-- node8 -->
<g id="node9" class="node">
<title>node8</title>
<polygon fill="none" stroke="black" points="271,-466 165,-466 165,-430 271,-430 271,-466"/>
<text text-anchor="middle" x="218" y="-443.32" font-family="Times,serif" font-size="14.00">12: int i = 0;</text>
</g>
<!-- node7&#45;&gt;node8 -->
<g id="edge4" class="edge">
<title>node7&#45;&gt;node8</title>
<path fill="none" stroke="blue" d="M189.91,-519.01C194.76,-506.94 201.33,-490.56 206.9,-476.67"/>
<polygon fill="blue" stroke="blue" points="210.06,-478.19 210.54,-467.61 203.56,-475.58 210.06,-478.19"/>
</g>
<!-- node7&#45;&gt;node12 -->
<g id="edge15" class="edge">
<title>node7&#45;&gt;node12</title>
<path fill="none" stroke="blue" d="M148.12,-518.76C123.91,-503.89 96,-480.02 96,-449 96,-449 96,-449 96,-313.12 96,-244.29 100.24,-223.83 131,-162.25 139.21,-145.81 152.01,-129.92 163.58,-117.42"/>
<polygon fill="blue" stroke="blue" points="165.89,-120.08 170.28,-110.44 160.84,-115.23 165.89,-120.08"/>
</g>
<!-- node8&#45;&gt;node9 -->
<g id="edge11" class="edge">
<title>node8&#45;&gt;node9</title>
<path fill="none" stroke="blue" d="M232.85,-429.69C241.9,-419.33 253.85,-406.03 265,-394.75 268.17,-391.54 271.57,-388.24 274.97,-385.01"/>
<polygon fill="blue" stroke="blue" points="277.3,-387.62 282.23,-378.24 272.53,-382.5 277.3,-387.62"/>
</g>
<!-- node8&#45;&gt;node9 -->
<g id="edge36" class="edge">
<title>node8&#45;&gt;node9</title>
<path fill="none" stroke="red" stroke-dasharray="5,2" d="M244.02,-429.79C251.18,-424.49 258.71,-418.37 265,-412 272.56,-404.35 279.79,-395.1 285.88,-386.52"/>
<polygon fill="red" stroke="red" points="288.61,-388.72 291.36,-378.49 282.83,-384.77 288.61,-388.72"/>
<text text-anchor="middle" x="281.16" y="-398.7" font-family="Times,serif" font-size="14.00">i</text>
</g>
<!-- node10 -->
<g id="node11" class="node">
<title>node10</title>
<polygon fill="none" stroke="black" points="345.75,-287.5 238.25,-287.5 238.25,-251.5 345.75,-251.5 345.75,-287.5"/>
<text text-anchor="middle" x="292" y="-264.82" font-family="Times,serif" font-size="14.00">14: i = i + 1;</text>
</g>
<!-- node8&#45;&gt;node10 -->
<g id="edge37" class="edge">
<title>node8&#45;&gt;node10</title>
<path fill="none" stroke="red" stroke-dasharray="5,2" d="M216.24,-429.6C214.76,-407.83 214.63,-369.89 227.5,-340.75 235.13,-323.48 248.76,-307.66 261.53,-295.42"/>
<polygon fill="red" stroke="red" points="263.6,-298.27 268.61,-288.94 258.87,-293.11 263.6,-298.27"/>
<text text-anchor="middle" x="229.75" y="-354.07" font-family="Times,serif" font-size="14.00">i</text>
</g>
<!-- node8&#45;&gt;node11 -->
<g id="edge38" class="edge">
<title>node8&#45;&gt;node11</title>
<path fill="none" stroke="red" stroke-dasharray="5,2" d="M214.75,-429.59C213.78,-423.99 212.76,-417.74 212,-412 201.48,-333 201.82,-312.9 195,-233.5 194.35,-225.89 193.69,-217.64 193.11,-210"/>
<polygon fill="red" stroke="red" points="196.61,-209.89 192.37,-200.18 189.63,-210.42 196.61,-209.89"/>
<text text-anchor="middle" x="204.27" y="-309.45" font-family="Times,serif" font-size="14.00">i</text>
</g>
<!-- node9&#45;&gt;node10 -->
<g id="edge3" class="edge">
<title>node9&#45;&gt;node10</title>
<path fill="none" stroke="blue" d="M295.32,-340.51C292.55,-328.68 290.24,-312.7 289.22,-299"/>
<polygon fill="blue" stroke="blue" points="292.72,-299.03 288.74,-289.21 285.73,-299.37 292.72,-299.03"/>
</g>
<!-- node9&#45;&gt;node11 -->
<g id="edge12" class="edge">
<title>node9&#45;&gt;node11</title>
<path fill="none" stroke="blue" d="M279.53,-340.35C263.4,-327.34 242.54,-308.28 229,-287.5 213.32,-263.43 203.13,-232.07 197.29,-209.67"/>
<polygon fill="blue" stroke="blue" points="200.71,-208.9 194.92,-200.03 193.91,-210.58 200.71,-208.9"/>
</g>
<!-- node10&#45;&gt;node9 -->
<g id="edge13" class="edge">
<title>node10&#45;&gt;node9</title>
<path fill="none" stroke="blue" d="M299.67,-287.7C302.45,-299.52 304.75,-315.5 305.78,-329.21"/>
<polygon fill="blue" stroke="blue" points="302.27,-329.18 306.26,-339 309.27,-328.84 302.27,-329.18"/>
</g>
<!-- node10&#45;&gt;node9 -->
<g id="edge39" class="edge">
<title>node10&#45;&gt;node9</title>
<path fill="none" stroke="red" stroke-dasharray="5,2" d="M288.62,-287.59C287.13,-297.87 286.19,-311.16 288.5,-322.75 288.96,-325.07 289.58,-327.43 290.3,-329.76"/>
<polygon fill="red" stroke="red" points="286.95,-330.79 293.7,-338.95 293.51,-328.36 286.95,-330.79"/>
<text text-anchor="middle" x="290.75" y="-309.45" font-family="Times,serif" font-size="14.00">i</text>
</g>
<!-- node10&#45;&gt;node11 -->
<g id="edge40" class="edge">
<title>node10&#45;&gt;node11</title>
<path fill="none" stroke="red" stroke-dasharray="5,2" d="M272.05,-251.26C256.97,-238.24 236.07,-220.18 219.27,-205.67"/>
<polygon fill="red" stroke="red" points="221.91,-203.33 212.06,-199.44 217.34,-208.63 221.91,-203.33"/>
<text text-anchor="middle" x="252.8" y="-220.2" font-family="Times,serif" font-size="14.00">i</text>
</g>
<!-- node11&#45;&gt;node12 -->
<g id="edge14" class="edge">
<title>node11&#45;&gt;node12</title>
<path fill="none" stroke="blue" d="M189.21,-161.82C188.71,-156.22 188.25,-149.98 188,-144.25 187.67,-136.63 187.78,-128.39 188.06,-120.75"/>
<polygon fill="blue" stroke="blue" points="191.55,-121.09 188.55,-110.93 184.56,-120.74 191.55,-121.09"/>
</g>
<!-- node11&#45;&gt;node12 -->
<g id="edge35" class="edge">
<title>node11&#45;&gt;node12</title>
<path fill="none" stroke="red" stroke-dasharray="5,2" d="M190.8,-162.01C190.67,-150.18 190.48,-134.2 190.33,-120.5"/>
<polygon fill="red" stroke="red" points="193.83,-120.67 190.21,-110.72 186.83,-120.75 193.83,-120.67"/>
<text text-anchor="middle" x="205.59" y="-130.95" font-family="Times,serif" font-size="14.00">max</text>
</g>
<!-- node12&#45;&gt;node1 -->
<g id="edge16" class="edge">
<title>node12&#45;&gt;node1</title>
<path fill="none" stroke="blue" d="M190,-72.81C190,-65.23 190,-56.1 190,-47.54"/>
<polygon fill="blue" stroke="blue" points="193.5,-47.54 190,-37.54 186.5,-47.54 193.5,-47.54"/>
</g>
</g>
</svg>
