<?xml version="1.0" encoding="UTF-8" standalone="no"?>
<!DOCTYPE svg PUBLIC "-//W3C//DTD SVG 1.1//EN"
 "http://www.w3.org/Graphics/SVG/1.1/DTD/svg11.dtd">
<!-- Generated by graphviz version 12.2.0 (0)
 -->
<!-- Title: PDG Pages: 1 -->
<svg width="418pt" height="692pt"
 viewBox="0.00 0.00 418.00 692.00" xmlns="http://www.w3.org/2000/svg" xmlns:xlink="http://www.w3.org/1999/xlink">
<g id="graph0" class="graph" transform="scale(1 1) rotate(0) translate(4 688)">
<title>PDG</title>
<polygon fill="white" stroke="none" points="-4,4 -4,-688 414,-688 414,4 -4,4"/>
<!-- node0 -->
<g id="node1" class="node">
<title>node0</title>
<polygon fill="none" stroke="black" points="410,-684 205.75,-684 205.75,-648 410,-648 410,-684"/>
<text text-anchor="middle" x="307.88" y="-661.33" font-family="Times,serif" font-size="14.00">ENTRY: nestedLoops(int[])</text>
</g>
<!-- node2 -->
<g id="node3" class="node">
<title>node2</title>
<polygon fill="none" stroke="black" points="375.12,-612 240.62,-612 240.62,-576 375.12,-576 375.12,-612"/>
<text text-anchor="middle" x="307.88" y="-589.33" font-family="Times,serif" font-size="14.00">3: int result = 1;</text>
</g>
<!-- node0&#45;&gt;node2 -->
<g id="edge5" class="edge">
<title>node0&#45;&gt;node2</title>
<path fill="none" stroke="blue" d="M307.88,-647.7C307.88,-640.41 307.88,-631.73 307.88,-623.54"/>
<polygon fill="blue" stroke="blue" points="311.38,-623.62 307.88,-613.62 304.38,-623.62 311.38,-623.62"/>
</g>
<!-- node1 -->
<g id="node2" class="node">
<title>node1</title>
<polygon fill="none" stroke="black" points="332.88,-324 142.88,-324 142.88,-288 332.88,-288 332.88,-324"/>
<text text-anchor="middle" x="237.88" y="-301.32" font-family="Times,serif" font-size="14.00">EXIT: nestedLoops(int[])</text>
</g>
<!-- node3 -->
<g id="node4" class="node">
<title>node3</title>
<polygon fill="none" stroke="black" points="356.38,-540 259.38,-540 259.38,-504 356.38,-504 356.38,-540"/>
<text text-anchor="middle" x="307.88" y="-517.33" font-family="Times,serif" font-size="14.00">4: int i = 1;</text>
</g>
<!-- node2&#45;&gt;node3 -->
<g id="edge6" class="edge">
<title>node2&#45;&gt;node3</title>
<path fill="none" stroke="blue" d="M307.88,-575.7C307.88,-568.41 307.88,-559.73 307.88,-551.54"/>
<polygon fill="blue" stroke="blue" points="311.38,-551.62 307.88,-541.62 304.38,-551.62 311.38,-551.62"/>
</g>
<!-- node4 -->
<g id="node5" class="node">
<title>node4</title>
<polygon fill="none" stroke="black" points="365.75,-468 250,-468 250,-432 365.75,-432 365.75,-468"/>
<text text-anchor="middle" x="307.88" y="-445.32" font-family="Times,serif" font-size="14.00">while (i &lt;= n)</text>
</g>
<!-- node3&#45;&gt;node4 -->
<g id="edge7" class="edge">
<title>node3&#45;&gt;node4</title>
<path fill="none" stroke="blue" d="M307.88,-503.7C307.88,-496.41 307.88,-487.73 307.88,-479.54"/>
<polygon fill="blue" stroke="blue" points="311.38,-479.62 307.88,-469.62 304.38,-479.62 311.38,-479.62"/>
</g>
<!-- node5 -->
<g id="node6" class="node">
<title>node5</title>
<polygon fill="none" stroke="black" points="163.75,-396 0,-396 0,-360 163.75,-360 163.75,-396"/>
<text text-anchor="middle" x="81.88" y="-373.32" font-family="Times,serif" font-size="14.00">6: result = result * i;</text>
</g>
<!-- node4&#45;&gt;node5 -->
<g id="edge4" class="edge">
<title>node4&#45;&gt;node5</title>
<path fill="none" stroke="blue" d="M251.43,-431.52C220.3,-421.88 181.46,-409.84 148.81,-399.73"/>
<polygon fill="blue" stroke="blue" points="150.03,-396.44 139.44,-396.83 147.96,-403.13 150.03,-396.44"/>
</g>
<!-- node13 -->
<g id="node14" class="node">
<title>node13</title>
<polygon fill="none" stroke="black" points="328.75,-396 189,-396 189,-360 328.75,-360 328.75,-396"/>
<text text-anchor="middle" x="258.88" y="-373.32" font-family="Times,serif" font-size="14.00">18: return result;</text>
</g>
<!-- node4&#45;&gt;node13 -->
<g id="edge8" class="edge">
<title>node4&#45;&gt;node13</title>
<path fill="none" stroke="blue" d="M295.76,-431.7C290.18,-423.73 283.44,-414.1 277.26,-405.26"/>
<polygon fill="blue" stroke="blue" points="280.32,-403.53 271.72,-397.34 274.58,-407.54 280.32,-403.53"/>
</g>
<!-- node6 -->
<g id="node7" class="node">
<title>node6</title>
<polygon fill="none" stroke="black" points="124.5,-324 31.25,-324 31.25,-288 124.5,-288 124.5,-324"/>
<text text-anchor="middle" x="77.88" y="-301.32" font-family="Times,serif" font-size="14.00">if (i &gt; 100)</text>
</g>
<!-- node5&#45;&gt;node6 -->
<g id="edge9" class="edge">
<title>node5&#45;&gt;node6</title>
<path fill="none" stroke="blue" d="M80.89,-359.7C80.47,-352.41 79.97,-343.73 79.51,-335.54"/>
<polygon fill="blue" stroke="blue" points="83,-335.4 78.94,-325.62 76.02,-335.8 83,-335.4"/>
</g>
<!-- node7 -->
<g id="node8" class="node">
<title>node7</title>
<polygon fill="none" stroke="black" points="341.38,-252 238.38,-252 238.38,-216 341.38,-216 341.38,-252"/>
<text text-anchor="middle" x="289.88" y="-229.32" font-family="Times,serif" font-size="14.00">8: i += 101;</text>
</g>
<!-- node6&#45;&gt;node7 -->
<g id="edge1" class="edge">
<title>node6&#45;&gt;node7</title>
<path fill="none" stroke="blue" d="M124.92,-289.46C155.06,-279.51 194.53,-266.48 227.3,-255.66"/>
<polygon fill="blue" stroke="blue" points="228.29,-259.02 236.69,-252.56 226.1,-252.37 228.29,-259.02"/>
</g>
<!-- node8 -->
<g id="node9" class="node">
<title>node8</title>
<polygon fill="none" stroke="black" points="161.62,-252 54.12,-252 54.12,-216 161.62,-216 161.62,-252"/>
<text text-anchor="middle" x="107.88" y="-229.32" font-family="Times,serif" font-size="14.00">10: i = i + 1;</text>
</g>
<!-- node6&#45;&gt;node8 -->
<g id="edge3" class="edge">
<title>node6&#45;&gt;node8</title>
<path fill="none" stroke="blue" d="M85.29,-287.7C88.52,-280.15 92.4,-271.12 96.01,-262.68"/>
<polygon fill="blue" stroke="blue" points="99.23,-264.07 99.95,-253.5 92.79,-261.31 99.23,-264.07"/>
</g>
<!-- node7&#45;&gt;node4 -->
<g id="edge10" class="edge">
<title>node7&#45;&gt;node4</title>
<path fill="none" stroke="blue" d="M313.9,-252.32C324.62,-261.56 336.12,-273.92 341.88,-288 360.04,-332.46 351.39,-349.91 337.88,-396 335.24,-404.99 330.83,-414.1 326.2,-422.18"/>
<polygon fill="blue" stroke="blue" points="323.36,-420.12 321.12,-430.48 329.33,-423.78 323.36,-420.12"/>
</g>
<!-- node9 -->
<g id="node10" class="node">
<title>node9</title>
<polygon fill="none" stroke="black" points="205.88,-180 99.88,-180 99.88,-144 205.88,-144 205.88,-180"/>
<text text-anchor="middle" x="152.88" y="-157.32" font-family="Times,serif" font-size="14.00">11: int j = 5;</text>
</g>
<!-- node8&#45;&gt;node9 -->
<g id="edge11" class="edge">
<title>node8&#45;&gt;node9</title>
<path fill="none" stroke="blue" d="M119,-215.7C124.07,-207.81 130.18,-198.3 135.81,-189.55"/>
<polygon fill="blue" stroke="blue" points="138.6,-191.68 141.06,-181.38 132.71,-187.9 138.6,-191.68"/>
</g>
<!-- node10 -->
<g id="node11" class="node">
<title>node10</title>
<polygon fill="none" stroke="black" points="252.25,-108 121.5,-108 121.5,-72 252.25,-72 252.25,-108"/>
<text text-anchor="middle" x="186.88" y="-85.33" font-family="Times,serif" font-size="14.00">while (j &lt; 1000)</text>
</g>
<!-- node9&#45;&gt;node10 -->
<g id="edge12" class="edge">
<title>node9&#45;&gt;node10</title>
<path fill="none" stroke="blue" d="M161.28,-143.7C164.99,-136.07 169.43,-126.92 173.57,-118.4"/>
<polygon fill="blue" stroke="blue" points="176.69,-119.99 177.91,-109.47 170.39,-116.93 176.69,-119.99"/>
</g>
<!-- node11 -->
<g id="node12" class="node">
<title>node11</title>
<polygon fill="none" stroke="black" points="240.62,-36 133.12,-36 133.12,0 240.62,0 240.62,-36"/>
<text text-anchor="middle" x="186.88" y="-13.32" font-family="Times,serif" font-size="14.00">13: j = j + 1;</text>
</g>
<!-- node10&#45;&gt;node11 -->
<g id="edge2" class="edge">
<title>node10&#45;&gt;node11</title>
<path fill="none" stroke="blue" d="M180.96,-71.7C180.21,-64.41 179.96,-55.73 180.23,-47.54"/>
<polygon fill="blue" stroke="blue" points="183.72,-47.82 180.88,-37.61 176.73,-47.36 183.72,-47.82"/>
</g>
<!-- node12 -->
<g id="node13" class="node">
<title>node12</title>
<polygon fill="none" stroke="black" points="406.88,-36 324.88,-36 324.88,0 406.88,0 406.88,-36"/>
<text text-anchor="middle" x="365.88" y="-13.32" font-family="Times,serif" font-size="14.00">15: i &#45;= j;</text>
</g>
<!-- node10&#45;&gt;node12 -->
<g id="edge13" class="edge">
<title>node10&#45;&gt;node12</title>
<path fill="none" stroke="blue" d="M231.58,-71.52C256.61,-61.73 287.94,-49.48 314.04,-39.27"/>
<polygon fill="blue" stroke="blue" points="315.05,-42.63 323.09,-35.73 312.5,-36.12 315.05,-42.63"/>
</g>
<!-- node11&#45;&gt;node10 -->
<g id="edge14" class="edge">
<title>node11&#45;&gt;node10</title>
<path fill="none" stroke="blue" d="M192.77,-36.1C193.53,-43.37 193.78,-52.04 193.53,-60.24"/>
<polygon fill="blue" stroke="blue" points="190.04,-59.98 192.89,-70.19 197.02,-60.43 190.04,-59.98"/>
</g>
<!-- node12&#45;&gt;node4 -->
<g id="edge15" class="edge">
<title>node12&#45;&gt;node4</title>
<path fill="none" stroke="blue" d="M372.55,-36.19C382.2,-62.6 398.88,-114.94 398.88,-161 398.88,-307 398.88,-307 398.88,-307 398.88,-353.77 363.45,-397.45 336.81,-423.69"/>
<polygon fill="blue" stroke="blue" points="334.45,-421.11 329.62,-430.54 339.28,-426.18 334.45,-421.11"/>
</g>
<!-- node13&#45;&gt;node1 -->
<g id="edge16" class="edge">
<title>node13&#45;&gt;node1</title>
<path fill="none" stroke="blue" d="M253.68,-359.7C251.45,-352.24 248.77,-343.32 246.26,-334.97"/>
<polygon fill="blue" stroke="blue" points="249.67,-334.13 243.44,-325.55 242.96,-336.14 249.67,-334.13"/>
</g>
</g>
</svg>
