<?xml version="1.0" encoding="UTF-8" standalone="no"?>
<!DOCTYPE svg PUBLIC "-//W3C//DTD SVG 1.1//EN"
 "http://www.w3.org/Graphics/SVG/1.1/DTD/svg11.dtd">
<!-- Generated by graphviz version 12.2.0 (0)
 -->
<!-- Title: PDG Pages: 1 -->
<svg width="290pt" height="1026pt"
 viewBox="0.00 0.00 289.50 1025.75" xmlns="http://www.w3.org/2000/svg" xmlns:xlink="http://www.w3.org/1999/xlink">
<g id="graph0" class="graph" transform="scale(1 1) rotate(0) translate(4 1021.75)">
<title>PDG</title>
<polygon fill="white" stroke="none" points="-4,4 -4,-1021.75 285.5,-1021.75 285.5,4 -4,4"/>
<!-- node2 -->
<g id="node1" class="node">
<title>node2</title>
<polygon fill="none" stroke="black" points="269.62,-928.5 147.88,-928.5 147.88,-892.5 269.62,-892.5 269.62,-928.5"/>
<text text-anchor="middle" x="208.75" y="-905.83" font-family="Times,serif" font-size="14.00">3: int max = a;</text>
</g>
<!-- node3 -->
<g id="node2" class="node">
<title>node3</title>
<polygon fill="none" stroke="black" points="259.12,-839.25 158.38,-839.25 158.38,-803.25 259.12,-803.25 259.12,-839.25"/>
<text text-anchor="middle" x="208.75" y="-816.58" font-family="Times,serif" font-size="14.00">if (b &gt; max)</text>
</g>
<!-- node2&#45;&gt;node3 -->
<g id="edge6" class="edge">
<title>node2&#45;&gt;node3</title>
<path fill="none" stroke="blue" d="M208.75,-892.26C208.75,-880.43 208.75,-864.45 208.75,-850.75"/>
<polygon fill="blue" stroke="blue" points="212.25,-850.97 208.75,-840.97 205.25,-850.97 212.25,-850.97"/>
<text text-anchor="middle" x="221.12" y="-861.2" font-family="Times,serif" font-size="14.00">ctrl</text>
</g>
<!-- node4 -->
<g id="node3" class="node">
<title>node4</title>
<polygon fill="none" stroke="black" points="215,-750 116.5,-750 116.5,-714 215,-714 215,-750"/>
<text text-anchor="middle" x="165.75" y="-727.33" font-family="Times,serif" font-size="14.00">5: max = b;</text>
</g>
<!-- node3&#45;&gt;node4 -->
<g id="edge1" class="edge">
<title>node3&#45;&gt;node4</title>
<path fill="none" stroke="blue" d="M200.25,-803.01C194.25,-790.82 186.07,-774.23 179.18,-760.26"/>
<polygon fill="blue" stroke="blue" points="182.46,-758.98 174.9,-751.56 176.18,-762.08 182.46,-758.98"/>
<text text-anchor="middle" x="203.48" y="-771.95" font-family="Times,serif" font-size="14.00">ctrl</text>
</g>
<!-- node5 -->
<g id="node4" class="node">
<title>node5</title>
<polygon fill="none" stroke="black" points="258.38,-660.75 159.12,-660.75 159.12,-624.75 258.38,-624.75 258.38,-660.75"/>
<text text-anchor="middle" x="208.75" y="-638.08" font-family="Times,serif" font-size="14.00">if (c &gt; max)</text>
</g>
<!-- node3&#45;&gt;node5 -->
<g id="edge8" class="edge">
<title>node3&#45;&gt;node5</title>
<path fill="none" stroke="blue" d="M214.9,-802.98C216.7,-797.38 218.51,-791.11 219.75,-785.25 229.56,-738.94 229.56,-725.06 219.75,-678.75 219.28,-676.55 218.74,-674.3 218.14,-672.04"/>
<polygon fill="blue" stroke="blue" points="221.51,-671.08 215.33,-662.47 214.79,-673.06 221.51,-671.08"/>
<text text-anchor="middle" x="239.48" y="-727.33" font-family="Times,serif" font-size="14.00">ctrl</text>
</g>
<!-- node4&#45;&gt;node5 -->
<g id="edge7" class="edge">
<title>node4&#45;&gt;node5</title>
<path fill="none" stroke="blue" d="M174.25,-713.76C180.25,-701.57 188.43,-684.98 195.32,-671.01"/>
<polygon fill="blue" stroke="blue" points="198.32,-672.83 199.6,-662.31 192.04,-669.73 198.32,-672.83"/>
<text text-anchor="middle" x="203.48" y="-682.7" font-family="Times,serif" font-size="14.00">ctrl</text>
</g>
<!-- node6 -->
<g id="node5" class="node">
<title>node6</title>
<polygon fill="none" stroke="black" points="214.25,-571.5 117.25,-571.5 117.25,-535.5 214.25,-535.5 214.25,-571.5"/>
<text text-anchor="middle" x="165.75" y="-548.83" font-family="Times,serif" font-size="14.00">8: max = c;</text>
</g>
<!-- node5&#45;&gt;node6 -->
<g id="edge2" class="edge">
<title>node5&#45;&gt;node6</title>
<path fill="none" stroke="blue" d="M200.25,-624.51C194.25,-612.32 186.07,-595.73 179.18,-581.76"/>
<polygon fill="blue" stroke="blue" points="182.46,-580.48 174.9,-573.06 176.18,-583.58 182.46,-580.48"/>
<text text-anchor="middle" x="203.48" y="-593.45" font-family="Times,serif" font-size="14.00">ctrl</text>
</g>
<!-- node7 -->
<g id="node6" class="node">
<title>node7</title>
<polygon fill="none" stroke="black" points="263.62,-482.25 153.88,-482.25 153.88,-446.25 263.62,-446.25 263.62,-482.25"/>
<text text-anchor="middle" x="208.75" y="-459.57" font-family="Times,serif" font-size="14.00">if (max &gt; 10)</text>
</g>
<!-- node5&#45;&gt;node7 -->
<g id="edge10" class="edge">
<title>node5&#45;&gt;node7</title>
<path fill="none" stroke="blue" d="M214.9,-624.48C216.7,-618.88 218.51,-612.61 219.75,-606.75 229.56,-560.44 229.56,-546.56 219.75,-500.25 219.28,-498.05 218.74,-495.8 218.14,-493.54"/>
<polygon fill="blue" stroke="blue" points="221.51,-492.58 215.33,-483.97 214.79,-494.56 221.51,-492.58"/>
<text text-anchor="middle" x="239.48" y="-548.83" font-family="Times,serif" font-size="14.00">ctrl</text>
</g>
<!-- node6&#45;&gt;node7 -->
<g id="edge9" class="edge">
<title>node6&#45;&gt;node7</title>
<path fill="none" stroke="blue" d="M174.25,-535.26C180.25,-523.07 188.43,-506.48 195.32,-492.51"/>
<polygon fill="blue" stroke="blue" points="198.32,-494.33 199.6,-483.81 192.04,-491.23 198.32,-494.33"/>
<text text-anchor="middle" x="203.48" y="-504.2" font-family="Times,serif" font-size="14.00">ctrl</text>
</g>
<!-- node8 -->
<g id="node7" class="node">
<title>node8</title>
<polygon fill="none" stroke="black" points="213.75,-393 107.75,-393 107.75,-357 213.75,-357 213.75,-393"/>
<text text-anchor="middle" x="160.75" y="-370.32" font-family="Times,serif" font-size="14.00">12: int i = 0;</text>
</g>
<!-- node7&#45;&gt;node8 -->
<g id="edge4" class="edge">
<title>node7&#45;&gt;node8</title>
<path fill="none" stroke="blue" d="M199.27,-446.01C192.56,-433.82 183.43,-417.23 175.75,-403.26"/>
<polygon fill="blue" stroke="blue" points="178.83,-401.6 170.94,-394.53 172.7,-404.98 178.83,-401.6"/>
<text text-anchor="middle" x="201.42" y="-414.95" font-family="Times,serif" font-size="14.00">ctrl</text>
</g>
<!-- node12 -->
<g id="node11" class="node">
<title>node12</title>
<polygon fill="none" stroke="black" points="280.62,-125.25 152.88,-125.25 152.88,-89.25 280.62,-89.25 280.62,-125.25"/>
<text text-anchor="middle" x="216.75" y="-102.58" font-family="Times,serif" font-size="14.00">19: return max;</text>
</g>
<!-- node7&#45;&gt;node12 -->
<g id="edge15" class="edge">
<title>node7&#45;&gt;node12</title>
<path fill="none" stroke="blue" d="M225,-446.06C238.93,-429.47 256.75,-402.97 256.75,-376 256.75,-376 256.75,-376 256.75,-195.5 256.75,-173.83 246.43,-151.67 236.28,-135.1"/>
<polygon fill="blue" stroke="blue" points="239.28,-133.31 230.9,-126.83 233.42,-137.12 239.28,-133.31"/>
<text text-anchor="middle" x="269.12" y="-281.07" font-family="Times,serif" font-size="14.00">ctrl</text>
</g>
<!-- node9 -->
<g id="node8" class="node">
<title>node9</title>
<polygon fill="none" stroke="black" points="200.12,-303.75 75.38,-303.75 75.38,-267.75 200.12,-267.75 200.12,-303.75"/>
<text text-anchor="middle" x="137.75" y="-281.07" font-family="Times,serif" font-size="14.00">while (i &lt; max)</text>
</g>
<!-- node8&#45;&gt;node9 -->
<g id="edge11" class="edge">
<title>node8&#45;&gt;node9</title>
<path fill="none" stroke="blue" d="M156.21,-356.76C153.06,-344.81 148.79,-328.63 145.15,-314.83"/>
<polygon fill="blue" stroke="blue" points="148.6,-314.19 142.67,-305.42 141.84,-315.98 148.6,-314.19"/>
<text text-anchor="middle" x="163.69" y="-325.7" font-family="Times,serif" font-size="14.00">ctrl</text>
</g>
<!-- node10 -->
<g id="node9" class="node">
<title>node10</title>
<polygon fill="none" stroke="black" points="107.5,-214.5 0,-214.5 0,-178.5 107.5,-178.5 107.5,-214.5"/>
<text text-anchor="middle" x="53.75" y="-191.82" font-family="Times,serif" font-size="14.00">14: i = i + 1;</text>
</g>
<!-- node9&#45;&gt;node10 -->
<g id="edge3" class="edge">
<title>node9&#45;&gt;node10</title>
<path fill="none" stroke="blue" d="M90.73,-267.4C82.61,-262.69 74.9,-256.87 69,-249.75 63.36,-242.95 59.81,-234.14 57.57,-225.71"/>
<polygon fill="blue" stroke="blue" points="61.04,-225.21 55.57,-216.14 54.19,-226.64 61.04,-225.21"/>
<text text-anchor="middle" x="81.38" y="-236.45" font-family="Times,serif" font-size="14.00">ctrl</text>
</g>
<!-- node11 -->
<g id="node10" class="node">
<title>node11</title>
<polygon fill="none" stroke="black" points="228.25,-214.5 125.25,-214.5 125.25,-178.5 228.25,-178.5 228.25,-214.5"/>
<text text-anchor="middle" x="176.75" y="-191.82" font-family="Times,serif" font-size="14.00">16: max = i;</text>
</g>
<!-- node9&#45;&gt;node11 -->
<g id="edge12" class="edge">
<title>node9&#45;&gt;node11</title>
<path fill="none" stroke="blue" d="M145.46,-267.51C150.85,-255.44 158.17,-239.06 164.38,-225.17"/>
<polygon fill="blue" stroke="blue" points="167.56,-226.64 168.44,-216.08 161.17,-223.78 167.56,-226.64"/>
<text text-anchor="middle" x="173.12" y="-236.45" font-family="Times,serif" font-size="14.00">ctrl</text>
</g>
<!-- node10&#45;&gt;node9 -->
<g id="edge13" class="edge">
<title>node10&#45;&gt;node9</title>
<path fill="none" stroke="blue" d="M74.64,-214.73C80.97,-220.22 87.8,-226.44 93.75,-232.5 101.8,-240.71 110.06,-250.19 117.22,-258.81"/>
<polygon fill="blue" stroke="blue" points="114.5,-261.01 123.54,-266.54 119.93,-256.58 114.5,-261.01"/>
<text text-anchor="middle" x="121.35" y="-236.45" font-family="Times,serif" font-size="14.00">ctrl</text>
</g>
<!-- node11&#45;&gt;node12 -->
<g id="edge14" class="edge">
<title>node11&#45;&gt;node12</title>
<path fill="none" stroke="blue" d="M184.65,-178.26C190.24,-166.07 197.85,-149.48 204.25,-135.51"/>
<polygon fill="blue" stroke="blue" points="207.25,-137.38 208.23,-126.83 200.88,-134.46 207.25,-137.38"/>
<text text-anchor="middle" x="212.71" y="-147.2" font-family="Times,serif" font-size="14.00">ctrl</text>
</g>
<!-- node1 -->
<g id="node13" class="node">
<title>node1</title>
<polygon fill="none" stroke="black" points="246.5,-36 187,-36 187,0 246.5,0 246.5,-36"/>
<text text-anchor="middle" x="216.75" y="-13.32" font-family="Times,serif" font-size="14.00">node1</text>
</g>
<!-- node12&#45;&gt;node1 -->
<g id="edge16" class="edge">
<title>node12&#45;&gt;node1</title>
<path fill="none" stroke="blue" d="M216.75,-89.01C216.75,-77.18 216.75,-61.2 216.75,-47.5"/>
<polygon fill="blue" stroke="blue" points="220.25,-47.72 216.75,-37.72 213.25,-47.72 220.25,-47.72"/>
<text text-anchor="middle" x="229.12" y="-57.95" font-family="Times,serif" font-size="14.00">ctrl</text>
</g>
<!-- node0 -->
<g id="node12" class="node">
<title>node0</title>
<polygon fill="none" stroke="black" points="238.5,-1017.75 179,-1017.75 179,-981.75 238.5,-981.75 238.5,-1017.75"/>
<text text-anchor="middle" x="208.75" y="-995.08" font-family="Times,serif" font-size="14.00">node0</text>
</g>
<!-- node0&#45;&gt;node2 -->
<g id="edge5" class="edge">
<title>node0&#45;&gt;node2</title>
<path fill="none" stroke="blue" d="M208.75,-981.51C208.75,-969.68 208.75,-953.7 208.75,-940"/>
<polygon fill="blue" stroke="blue" points="212.25,-940.22 208.75,-930.22 205.25,-940.22 212.25,-940.22"/>
<text text-anchor="middle" x="221.12" y="-950.45" font-family="Times,serif" font-size="14.00">ctrl</text>
</g>
</g>
</svg>
