<?xml version="1.0" encoding="UTF-8" standalone="no"?>
<!DOCTYPE svg PUBLIC "-//W3C//DTD SVG 1.1//EN"
 "http://www.w3.org/Graphics/SVG/1.1/DTD/svg11.dtd">
<!-- Generated by graphviz version 12.2.0 (0)
 -->
<!-- Title: PDG Pages: 1 -->
<svg width="300pt" height="669pt"
 viewBox="0.00 0.00 300.12 668.75" xmlns="http://www.w3.org/2000/svg" xmlns:xlink="http://www.w3.org/1999/xlink">
<g id="graph0" class="graph" transform="scale(1 1) rotate(0) translate(4 664.75)">
<title>PDG</title>
<polygon fill="white" stroke="none" points="-4,4 -4,-664.75 296.12,-664.75 296.12,4 -4,4"/>
<!-- node0 -->
<g id="node1" class="node">
<title>node0</title>
<polygon fill="none" stroke="black" points="217.88,-660.75 75.88,-660.75 75.88,-624.75 217.88,-624.75 217.88,-660.75"/>
<text text-anchor="middle" x="146.88" y="-638.08" font-family="Times,serif" font-size="14.00">ENTRY: simpleIf()</text>
</g>
<!-- node2 -->
<g id="node3" class="node">
<title>node2</title>
<polygon fill="none" stroke="black" points="197.25,-571.5 96.5,-571.5 96.5,-535.5 197.25,-535.5 197.25,-571.5"/>
<text text-anchor="middle" x="146.88" y="-548.83" font-family="Times,serif" font-size="14.00">3: int a = 1;</text>
</g>
<!-- node0&#45;&gt;node2 -->
<g id="edge3" class="edge">
<title>node0&#45;&gt;node2</title>
<path fill="none" stroke="blue" d="M146.88,-624.51C146.88,-612.68 146.88,-596.7 146.88,-583"/>
<polygon fill="blue" stroke="blue" points="150.38,-583.22 146.88,-573.22 143.38,-583.22 150.38,-583.22"/>
<text text-anchor="middle" x="159.25" y="-593.45" font-family="Times,serif" font-size="14.00">ctrl</text>
</g>
<!-- node1 -->
<g id="node2" class="node">
<title>node1</title>
<polygon fill="none" stroke="black" points="210.75,-36 83,-36 83,0 210.75,0 210.75,-36"/>
<text text-anchor="middle" x="146.88" y="-13.32" font-family="Times,serif" font-size="14.00">EXIT: simpleIf()</text>
</g>
<!-- node3 -->
<g id="node4" class="node">
<title>node3</title>
<polygon fill="none" stroke="black" points="197.62,-482.25 96.12,-482.25 96.12,-446.25 197.62,-446.25 197.62,-482.25"/>
<text text-anchor="middle" x="146.88" y="-459.57" font-family="Times,serif" font-size="14.00">4: int b = 5;</text>
</g>
<!-- node2&#45;&gt;node3 -->
<g id="edge4" class="edge">
<title>node2&#45;&gt;node3</title>
<path fill="none" stroke="blue" d="M146.88,-535.26C146.88,-523.43 146.88,-507.45 146.88,-493.75"/>
<polygon fill="blue" stroke="blue" points="150.38,-493.97 146.88,-483.97 143.38,-493.97 150.38,-493.97"/>
<text text-anchor="middle" x="159.25" y="-504.2" font-family="Times,serif" font-size="14.00">ctrl</text>
</g>
<!-- node4 -->
<g id="node5" class="node">
<title>node4</title>
<polygon fill="none" stroke="black" points="216.38,-393 77.38,-393 77.38,-357 216.38,-357 216.38,-393"/>
<text text-anchor="middle" x="146.88" y="-370.32" font-family="Times,serif" font-size="14.00">5: int result = &#45;1;</text>
</g>
<!-- node3&#45;&gt;node4 -->
<g id="edge5" class="edge">
<title>node3&#45;&gt;node4</title>
<path fill="none" stroke="blue" d="M146.88,-446.01C146.88,-434.18 146.88,-418.2 146.88,-404.5"/>
<polygon fill="blue" stroke="blue" points="150.38,-404.72 146.88,-394.72 143.38,-404.72 150.38,-404.72"/>
<text text-anchor="middle" x="159.25" y="-414.95" font-family="Times,serif" font-size="14.00">ctrl</text>
</g>
<!-- node5 -->
<g id="node6" class="node">
<title>node5</title>
<polygon fill="none" stroke="black" points="186.38,-303.75 107.38,-303.75 107.38,-267.75 186.38,-267.75 186.38,-303.75"/>
<text text-anchor="middle" x="146.88" y="-281.07" font-family="Times,serif" font-size="14.00">if (a &lt; b)</text>
</g>
<!-- node4&#45;&gt;node5 -->
<g id="edge6" class="edge">
<title>node4&#45;&gt;node5</title>
<path fill="none" stroke="blue" d="M146.88,-356.76C146.88,-344.93 146.88,-328.95 146.88,-315.25"/>
<polygon fill="blue" stroke="blue" points="150.38,-315.47 146.88,-305.47 143.38,-315.47 150.38,-315.47"/>
<text text-anchor="middle" x="159.25" y="-325.7" font-family="Times,serif" font-size="14.00">ctrl</text>
</g>
<!-- node6 -->
<g id="node7" class="node">
<title>node6</title>
<polygon fill="none" stroke="black" points="139.75,-214.5 0,-214.5 0,-178.5 139.75,-178.5 139.75,-214.5"/>
<text text-anchor="middle" x="69.88" y="-191.82" font-family="Times,serif" font-size="14.00">7: result = a + b;</text>
</g>
<!-- node5&#45;&gt;node6 -->
<g id="edge1" class="edge">
<title>node5&#45;&gt;node6</title>
<path fill="none" stroke="blue" d="M131.66,-267.51C120.48,-254.85 105.11,-237.42 92.49,-223.13"/>
<polygon fill="blue" stroke="blue" points="95.3,-221.02 86.06,-215.84 90.05,-225.65 95.3,-221.02"/>
<text text-anchor="middle" x="127.65" y="-236.45" font-family="Times,serif" font-size="14.00">ctrl</text>
</g>
<!-- node7 -->
<g id="node8" class="node">
<title>node7</title>
<polygon fill="none" stroke="black" points="292.12,-214.5 157.62,-214.5 157.62,-178.5 292.12,-178.5 292.12,-214.5"/>
<text text-anchor="middle" x="224.88" y="-191.82" font-family="Times,serif" font-size="14.00">9: result = a * b;</text>
</g>
<!-- node5&#45;&gt;node7 -->
<g id="edge2" class="edge">
<title>node5&#45;&gt;node7</title>
<path fill="none" stroke="blue" d="M162.29,-267.51C173.61,-254.85 189.18,-237.42 201.96,-223.13"/>
<polygon fill="blue" stroke="blue" points="204.43,-225.62 208.49,-215.83 199.21,-220.95 204.43,-225.62"/>
<text text-anchor="middle" x="205.24" y="-236.45" font-family="Times,serif" font-size="14.00">ctrl</text>
</g>
<!-- node8 -->
<g id="node9" class="node">
<title>node8</title>
<polygon fill="none" stroke="black" points="216.75,-125.25 77,-125.25 77,-89.25 216.75,-89.25 216.75,-125.25"/>
<text text-anchor="middle" x="146.88" y="-102.58" font-family="Times,serif" font-size="14.00">11: return result;</text>
</g>
<!-- node6&#45;&gt;node8 -->
<g id="edge7" class="edge">
<title>node6&#45;&gt;node8</title>
<path fill="none" stroke="blue" d="M85.09,-178.26C96.27,-165.6 111.64,-148.17 124.26,-133.88"/>
<polygon fill="blue" stroke="blue" points="126.7,-136.4 130.69,-126.59 121.45,-131.77 126.7,-136.4"/>
<text text-anchor="middle" x="127.65" y="-147.2" font-family="Times,serif" font-size="14.00">ctrl</text>
</g>
<!-- node7&#45;&gt;node8 -->
<g id="edge8" class="edge">
<title>node7&#45;&gt;node8</title>
<path fill="none" stroke="blue" d="M209.46,-178.26C198.14,-165.6 182.57,-148.17 169.79,-133.88"/>
<polygon fill="blue" stroke="blue" points="172.54,-131.7 163.26,-126.58 167.32,-136.37 172.54,-131.7"/>
<text text-anchor="middle" x="205.24" y="-147.2" font-family="Times,serif" font-size="14.00">ctrl</text>
</g>
<!-- node8&#45;&gt;node1 -->
<g id="edge9" class="edge">
<title>node8&#45;&gt;node1</title>
<path fill="none" stroke="blue" d="M146.88,-89.01C146.88,-77.18 146.88,-61.2 146.88,-47.5"/>
<polygon fill="blue" stroke="blue" points="150.38,-47.72 146.88,-37.72 143.38,-47.72 150.38,-47.72"/>
<text text-anchor="middle" x="159.25" y="-57.95" font-family="Times,serif" font-size="14.00">ctrl</text>
</g>
</g>
</svg>
