<?xml version="1.0" encoding="UTF-8" standalone="no"?>
<!DOCTYPE svg PUBLIC "-//W3C//DTD SVG 1.1//EN"
 "http://www.w3.org/Graphics/SVG/1.1/DTD/svg11.dtd">
<!-- Generated by graphviz version 12.2.0 (0)
 -->
<!-- Title: PDG Pages: 1 -->
<svg width="300pt" height="548pt"
 viewBox="0.00 0.00 300.12 548.00" xmlns="http://www.w3.org/2000/svg" xmlns:xlink="http://www.w3.org/1999/xlink">
<g id="graph0" class="graph" transform="scale(1 1) rotate(0) translate(4 544)">
<title>PDG</title>
<polygon fill="white" stroke="none" points="-4,4 -4,-544 296.12,-544 296.12,4 -4,4"/>
<!-- node0 -->
<g id="node1" class="node">
<title>node0</title>
<polygon fill="none" stroke="black" points="217.88,-540 75.88,-540 75.88,-504 217.88,-504 217.88,-540"/>
<text text-anchor="middle" x="146.88" y="-517.33" font-family="Times,serif" font-size="14.00">ENTRY: simpleIf()</text>
</g>
<!-- node2 -->
<g id="node3" class="node">
<title>node2</title>
<polygon fill="none" stroke="black" points="197.25,-468 96.5,-468 96.5,-432 197.25,-432 197.25,-468"/>
<text text-anchor="middle" x="146.88" y="-445.32" font-family="Times,serif" font-size="14.00">3: int a = 1;</text>
</g>
<!-- node0&#45;&gt;node2 -->
<g id="edge3" class="edge">
<title>node0&#45;&gt;node2</title>
<path fill="none" stroke="blue" d="M146.88,-503.7C146.88,-496.41 146.88,-487.73 146.88,-479.54"/>
<polygon fill="blue" stroke="blue" points="150.38,-479.62 146.88,-469.62 143.38,-479.62 150.38,-479.62"/>
</g>
<!-- node1 -->
<g id="node2" class="node">
<title>node1</title>
<polygon fill="none" stroke="black" points="210.75,-36 83,-36 83,0 210.75,0 210.75,-36"/>
<text text-anchor="middle" x="146.88" y="-13.32" font-family="Times,serif" font-size="14.00">EXIT: simpleIf()</text>
</g>
<!-- node3 -->
<g id="node4" class="node">
<title>node3</title>
<polygon fill="none" stroke="black" points="197.62,-396 96.12,-396 96.12,-360 197.62,-360 197.62,-396"/>
<text text-anchor="middle" x="146.88" y="-373.32" font-family="Times,serif" font-size="14.00">4: int b = 5;</text>
</g>
<!-- node2&#45;&gt;node3 -->
<g id="edge4" class="edge">
<title>node2&#45;&gt;node3</title>
<path fill="none" stroke="blue" d="M146.88,-431.7C146.88,-424.41 146.88,-415.73 146.88,-407.54"/>
<polygon fill="blue" stroke="blue" points="150.38,-407.62 146.88,-397.62 143.38,-407.62 150.38,-407.62"/>
</g>
<!-- node4 -->
<g id="node5" class="node">
<title>node4</title>
<polygon fill="none" stroke="black" points="216.38,-324 77.38,-324 77.38,-288 216.38,-288 216.38,-324"/>
<text text-anchor="middle" x="146.88" y="-301.32" font-family="Times,serif" font-size="14.00">5: int result = &#45;1;</text>
</g>
<!-- node3&#45;&gt;node4 -->
<g id="edge5" class="edge">
<title>node3&#45;&gt;node4</title>
<path fill="none" stroke="blue" d="M146.88,-359.7C146.88,-352.41 146.88,-343.73 146.88,-335.54"/>
<polygon fill="blue" stroke="blue" points="150.38,-335.62 146.88,-325.62 143.38,-335.62 150.38,-335.62"/>
</g>
<!-- node5 -->
<g id="node6" class="node">
<title>node5</title>
<polygon fill="none" stroke="black" points="186.38,-252 107.38,-252 107.38,-216 186.38,-216 186.38,-252"/>
<text text-anchor="middle" x="146.88" y="-229.32" font-family="Times,serif" font-size="14.00">if (a &lt; b)</text>
</g>
<!-- node4&#45;&gt;node5 -->
<g id="edge6" class="edge">
<title>node4&#45;&gt;node5</title>
<path fill="none" stroke="blue" d="M146.88,-287.7C146.88,-280.41 146.88,-271.73 146.88,-263.54"/>
<polygon fill="blue" stroke="blue" points="150.38,-263.62 146.88,-253.62 143.38,-263.62 150.38,-263.62"/>
</g>
<!-- node6 -->
<g id="node7" class="node">
<title>node6</title>
<polygon fill="none" stroke="black" points="139.75,-180 0,-180 0,-144 139.75,-144 139.75,-180"/>
<text text-anchor="middle" x="69.88" y="-157.32" font-family="Times,serif" font-size="14.00">7: result = a + b;</text>
</g>
<!-- node5&#45;&gt;node6 -->
<g id="edge1" class="edge">
<title>node5&#45;&gt;node6</title>
<path fill="none" stroke="blue" d="M127.84,-215.7C118.68,-207.37 107.52,-197.22 97.45,-188.07"/>
<polygon fill="blue" stroke="blue" points="99.83,-185.5 90.08,-181.37 95.12,-190.68 99.83,-185.5"/>
</g>
<!-- node7 -->
<g id="node8" class="node">
<title>node7</title>
<polygon fill="none" stroke="black" points="292.12,-180 157.62,-180 157.62,-144 292.12,-144 292.12,-180"/>
<text text-anchor="middle" x="224.88" y="-157.32" font-family="Times,serif" font-size="14.00">9: result = a * b;</text>
</g>
<!-- node5&#45;&gt;node7 -->
<g id="edge2" class="edge">
<title>node5&#45;&gt;node7</title>
<path fill="none" stroke="blue" d="M166.16,-215.7C175.53,-207.28 186.97,-197.02 197.25,-187.79"/>
<polygon fill="blue" stroke="blue" points="199.31,-190.64 204.42,-181.36 194.64,-185.43 199.31,-190.64"/>
</g>
<!-- node8 -->
<g id="node9" class="node">
<title>node8</title>
<polygon fill="none" stroke="black" points="216.75,-108 77,-108 77,-72 216.75,-72 216.75,-108"/>
<text text-anchor="middle" x="146.88" y="-85.33" font-family="Times,serif" font-size="14.00">11: return result;</text>
</g>
<!-- node6&#45;&gt;node8 -->
<g id="edge7" class="edge">
<title>node6&#45;&gt;node8</title>
<path fill="none" stroke="blue" d="M88.91,-143.7C98.07,-135.37 109.23,-125.22 119.3,-116.07"/>
<polygon fill="blue" stroke="blue" points="121.63,-118.68 126.67,-109.37 116.92,-113.5 121.63,-118.68"/>
</g>
<!-- node7&#45;&gt;node8 -->
<g id="edge8" class="edge">
<title>node7&#45;&gt;node8</title>
<path fill="none" stroke="blue" d="M205.59,-143.7C196.22,-135.28 184.78,-125.02 174.5,-115.79"/>
<polygon fill="blue" stroke="blue" points="177.11,-113.43 167.33,-109.36 172.44,-118.64 177.11,-113.43"/>
</g>
<!-- node8&#45;&gt;node1 -->
<g id="edge9" class="edge">
<title>node8&#45;&gt;node1</title>
<path fill="none" stroke="blue" d="M146.88,-71.7C146.88,-64.41 146.88,-55.73 146.88,-47.54"/>
<polygon fill="blue" stroke="blue" points="150.38,-47.62 146.88,-37.62 143.38,-47.62 150.38,-47.62"/>
</g>
</g>
</svg>
