<?xml version="1.0" encoding="UTF-8" standalone="no"?>
<!DOCTYPE svg PUBLIC "-//W3C//DTD SVG 1.1//EN"
 "http://www.w3.org/Graphics/SVG/1.1/DTD/svg11.dtd">
<!-- Generated by graphviz version 12.2.0 (0)
 -->
<!-- Title: PDG Pages: 1 -->
<svg width="306pt" height="312pt"
 viewBox="0.00 0.00 306.00 311.75" xmlns="http://www.w3.org/2000/svg" xmlns:xlink="http://www.w3.org/1999/xlink">
<g id="graph0" class="graph" transform="scale(1 1) rotate(0) translate(4 307.75)">
<title>PDG</title>
<polygon fill="white" stroke="none" points="-4,4 -4,-307.75 302,-307.75 302,4 -4,4"/>
<!-- node0 -->
<g id="node1" class="node">
<title>node0</title>
<polygon fill="none" stroke="black" points="298,-303.75 86.25,-303.75 86.25,-267.75 298,-267.75 298,-303.75"/>
<text text-anchor="middle" x="192.12" y="-281.07" font-family="Times,serif" font-size="14.00">ENTRY: simpleCalculation()</text>
</g>
<!-- node1 -->
<g id="node2" class="node">
<title>node1</title>
<polygon fill="none" stroke="black" points="78.25,-214.5 0,-214.5 0,-178.5 78.25,-178.5 78.25,-214.5"/>
<text text-anchor="middle" x="39.12" y="-191.82" font-family="Times,serif" font-size="14.00">int a = 1</text>
</g>
<!-- node0&#45;&gt;node1 -->
<g id="edge1" class="edge">
<title>node0&#45;&gt;node1</title>
<path fill="none" stroke="blue" d="M161.33,-267.33C151.44,-261.73 140.44,-255.48 130.38,-249.75 113.56,-240.17 95.03,-229.57 79.08,-220.43"/>
<polygon fill="blue" stroke="blue" points="81.25,-217.64 70.84,-215.7 77.77,-223.71 81.25,-217.64"/>
<text text-anchor="middle" x="142.75" y="-236.45" font-family="Times,serif" font-size="14.00">ctrl</text>
</g>
<!-- node2 -->
<g id="node3" class="node">
<title>node2</title>
<polygon fill="none" stroke="black" points="175.62,-214.5 96.62,-214.5 96.62,-178.5 175.62,-178.5 175.62,-214.5"/>
<text text-anchor="middle" x="136.12" y="-191.82" font-family="Times,serif" font-size="14.00">int b = 5</text>
</g>
<!-- node0&#45;&gt;node2 -->
<g id="edge2" class="edge">
<title>node0&#45;&gt;node2</title>
<path fill="none" stroke="blue" d="M181.06,-267.51C173.16,-255.2 162.38,-238.41 153.36,-224.35"/>
<polygon fill="blue" stroke="blue" points="156.33,-222.5 147.98,-215.98 150.44,-226.28 156.33,-222.5"/>
<text text-anchor="middle" x="181.52" y="-236.45" font-family="Times,serif" font-size="14.00">ctrl</text>
</g>
<!-- node3 -->
<g id="node4" class="node">
<title>node3</title>
<polygon fill="none" stroke="black" points="221.75,-125.25 92.5,-125.25 92.5,-89.25 221.75,-89.25 221.75,-125.25"/>
<text text-anchor="middle" x="157.12" y="-102.58" font-family="Times,serif" font-size="14.00">int sum = a + b</text>
</g>
<!-- node0&#45;&gt;node3 -->
<g id="edge3" class="edge">
<title>node0&#45;&gt;node3</title>
<path fill="none" stroke="blue" d="M197.65,-267.67C205.56,-240.06 217.17,-184.56 198.12,-143.25 196.56,-139.85 194.48,-136.66 192.09,-133.69"/>
<polygon fill="blue" stroke="blue" points="194.68,-131.34 185.22,-126.58 189.65,-136.21 194.68,-131.34"/>
<text text-anchor="middle" x="220.84" y="-191.82" font-family="Times,serif" font-size="14.00">ctrl</text>
</g>
<!-- node4 -->
<g id="node5" class="node">
<title>node4</title>
<polygon fill="none" stroke="black" points="267.25,-36 171,-36 171,0 267.25,0 267.25,-36"/>
<text text-anchor="middle" x="219.12" y="-13.32" font-family="Times,serif" font-size="14.00">return sum</text>
</g>
<!-- node0&#45;&gt;node4 -->
<g id="edge4" class="edge">
<title>node0&#45;&gt;node4</title>
<path fill="none" stroke="blue" d="M207.16,-267.35C217.75,-253.91 231.09,-234.31 237.12,-214.5 258,-146.01 277.04,-120.75 251.12,-54 249.95,-50.98 248.38,-48.06 246.57,-45.28"/>
<polygon fill="blue" stroke="blue" points="249.51,-43.36 240.59,-37.63 243.99,-47.67 249.51,-43.36"/>
<text text-anchor="middle" x="272.01" y="-147.2" font-family="Times,serif" font-size="14.00">ctrl</text>
</g>
<!-- node1&#45;&gt;node3 -->
<g id="edge6" class="edge">
<title>node1&#45;&gt;node3</title>
<path fill="none" stroke="red" stroke-dasharray="5,2" d="M54,-178.18C63.89,-167.31 77.56,-153.48 91.38,-143.25 97.1,-139.01 103.41,-134.97 109.79,-131.25"/>
<polygon fill="red" stroke="red" points="111.44,-134.33 118.47,-126.4 108.03,-128.22 111.44,-134.33"/>
<text text-anchor="middle" x="115.75" y="-147.2" font-family="Times,serif" font-size="14.00">data: a</text>
</g>
<!-- node2&#45;&gt;node3 -->
<g id="edge7" class="edge">
<title>node2&#45;&gt;node3</title>
<path fill="none" stroke="red" stroke-dasharray="5,2" d="M140.28,-178.08C142.7,-167.92 145.83,-154.86 148.62,-143.25 149.14,-141.11 149.68,-138.89 150.22,-136.66"/>
<polygon fill="red" stroke="red" points="153.56,-137.71 152.52,-127.16 146.76,-136.06 153.56,-137.71"/>
<text text-anchor="middle" x="173.38" y="-147.2" font-family="Times,serif" font-size="14.00">data: b</text>
</g>
<!-- node3&#45;&gt;node4 -->
<g id="edge5" class="edge">
<title>node3&#45;&gt;node4</title>
<path fill="none" stroke="red" stroke-dasharray="5,2" d="M162.9,-88.83C166.91,-78.19 172.91,-64.63 180.62,-54 183.05,-50.66 185.83,-47.4 188.77,-44.29"/>
<polygon fill="red" stroke="red" points="190.98,-47.03 195.69,-37.54 186.09,-42.02 190.98,-47.03"/>
<text text-anchor="middle" x="215.88" y="-57.95" font-family="Times,serif" font-size="14.00">data: sum</text>
</g>
</g>
</svg>
