<?xml version="1.0" encoding="UTF-8" standalone="no"?>
<!DOCTYPE svg PUBLIC "-//W3C//DTD SVG 1.1//EN"
 "http://www.w3.org/Graphics/SVG/1.1/DTD/svg11.dtd">
<!-- Generated by graphviz version 12.2.0 (0)
 -->
<!-- Title: PDG Pages: 1 -->
<svg width="160pt" height="490pt"
 viewBox="0.00 0.00 159.75 490.25" xmlns="http://www.w3.org/2000/svg" xmlns:xlink="http://www.w3.org/1999/xlink">
<g id="graph0" class="graph" transform="scale(1 1) rotate(0) translate(4 486.25)">
<title>PDG</title>
<polygon fill="white" stroke="none" points="-4,4 -4,-486.25 155.75,-486.25 155.75,4 -4,4"/>
<!-- node2 -->
<g id="node1" class="node">
<title>node2</title>
<polygon fill="none" stroke="black" points="126.25,-393 25.5,-393 25.5,-357 126.25,-357 126.25,-393"/>
<text text-anchor="middle" x="75.88" y="-370.32" font-family="Times,serif" font-size="14.00">3: int a = 1;</text>
</g>
<!-- node3 -->
<g id="node2" class="node">
<title>node3</title>
<polygon fill="none" stroke="black" points="126.62,-303.75 25.12,-303.75 25.12,-267.75 126.62,-267.75 126.62,-303.75"/>
<text text-anchor="middle" x="75.88" y="-281.07" font-family="Times,serif" font-size="14.00">4: int b = 5;</text>
</g>
<!-- node2&#45;&gt;node3 -->
<g id="edge2" class="edge">
<title>node2&#45;&gt;node3</title>
<path fill="none" stroke="blue" d="M75.88,-356.76C75.88,-344.93 75.88,-328.95 75.88,-315.25"/>
<polygon fill="blue" stroke="blue" points="79.38,-315.47 75.88,-305.47 72.38,-315.47 79.38,-315.47"/>
<text text-anchor="middle" x="88.25" y="-325.7" font-family="Times,serif" font-size="14.00">ctrl</text>
</g>
<!-- node4 -->
<g id="node3" class="node">
<title>node4</title>
<polygon fill="none" stroke="black" points="151.75,-214.5 0,-214.5 0,-178.5 151.75,-178.5 151.75,-214.5"/>
<text text-anchor="middle" x="75.88" y="-191.82" font-family="Times,serif" font-size="14.00">5: int sum = a + b;</text>
</g>
<!-- node3&#45;&gt;node4 -->
<g id="edge3" class="edge">
<title>node3&#45;&gt;node4</title>
<path fill="none" stroke="blue" d="M75.88,-267.51C75.88,-255.68 75.88,-239.7 75.88,-226"/>
<polygon fill="blue" stroke="blue" points="79.38,-226.22 75.88,-216.22 72.38,-226.22 79.38,-226.22"/>
<text text-anchor="middle" x="88.25" y="-236.45" font-family="Times,serif" font-size="14.00">ctrl</text>
</g>
<!-- node5 -->
<g id="node4" class="node">
<title>node5</title>
<polygon fill="none" stroke="black" points="135.25,-125.25 16.5,-125.25 16.5,-89.25 135.25,-89.25 135.25,-125.25"/>
<text text-anchor="middle" x="75.88" y="-102.58" font-family="Times,serif" font-size="14.00">6: return sum;</text>
</g>
<!-- node4&#45;&gt;node5 -->
<g id="edge4" class="edge">
<title>node4&#45;&gt;node5</title>
<path fill="none" stroke="blue" d="M75.88,-178.26C75.88,-166.43 75.88,-150.45 75.88,-136.75"/>
<polygon fill="blue" stroke="blue" points="79.38,-136.97 75.88,-126.97 72.38,-136.97 79.38,-136.97"/>
<text text-anchor="middle" x="88.25" y="-147.2" font-family="Times,serif" font-size="14.00">ctrl</text>
</g>
<!-- node1 -->
<g id="node6" class="node">
<title>node1</title>
<polygon fill="none" stroke="black" points="105.62,-36 46.12,-36 46.12,0 105.62,0 105.62,-36"/>
<text text-anchor="middle" x="75.88" y="-13.32" font-family="Times,serif" font-size="14.00">node1</text>
</g>
<!-- node5&#45;&gt;node1 -->
<g id="edge5" class="edge">
<title>node5&#45;&gt;node1</title>
<path fill="none" stroke="blue" d="M75.88,-89.01C75.88,-77.18 75.88,-61.2 75.88,-47.5"/>
<polygon fill="blue" stroke="blue" points="79.38,-47.72 75.88,-37.72 72.38,-47.72 79.38,-47.72"/>
<text text-anchor="middle" x="88.25" y="-57.95" font-family="Times,serif" font-size="14.00">ctrl</text>
</g>
<!-- node0 -->
<g id="node5" class="node">
<title>node0</title>
<polygon fill="none" stroke="black" points="105.62,-482.25 46.12,-482.25 46.12,-446.25 105.62,-446.25 105.62,-482.25"/>
<text text-anchor="middle" x="75.88" y="-459.57" font-family="Times,serif" font-size="14.00">node0</text>
</g>
<!-- node0&#45;&gt;node2 -->
<g id="edge1" class="edge">
<title>node0&#45;&gt;node2</title>
<path fill="none" stroke="blue" d="M75.88,-446.01C75.88,-434.18 75.88,-418.2 75.88,-404.5"/>
<polygon fill="blue" stroke="blue" points="79.38,-404.72 75.88,-394.72 72.38,-404.72 79.38,-404.72"/>
<text text-anchor="middle" x="88.25" y="-414.95" font-family="Times,serif" font-size="14.00">ctrl</text>
</g>
</g>
</svg>
