<?xml version="1.0" encoding="UTF-8" standalone="no"?>
<!DOCTYPE svg PUBLIC "-//W3C//DTD SVG 1.1//EN"
 "http://www.w3.org/Graphics/SVG/1.1/DTD/svg11.dtd">
<!-- Generated by graphviz version 12.2.0 (0)
 -->
<!-- Title: PDG Pages: 1 -->
<svg width="223pt" height="442pt"
 viewBox="0.00 0.00 222.62 441.50" xmlns="http://www.w3.org/2000/svg" xmlns:xlink="http://www.w3.org/1999/xlink">
<g id="graph0" class="graph" transform="scale(1 1) rotate(0) translate(4 437.5)">
<title>PDG</title>
<polygon fill="white" stroke="none" points="-4,4 -4,-437.5 218.62,-437.5 218.62,4 -4,4"/>
<!-- node0 -->
<g id="node1" class="node">
<title>node0</title>
<polygon fill="none" stroke="black" points="214.62,-433.5 2.88,-433.5 2.88,-397.5 214.62,-397.5 214.62,-433.5"/>
<text text-anchor="middle" x="108.75" y="-410.82" font-family="Times,serif" font-size="14.00">ENTRY: simpleCalculation()</text>
</g>
<!-- node2 -->
<g id="node3" class="node">
<title>node2</title>
<polygon fill="none" stroke="black" points="159.12,-360.5 58.38,-360.5 58.38,-324.5 159.12,-324.5 159.12,-360.5"/>
<text text-anchor="middle" x="108.75" y="-337.82" font-family="Times,serif" font-size="14.00">3: int a = 1;</text>
</g>
<!-- node0&#45;&gt;node2 -->
<g id="edge1" class="edge">
<title>node0&#45;&gt;node2</title>
<path fill="none" stroke="blue" d="M108.75,-397.31C108.75,-389.73 108.75,-380.6 108.75,-372.04"/>
<polygon fill="blue" stroke="blue" points="112.25,-372.04 108.75,-362.04 105.25,-372.04 112.25,-372.04"/>
</g>
<!-- node1 -->
<g id="node2" class="node">
<title>node1</title>
<polygon fill="none" stroke="black" points="197.5,-36 0,-36 0,0 197.5,0 197.5,-36"/>
<text text-anchor="middle" x="98.75" y="-13.32" font-family="Times,serif" font-size="14.00">EXIT: simpleCalculation()</text>
</g>
<!-- node3 -->
<g id="node4" class="node">
<title>node3</title>
<polygon fill="none" stroke="black" points="116.5,-287.5 15,-287.5 15,-251.5 116.5,-251.5 116.5,-287.5"/>
<text text-anchor="middle" x="65.75" y="-264.82" font-family="Times,serif" font-size="14.00">4: int b = 5;</text>
</g>
<!-- node2&#45;&gt;node3 -->
<g id="edge2" class="edge">
<title>node2&#45;&gt;node3</title>
<path fill="none" stroke="blue" d="M98.34,-324.31C93.43,-316.2 87.45,-306.34 81.97,-297.28"/>
<polygon fill="blue" stroke="blue" points="85.02,-295.56 76.85,-288.82 79.03,-299.19 85.02,-295.56"/>
</g>
<!-- node4 -->
<g id="node5" class="node">
<title>node4</title>
<polygon fill="none" stroke="black" points="174.62,-198.25 22.88,-198.25 22.88,-162.25 174.62,-162.25 174.62,-198.25"/>
<text text-anchor="middle" x="98.75" y="-175.57" font-family="Times,serif" font-size="14.00">5: int sum = a + b;</text>
</g>
<!-- node2&#45;&gt;node4 -->
<g id="edge6" class="edge">
<title>node2&#45;&gt;node4</title>
<path fill="none" stroke="red" stroke-dasharray="5,2" d="M115.64,-324.31C119.46,-313.86 123.81,-300.13 125.75,-287.5 128.18,-271.69 128.67,-267.23 125.75,-251.5 123.06,-236.99 117.49,-221.62 112.1,-208.96"/>
<polygon fill="red" stroke="red" points="115.38,-207.72 108.11,-200.01 108.99,-210.57 115.38,-207.72"/>
<text text-anchor="middle" x="131.89" y="-264.82" font-family="Times,serif" font-size="14.00">a</text>
</g>
<!-- node3&#45;&gt;node4 -->
<g id="edge3" class="edge">
<title>node3&#45;&gt;node4</title>
<path fill="none" stroke="blue" d="M69.3,-251.23C71.69,-240.89 75.23,-227.59 79.75,-216.25 80.74,-213.76 81.87,-211.22 83.07,-208.7"/>
<polygon fill="blue" stroke="blue" points="86.08,-210.5 87.56,-200.01 79.86,-207.29 86.08,-210.5"/>
</g>
<!-- node3&#45;&gt;node4 -->
<g id="edge7" class="edge">
<title>node3&#45;&gt;node4</title>
<path fill="none" stroke="red" stroke-dasharray="5,2" d="M72.27,-251.26C76.83,-239.19 83.03,-222.81 88.28,-208.92"/>
<polygon fill="red" stroke="red" points="91.44,-210.46 91.71,-199.87 84.9,-207.98 91.44,-210.46"/>
<text text-anchor="middle" x="89.71" y="-220.2" font-family="Times,serif" font-size="14.00">b</text>
</g>
<!-- node5 -->
<g id="node6" class="node">
<title>node5</title>
<polygon fill="none" stroke="black" points="158.12,-109 39.38,-109 39.38,-73 158.12,-73 158.12,-109"/>
<text text-anchor="middle" x="98.75" y="-86.33" font-family="Times,serif" font-size="14.00">6: return sum;</text>
</g>
<!-- node4&#45;&gt;node5 -->
<g id="edge4" class="edge">
<title>node4&#45;&gt;node5</title>
<path fill="none" stroke="blue" d="M97.56,-161.81C97.23,-156.21 96.91,-149.97 96.75,-144.25 96.53,-136.59 96.53,-134.66 96.75,-127 96.81,-124.94 96.89,-122.82 96.98,-120.69"/>
<polygon fill="blue" stroke="blue" points="100.46,-121.12 97.48,-110.95 93.47,-120.76 100.46,-121.12"/>
</g>
<!-- node4&#45;&gt;node5 -->
<g id="edge8" class="edge">
<title>node4&#45;&gt;node5</title>
<path fill="none" stroke="red" stroke-dasharray="5,2" d="M98.75,-162.01C98.75,-150.18 98.75,-134.2 98.75,-120.5"/>
<polygon fill="red" stroke="red" points="102.25,-120.72 98.75,-110.72 95.25,-120.72 102.25,-120.72"/>
<text text-anchor="middle" x="113.75" y="-130.95" font-family="Times,serif" font-size="14.00">sum</text>
</g>
<!-- node5&#45;&gt;node1 -->
<g id="edge5" class="edge">
<title>node5&#45;&gt;node1</title>
<path fill="none" stroke="blue" d="M98.75,-72.81C98.75,-65.23 98.75,-56.1 98.75,-47.54"/>
<polygon fill="blue" stroke="blue" points="102.25,-47.54 98.75,-37.54 95.25,-47.54 102.25,-47.54"/>
</g>
</g>
</svg>
