<?xml version="1.0" encoding="UTF-8" standalone="no"?>
<!DOCTYPE svg PUBLIC "-//W3C//DTD SVG 1.1//EN"
 "http://www.w3.org/Graphics/SVG/1.1/DTD/svg11.dtd">
<!-- Generated by graphviz version 12.2.0 (0)
 -->
<!-- Title: PDG Pages: 1 -->
<svg width="220pt" height="404pt"
 viewBox="0.00 0.00 219.75 404.00" xmlns="http://www.w3.org/2000/svg" xmlns:xlink="http://www.w3.org/1999/xlink">
<g id="graph0" class="graph" transform="scale(1 1) rotate(0) translate(4 400)">
<title>PDG</title>
<polygon fill="white" stroke="none" points="-4,4 -4,-400 215.75,-400 215.75,4 -4,4"/>
<!-- node0 -->
<g id="node1" class="node">
<title>node0</title>
<polygon fill="none" stroke="black" points="211.75,-396 0,-396 0,-360 211.75,-360 211.75,-396"/>
<text text-anchor="middle" x="105.88" y="-373.32" font-family="Times,serif" font-size="14.00">ENTRY: simpleCalculation()</text>
</g>
<!-- node2 -->
<g id="node3" class="node">
<title>node2</title>
<polygon fill="none" stroke="black" points="156.25,-324 55.5,-324 55.5,-288 156.25,-288 156.25,-324"/>
<text text-anchor="middle" x="105.88" y="-301.32" font-family="Times,serif" font-size="14.00">3: int a = 1;</text>
</g>
<!-- node0&#45;&gt;node2 -->
<g id="edge1" class="edge">
<title>node0&#45;&gt;node2</title>
<path fill="none" stroke="blue" d="M105.88,-359.7C105.88,-352.41 105.88,-343.73 105.88,-335.54"/>
<polygon fill="blue" stroke="blue" points="109.38,-335.62 105.88,-325.62 102.38,-335.62 109.38,-335.62"/>
</g>
<!-- node1 -->
<g id="node2" class="node">
<title>node1</title>
<polygon fill="none" stroke="black" points="204.62,-36 7.12,-36 7.12,0 204.62,0 204.62,-36"/>
<text text-anchor="middle" x="105.88" y="-13.32" font-family="Times,serif" font-size="14.00">EXIT: simpleCalculation()</text>
</g>
<!-- node3 -->
<g id="node4" class="node">
<title>node3</title>
<polygon fill="none" stroke="black" points="156.62,-252 55.12,-252 55.12,-216 156.62,-216 156.62,-252"/>
<text text-anchor="middle" x="105.88" y="-229.32" font-family="Times,serif" font-size="14.00">4: int b = 5;</text>
</g>
<!-- node2&#45;&gt;node3 -->
<g id="edge2" class="edge">
<title>node2&#45;&gt;node3</title>
<path fill="none" stroke="blue" d="M105.88,-287.7C105.88,-280.41 105.88,-271.73 105.88,-263.54"/>
<polygon fill="blue" stroke="blue" points="109.38,-263.62 105.88,-253.62 102.38,-263.62 109.38,-263.62"/>
</g>
<!-- node4 -->
<g id="node5" class="node">
<title>node4</title>
<polygon fill="none" stroke="black" points="181.75,-180 30,-180 30,-144 181.75,-144 181.75,-180"/>
<text text-anchor="middle" x="105.88" y="-157.32" font-family="Times,serif" font-size="14.00">5: int sum = a + b;</text>
</g>
<!-- node3&#45;&gt;node4 -->
<g id="edge3" class="edge">
<title>node3&#45;&gt;node4</title>
<path fill="none" stroke="blue" d="M105.88,-215.7C105.88,-208.41 105.88,-199.73 105.88,-191.54"/>
<polygon fill="blue" stroke="blue" points="109.38,-191.62 105.88,-181.62 102.38,-191.62 109.38,-191.62"/>
</g>
<!-- node5 -->
<g id="node6" class="node">
<title>node5</title>
<polygon fill="none" stroke="black" points="165.25,-108 46.5,-108 46.5,-72 165.25,-72 165.25,-108"/>
<text text-anchor="middle" x="105.88" y="-85.33" font-family="Times,serif" font-size="14.00">6: return sum;</text>
</g>
<!-- node4&#45;&gt;node5 -->
<g id="edge4" class="edge">
<title>node4&#45;&gt;node5</title>
<path fill="none" stroke="blue" d="M105.88,-143.7C105.88,-136.41 105.88,-127.73 105.88,-119.54"/>
<polygon fill="blue" stroke="blue" points="109.38,-119.62 105.88,-109.62 102.38,-119.62 109.38,-119.62"/>
</g>
<!-- node5&#45;&gt;node1 -->
<g id="edge5" class="edge">
<title>node5&#45;&gt;node1</title>
<path fill="none" stroke="blue" d="M105.88,-71.7C105.88,-64.41 105.88,-55.73 105.88,-47.54"/>
<polygon fill="blue" stroke="blue" points="109.38,-47.62 105.88,-37.62 102.38,-47.62 109.38,-47.62"/>
</g>
</g>
</svg>
