<?xml version="1.0" encoding="UTF-8" standalone="no"?>
<!DOCTYPE svg PUBLIC "-//W3C//DTD SVG 1.1//EN"
 "http://www.w3.org/Graphics/SVG/1.1/DTD/svg11.dtd">
<!-- Generated by graphviz version 12.2.0 (0)
 -->
<!-- Title: PDG Pages: 1 -->
<svg width="430pt" height="620pt"
 viewBox="0.00 0.00 430.25 620.00" xmlns="http://www.w3.org/2000/svg" xmlns:xlink="http://www.w3.org/1999/xlink">
<g id="graph0" class="graph" transform="scale(1 1) rotate(0) translate(4 616)">
<title>PDG</title>
<polygon fill="white" stroke="none" points="-4,4 -4,-616 426.25,-616 426.25,4 -4,4"/>
<!-- node0 -->
<g id="node1" class="node">
<title>node0</title>
<polygon fill="none" stroke="black" points="191,-612 49,-612 49,-576 191,-576 191,-612"/>
<text text-anchor="middle" x="120" y="-589.33" font-family="Times,serif" font-size="14.00">ENTRY: simpleIf()</text>
</g>
<!-- node2 -->
<g id="node3" class="node">
<title>node2</title>
<polygon fill="none" stroke="black" points="170.38,-539 69.62,-539 69.62,-503 170.38,-503 170.38,-539"/>
<text text-anchor="middle" x="120" y="-516.33" font-family="Times,serif" font-size="14.00">3: int a = 1;</text>
</g>
<!-- node0&#45;&gt;node2 -->
<g id="edge3" class="edge">
<title>node0&#45;&gt;node2</title>
<path fill="none" stroke="blue" d="M120,-575.81C120,-568.23 120,-559.1 120,-550.54"/>
<polygon fill="blue" stroke="blue" points="123.5,-550.54 120,-540.54 116.5,-550.54 123.5,-550.54"/>
</g>
<!-- node1 -->
<g id="node2" class="node">
<title>node1</title>
<polygon fill="none" stroke="black" points="279.88,-36 152.12,-36 152.12,0 279.88,0 279.88,-36"/>
<text text-anchor="middle" x="216" y="-13.32" font-family="Times,serif" font-size="14.00">EXIT: simpleIf()</text>
</g>
<!-- node3 -->
<g id="node4" class="node">
<title>node3</title>
<polygon fill="none" stroke="black" points="210.75,-466 109.25,-466 109.25,-430 210.75,-430 210.75,-466"/>
<text text-anchor="middle" x="160" y="-443.32" font-family="Times,serif" font-size="14.00">4: int b = 5;</text>
</g>
<!-- node2&#45;&gt;node3 -->
<g id="edge4" class="edge">
<title>node2&#45;&gt;node3</title>
<path fill="none" stroke="blue" d="M129.68,-502.81C134.25,-494.7 139.81,-484.84 144.91,-475.78"/>
<polygon fill="blue" stroke="blue" points="147.8,-477.78 149.66,-467.35 141.71,-474.34 147.8,-477.78"/>
</g>
<!-- node5 -->
<g id="node6" class="node">
<title>node5</title>
<polygon fill="none" stroke="black" points="145.5,-287.5 66.5,-287.5 66.5,-251.5 145.5,-251.5 145.5,-287.5"/>
<text text-anchor="middle" x="106" y="-264.82" font-family="Times,serif" font-size="14.00">if (a &lt; b)</text>
</g>
<!-- node2&#45;&gt;node5 -->
<g id="edge15" class="edge">
<title>node2&#45;&gt;node5</title>
<path fill="none" stroke="red" stroke-dasharray="5,2" d="M111.9,-502.93C107.41,-492.52 102.29,-478.79 100,-466 89.51,-407.49 96.17,-337.58 101.43,-299.23"/>
<polygon fill="red" stroke="red" points="104.88,-299.83 102.85,-289.43 97.96,-298.83 104.88,-299.83"/>
<text text-anchor="middle" x="98.8" y="-398.7" font-family="Times,serif" font-size="14.00">a</text>
</g>
<!-- node6 -->
<g id="node7" class="node">
<title>node6</title>
<polygon fill="none" stroke="black" points="383.88,-198.25 244.12,-198.25 244.12,-162.25 383.88,-162.25 383.88,-198.25"/>
<text text-anchor="middle" x="314" y="-175.57" font-family="Times,serif" font-size="14.00">7: result = a + b;</text>
</g>
<!-- node2&#45;&gt;node6 -->
<g id="edge16" class="edge">
<title>node2&#45;&gt;node6</title>
<path fill="none" stroke="red" stroke-dasharray="5,2" d="M170.54,-518.12C254.6,-513.59 414,-498.49 414,-449 414,-449 414,-449 414,-268.5 414,-240.05 390.73,-218.74 366.64,-204.31"/>
<polygon fill="red" stroke="red" points="368.45,-201.31 358.02,-199.48 365.03,-207.42 368.45,-201.31"/>
<text text-anchor="middle" x="418.12" y="-354.07" font-family="Times,serif" font-size="14.00">a</text>
</g>
<!-- node7 -->
<g id="node8" class="node">
<title>node7</title>
<polygon fill="none" stroke="black" points="183.25,-198.25 48.75,-198.25 48.75,-162.25 183.25,-162.25 183.25,-198.25"/>
<text text-anchor="middle" x="116" y="-175.57" font-family="Times,serif" font-size="14.00">9: result = a * b;</text>
</g>
<!-- node2&#45;&gt;node7 -->
<g id="edge17" class="edge">
<title>node2&#45;&gt;node7</title>
<path fill="none" stroke="red" stroke-dasharray="5,2" d="M69.46,-510.65C36.66,-501.33 0,-483.25 0,-449 0,-449 0,-449 0,-268.5 0,-238.45 25.18,-217.46 52.07,-203.61"/>
<polygon fill="red" stroke="red" points="53.55,-206.79 61.05,-199.31 50.52,-200.47 53.55,-206.79"/>
<text text-anchor="middle" x="4.12" y="-354.07" font-family="Times,serif" font-size="14.00">a</text>
</g>
<!-- node4 -->
<g id="node5" class="node">
<title>node4</title>
<polygon fill="none" stroke="black" points="293.5,-376.75 154.5,-376.75 154.5,-340.75 293.5,-340.75 293.5,-376.75"/>
<text text-anchor="middle" x="224" y="-354.07" font-family="Times,serif" font-size="14.00">5: int result = &#45;1;</text>
</g>
<!-- node3&#45;&gt;node4 -->
<g id="edge5" class="edge">
<title>node3&#45;&gt;node4</title>
<path fill="none" stroke="blue" d="M172.64,-429.76C181.76,-417.33 194.23,-400.33 204.61,-386.19"/>
<polygon fill="blue" stroke="blue" points="207.39,-388.31 210.49,-378.17 201.75,-384.17 207.39,-388.31"/>
</g>
<!-- node3&#45;&gt;node5 -->
<g id="edge18" class="edge">
<title>node3&#45;&gt;node5</title>
<path fill="none" stroke="red" stroke-dasharray="5,2" d="M154.17,-429.73C149.43,-415.54 142.62,-394.89 137,-376.75 128.85,-350.42 120.1,-320.24 113.98,-298.79"/>
<polygon fill="red" stroke="red" points="117.39,-297.97 111.29,-289.31 110.66,-299.88 117.39,-297.97"/>
<text text-anchor="middle" x="141.5" y="-354.07" font-family="Times,serif" font-size="14.00">b</text>
</g>
<!-- node3&#45;&gt;node6 -->
<g id="edge19" class="edge">
<title>node3&#45;&gt;node6</title>
<path fill="none" stroke="red" stroke-dasharray="5,2" d="M211.24,-431.54C241.14,-420.35 277.81,-402.6 303,-376.75 343.88,-334.8 355.74,-308.88 344,-251.5 341,-236.83 334.81,-221.43 328.83,-208.8"/>
<polygon fill="red" stroke="red" points="331.97,-207.26 324.38,-199.86 325.7,-210.38 331.97,-207.26"/>
<text text-anchor="middle" x="351.43" y="-309.45" font-family="Times,serif" font-size="14.00">b</text>
</g>
<!-- node3&#45;&gt;node7 -->
<g id="edge20" class="edge">
<title>node3&#45;&gt;node7</title>
<path fill="none" stroke="red" stroke-dasharray="5,2" d="M111.23,-429.52C103.24,-424.85 95.72,-419.08 90,-412 54.1,-367.55 65.17,-344.18 58,-287.5 55.99,-271.63 52.59,-266.56 58,-251.5 64.09,-234.57 76.21,-218.82 87.81,-206.53"/>
<polygon fill="red" stroke="red" points="90.05,-209.25 94.61,-199.69 85.08,-204.32 90.05,-209.25"/>
<text text-anchor="middle" x="65.35" y="-309.45" font-family="Times,serif" font-size="14.00">b</text>
</g>
<!-- node4&#45;&gt;node5 -->
<g id="edge6" class="edge">
<title>node4&#45;&gt;node5</title>
<path fill="none" stroke="blue" d="M195,-340.25C186.48,-334.85 177.23,-328.75 169,-322.75 157.25,-314.19 144.82,-304.12 134.14,-295.12"/>
<polygon fill="blue" stroke="blue" points="136.66,-292.67 126.78,-288.85 132.12,-298 136.66,-292.67"/>
</g>
<!-- node4&#45;&gt;node6 -->
<g id="edge10" class="edge">
<title>node4&#45;&gt;node6</title>
<path fill="none" stroke="red" stroke-dasharray="5,2" d="M249.29,-340.48C255.41,-335.35 261.49,-329.32 266,-322.75 289.98,-287.82 302.9,-239.87 309.11,-209.72"/>
<polygon fill="red" stroke="red" points="312.48,-210.7 310.95,-200.22 305.61,-209.37 312.48,-210.7"/>
<text text-anchor="middle" x="318.87" y="-264.82" font-family="Times,serif" font-size="14.00">result</text>
</g>
<!-- node4&#45;&gt;node7 -->
<g id="edge11" class="edge">
<title>node4&#45;&gt;node7</title>
<path fill="none" stroke="red" stroke-dasharray="5,2" d="M213.45,-340.51C194.58,-309.66 154.92,-244.85 132.45,-208.13"/>
<polygon fill="red" stroke="red" points="135.59,-206.56 127.38,-199.86 129.62,-210.21 135.59,-206.56"/>
<text text-anchor="middle" x="201.74" y="-264.82" font-family="Times,serif" font-size="14.00">result</text>
</g>
<!-- node8 -->
<g id="node9" class="node">
<title>node8</title>
<polygon fill="none" stroke="black" points="285.88,-109 146.12,-109 146.12,-73 285.88,-73 285.88,-109"/>
<text text-anchor="middle" x="216" y="-86.33" font-family="Times,serif" font-size="14.00">11: return result;</text>
</g>
<!-- node4&#45;&gt;node8 -->
<g id="edge12" class="edge">
<title>node4&#45;&gt;node8</title>
<path fill="none" stroke="red" stroke-dasharray="5,2" d="M224.95,-340.43C225.67,-326.22 226.61,-305.56 227,-287.5 228.27,-228 222.66,-158.46 218.98,-120.43"/>
<polygon fill="red" stroke="red" points="222.49,-120.35 218.02,-110.75 215.53,-121.05 222.49,-120.35"/>
<text text-anchor="middle" x="247.5" y="-220.2" font-family="Times,serif" font-size="14.00">result</text>
</g>
<!-- node5&#45;&gt;node6 -->
<g id="edge1" class="edge">
<title>node5&#45;&gt;node6</title>
<path fill="none" stroke="blue" d="M145.95,-255.31C150.66,-253.94 155.42,-252.63 160,-251.5 203.41,-240.76 219.12,-253.75 259,-233.5 271.72,-227.04 283.51,-216.7 292.9,-206.92"/>
<polygon fill="blue" stroke="blue" points="295.33,-209.44 299.46,-199.69 290.15,-204.74 295.33,-209.44"/>
</g>
<!-- node5&#45;&gt;node7 -->
<g id="edge2" class="edge">
<title>node5&#45;&gt;node7</title>
<path fill="none" stroke="blue" d="M107.98,-251.26C109.33,-239.43 111.16,-223.45 112.73,-209.75"/>
<polygon fill="blue" stroke="blue" points="116.19,-210.29 113.86,-199.96 109.24,-209.49 116.19,-210.29"/>
</g>
<!-- node6&#45;&gt;node8 -->
<g id="edge7" class="edge">
<title>node6&#45;&gt;node8</title>
<path fill="none" stroke="blue" d="M294.64,-162.01C280.14,-149.11 260.1,-131.26 243.88,-116.82"/>
<polygon fill="blue" stroke="blue" points="246.25,-114.24 236.45,-110.21 241.59,-119.47 246.25,-114.24"/>
</g>
<!-- node6&#45;&gt;node8 -->
<g id="edge13" class="edge">
<title>node6&#45;&gt;node8</title>
<path fill="none" stroke="red" stroke-dasharray="5,2" d="M305.34,-162.2C299.12,-151.17 289.93,-137.05 279,-127 274.45,-122.82 269.32,-118.95 263.99,-115.42"/>
<polygon fill="red" stroke="red" points="265.92,-112.5 255.56,-110.25 262.26,-118.46 265.92,-112.5"/>
<text text-anchor="middle" x="314.65" y="-130.95" font-family="Times,serif" font-size="14.00">result</text>
</g>
<!-- node7&#45;&gt;node8 -->
<g id="edge8" class="edge">
<title>node7&#45;&gt;node8</title>
<path fill="none" stroke="blue" d="M142.08,-161.91C149.68,-156.52 157.86,-150.37 165,-144.25 174.63,-136 184.52,-126.21 192.99,-117.36"/>
<polygon fill="blue" stroke="blue" points="195.3,-120.02 199.6,-110.34 190.2,-115.22 195.3,-120.02"/>
</g>
<!-- node7&#45;&gt;node8 -->
<g id="edge14" class="edge">
<title>node7&#45;&gt;node8</title>
<path fill="none" stroke="red" stroke-dasharray="5,2" d="M112.49,-162.1C111.23,-151.03 111.61,-136.9 119,-127 123.6,-120.83 129.4,-115.74 135.85,-111.55"/>
<polygon fill="red" stroke="red" points="137.38,-114.71 144.4,-106.77 133.96,-108.6 137.38,-114.71"/>
<text text-anchor="middle" x="140" y="-130.95" font-family="Times,serif" font-size="14.00">result</text>
</g>
<!-- node8&#45;&gt;node1 -->
<g id="edge9" class="edge">
<title>node8&#45;&gt;node1</title>
<path fill="none" stroke="blue" d="M216,-72.81C216,-65.23 216,-56.1 216,-47.54"/>
<polygon fill="blue" stroke="blue" points="219.5,-47.54 216,-37.54 212.5,-47.54 219.5,-47.54"/>
</g>
</g>
</svg>
