<?xml version="1.0" encoding="UTF-8" standalone="no"?>
<!DOCTYPE svg PUBLIC "-//W3C//DTD SVG 1.1//EN"
 "http://www.w3.org/Graphics/SVG/1.1/DTD/svg11.dtd">
<!-- Generated by graphviz version 12.2.0 (0)
 -->
<!-- Title: PDG Pages: 1 -->
<svg width="589pt" height="490pt"
 viewBox="0.00 0.00 588.54 490.25" xmlns="http://www.w3.org/2000/svg" xmlns:xlink="http://www.w3.org/1999/xlink">
<g id="graph0" class="graph" transform="scale(1 1) rotate(0) translate(4 486.25)">
<title>PDG</title>
<polygon fill="white" stroke="none" points="-4,4 -4,-486.25 584.54,-486.25 584.54,4 -4,4"/>
<!-- node0 -->
<g id="node1" class="node">
<title>node0</title>
<polygon fill="none" stroke="black" points="379,-482.25 237,-482.25 237,-446.25 379,-446.25 379,-482.25"/>
<text text-anchor="middle" x="308" y="-459.57" font-family="Times,serif" font-size="14.00">ENTRY: simpleIf()</text>
</g>
<!-- node1 -->
<g id="node2" class="node">
<title>node1</title>
<polygon fill="none" stroke="black" points="347.12,-393 268.88,-393 268.88,-357 347.12,-357 347.12,-393"/>
<text text-anchor="middle" x="308" y="-370.32" font-family="Times,serif" font-size="14.00">int a = 1</text>
</g>
<!-- node0&#45;&gt;node1 -->
<g id="edge1" class="edge">
<title>node0&#45;&gt;node1</title>
<path fill="none" stroke="blue" d="M308,-446.01C308,-434.18 308,-418.2 308,-404.5"/>
<polygon fill="blue" stroke="blue" points="311.5,-404.72 308,-394.72 304.5,-404.72 311.5,-404.72"/>
<text text-anchor="middle" x="320.38" y="-414.95" font-family="Times,serif" font-size="14.00">ctrl</text>
</g>
<!-- node2 -->
<g id="node3" class="node">
<title>node2</title>
<polygon fill="none" stroke="black" points="534.5,-393 455.5,-393 455.5,-357 534.5,-357 534.5,-393"/>
<text text-anchor="middle" x="495" y="-370.32" font-family="Times,serif" font-size="14.00">int b = 5</text>
</g>
<!-- node0&#45;&gt;node2 -->
<g id="edge2" class="edge">
<title>node0&#45;&gt;node2</title>
<path fill="none" stroke="blue" d="M374.7,-445.75C389.61,-440.88 405.11,-435.03 419,-428.25 434.75,-420.57 450.92,-409.9 464.28,-400.21"/>
<polygon fill="blue" stroke="blue" points="466.31,-403.06 472.24,-394.29 462.13,-397.45 466.31,-403.06"/>
<text text-anchor="middle" x="459.85" y="-414.95" font-family="Times,serif" font-size="14.00">ctrl</text>
</g>
<!-- node3 -->
<g id="node4" class="node">
<title>node3</title>
<polygon fill="none" stroke="black" points="168.25,-303.75 51.75,-303.75 51.75,-267.75 168.25,-267.75 168.25,-303.75"/>
<text text-anchor="middle" x="110" y="-281.07" font-family="Times,serif" font-size="14.00">int result = &#45;1</text>
</g>
<!-- node0&#45;&gt;node3 -->
<g id="edge3" class="edge">
<title>node0&#45;&gt;node3</title>
<path fill="none" stroke="blue" d="M288.65,-446.01C253.39,-414.57 178.54,-347.85 137.81,-311.54"/>
<polygon fill="blue" stroke="blue" points="140.35,-309.11 130.55,-305.07 135.69,-314.34 140.35,-309.11"/>
<text text-anchor="middle" x="241.06" y="-370.32" font-family="Times,serif" font-size="14.00">ctrl</text>
</g>
<!-- node4 -->
<g id="node5" class="node">
<title>node4</title>
<polygon fill="none" stroke="black" points="444.5,-303.75 365.5,-303.75 365.5,-267.75 444.5,-267.75 444.5,-303.75"/>
<text text-anchor="middle" x="405" y="-281.07" font-family="Times,serif" font-size="14.00">if (a &lt; b)</text>
</g>
<!-- node0&#45;&gt;node4 -->
<g id="edge4" class="edge">
<title>node0&#45;&gt;node4</title>
<path fill="none" stroke="blue" d="M323.28,-445.85C327.86,-440.35 332.79,-434.17 337,-428.25 363.86,-390.46 372.82,-381.65 391,-339 394.22,-331.45 396.87,-322.98 398.97,-315.08"/>
<polygon fill="blue" stroke="blue" points="402.31,-316.12 401.28,-305.57 395.51,-314.46 402.31,-316.12"/>
<text text-anchor="middle" x="394.93" y="-370.32" font-family="Times,serif" font-size="14.00">ctrl</text>
</g>
<!-- node7 -->
<g id="node8" class="node">
<title>node7</title>
<polygon fill="none" stroke="black" points="159.12,-36 50.88,-36 50.88,0 159.12,0 159.12,-36"/>
<text text-anchor="middle" x="105" y="-13.32" font-family="Times,serif" font-size="14.00">return result</text>
</g>
<!-- node0&#45;&gt;node7 -->
<g id="edge7" class="edge">
<title>node0&#45;&gt;node7</title>
<path fill="none" stroke="blue" d="M236.56,-457.34C145.58,-447.81 0,-424.91 0,-376 0,-376 0,-376 0,-106.25 0,-77.17 24.13,-55.92 49.25,-41.67"/>
<polygon fill="blue" stroke="blue" points="50.72,-44.86 57.91,-37.08 47.44,-38.67 50.72,-44.86"/>
<text text-anchor="middle" x="12.38" y="-236.45" font-family="Times,serif" font-size="14.00">ctrl</text>
</g>
<!-- node1&#45;&gt;node4 -->
<g id="edge21" class="edge">
<title>node1&#45;&gt;node4</title>
<path fill="none" stroke="red" stroke-dasharray="5,2" d="M316.4,-356.95C322.46,-345.92 331.45,-331.8 342.25,-321.75 346.76,-317.55 351.86,-313.67 357.16,-310.14"/>
<polygon fill="red" stroke="red" points="358.87,-313.2 365.54,-304.97 355.2,-307.24 358.87,-313.2"/>
<text text-anchor="middle" x="366.62" y="-325.7" font-family="Times,serif" font-size="14.00">data: a</text>
</g>
<!-- node5 -->
<g id="node6" class="node">
<title>node5</title>
<polygon fill="none" stroke="black" points="303.62,-214.5 186.38,-214.5 186.38,-178.5 303.62,-178.5 303.62,-214.5"/>
<text text-anchor="middle" x="245" y="-191.82" font-family="Times,serif" font-size="14.00">result = a + b</text>
</g>
<!-- node1&#45;&gt;node5 -->
<g id="edge11" class="edge">
<title>node1&#45;&gt;node5</title>
<path fill="none" stroke="red" stroke-dasharray="5,2" d="M295.42,-356.66C286.04,-342.94 273.63,-322.95 266.25,-303.75 256.52,-278.41 251,-247.89 248.05,-226.07"/>
<polygon fill="red" stroke="red" points="251.56,-225.92 246.84,-216.43 244.61,-226.79 251.56,-225.92"/>
<text text-anchor="middle" x="290.62" y="-281.07" font-family="Times,serif" font-size="14.00">data: a</text>
</g>
<!-- node6 -->
<g id="node7" class="node">
<title>node6</title>
<polygon fill="none" stroke="black" points="390,-125.25 278,-125.25 278,-89.25 390,-89.25 390,-125.25"/>
<text text-anchor="middle" x="334" y="-102.58" font-family="Times,serif" font-size="14.00">result = a * b</text>
</g>
<!-- node1&#45;&gt;node6 -->
<g id="edge16" class="edge">
<title>node1&#45;&gt;node6</title>
<path fill="none" stroke="red" stroke-dasharray="5,2" d="M309.94,-356.75C314.14,-320.01 324.03,-237.01 328.25,-232.5 354.55,-204.37 388.76,-244.42 413,-214.5 432.96,-189.85 427.52,-169 409,-143.25 405.99,-139.07 402.36,-135.37 398.33,-132.11"/>
<polygon fill="red" stroke="red" points="400.43,-129.3 390.22,-126.49 396.44,-135.06 400.43,-129.3"/>
<text text-anchor="middle" x="352.62" y="-236.45" font-family="Times,serif" font-size="14.00">data: a</text>
</g>
<!-- node2&#45;&gt;node4 -->
<g id="edge22" class="edge">
<title>node2&#45;&gt;node4</title>
<path fill="none" stroke="red" stroke-dasharray="5,2" d="M462.18,-356.53C454.27,-351.48 446.17,-345.54 439.5,-339 432.02,-331.67 425.29,-322.47 419.79,-313.83"/>
<polygon fill="red" stroke="red" points="422.88,-312.16 414.73,-305.39 416.88,-315.77 422.88,-312.16"/>
<text text-anchor="middle" x="464.25" y="-325.7" font-family="Times,serif" font-size="14.00">data: b</text>
</g>
<!-- node2&#45;&gt;node5 -->
<g id="edge12" class="edge">
<title>node2&#45;&gt;node5</title>
<path fill="none" stroke="red" stroke-dasharray="5,2" d="M494.99,-356.61C494.5,-346.22 493.01,-332.92 489,-321.75 472.33,-275.32 465.77,-257.09 423,-232.5 390.5,-213.81 349.73,-204.94 315.42,-200.79"/>
<polygon fill="red" stroke="red" points="315.87,-197.32 305.55,-199.72 315.12,-204.28 315.87,-197.32"/>
<text text-anchor="middle" x="507.02" y="-281.07" font-family="Times,serif" font-size="14.00">data: b</text>
</g>
<!-- node2&#45;&gt;node6 -->
<g id="edge17" class="edge">
<title>node2&#45;&gt;node6</title>
<path fill="none" stroke="red" stroke-dasharray="5,2" d="M508.63,-356.7C518.38,-343.15 530.69,-323.38 536,-303.75 540.18,-288.3 540.11,-283.21 536,-267.75 519.59,-205.97 514.95,-181.84 464,-143.25 445.99,-129.61 423.05,-121.28 401.47,-116.2"/>
<polygon fill="red" stroke="red" points="402.33,-112.8 391.82,-114.14 400.87,-119.65 402.33,-112.8"/>
<text text-anchor="middle" x="555.79" y="-236.45" font-family="Times,serif" font-size="14.00">data: b</text>
</g>
<!-- node3&#45;&gt;node5 -->
<g id="edge8" class="edge">
<title>node3&#45;&gt;node5</title>
<path fill="none" stroke="red" stroke-dasharray="5,2" d="M120.08,-267.67C127.52,-256.35 138.57,-241.9 151.5,-232.5 158.87,-227.14 167.17,-222.5 175.69,-218.52"/>
<polygon fill="red" stroke="red" points="176.98,-221.77 184.76,-214.58 174.19,-215.35 176.98,-221.77"/>
<text text-anchor="middle" x="192.75" y="-236.45" font-family="Times,serif" font-size="14.00">data: result</text>
</g>
<!-- node3&#45;&gt;node6 -->
<g id="edge13" class="edge">
<title>node3&#45;&gt;node6</title>
<path fill="none" stroke="red" stroke-dasharray="5,2" d="M100.45,-267.41C89.37,-244.68 74.95,-204.61 94.5,-178.5 95.85,-176.7 196.29,-147.66 266.65,-127.48"/>
<polygon fill="red" stroke="red" points="267.56,-130.86 276.21,-124.75 265.64,-124.14 267.56,-130.86"/>
<text text-anchor="middle" x="135.75" y="-191.82" font-family="Times,serif" font-size="14.00">data: result</text>
</g>
<!-- node3&#45;&gt;node7 -->
<g id="edge18" class="edge">
<title>node3&#45;&gt;node7</title>
<path fill="none" stroke="red" stroke-dasharray="5,2" d="M94.81,-267.56C90.74,-262.18 86.72,-256 84,-249.75 64.87,-205.84 60.51,-190.63 67.5,-143.25 72.52,-109.23 84.89,-71.61 94.05,-46.78"/>
<polygon fill="red" stroke="red" points="97.2,-48.33 97.46,-37.74 90.66,-45.86 97.2,-48.33"/>
<text text-anchor="middle" x="108.75" y="-147.2" font-family="Times,serif" font-size="14.00">data: result</text>
</g>
<!-- node4&#45;&gt;node5 -->
<g id="edge5" class="edge">
<title>node4&#45;&gt;node5</title>
<path fill="none" stroke="blue" d="M401.14,-267.31C397.72,-255.83 391.57,-241.33 381,-232.5 362.59,-217.12 338.24,-208.39 315.24,-203.47"/>
<polygon fill="blue" stroke="blue" points="316.05,-200.06 305.57,-201.64 314.74,-206.94 316.05,-200.06"/>
<text text-anchor="middle" x="406.51" y="-236.45" font-family="Times,serif" font-size="14.00">ctrl</text>
</g>
<!-- node4&#45;&gt;node6 -->
<g id="edge6" class="edge">
<title>node4&#45;&gt;node6</title>
<path fill="none" stroke="blue" d="M418.84,-267.39C439.77,-238.91 474.18,-181.58 446,-143.25 435.26,-128.64 418.44,-119.96 401.08,-114.85"/>
<polygon fill="blue" stroke="blue" points="402.26,-111.54 391.71,-112.48 400.55,-118.32 402.26,-111.54"/>
<text text-anchor="middle" x="468.95" y="-191.82" font-family="Times,serif" font-size="14.00">ctrl</text>
</g>
<!-- node5&#45;&gt;node5 -->
<g id="edge9" class="edge">
<title>node5&#45;&gt;node5</title>
<path fill="none" stroke="red" stroke-dasharray="5,2" d="M304.11,-204.34C314.44,-203.3 321.62,-200.68 321.62,-196.5 321.62,-194.08 319.22,-192.19 315.2,-190.82"/>
<polygon fill="red" stroke="red" points="316.09,-187.42 305.6,-188.95 314.75,-194.29 316.09,-187.42"/>
<text text-anchor="middle" x="362.88" y="-191.82" font-family="Times,serif" font-size="14.00">data: result</text>
</g>
<!-- node5&#45;&gt;node6 -->
<g id="edge14" class="edge">
<title>node5&#45;&gt;node6</title>
<path fill="none" stroke="red" stroke-dasharray="5,2" d="M230.73,-178.36C223.56,-167.56 217.86,-153.74 225.5,-143.25 231.13,-135.52 247.95,-128.65 266.72,-123.07"/>
<polygon fill="red" stroke="red" points="267.46,-126.5 276.15,-120.44 265.58,-119.76 267.46,-126.5"/>
<text text-anchor="middle" x="266.75" y="-147.2" font-family="Times,serif" font-size="14.00">data: result</text>
</g>
<!-- node5&#45;&gt;node7 -->
<g id="edge19" class="edge">
<title>node5&#45;&gt;node7</title>
<path fill="none" stroke="red" stroke-dasharray="5,2" d="M230.14,-178.05C218.19,-163.93 201.07,-143.47 186.5,-125.25 165,-98.36 141.11,-67.03 124.78,-45.39"/>
<polygon fill="red" stroke="red" points="127.78,-43.56 118.97,-37.67 122.19,-47.77 127.78,-43.56"/>
<text text-anchor="middle" x="227.75" y="-102.58" font-family="Times,serif" font-size="14.00">data: result</text>
</g>
<!-- node6&#45;&gt;node5 -->
<g id="edge10" class="edge">
<title>node6&#45;&gt;node5</title>
<path fill="none" stroke="red" stroke-dasharray="5,2" d="M330.01,-125.44C326.71,-136.52 321.06,-150.65 312,-160.5 308.1,-164.74 303.57,-168.55 298.74,-171.96"/>
<polygon fill="red" stroke="red" points="297.02,-168.91 290.44,-177.21 300.76,-174.82 297.02,-168.91"/>
<text text-anchor="middle" x="364.23" y="-147.2" font-family="Times,serif" font-size="14.00">data: result</text>
</g>
<!-- node6&#45;&gt;node6 -->
<g id="edge15" class="edge">
<title>node6&#45;&gt;node6</title>
<path fill="none" stroke="red" stroke-dasharray="5,2" d="M390.46,-115.16C400.77,-114.16 408,-111.52 408,-107.25 408,-104.78 405.58,-102.86 401.55,-101.48"/>
<polygon fill="red" stroke="red" points="402.43,-98.09 391.95,-99.63 401.1,-104.96 402.43,-98.09"/>
<text text-anchor="middle" x="449.25" y="-102.58" font-family="Times,serif" font-size="14.00">data: result</text>
</g>
<!-- node6&#45;&gt;node7 -->
<g id="edge20" class="edge">
<title>node6&#45;&gt;node7</title>
<path fill="none" stroke="red" stroke-dasharray="5,2" d="M288.21,-88.8C251.7,-74.89 200.4,-55.35 161.37,-40.48"/>
<polygon fill="red" stroke="red" points="162.72,-37.25 152.13,-36.96 160.22,-43.79 162.72,-37.25"/>
<text text-anchor="middle" x="281.26" y="-57.95" font-family="Times,serif" font-size="14.00">data: result</text>
</g>
</g>
</svg>
