<?xml version="1.0" encoding="UTF-8" standalone="no"?>
<!DOCTYPE svg PUBLIC "-//W3C//DTD SVG 1.1//EN"
 "http://www.w3.org/Graphics/SVG/1.1/DTD/svg11.dtd">
<!-- Generated by graphviz version 12.2.0 (0)
 -->
<!-- Title: PDG Pages: 1 -->
<svg width="220pt" height="490pt"
 viewBox="0.00 0.00 219.75 490.25" xmlns="http://www.w3.org/2000/svg" xmlns:xlink="http://www.w3.org/1999/xlink">
<g id="graph0" class="graph" transform="scale(1 1) rotate(0) translate(4 486.25)">
<title>PDG</title>
<polygon fill="white" stroke="none" points="-4,4 -4,-486.25 215.75,-486.25 215.75,4 -4,4"/>
<!-- node0 -->
<g id="node1" class="node">
<title>node0</title>
<polygon fill="none" stroke="black" points="211.75,-482.25 0,-482.25 0,-446.25 211.75,-446.25 211.75,-482.25"/>
<text text-anchor="middle" x="105.88" y="-459.57" font-family="Times,serif" font-size="14.00">ENTRY: simpleCalculation()</text>
</g>
<!-- node2 -->
<g id="node3" class="node">
<title>node2</title>
<polygon fill="none" stroke="black" points="156.25,-393 55.5,-393 55.5,-357 156.25,-357 156.25,-393"/>
<text text-anchor="middle" x="105.88" y="-370.32" font-family="Times,serif" font-size="14.00">3: int a = 1;</text>
</g>
<!-- node0&#45;&gt;node2 -->
<g id="edge1" class="edge">
<title>node0&#45;&gt;node2</title>
<path fill="none" stroke="blue" d="M105.88,-446.01C105.88,-434.18 105.88,-418.2 105.88,-404.5"/>
<polygon fill="blue" stroke="blue" points="109.38,-404.72 105.88,-394.72 102.38,-404.72 109.38,-404.72"/>
<text text-anchor="middle" x="118.25" y="-414.95" font-family="Times,serif" font-size="14.00">ctrl</text>
</g>
<!-- node1 -->
<g id="node2" class="node">
<title>node1</title>
<polygon fill="none" stroke="black" points="204.62,-36 7.12,-36 7.12,0 204.62,0 204.62,-36"/>
<text text-anchor="middle" x="105.88" y="-13.32" font-family="Times,serif" font-size="14.00">EXIT: simpleCalculation()</text>
</g>
<!-- node3 -->
<g id="node4" class="node">
<title>node3</title>
<polygon fill="none" stroke="black" points="156.62,-303.75 55.12,-303.75 55.12,-267.75 156.62,-267.75 156.62,-303.75"/>
<text text-anchor="middle" x="105.88" y="-281.07" font-family="Times,serif" font-size="14.00">4: int b = 5;</text>
</g>
<!-- node2&#45;&gt;node3 -->
<g id="edge2" class="edge">
<title>node2&#45;&gt;node3</title>
<path fill="none" stroke="blue" d="M105.88,-356.76C105.88,-344.93 105.88,-328.95 105.88,-315.25"/>
<polygon fill="blue" stroke="blue" points="109.38,-315.47 105.88,-305.47 102.38,-315.47 109.38,-315.47"/>
<text text-anchor="middle" x="118.25" y="-325.7" font-family="Times,serif" font-size="14.00">ctrl</text>
</g>
<!-- node4 -->
<g id="node5" class="node">
<title>node4</title>
<polygon fill="none" stroke="black" points="181.75,-214.5 30,-214.5 30,-178.5 181.75,-178.5 181.75,-214.5"/>
<text text-anchor="middle" x="105.88" y="-191.82" font-family="Times,serif" font-size="14.00">5: int sum = a + b;</text>
</g>
<!-- node3&#45;&gt;node4 -->
<g id="edge3" class="edge">
<title>node3&#45;&gt;node4</title>
<path fill="none" stroke="blue" d="M105.88,-267.51C105.88,-255.68 105.88,-239.7 105.88,-226"/>
<polygon fill="blue" stroke="blue" points="109.38,-226.22 105.88,-216.22 102.38,-226.22 109.38,-226.22"/>
<text text-anchor="middle" x="118.25" y="-236.45" font-family="Times,serif" font-size="14.00">ctrl</text>
</g>
<!-- node5 -->
<g id="node6" class="node">
<title>node5</title>
<polygon fill="none" stroke="black" points="165.25,-125.25 46.5,-125.25 46.5,-89.25 165.25,-89.25 165.25,-125.25"/>
<text text-anchor="middle" x="105.88" y="-102.58" font-family="Times,serif" font-size="14.00">6: return sum;</text>
</g>
<!-- node4&#45;&gt;node5 -->
<g id="edge4" class="edge">
<title>node4&#45;&gt;node5</title>
<path fill="none" stroke="blue" d="M105.88,-178.26C105.88,-166.43 105.88,-150.45 105.88,-136.75"/>
<polygon fill="blue" stroke="blue" points="109.38,-136.97 105.88,-126.97 102.38,-136.97 109.38,-136.97"/>
<text text-anchor="middle" x="118.25" y="-147.2" font-family="Times,serif" font-size="14.00">ctrl</text>
</g>
<!-- node5&#45;&gt;node1 -->
<g id="edge5" class="edge">
<title>node5&#45;&gt;node1</title>
<path fill="none" stroke="blue" d="M105.88,-89.01C105.88,-77.18 105.88,-61.2 105.88,-47.5"/>
<polygon fill="blue" stroke="blue" points="109.38,-47.72 105.88,-37.72 102.38,-47.72 109.38,-47.72"/>
<text text-anchor="middle" x="118.25" y="-57.95" font-family="Times,serif" font-size="14.00">ctrl</text>
</g>
</g>
</svg>
