<?xml version="1.0" encoding="UTF-8" standalone="no"?>
<!DOCTYPE svg PUBLIC "-//W3C//DTD SVG 1.1//EN"
 "http://www.w3.org/Graphics/SVG/1.1/DTD/svg11.dtd">
<!-- Generated by graphviz version 12.2.0 (0)
 -->
<!-- Title: PDG Pages: 1 -->
<svg width="287pt" height="758pt"
 viewBox="0.00 0.00 286.62 758.00" xmlns="http://www.w3.org/2000/svg" xmlns:xlink="http://www.w3.org/1999/xlink">
<g id="graph0" class="graph" transform="scale(1 1) rotate(0) translate(4 754)">
<title>PDG</title>
<polygon fill="white" stroke="none" points="-4,4 -4,-754 282.62,-754 282.62,4 -4,4"/>
<!-- node2 -->
<g id="node1" class="node">
<title>node2</title>
<polygon fill="none" stroke="black" points="259.12,-660.75 124.62,-660.75 124.62,-624.75 259.12,-624.75 259.12,-660.75"/>
<text text-anchor="middle" x="191.88" y="-638.08" font-family="Times,serif" font-size="14.00">3: int result = 1;</text>
</g>
<!-- node3 -->
<g id="node2" class="node">
<title>node3</title>
<polygon fill="none" stroke="black" points="240.38,-571.5 143.38,-571.5 143.38,-535.5 240.38,-535.5 240.38,-571.5"/>
<text text-anchor="middle" x="191.88" y="-548.83" font-family="Times,serif" font-size="14.00">4: int i = 1;</text>
</g>
<!-- node2&#45;&gt;node3 -->
<g id="edge5" class="edge">
<title>node2&#45;&gt;node3</title>
<path fill="none" stroke="blue" d="M191.88,-624.51C191.88,-612.68 191.88,-596.7 191.88,-583"/>
<polygon fill="blue" stroke="blue" points="195.38,-583.22 191.88,-573.22 188.38,-583.22 195.38,-583.22"/>
<text text-anchor="middle" x="204.25" y="-593.45" font-family="Times,serif" font-size="14.00">ctrl</text>
</g>
<!-- node4 -->
<g id="node3" class="node">
<title>node4</title>
<polygon fill="none" stroke="black" points="249.75,-482.25 134,-482.25 134,-446.25 249.75,-446.25 249.75,-482.25"/>
<text text-anchor="middle" x="191.88" y="-459.57" font-family="Times,serif" font-size="14.00">while (i &lt;= n)</text>
</g>
<!-- node3&#45;&gt;node4 -->
<g id="edge6" class="edge">
<title>node3&#45;&gt;node4</title>
<path fill="none" stroke="blue" d="M191.88,-535.26C191.88,-523.43 191.88,-507.45 191.88,-493.75"/>
<polygon fill="blue" stroke="blue" points="195.38,-493.97 191.88,-483.97 188.38,-493.97 195.38,-493.97"/>
<text text-anchor="middle" x="204.25" y="-504.2" font-family="Times,serif" font-size="14.00">ctrl</text>
</g>
<!-- node5 -->
<g id="node4" class="node">
<title>node5</title>
<polygon fill="none" stroke="black" points="163.75,-393 0,-393 0,-357 163.75,-357 163.75,-393"/>
<text text-anchor="middle" x="81.88" y="-370.32" font-family="Times,serif" font-size="14.00">6: result = result * i;</text>
</g>
<!-- node4&#45;&gt;node5 -->
<g id="edge3" class="edge">
<title>node4&#45;&gt;node5</title>
<path fill="none" stroke="blue" d="M169.88,-445.8C153.39,-432.73 130.63,-414.67 112.38,-400.2"/>
<polygon fill="blue" stroke="blue" points="115.03,-397.83 105.02,-394.36 110.68,-403.31 115.03,-397.83"/>
<text text-anchor="middle" x="159.1" y="-414.95" font-family="Times,serif" font-size="14.00">ctrl</text>
</g>
<!-- node12 -->
<g id="node8" class="node">
<title>node12</title>
<polygon fill="none" stroke="black" points="228.75,-125.25 89,-125.25 89,-89.25 228.75,-89.25 228.75,-125.25"/>
<text text-anchor="middle" x="158.88" y="-102.58" font-family="Times,serif" font-size="14.00">16: return result;</text>
</g>
<!-- node4&#45;&gt;node12 -->
<g id="edge7" class="edge">
<title>node4&#45;&gt;node12</title>
<path fill="none" stroke="blue" d="M213.91,-446.05C231.73,-430.04 253.88,-404.43 253.88,-376 253.88,-376 253.88,-376 253.88,-195.5 253.88,-167.58 231.34,-146.16 208.22,-131.53"/>
<polygon fill="blue" stroke="blue" points="210.03,-128.53 199.64,-126.45 206.46,-134.56 210.03,-128.53"/>
<text text-anchor="middle" x="266.25" y="-281.07" font-family="Times,serif" font-size="14.00">ctrl</text>
</g>
<!-- node6 -->
<g id="node5" class="node">
<title>node6</title>
<polygon fill="none" stroke="black" points="128.5,-303.75 35.25,-303.75 35.25,-267.75 128.5,-267.75 128.5,-303.75"/>
<text text-anchor="middle" x="81.88" y="-281.07" font-family="Times,serif" font-size="14.00">if (i &gt; 100)</text>
</g>
<!-- node5&#45;&gt;node6 -->
<g id="edge8" class="edge">
<title>node5&#45;&gt;node6</title>
<path fill="none" stroke="blue" d="M81.88,-356.76C81.88,-344.93 81.88,-328.95 81.88,-315.25"/>
<polygon fill="blue" stroke="blue" points="85.38,-315.47 81.88,-305.47 78.38,-315.47 85.38,-315.47"/>
<text text-anchor="middle" x="94.25" y="-325.7" font-family="Times,serif" font-size="14.00">ctrl</text>
</g>
<!-- node7 -->
<g id="node6" class="node">
<title>node7</title>
<polygon fill="none" stroke="black" points="225.88,-214.5 125.88,-214.5 125.88,-178.5 225.88,-178.5 225.88,-214.5"/>
<text text-anchor="middle" x="175.88" y="-191.82" font-family="Times,serif" font-size="14.00">8: continue;</text>
</g>
<!-- node6&#45;&gt;node7 -->
<g id="edge1" class="edge">
<title>node6&#45;&gt;node7</title>
<path fill="none" stroke="blue" d="M100.45,-267.51C114.35,-254.61 133.57,-236.76 149.13,-222.32"/>
<polygon fill="blue" stroke="blue" points="151.28,-225.1 156.23,-215.73 146.52,-219.97 151.28,-225.1"/>
<text text-anchor="middle" x="149.67" y="-236.45" font-family="Times,serif" font-size="14.00">ctrl</text>
</g>
<!-- node9 -->
<g id="node7" class="node">
<title>node9</title>
<polygon fill="none" stroke="black" points="107.88,-214.5 19.88,-214.5 19.88,-178.5 107.88,-178.5 107.88,-214.5"/>
<text text-anchor="middle" x="63.88" y="-191.82" font-family="Times,serif" font-size="14.00">11: break;</text>
</g>
<!-- node6&#45;&gt;node9 -->
<g id="edge2" class="edge">
<title>node6&#45;&gt;node9</title>
<path fill="none" stroke="blue" d="M78.32,-267.51C75.85,-255.56 72.52,-239.38 69.67,-225.58"/>
<polygon fill="blue" stroke="blue" points="73.18,-225.27 67.73,-216.18 66.32,-226.69 73.18,-225.27"/>
<text text-anchor="middle" x="86.86" y="-236.45" font-family="Times,serif" font-size="14.00">ctrl</text>
</g>
<!-- node7&#45;&gt;node4 -->
<g id="edge9" class="edge">
<title>node7&#45;&gt;node4</title>
<path fill="none" stroke="blue" d="M176.91,-214.66C179.59,-259.21 186.8,-379 190.14,-434.41"/>
<polygon fill="blue" stroke="blue" points="186.64,-434.53 190.73,-444.3 193.63,-434.11 186.64,-434.53"/>
<text text-anchor="middle" x="196.62" y="-325.7" font-family="Times,serif" font-size="14.00">ctrl</text>
</g>
<!-- node9&#45;&gt;node12 -->
<g id="edge10" class="edge">
<title>node9&#45;&gt;node12</title>
<path fill="none" stroke="blue" d="M82.64,-178.26C96.7,-165.36 116.12,-147.51 131.85,-133.07"/>
<polygon fill="blue" stroke="blue" points="134.03,-135.82 139.03,-126.48 129.3,-130.66 134.03,-135.82"/>
<text text-anchor="middle" x="132.26" y="-147.2" font-family="Times,serif" font-size="14.00">ctrl</text>
</g>
<!-- node1 -->
<g id="node10" class="node">
<title>node1</title>
<polygon fill="none" stroke="black" points="188.62,-36 129.12,-36 129.12,0 188.62,0 188.62,-36"/>
<text text-anchor="middle" x="158.88" y="-13.32" font-family="Times,serif" font-size="14.00">node1</text>
</g>
<!-- node12&#45;&gt;node1 -->
<g id="edge11" class="edge">
<title>node12&#45;&gt;node1</title>
<path fill="none" stroke="blue" d="M158.88,-89.01C158.88,-77.18 158.88,-61.2 158.88,-47.5"/>
<polygon fill="blue" stroke="blue" points="162.38,-47.72 158.88,-37.72 155.38,-47.72 162.38,-47.72"/>
<text text-anchor="middle" x="171.25" y="-57.95" font-family="Times,serif" font-size="14.00">ctrl</text>
</g>
<!-- node0 -->
<g id="node9" class="node">
<title>node0</title>
<polygon fill="none" stroke="black" points="221.62,-750 162.12,-750 162.12,-714 221.62,-714 221.62,-750"/>
<text text-anchor="middle" x="191.88" y="-727.33" font-family="Times,serif" font-size="14.00">node0</text>
</g>
<!-- node0&#45;&gt;node2 -->
<g id="edge4" class="edge">
<title>node0&#45;&gt;node2</title>
<path fill="none" stroke="blue" d="M191.88,-713.76C191.88,-701.93 191.88,-685.95 191.88,-672.25"/>
<polygon fill="blue" stroke="blue" points="195.38,-672.47 191.88,-662.47 188.38,-672.47 195.38,-672.47"/>
<text text-anchor="middle" x="204.25" y="-682.7" font-family="Times,serif" font-size="14.00">ctrl</text>
</g>
</g>
</svg>
