<?xml version="1.0" encoding="UTF-8" standalone="no"?>
<!DOCTYPE svg PUBLIC "-//W3C//DTD SVG 1.1//EN"
 "http://www.w3.org/Graphics/SVG/1.1/DTD/svg11.dtd">
<!-- Generated by graphviz version 12.2.0 (0)
 -->
<!-- Title: PDG Pages: 1 -->
<svg width="354pt" height="620pt"
 viewBox="0.00 0.00 353.50 620.00" xmlns="http://www.w3.org/2000/svg" xmlns:xlink="http://www.w3.org/1999/xlink">
<g id="graph0" class="graph" transform="scale(1 1) rotate(0) translate(4 616)">
<title>PDG</title>
<polygon fill="white" stroke="none" points="-4,4 -4,-616 349.5,-616 349.5,4 -4,4"/>
<!-- node0 -->
<g id="node1" class="node">
<title>node0</title>
<polygon fill="none" stroke="black" points="340.12,-612 48.88,-612 48.88,-576 340.12,-576 340.12,-612"/>
<text text-anchor="middle" x="194.5" y="-589.33" font-family="Times,serif" font-size="14.00">ENTRY: unreachableConstructions(int)</text>
</g>
<!-- node2 -->
<g id="node3" class="node">
<title>node2</title>
<polygon fill="none" stroke="black" points="261.75,-540 127.25,-540 127.25,-504 261.75,-504 261.75,-540"/>
<text text-anchor="middle" x="194.5" y="-517.33" font-family="Times,serif" font-size="14.00">3: int result = 1;</text>
</g>
<!-- node0&#45;&gt;node2 -->
<g id="edge4" class="edge">
<title>node0&#45;&gt;node2</title>
<path fill="none" stroke="blue" d="M194.5,-575.7C194.5,-568.41 194.5,-559.73 194.5,-551.54"/>
<polygon fill="blue" stroke="blue" points="198,-551.62 194.5,-541.62 191,-551.62 198,-551.62"/>
</g>
<!-- node1 -->
<g id="node2" class="node">
<title>node1</title>
<polygon fill="none" stroke="black" points="277,-36 0,-36 0,0 277,0 277,-36"/>
<text text-anchor="middle" x="138.5" y="-13.32" font-family="Times,serif" font-size="14.00">EXIT: unreachableConstructions(int)</text>
</g>
<!-- node3 -->
<g id="node4" class="node">
<title>node3</title>
<polygon fill="none" stroke="black" points="243,-468 146,-468 146,-432 243,-432 243,-468"/>
<text text-anchor="middle" x="194.5" y="-445.32" font-family="Times,serif" font-size="14.00">4: int i = 1;</text>
</g>
<!-- node2&#45;&gt;node3 -->
<g id="edge5" class="edge">
<title>node2&#45;&gt;node3</title>
<path fill="none" stroke="blue" d="M194.5,-503.7C194.5,-496.41 194.5,-487.73 194.5,-479.54"/>
<polygon fill="blue" stroke="blue" points="198,-479.62 194.5,-469.62 191,-479.62 198,-479.62"/>
</g>
<!-- node4 -->
<g id="node5" class="node">
<title>node4</title>
<polygon fill="none" stroke="black" points="252.38,-396 136.62,-396 136.62,-360 252.38,-360 252.38,-396"/>
<text text-anchor="middle" x="194.5" y="-373.32" font-family="Times,serif" font-size="14.00">while (i &lt;= n)</text>
</g>
<!-- node3&#45;&gt;node4 -->
<g id="edge6" class="edge">
<title>node3&#45;&gt;node4</title>
<path fill="none" stroke="blue" d="M194.5,-431.7C194.5,-424.41 194.5,-415.73 194.5,-407.54"/>
<polygon fill="blue" stroke="blue" points="198,-407.62 194.5,-397.62 191,-407.62 198,-407.62"/>
</g>
<!-- node5 -->
<g id="node6" class="node">
<title>node5</title>
<polygon fill="none" stroke="black" points="276.38,-324 112.62,-324 112.62,-288 276.38,-288 276.38,-324"/>
<text text-anchor="middle" x="194.5" y="-301.32" font-family="Times,serif" font-size="14.00">6: result = result * i;</text>
</g>
<!-- node4&#45;&gt;node5 -->
<g id="edge3" class="edge">
<title>node4&#45;&gt;node5</title>
<path fill="none" stroke="blue" d="M194.5,-359.7C194.5,-352.41 194.5,-343.73 194.5,-335.54"/>
<polygon fill="blue" stroke="blue" points="198,-335.62 194.5,-325.62 191,-335.62 198,-335.62"/>
</g>
<!-- node12 -->
<g id="node10" class="node">
<title>node12</title>
<polygon fill="none" stroke="black" points="208.38,-108 68.62,-108 68.62,-72 208.38,-72 208.38,-108"/>
<text text-anchor="middle" x="138.5" y="-85.33" font-family="Times,serif" font-size="14.00">16: return result;</text>
</g>
<!-- node4&#45;&gt;node12 -->
<g id="edge7" class="edge">
<title>node4&#45;&gt;node12</title>
<path fill="none" stroke="blue" d="M144.46,-359.6C128.49,-351.41 112.61,-339.85 103.5,-324 65.47,-257.84 101.45,-164.38 123.77,-118.54"/>
<polygon fill="blue" stroke="blue" points="126.79,-120.33 128.15,-109.82 120.53,-117.18 126.79,-120.33"/>
</g>
<!-- node6 -->
<g id="node7" class="node">
<title>node6</title>
<polygon fill="none" stroke="black" points="241.12,-252 147.88,-252 147.88,-216 241.12,-216 241.12,-252"/>
<text text-anchor="middle" x="194.5" y="-229.32" font-family="Times,serif" font-size="14.00">if (i &gt; 100)</text>
</g>
<!-- node5&#45;&gt;node6 -->
<g id="edge8" class="edge">
<title>node5&#45;&gt;node6</title>
<path fill="none" stroke="blue" d="M194.5,-287.7C194.5,-280.41 194.5,-271.73 194.5,-263.54"/>
<polygon fill="blue" stroke="blue" points="198,-263.62 194.5,-253.62 191,-263.62 198,-263.62"/>
</g>
<!-- node7 -->
<g id="node8" class="node">
<title>node7</title>
<polygon fill="none" stroke="black" points="345.5,-180 245.5,-180 245.5,-144 345.5,-144 345.5,-180"/>
<text text-anchor="middle" x="295.5" y="-157.32" font-family="Times,serif" font-size="14.00">8: continue;</text>
</g>
<!-- node6&#45;&gt;node7 -->
<g id="edge1" class="edge">
<title>node6&#45;&gt;node7</title>
<path fill="none" stroke="blue" d="M219.73,-215.52C232.35,-206.76 247.82,-196.04 261.48,-186.58"/>
<polygon fill="blue" stroke="blue" points="263.13,-189.7 269.35,-181.12 259.14,-183.94 263.13,-189.7"/>
</g>
<!-- node9 -->
<g id="node9" class="node">
<title>node9</title>
<polygon fill="none" stroke="black" points="209.5,-180 121.5,-180 121.5,-144 209.5,-144 209.5,-180"/>
<text text-anchor="middle" x="165.5" y="-157.32" font-family="Times,serif" font-size="14.00">11: break;</text>
</g>
<!-- node6&#45;&gt;node9 -->
<g id="edge2" class="edge">
<title>node6&#45;&gt;node9</title>
<path fill="none" stroke="blue" d="M187.33,-215.7C184.21,-208.15 180.46,-199.12 176.97,-190.68"/>
<polygon fill="blue" stroke="blue" points="180.23,-189.4 173.17,-181.5 173.76,-192.08 180.23,-189.4"/>
</g>
<!-- node7&#45;&gt;node4 -->
<g id="edge9" class="edge">
<title>node7&#45;&gt;node4</title>
<path fill="none" stroke="blue" d="M299.32,-180.06C305.33,-211.26 313.58,-278.47 285.5,-324 277.77,-336.52 265.91,-346.41 253.28,-354.08"/>
<polygon fill="blue" stroke="blue" points="251.87,-350.86 244.84,-358.79 255.28,-356.97 251.87,-350.86"/>
</g>
<!-- node9&#45;&gt;node12 -->
<g id="edge10" class="edge">
<title>node9&#45;&gt;node12</title>
<path fill="none" stroke="blue" d="M158.83,-143.7C155.92,-136.15 152.43,-127.12 149.18,-118.68"/>
<polygon fill="blue" stroke="blue" points="152.51,-117.59 145.64,-109.52 145.98,-120.11 152.51,-117.59"/>
</g>
<!-- node12&#45;&gt;node1 -->
<g id="edge11" class="edge">
<title>node12&#45;&gt;node1</title>
<path fill="none" stroke="blue" d="M138.5,-71.7C138.5,-64.41 138.5,-55.73 138.5,-47.54"/>
<polygon fill="blue" stroke="blue" points="142,-47.62 138.5,-37.62 135,-47.62 142,-47.62"/>
</g>
</g>
</svg>
