<?xml version="1.0" encoding="UTF-8" standalone="no"?>
<!DOCTYPE svg PUBLIC "-//W3C//DTD SVG 1.1//EN"
 "http://www.w3.org/Graphics/SVG/1.1/DTD/svg11.dtd">
<!-- Generated by graphviz version 12.2.0 (0)
 -->
<!-- Title: PDG Pages: 1 -->
<svg width="430pt" height="677pt"
 viewBox="0.00 0.00 430.38 676.75" xmlns="http://www.w3.org/2000/svg" xmlns:xlink="http://www.w3.org/1999/xlink">
<g id="graph0" class="graph" transform="scale(1 1) rotate(0) translate(4 672.75)">
<title>PDG</title>
<polygon fill="white" stroke="none" points="-4,4 -4,-672.75 426.38,-672.75 426.38,4 -4,4"/>
<!-- node0 -->
<g id="node1" class="node">
<title>node0</title>
<polygon fill="none" stroke="black" points="358.5,-668.75 67.25,-668.75 67.25,-632.75 358.5,-632.75 358.5,-668.75"/>
<text text-anchor="middle" x="212.88" y="-646.08" font-family="Times,serif" font-size="14.00">ENTRY: unreachableConstructions(int)</text>
</g>
<!-- node2 -->
<g id="node3" class="node">
<title>node2</title>
<polygon fill="none" stroke="black" points="280.12,-595.75 145.62,-595.75 145.62,-559.75 280.12,-559.75 280.12,-595.75"/>
<text text-anchor="middle" x="212.88" y="-573.08" font-family="Times,serif" font-size="14.00">3: int result = 1;</text>
</g>
<!-- node0&#45;&gt;node2 -->
<g id="edge4" class="edge">
<title>node0&#45;&gt;node2</title>
<path fill="none" stroke="blue" d="M212.88,-632.56C212.88,-624.98 212.88,-615.85 212.88,-607.29"/>
<polygon fill="blue" stroke="blue" points="216.38,-607.29 212.88,-597.29 209.38,-607.29 216.38,-607.29"/>
</g>
<!-- node1 -->
<g id="node2" class="node">
<title>node1</title>
<polygon fill="none" stroke="black" points="422.38,-36 145.38,-36 145.38,0 422.38,0 422.38,-36"/>
<text text-anchor="middle" x="283.88" y="-13.32" font-family="Times,serif" font-size="14.00">EXIT: unreachableConstructions(int)</text>
</g>
<!-- node3 -->
<g id="node4" class="node">
<title>node3</title>
<polygon fill="none" stroke="black" points="261.38,-522.75 164.38,-522.75 164.38,-486.75 261.38,-486.75 261.38,-522.75"/>
<text text-anchor="middle" x="212.88" y="-500.07" font-family="Times,serif" font-size="14.00">4: int i = 1;</text>
</g>
<!-- node2&#45;&gt;node3 -->
<g id="edge5" class="edge">
<title>node2&#45;&gt;node3</title>
<path fill="none" stroke="blue" d="M212.88,-559.56C212.88,-551.98 212.88,-542.85 212.88,-534.29"/>
<polygon fill="blue" stroke="blue" points="216.38,-534.29 212.88,-524.29 209.38,-534.29 216.38,-534.29"/>
</g>
<!-- node5 -->
<g id="node6" class="node">
<title>node5</title>
<polygon fill="none" stroke="black" points="163.75,-344.25 0,-344.25 0,-308.25 163.75,-308.25 163.75,-344.25"/>
<text text-anchor="middle" x="81.88" y="-321.57" font-family="Times,serif" font-size="14.00">6: result = result * i;</text>
</g>
<!-- node2&#45;&gt;node5 -->
<g id="edge12" class="edge">
<title>node2&#45;&gt;node5</title>
<path fill="none" stroke="red" stroke-dasharray="5,2" d="M192.6,-559.46C181.23,-549.31 167.11,-535.92 155.88,-522.75 136.99,-500.62 130.96,-495.22 118.88,-468.75 101.82,-431.39 91.55,-384.77 86.3,-355.49"/>
<polygon fill="red" stroke="red" points="89.8,-355.2 84.66,-345.94 82.9,-356.39 89.8,-355.2"/>
<text text-anchor="middle" x="139.88" y="-455.45" font-family="Times,serif" font-size="14.00">result</text>
</g>
<!-- node12 -->
<g id="node10" class="node">
<title>node12</title>
<polygon fill="none" stroke="black" points="353.75,-109 214,-109 214,-73 353.75,-73 353.75,-109"/>
<text text-anchor="middle" x="283.88" y="-86.33" font-family="Times,serif" font-size="14.00">16: return result;</text>
</g>
<!-- node2&#45;&gt;node12 -->
<g id="edge13" class="edge">
<title>node2&#45;&gt;node12</title>
<path fill="none" stroke="red" stroke-dasharray="5,2" d="M280.46,-573.59C326.03,-567.39 377.88,-550.5 377.88,-505.75 377.88,-505.75 377.88,-505.75 377.88,-163 377.88,-141.85 362.54,-126.2 344.25,-115.06"/>
<polygon fill="red" stroke="red" points="345.95,-112 335.5,-110.22 342.56,-118.12 345.95,-112"/>
<text text-anchor="middle" x="398.88" y="-321.57" font-family="Times,serif" font-size="14.00">result</text>
</g>
<!-- node4 -->
<g id="node5" class="node">
<title>node4</title>
<polygon fill="none" stroke="black" points="335.75,-433.5 220,-433.5 220,-397.5 335.75,-397.5 335.75,-433.5"/>
<text text-anchor="middle" x="277.88" y="-410.82" font-family="Times,serif" font-size="14.00">while (i &lt;= n)</text>
</g>
<!-- node3&#45;&gt;node4 -->
<g id="edge6" class="edge">
<title>node3&#45;&gt;node4</title>
<path fill="none" stroke="blue" d="M228.55,-486.28C233.3,-480.78 238.42,-474.61 242.88,-468.75 248.98,-460.71 255.24,-451.67 260.74,-443.39"/>
<polygon fill="blue" stroke="blue" points="263.64,-445.35 266.19,-435.06 257.79,-441.51 263.64,-445.35"/>
</g>
<!-- node3&#45;&gt;node4 -->
<g id="edge15" class="edge">
<title>node3&#45;&gt;node4</title>
<path fill="none" stroke="red" stroke-dasharray="5,2" d="M219.78,-486.37C224.45,-475.74 231.24,-462.18 239.38,-451.5 241.93,-448.14 244.84,-444.84 247.89,-441.69"/>
<polygon fill="red" stroke="red" points="250.25,-444.27 255.03,-434.82 245.4,-439.23 250.25,-444.27"/>
<text text-anchor="middle" x="241.62" y="-455.45" font-family="Times,serif" font-size="14.00">i</text>
</g>
<!-- node3&#45;&gt;node5 -->
<g id="edge16" class="edge">
<title>node3&#45;&gt;node5</title>
<path fill="none" stroke="red" stroke-dasharray="5,2" d="M194.39,-486.56C188.85,-481.08 182.91,-474.84 177.88,-468.75 146.74,-431.09 115.96,-383.36 97.95,-354.08"/>
<polygon fill="red" stroke="red" points="101.11,-352.55 92.91,-345.83 95.13,-356.19 101.11,-352.55"/>
<text text-anchor="middle" x="151.55" y="-410.82" font-family="Times,serif" font-size="14.00">i</text>
</g>
<!-- node6 -->
<g id="node7" class="node">
<title>node6</title>
<polygon fill="none" stroke="black" points="228.5,-271.25 135.25,-271.25 135.25,-235.25 228.5,-235.25 228.5,-271.25"/>
<text text-anchor="middle" x="181.88" y="-248.57" font-family="Times,serif" font-size="14.00">if (i &gt; 100)</text>
</g>
<!-- node3&#45;&gt;node6 -->
<g id="edge17" class="edge">
<title>node3&#45;&gt;node6</title>
<path fill="none" stroke="red" stroke-dasharray="5,2" d="M210.74,-486.6C205.5,-444.4 191.93,-335.18 185.44,-282.92"/>
<polygon fill="red" stroke="red" points="188.91,-282.51 184.21,-273.02 181.97,-283.38 188.91,-282.51"/>
<text text-anchor="middle" x="199.62" y="-366.2" font-family="Times,serif" font-size="14.00">i</text>
</g>
<!-- node4&#45;&gt;node5 -->
<g id="edge3" class="edge">
<title>node4&#45;&gt;node5</title>
<path fill="none" stroke="blue" d="M256.08,-397C241.23,-385.79 220.74,-371.63 200.88,-362.25 189.58,-356.92 177.29,-352.2 165.04,-348.1"/>
<polygon fill="blue" stroke="blue" points="166.35,-344.85 155.76,-345.12 164.21,-351.51 166.35,-344.85"/>
</g>
<!-- node4&#45;&gt;node12 -->
<g id="edge7" class="edge">
<title>node4&#45;&gt;node12</title>
<path fill="none" stroke="blue" d="M296.76,-397.05C312.33,-380.68 331.88,-354.68 331.88,-327.25 331.88,-327.25 331.88,-327.25 331.88,-163 331.88,-146.12 322.45,-130.25 311.95,-117.82"/>
<polygon fill="blue" stroke="blue" points="314.59,-115.53 305.25,-110.53 309.43,-120.26 314.59,-115.53"/>
</g>
<!-- node5&#45;&gt;node6 -->
<g id="edge8" class="edge">
<title>node5&#45;&gt;node6</title>
<path fill="none" stroke="blue" d="M106.34,-307.88C118.93,-298.94 134.47,-287.91 148.18,-278.17"/>
<polygon fill="blue" stroke="blue" points="149.96,-281.2 156.08,-272.56 145.9,-275.5 149.96,-281.2"/>
</g>
<!-- node5&#45;&gt;node12 -->
<g id="edge14" class="edge">
<title>node5&#45;&gt;node12</title>
<path fill="none" stroke="red" stroke-dasharray="5,2" d="M76.53,-307.95C66.93,-273.1 51.07,-193.73 88.88,-146 103.41,-127.64 155.69,-113.76 202.46,-104.67"/>
<polygon fill="red" stroke="red" points="202.91,-108.15 212.09,-102.86 201.62,-101.27 202.91,-108.15"/>
<text text-anchor="middle" x="87.9" y="-203.95" font-family="Times,serif" font-size="14.00">result</text>
</g>
<!-- node7 -->
<g id="node8" class="node">
<title>node7</title>
<polygon fill="none" stroke="black" points="303.88,-182 203.88,-182 203.88,-146 303.88,-146 303.88,-182"/>
<text text-anchor="middle" x="253.88" y="-159.32" font-family="Times,serif" font-size="14.00">8: continue;</text>
</g>
<!-- node6&#45;&gt;node7 -->
<g id="edge1" class="edge">
<title>node6&#45;&gt;node7</title>
<path fill="none" stroke="blue" d="M196.1,-235.01C206.45,-222.46 220.66,-205.25 232.39,-191.03"/>
<polygon fill="blue" stroke="blue" points="235.05,-193.31 238.72,-183.37 229.65,-188.85 235.05,-193.31"/>
</g>
<!-- node9 -->
<g id="node9" class="node">
<title>node9</title>
<polygon fill="none" stroke="black" points="185.88,-182 97.88,-182 97.88,-146 185.88,-146 185.88,-182"/>
<text text-anchor="middle" x="141.88" y="-159.32" font-family="Times,serif" font-size="14.00">11: break;</text>
</g>
<!-- node6&#45;&gt;node9 -->
<g id="edge2" class="edge">
<title>node6&#45;&gt;node9</title>
<path fill="none" stroke="blue" d="M173.97,-235.01C168.38,-222.82 160.78,-206.23 154.37,-192.26"/>
<polygon fill="blue" stroke="blue" points="157.74,-191.21 150.39,-183.58 151.38,-194.13 157.74,-191.21"/>
</g>
<!-- node7&#45;&gt;node4 -->
<g id="edge9" class="edge">
<title>node7&#45;&gt;node4</title>
<path fill="none" stroke="blue" d="M255.54,-182.27C259.61,-224.59 270.11,-333.83 275.13,-385.97"/>
<polygon fill="blue" stroke="blue" points="271.64,-386.23 276.08,-395.84 278.61,-385.56 271.64,-386.23"/>
</g>
<!-- node9&#45;&gt;node12 -->
<g id="edge10" class="edge">
<title>node9&#45;&gt;node12</title>
<path fill="none" stroke="blue" d="M176.61,-145.63C195.35,-136.26 218.7,-124.59 238.82,-114.53"/>
<polygon fill="blue" stroke="blue" points="240.27,-117.71 247.65,-110.11 237.14,-111.45 240.27,-117.71"/>
</g>
<!-- node12&#45;&gt;node1 -->
<g id="edge11" class="edge">
<title>node12&#45;&gt;node1</title>
<path fill="none" stroke="blue" d="M283.88,-72.81C283.88,-65.23 283.88,-56.1 283.88,-47.54"/>
<polygon fill="blue" stroke="blue" points="287.38,-47.54 283.88,-37.54 280.38,-47.54 287.38,-47.54"/>
</g>
</g>
</svg>
