<?xml version="1.0" encoding="UTF-8" standalone="no"?>
<!DOCTYPE svg PUBLIC "-//W3C//DTD SVG 1.1//EN"
 "http://www.w3.org/Graphics/SVG/1.1/DTD/svg11.dtd">
<!-- Generated by graphviz version 12.2.0 (0)
 -->
<!-- Title: PDG Pages: 1 -->
<svg width="478pt" height="490pt"
 viewBox="0.00 0.00 477.60 490.25" xmlns="http://www.w3.org/2000/svg" xmlns:xlink="http://www.w3.org/1999/xlink">
<g id="graph0" class="graph" transform="scale(1 1) rotate(0) translate(4 486.25)">
<title>PDG</title>
<polygon fill="white" stroke="none" points="-4,4 -4,-486.25 473.6,-486.25 473.6,4 -4,4"/>
<!-- node0 -->
<g id="node1" class="node">
<title>node0</title>
<polygon fill="none" stroke="black" points="390.38,-482.25 151.62,-482.25 151.62,-446.25 390.38,-446.25 390.38,-482.25"/>
<text text-anchor="middle" x="271" y="-459.57" font-family="Times,serif" font-size="14.00">ENTRY: whileLoopExample(int)</text>
</g>
<!-- node1 -->
<g id="node2" class="node">
<title>node1</title>
<polygon fill="none" stroke="black" points="396,-214.5 284,-214.5 284,-178.5 396,-178.5 396,-214.5"/>
<text text-anchor="middle" x="340" y="-191.82" font-family="Times,serif" font-size="14.00">int result = 1</text>
</g>
<!-- node0&#45;&gt;node1 -->
<g id="edge1" class="edge">
<title>node0&#45;&gt;node1</title>
<path fill="none" stroke="blue" d="M277.66,-445.87C279.76,-440.27 282.03,-434.02 284,-428.25 289.3,-412.72 290.71,-408.84 295,-393 310.93,-334.15 326.12,-264.37 334.13,-226.13"/>
<polygon fill="blue" stroke="blue" points="337.55,-226.86 336.16,-216.35 330.7,-225.43 337.55,-226.86"/>
<text text-anchor="middle" x="324.97" y="-325.7" font-family="Times,serif" font-size="14.00">ctrl</text>
</g>
<!-- node2 -->
<g id="node3" class="node">
<title>node2</title>
<polygon fill="none" stroke="black" points="235.25,-393 160.75,-393 160.75,-357 235.25,-357 235.25,-393"/>
<text text-anchor="middle" x="198" y="-370.32" font-family="Times,serif" font-size="14.00">int i = 1</text>
</g>
<!-- node0&#45;&gt;node2 -->
<g id="edge2" class="edge">
<title>node0&#45;&gt;node2</title>
<path fill="none" stroke="blue" d="M256.58,-446.01C245.98,-433.35 231.4,-415.92 219.44,-401.63"/>
<polygon fill="blue" stroke="blue" points="222.47,-399.79 213.36,-394.36 217.1,-404.28 222.47,-399.79"/>
<text text-anchor="middle" x="253.41" y="-414.95" font-family="Times,serif" font-size="14.00">ctrl</text>
</g>
<!-- node3 -->
<g id="node4" class="node">
<title>node3</title>
<polygon fill="none" stroke="black" points="227.88,-303.75 112.12,-303.75 112.12,-267.75 227.88,-267.75 227.88,-303.75"/>
<text text-anchor="middle" x="170" y="-281.07" font-family="Times,serif" font-size="14.00">while (i &lt;= n)</text>
</g>
<!-- node0&#45;&gt;node3 -->
<g id="edge3" class="edge">
<title>node0&#45;&gt;node3</title>
<path fill="none" stroke="blue" d="M271.46,-445.78C271.28,-416.62 266.8,-357.68 236,-321.75 232.44,-317.6 228.26,-313.87 223.77,-310.53"/>
<polygon fill="blue" stroke="blue" points="225.73,-307.63 215.46,-305.05 221.88,-313.47 225.73,-307.63"/>
<text text-anchor="middle" x="278.91" y="-370.32" font-family="Times,serif" font-size="14.00">ctrl</text>
</g>
<!-- node6 -->
<g id="node7" class="node">
<title>node6</title>
<polygon fill="none" stroke="black" points="251.12,-36 142.88,-36 142.88,0 251.12,0 251.12,-36"/>
<text text-anchor="middle" x="197" y="-13.32" font-family="Times,serif" font-size="14.00">return result</text>
</g>
<!-- node0&#45;&gt;node6 -->
<g id="edge6" class="edge">
<title>node0&#45;&gt;node6</title>
<path fill="none" stroke="blue" d="M151.35,-446.46C78.75,-432.79 0,-410.1 0,-376 0,-376 0,-376 0,-106.25 0,-47.6 73.9,-28.06 131.18,-21.73"/>
<polygon fill="blue" stroke="blue" points="131.27,-25.24 140.88,-20.78 130.59,-18.27 131.27,-25.24"/>
<text text-anchor="middle" x="12.38" y="-236.45" font-family="Times,serif" font-size="14.00">ctrl</text>
</g>
<!-- node4 -->
<g id="node5" class="node">
<title>node4</title>
<polygon fill="none" stroke="black" points="267.62,-125.25 126.38,-125.25 126.38,-89.25 267.62,-89.25 267.62,-125.25"/>
<text text-anchor="middle" x="197" y="-102.58" font-family="Times,serif" font-size="14.00">result = result * i</text>
</g>
<!-- node1&#45;&gt;node4 -->
<g id="edge9" class="edge">
<title>node1&#45;&gt;node4</title>
<path fill="none" stroke="red" stroke-dasharray="5,2" d="M319,-178.14C305.48,-167.39 287.26,-153.69 270,-143.25 262.73,-138.85 254.81,-134.57 246.97,-130.61"/>
<polygon fill="red" stroke="red" points="248.64,-127.53 238.12,-126.26 245.55,-133.81 248.64,-127.53"/>
<text text-anchor="middle" x="335.22" y="-147.2" font-family="Times,serif" font-size="14.00">data: result</text>
</g>
<!-- node1&#45;&gt;node6 -->
<g id="edge15" class="edge">
<title>node1&#45;&gt;node6</title>
<path fill="none" stroke="red" stroke-dasharray="5,2" d="M366.4,-178.15C371.9,-173.16 376.95,-167.22 380,-160.5 386.58,-146 393.2,-111.61 377,-89.25 350.61,-52.83 302.48,-35.29 262.63,-26.84"/>
<polygon fill="red" stroke="red" points="263.34,-23.41 252.86,-24.93 262,-30.29 263.34,-23.41"/>
<text text-anchor="middle" x="428.35" y="-102.58" font-family="Times,serif" font-size="14.00">data: result</text>
</g>
<!-- node2&#45;&gt;node3 -->
<g id="edge7" class="edge">
<title>node2&#45;&gt;node3</title>
<path fill="none" stroke="red" stroke-dasharray="5,2" d="M192.47,-356.76C188.63,-344.81 183.44,-328.63 179.01,-314.83"/>
<polygon fill="red" stroke="red" points="182.37,-313.85 175.98,-305.39 175.71,-315.98 182.37,-313.85"/>
<text text-anchor="middle" x="209.01" y="-325.7" font-family="Times,serif" font-size="14.00">data: i</text>
</g>
<!-- node2&#45;&gt;node4 -->
<g id="edge11" class="edge">
<title>node2&#45;&gt;node4</title>
<path fill="none" stroke="red" stroke-dasharray="5,2" d="M222.58,-356.75C227.96,-351.69 232.95,-345.69 236,-339 242.5,-324.74 236.78,-319.42 237,-303.75 237.79,-247.79 237.79,-232.74 224,-178.5 219.89,-162.32 216.99,-158.84 211,-143.25 210.14,-141.01 209.24,-138.69 208.32,-136.36"/>
<polygon fill="red" stroke="red" points="211.57,-135.07 204.63,-127.07 205.07,-137.65 211.57,-135.07"/>
<text text-anchor="middle" x="259.15" y="-236.45" font-family="Times,serif" font-size="14.00">data: i</text>
</g>
<!-- node5 -->
<g id="node6" class="node">
<title>node5</title>
<polygon fill="none" stroke="black" points="104,-214.5 28,-214.5 28,-178.5 104,-178.5 104,-214.5"/>
<text text-anchor="middle" x="66" y="-191.82" font-family="Times,serif" font-size="14.00">i = i + 1</text>
</g>
<!-- node2&#45;&gt;node5 -->
<g id="edge13" class="edge">
<title>node2&#45;&gt;node5</title>
<path fill="none" stroke="red" stroke-dasharray="5,2" d="M160.48,-366.66C127.09,-357.92 80.21,-339.74 58,-303.75 43.54,-280.32 48.6,-248.21 55.37,-225.44"/>
<polygon fill="red" stroke="red" points="58.6,-226.82 58.39,-216.23 51.95,-224.64 58.6,-226.82"/>
<text text-anchor="middle" x="80.5" y="-281.07" font-family="Times,serif" font-size="14.00">data: i</text>
</g>
<!-- node3&#45;&gt;node4 -->
<g id="edge4" class="edge">
<title>node3&#45;&gt;node4</title>
<path fill="none" stroke="blue" d="M178.77,-267.33C181.17,-261.83 183.53,-255.65 185,-249.75 194.57,-211.45 196.86,-165.7 197.24,-136.81"/>
<polygon fill="blue" stroke="blue" points="200.74,-137.06 197.29,-127.04 193.74,-137.02 200.74,-137.06"/>
<text text-anchor="middle" x="207.78" y="-191.82" font-family="Times,serif" font-size="14.00">ctrl</text>
</g>
<!-- node3&#45;&gt;node5 -->
<g id="edge5" class="edge">
<title>node3&#45;&gt;node5</title>
<path fill="none" stroke="blue" d="M119.11,-267.34C109.8,-262.62 100.69,-256.8 93.25,-249.75 86.15,-243.02 80.55,-234.02 76.33,-225.4"/>
<polygon fill="blue" stroke="blue" points="79.53,-224 72.3,-216.25 73.13,-226.82 79.53,-224"/>
<text text-anchor="middle" x="105.62" y="-236.45" font-family="Times,serif" font-size="14.00">ctrl</text>
</g>
<!-- node4&#45;&gt;node4 -->
<g id="edge10" class="edge">
<title>node4&#45;&gt;node4</title>
<path fill="none" stroke="red" stroke-dasharray="5,2" d="M267.93,-114.84C278.48,-113.66 285.62,-111.13 285.62,-107.25 285.62,-105.01 283.24,-103.22 279.18,-101.88"/>
<polygon fill="red" stroke="red" points="279.9,-98.45 269.41,-99.95 278.55,-105.32 279.9,-98.45"/>
<text text-anchor="middle" x="326.88" y="-102.58" font-family="Times,serif" font-size="14.00">data: result</text>
</g>
<!-- node4&#45;&gt;node6 -->
<g id="edge16" class="edge">
<title>node4&#45;&gt;node6</title>
<path fill="none" stroke="red" stroke-dasharray="5,2" d="M197,-89.01C197,-77.18 197,-61.2 197,-47.5"/>
<polygon fill="red" stroke="red" points="200.5,-47.72 197,-37.72 193.5,-47.72 200.5,-47.72"/>
<text text-anchor="middle" x="238.25" y="-57.95" font-family="Times,serif" font-size="14.00">data: result</text>
</g>
<!-- node5&#45;&gt;node3 -->
<g id="edge8" class="edge">
<title>node5&#45;&gt;node3</title>
<path fill="none" stroke="red" stroke-dasharray="5,2" d="M93.98,-214.88C101.97,-220.23 110.53,-226.33 118,-232.5 127.87,-240.65 137.97,-250.41 146.61,-259.27"/>
<polygon fill="red" stroke="red" points="143.9,-261.51 153.34,-266.32 148.97,-256.68 143.9,-261.51"/>
<text text-anchor="middle" x="158.56" y="-236.45" font-family="Times,serif" font-size="14.00">data: i</text>
</g>
<!-- node5&#45;&gt;node4 -->
<g id="edge12" class="edge">
<title>node5&#45;&gt;node4</title>
<path fill="none" stroke="red" stroke-dasharray="5,2" d="M91.97,-178.04C107.13,-167.87 126.63,-154.8 144,-143.25 149.53,-139.57 155.39,-135.69 161.12,-131.9"/>
<polygon fill="red" stroke="red" points="162.88,-134.93 169.3,-126.5 159.02,-129.09 162.88,-134.93"/>
<text text-anchor="middle" x="166.5" y="-147.2" font-family="Times,serif" font-size="14.00">data: i</text>
</g>
<!-- node5&#45;&gt;node5 -->
<g id="edge14" class="edge">
<title>node5&#45;&gt;node5</title>
<path fill="none" stroke="red" stroke-dasharray="5,2" d="M104.48,-204.78C114.47,-204.27 122,-201.51 122,-196.5 122,-193.68 119.62,-191.57 115.75,-190.18"/>
<polygon fill="red" stroke="red" points="116.42,-186.74 105.97,-188.48 115.22,-193.64 116.42,-186.74"/>
<text text-anchor="middle" x="144.5" y="-191.82" font-family="Times,serif" font-size="14.00">data: i</text>
</g>
</g>
</svg>
