<?xml version="1.0" encoding="UTF-8" standalone="no"?>
<!DOCTYPE svg PUBLIC "-//W3C//DTD SVG 1.1//EN"
 "http://www.w3.org/Graphics/SVG/1.1/DTD/svg11.dtd">
<!-- Generated by graphviz version 12.2.0 (0)
 -->
<!-- Title: PDG Pages: 1 -->
<svg width="390pt" height="531pt"
 viewBox="0.00 0.00 389.50 530.75" xmlns="http://www.w3.org/2000/svg" xmlns:xlink="http://www.w3.org/1999/xlink">
<g id="graph0" class="graph" transform="scale(1 1) rotate(0) translate(4 526.75)">
<title>PDG</title>
<polygon fill="white" stroke="none" points="-4,4 -4,-526.75 385.5,-526.75 385.5,4 -4,4"/>
<!-- node0 -->
<g id="node1" class="node">
<title>node0</title>
<polygon fill="none" stroke="black" points="369.62,-522.75 130.88,-522.75 130.88,-486.75 369.62,-486.75 369.62,-522.75"/>
<text text-anchor="middle" x="250.25" y="-500.07" font-family="Times,serif" font-size="14.00">ENTRY: whileLoopExample(int)</text>
</g>
<!-- node2 -->
<g id="node3" class="node">
<title>node2</title>
<polygon fill="none" stroke="black" points="317.5,-449.75 183,-449.75 183,-413.75 317.5,-413.75 317.5,-449.75"/>
<text text-anchor="middle" x="250.25" y="-427.07" font-family="Times,serif" font-size="14.00">3: int result = 1;</text>
</g>
<!-- node0&#45;&gt;node2 -->
<g id="edge2" class="edge">
<title>node0&#45;&gt;node2</title>
<path fill="none" stroke="blue" d="M250.25,-486.56C250.25,-478.98 250.25,-469.85 250.25,-461.29"/>
<polygon fill="blue" stroke="blue" points="253.75,-461.29 250.25,-451.29 246.75,-461.29 253.75,-461.29"/>
</g>
<!-- node1 -->
<g id="node2" class="node">
<title>node1</title>
<polygon fill="none" stroke="black" points="381.5,-36 157,-36 157,0 381.5,0 381.5,-36"/>
<text text-anchor="middle" x="269.25" y="-13.32" font-family="Times,serif" font-size="14.00">EXIT: whileLoopExample(int)</text>
</g>
<!-- node3 -->
<g id="node4" class="node">
<title>node3</title>
<polygon fill="none" stroke="black" points="204.75,-376.75 107.75,-376.75 107.75,-340.75 204.75,-340.75 204.75,-376.75"/>
<text text-anchor="middle" x="156.25" y="-354.07" font-family="Times,serif" font-size="14.00">4: int i = 1;</text>
</g>
<!-- node2&#45;&gt;node3 -->
<g id="edge3" class="edge">
<title>node2&#45;&gt;node3</title>
<path fill="none" stroke="blue" d="M227.5,-413.56C215.69,-404.65 201.07,-393.61 188.16,-383.85"/>
<polygon fill="blue" stroke="blue" points="190.42,-381.17 180.33,-377.94 186.2,-386.76 190.42,-381.17"/>
</g>
<!-- node5 -->
<g id="node6" class="node">
<title>node5</title>
<polygon fill="none" stroke="black" points="241.12,-198.25 77.38,-198.25 77.38,-162.25 241.12,-162.25 241.12,-198.25"/>
<text text-anchor="middle" x="159.25" y="-175.57" font-family="Times,serif" font-size="14.00">6: result = result * i;</text>
</g>
<!-- node2&#45;&gt;node5 -->
<g id="edge9" class="edge">
<title>node2&#45;&gt;node5</title>
<path fill="none" stroke="red" stroke-dasharray="5,2" d="M248.99,-413.43C245.57,-375.34 233.61,-282.44 195.25,-216.25 193.37,-213.01 191.11,-209.87 188.64,-206.88"/>
<polygon fill="red" stroke="red" points="191.22,-204.52 181.85,-199.58 186.1,-209.29 191.22,-204.52"/>
<text text-anchor="middle" x="255.46" y="-309.45" font-family="Times,serif" font-size="14.00">result</text>
</g>
<!-- node7 -->
<g id="node8" class="node">
<title>node7</title>
<polygon fill="none" stroke="black" points="334.62,-109 203.88,-109 203.88,-73 334.62,-73 334.62,-109"/>
<text text-anchor="middle" x="269.25" y="-86.33" font-family="Times,serif" font-size="14.00">9: return result;</text>
</g>
<!-- node2&#45;&gt;node7 -->
<g id="edge10" class="edge">
<title>node2&#45;&gt;node7</title>
<path fill="none" stroke="red" stroke-dasharray="5,2" d="M275.42,-413.31C290.69,-400.49 307.25,-381.56 307.25,-359.75 307.25,-359.75 307.25,-359.75 307.25,-179.25 307.25,-157.77 297.45,-135.6 287.8,-118.99"/>
<polygon fill="red" stroke="red" points="290.92,-117.38 282.7,-110.7 284.96,-121.05 290.92,-117.38"/>
<text text-anchor="middle" x="328.25" y="-264.82" font-family="Times,serif" font-size="14.00">result</text>
</g>
<!-- node4 -->
<g id="node5" class="node">
<title>node4</title>
<polygon fill="none" stroke="black" points="181.12,-287.5 65.38,-287.5 65.38,-251.5 181.12,-251.5 181.12,-287.5"/>
<text text-anchor="middle" x="123.25" y="-264.82" font-family="Times,serif" font-size="14.00">while (i &lt;= n)</text>
</g>
<!-- node3&#45;&gt;node4 -->
<g id="edge4" class="edge">
<title>node3&#45;&gt;node4</title>
<path fill="none" stroke="blue" d="M145.75,-340.34C142.72,-334.84 139.61,-328.66 137.25,-322.75 134.21,-315.13 131.62,-306.63 129.52,-298.73"/>
<polygon fill="blue" stroke="blue" points="132.97,-298.11 127.16,-289.24 126.17,-299.79 132.97,-298.11"/>
</g>
<!-- node3&#45;&gt;node4 -->
<g id="edge12" class="edge">
<title>node3&#45;&gt;node4</title>
<path fill="none" stroke="red" stroke-dasharray="5,2" d="M149.73,-340.51C145.17,-328.44 138.97,-312.06 133.72,-298.17"/>
<polygon fill="red" stroke="red" points="137.1,-297.23 130.29,-289.12 130.56,-299.71 137.1,-297.23"/>
<text text-anchor="middle" x="144.96" y="-309.45" font-family="Times,serif" font-size="14.00">i</text>
</g>
<!-- node3&#45;&gt;node5 -->
<g id="edge13" class="edge">
<title>node3&#45;&gt;node5</title>
<path fill="none" stroke="red" stroke-dasharray="5,2" d="M167.41,-340.38C175.53,-326.64 185.86,-306.65 190.25,-287.5 193.83,-271.9 193.55,-267.16 190.25,-251.5 187.11,-236.62 180.62,-221.06 174.38,-208.37"/>
<polygon fill="red" stroke="red" points="177.66,-207.1 169.97,-199.81 171.44,-210.3 177.66,-207.1"/>
<text text-anchor="middle" x="195.08" y="-264.82" font-family="Times,serif" font-size="14.00">i</text>
</g>
<!-- node6 -->
<g id="node7" class="node">
<title>node6</title>
<polygon fill="none" stroke="black" points="98.5,-109 0,-109 0,-73 98.5,-73 98.5,-109"/>
<text text-anchor="middle" x="49.25" y="-86.33" font-family="Times,serif" font-size="14.00">7: i = i + 1;</text>
</g>
<!-- node3&#45;&gt;node6 -->
<g id="edge14" class="edge">
<title>node3&#45;&gt;node6</title>
<path fill="none" stroke="red" stroke-dasharray="5,2" d="M118.88,-340.5C97.28,-328.62 71.45,-310.77 56.25,-287.5 16.99,-227.41 27.36,-197.95 38.25,-127 38.59,-124.78 39.05,-122.51 39.58,-120.24"/>
<polygon fill="red" stroke="red" points="42.94,-121.23 42.29,-110.66 36.2,-119.33 42.94,-121.23"/>
<text text-anchor="middle" x="33.53" y="-220.2" font-family="Times,serif" font-size="14.00">i</text>
</g>
<!-- node4&#45;&gt;node5 -->
<g id="edge1" class="edge">
<title>node4&#45;&gt;node5</title>
<path fill="none" stroke="blue" d="M130.36,-251.26C135.34,-239.19 142.1,-222.81 147.83,-208.92"/>
<polygon fill="blue" stroke="blue" points="151,-210.43 151.58,-199.85 144.53,-207.76 151,-210.43"/>
</g>
<!-- node4&#45;&gt;node7 -->
<g id="edge5" class="edge">
<title>node4&#45;&gt;node7</title>
<path fill="none" stroke="blue" d="M177.47,-251.04C203.4,-239.95 232.58,-222.94 250.25,-198.25 266.43,-175.65 270.24,-143.56 270.58,-120.58"/>
<polygon fill="blue" stroke="blue" points="274.08,-120.65 270.49,-110.68 267.08,-120.71 274.08,-120.65"/>
</g>
<!-- node5&#45;&gt;node6 -->
<g id="edge6" class="edge">
<title>node5&#45;&gt;node6</title>
<path fill="none" stroke="blue" d="M143.44,-161.75C133.35,-151.08 119.68,-137.52 106.25,-127 101.15,-123.01 95.58,-119.1 89.97,-115.42"/>
<polygon fill="blue" stroke="blue" points="92.18,-112.68 81.86,-110.28 88.43,-118.59 92.18,-112.68"/>
</g>
<!-- node5&#45;&gt;node7 -->
<g id="edge11" class="edge">
<title>node5&#45;&gt;node7</title>
<path fill="none" stroke="red" stroke-dasharray="5,2" d="M175.44,-161.82C185.75,-151.17 199.69,-137.61 213.25,-127 218.34,-123.02 223.91,-119.09 229.49,-115.39"/>
<polygon fill="red" stroke="red" points="231.02,-118.57 237.55,-110.22 227.24,-112.68 231.02,-118.57"/>
<text text-anchor="middle" x="234.25" y="-130.95" font-family="Times,serif" font-size="14.00">result</text>
</g>
<!-- node6&#45;&gt;node4 -->
<g id="edge7" class="edge">
<title>node6&#45;&gt;node4</title>
<path fill="none" stroke="blue" d="M49.79,-109.31C51.04,-130.98 55.09,-168.83 68.25,-198.25 75.48,-214.41 87.21,-230.14 97.99,-242.6"/>
<polygon fill="blue" stroke="blue" points="95.29,-244.83 104.57,-249.93 100.49,-240.16 95.29,-244.83"/>
</g>
<!-- node6&#45;&gt;node4 -->
<g id="edge15" class="edge">
<title>node6&#45;&gt;node4</title>
<path fill="none" stroke="red" stroke-dasharray="5,2" d="M45.77,-109.48C42.24,-131.01 38.62,-168.38 48.75,-198.25 55.09,-216.93 69.93,-232.62 84.71,-244.39"/>
<polygon fill="red" stroke="red" points="82.51,-247.12 92.62,-250.31 86.71,-241.52 82.51,-247.12"/>
<text text-anchor="middle" x="51" y="-175.57" font-family="Times,serif" font-size="14.00">i</text>
</g>
<!-- node6&#45;&gt;node5 -->
<g id="edge16" class="edge">
<title>node6&#45;&gt;node5</title>
<path fill="none" stroke="red" stroke-dasharray="5,2" d="M65.25,-109.47C75.45,-120.13 89.25,-133.69 102.75,-144.25 107.87,-148.26 113.48,-152.2 119.11,-155.91"/>
<polygon fill="red" stroke="red" points="116.93,-158.67 127.24,-161.09 120.69,-152.76 116.93,-158.67"/>
<text text-anchor="middle" x="105" y="-130.95" font-family="Times,serif" font-size="14.00">i</text>
</g>
<!-- node7&#45;&gt;node1 -->
<g id="edge8" class="edge">
<title>node7&#45;&gt;node1</title>
<path fill="none" stroke="blue" d="M269.25,-72.81C269.25,-65.23 269.25,-56.1 269.25,-47.54"/>
<polygon fill="blue" stroke="blue" points="272.75,-47.54 269.25,-37.54 265.75,-47.54 272.75,-47.54"/>
</g>
</g>
</svg>
