<?xml version="1.0" encoding="UTF-8" standalone="no"?>
<!DOCTYPE svg PUBLIC "-//W3C//DTD SVG 1.1//EN"
 "http://www.w3.org/Graphics/SVG/1.1/DTD/svg11.dtd">
<!-- Generated by graphviz version 12.2.0 (0)
 -->
<!-- Title: PDG Pages: 1 -->
<svg width="381pt" height="490pt"
 viewBox="0.00 0.00 381.25 490.25" xmlns="http://www.w3.org/2000/svg" xmlns:xlink="http://www.w3.org/1999/xlink">
<g id="graph0" class="graph" transform="scale(1 1) rotate(0) translate(4 486.25)">
<title>PDG</title>
<polygon fill="white" stroke="none" points="-4,4 -4,-486.25 377.25,-486.25 377.25,4 -4,4"/>
<!-- node2 -->
<g id="node1" class="node">
<title>node2</title>
<polygon fill="none" stroke="black" points="267.12,-393 132.62,-393 132.62,-357 267.12,-357 267.12,-393"/>
<text text-anchor="middle" x="199.88" y="-370.32" font-family="Times,serif" font-size="14.00">3: int result = 1;</text>
</g>
<!-- node3 -->
<g id="node2" class="node">
<title>node3</title>
<polygon fill="none" stroke="black" points="248.38,-303.75 151.38,-303.75 151.38,-267.75 248.38,-267.75 248.38,-303.75"/>
<text text-anchor="middle" x="199.88" y="-281.07" font-family="Times,serif" font-size="14.00">4: int i = 1;</text>
</g>
<!-- node2&#45;&gt;node3 -->
<g id="edge3" class="edge">
<title>node2&#45;&gt;node3</title>
<path fill="none" stroke="blue" d="M199.88,-356.76C199.88,-344.93 199.88,-328.95 199.88,-315.25"/>
<polygon fill="blue" stroke="blue" points="203.38,-315.47 199.88,-305.47 196.38,-315.47 203.38,-315.47"/>
<text text-anchor="middle" x="212.25" y="-325.7" font-family="Times,serif" font-size="14.00">ctrl</text>
</g>
<!-- node4 -->
<g id="node3" class="node">
<title>node4</title>
<polygon fill="none" stroke="black" points="257.75,-214.5 142,-214.5 142,-178.5 257.75,-178.5 257.75,-214.5"/>
<text text-anchor="middle" x="199.88" y="-191.82" font-family="Times,serif" font-size="14.00">while (i &lt;= n)</text>
</g>
<!-- node3&#45;&gt;node4 -->
<g id="edge4" class="edge">
<title>node3&#45;&gt;node4</title>
<path fill="none" stroke="blue" d="M199.88,-267.51C199.88,-255.68 199.88,-239.7 199.88,-226"/>
<polygon fill="blue" stroke="blue" points="203.38,-226.22 199.88,-216.22 196.38,-226.22 203.38,-226.22"/>
<text text-anchor="middle" x="212.25" y="-236.45" font-family="Times,serif" font-size="14.00">ctrl</text>
</g>
<!-- node5 -->
<g id="node4" class="node">
<title>node5</title>
<polygon fill="none" stroke="black" points="163.75,-125.25 0,-125.25 0,-89.25 163.75,-89.25 163.75,-125.25"/>
<text text-anchor="middle" x="81.88" y="-102.58" font-family="Times,serif" font-size="14.00">6: result = result * i;</text>
</g>
<!-- node4&#45;&gt;node5 -->
<g id="edge1" class="edge">
<title>node4&#45;&gt;node5</title>
<path fill="none" stroke="blue" d="M176.28,-178.05C158.59,-164.98 134.17,-146.92 114.6,-132.45"/>
<polygon fill="blue" stroke="blue" points="116.77,-129.7 106.65,-126.57 112.61,-135.33 116.77,-129.7"/>
<text text-anchor="middle" x="163.82" y="-147.2" font-family="Times,serif" font-size="14.00">ctrl</text>
</g>
<!-- node7 -->
<g id="node6" class="node">
<title>node7</title>
<polygon fill="none" stroke="black" points="373.25,-125.25 242.5,-125.25 242.5,-89.25 373.25,-89.25 373.25,-125.25"/>
<text text-anchor="middle" x="307.88" y="-102.58" font-family="Times,serif" font-size="14.00">9: return result;</text>
</g>
<!-- node4&#45;&gt;node7 -->
<g id="edge5" class="edge">
<title>node4&#45;&gt;node7</title>
<path fill="none" stroke="blue" d="M221.47,-178.05C237.51,-165.09 259.6,-147.25 277.44,-132.84"/>
<polygon fill="blue" stroke="blue" points="279.56,-135.62 285.14,-126.62 275.16,-130.18 279.56,-135.62"/>
<text text-anchor="middle" x="275.92" y="-147.2" font-family="Times,serif" font-size="14.00">ctrl</text>
</g>
<!-- node6 -->
<g id="node5" class="node">
<title>node6</title>
<polygon fill="none" stroke="black" points="229.12,-36 130.62,-36 130.62,0 229.12,0 229.12,-36"/>
<text text-anchor="middle" x="179.88" y="-13.32" font-family="Times,serif" font-size="14.00">7: i = i + 1;</text>
</g>
<!-- node5&#45;&gt;node6 -->
<g id="edge6" class="edge">
<title>node5&#45;&gt;node6</title>
<path fill="none" stroke="blue" d="M101.24,-89.01C115.73,-76.11 135.77,-58.26 151.99,-43.82"/>
<polygon fill="blue" stroke="blue" points="154.28,-46.47 159.42,-37.21 149.63,-41.24 154.28,-46.47"/>
<text text-anchor="middle" x="152.03" y="-57.95" font-family="Times,serif" font-size="14.00">ctrl</text>
</g>
<!-- node6&#45;&gt;node4 -->
<g id="edge7" class="edge">
<title>node6&#45;&gt;node4</title>
<path fill="none" stroke="blue" d="M181.84,-36.31C185.29,-66.81 192.49,-130.37 196.68,-167.28"/>
<polygon fill="blue" stroke="blue" points="193.15,-167.21 197.75,-176.75 200.1,-166.42 193.15,-167.21"/>
<text text-anchor="middle" x="204.24" y="-102.58" font-family="Times,serif" font-size="14.00">ctrl</text>
</g>
<!-- node1 -->
<g id="node8" class="node">
<title>node1</title>
<polygon fill="none" stroke="black" points="337.62,-36 278.12,-36 278.12,0 337.62,0 337.62,-36"/>
<text text-anchor="middle" x="307.88" y="-13.32" font-family="Times,serif" font-size="14.00">node1</text>
</g>
<!-- node7&#45;&gt;node1 -->
<g id="edge8" class="edge">
<title>node7&#45;&gt;node1</title>
<path fill="none" stroke="blue" d="M307.88,-89.01C307.88,-77.18 307.88,-61.2 307.88,-47.5"/>
<polygon fill="blue" stroke="blue" points="311.38,-47.72 307.88,-37.72 304.38,-47.72 311.38,-47.72"/>
<text text-anchor="middle" x="320.25" y="-57.95" font-family="Times,serif" font-size="14.00">ctrl</text>
</g>
<!-- node0 -->
<g id="node7" class="node">
<title>node0</title>
<polygon fill="none" stroke="black" points="229.62,-482.25 170.12,-482.25 170.12,-446.25 229.62,-446.25 229.62,-482.25"/>
<text text-anchor="middle" x="199.88" y="-459.57" font-family="Times,serif" font-size="14.00">node0</text>
</g>
<!-- node0&#45;&gt;node2 -->
<g id="edge2" class="edge">
<title>node0&#45;&gt;node2</title>
<path fill="none" stroke="blue" d="M199.88,-446.01C199.88,-434.18 199.88,-418.2 199.88,-404.5"/>
<polygon fill="blue" stroke="blue" points="203.38,-404.72 199.88,-394.72 196.38,-404.72 203.38,-404.72"/>
<text text-anchor="middle" x="212.25" y="-414.95" font-family="Times,serif" font-size="14.00">ctrl</text>
</g>
</g>
</svg>
