<?xml version="1.0" encoding="UTF-8" standalone="no"?>
<!DOCTYPE svg PUBLIC "-//W3C//DTD SVG 1.1//EN"
 "http://www.w3.org/Graphics/SVG/1.1/DTD/svg11.dtd">
<!-- Generated by graphviz version 12.2.0 (0)
 -->
<!-- Title: PDG Pages: 1 -->
<svg width="405pt" height="404pt"
 viewBox="0.00 0.00 405.12 404.00" xmlns="http://www.w3.org/2000/svg" xmlns:xlink="http://www.w3.org/1999/xlink">
<g id="graph0" class="graph" transform="scale(1 1) rotate(0) translate(4 400)">
<title>PDG</title>
<polygon fill="white" stroke="none" points="-4,4 -4,-400 401.12,-400 401.12,4 -4,4"/>
<!-- node0 -->
<g id="node1" class="node">
<title>node0</title>
<polygon fill="none" stroke="black" points="311.25,-396 72.5,-396 72.5,-360 311.25,-360 311.25,-396"/>
<text text-anchor="middle" x="191.88" y="-373.32" font-family="Times,serif" font-size="14.00">ENTRY: whileLoopExample(int)</text>
</g>
<!-- node2 -->
<g id="node3" class="node">
<title>node2</title>
<polygon fill="none" stroke="black" points="259.12,-324 124.62,-324 124.62,-288 259.12,-288 259.12,-324"/>
<text text-anchor="middle" x="191.88" y="-301.32" font-family="Times,serif" font-size="14.00">3: int result = 1;</text>
</g>
<!-- node0&#45;&gt;node2 -->
<g id="edge2" class="edge">
<title>node0&#45;&gt;node2</title>
<path fill="none" stroke="blue" d="M191.88,-359.7C191.88,-352.41 191.88,-343.73 191.88,-335.54"/>
<polygon fill="blue" stroke="blue" points="195.38,-335.62 191.88,-325.62 188.38,-335.62 195.38,-335.62"/>
</g>
<!-- node1 -->
<g id="node2" class="node">
<title>node1</title>
<polygon fill="none" stroke="black" points="397.12,-36 172.62,-36 172.62,0 397.12,0 397.12,-36"/>
<text text-anchor="middle" x="284.88" y="-13.32" font-family="Times,serif" font-size="14.00">EXIT: whileLoopExample(int)</text>
</g>
<!-- node3 -->
<g id="node4" class="node">
<title>node3</title>
<polygon fill="none" stroke="black" points="240.38,-252 143.38,-252 143.38,-216 240.38,-216 240.38,-252"/>
<text text-anchor="middle" x="191.88" y="-229.32" font-family="Times,serif" font-size="14.00">4: int i = 1;</text>
</g>
<!-- node2&#45;&gt;node3 -->
<g id="edge3" class="edge">
<title>node2&#45;&gt;node3</title>
<path fill="none" stroke="blue" d="M191.88,-287.7C191.88,-280.41 191.88,-271.73 191.88,-263.54"/>
<polygon fill="blue" stroke="blue" points="195.38,-263.62 191.88,-253.62 188.38,-263.62 195.38,-263.62"/>
</g>
<!-- node4 -->
<g id="node5" class="node">
<title>node4</title>
<polygon fill="none" stroke="black" points="249.75,-180 134,-180 134,-144 249.75,-144 249.75,-180"/>
<text text-anchor="middle" x="191.88" y="-157.32" font-family="Times,serif" font-size="14.00">while (i &lt;= n)</text>
</g>
<!-- node3&#45;&gt;node4 -->
<g id="edge4" class="edge">
<title>node3&#45;&gt;node4</title>
<path fill="none" stroke="blue" d="M191.88,-215.7C191.88,-208.41 191.88,-199.73 191.88,-191.54"/>
<polygon fill="blue" stroke="blue" points="195.38,-191.62 191.88,-181.62 188.38,-191.62 195.38,-191.62"/>
</g>
<!-- node5 -->
<g id="node6" class="node">
<title>node5</title>
<polygon fill="none" stroke="black" points="163.75,-108 0,-108 0,-72 163.75,-72 163.75,-108"/>
<text text-anchor="middle" x="81.88" y="-85.33" font-family="Times,serif" font-size="14.00">6: result = result * i;</text>
</g>
<!-- node4&#45;&gt;node5 -->
<g id="edge1" class="edge">
<title>node4&#45;&gt;node5</title>
<path fill="none" stroke="blue" d="M164.4,-143.52C150.52,-134.68 133.48,-123.84 118.49,-114.3"/>
<polygon fill="blue" stroke="blue" points="120.59,-111.49 110.28,-109.07 116.83,-117.39 120.59,-111.49"/>
</g>
<!-- node7 -->
<g id="node8" class="node">
<title>node7</title>
<polygon fill="none" stroke="black" points="350.25,-108 219.5,-108 219.5,-72 350.25,-72 350.25,-108"/>
<text text-anchor="middle" x="284.88" y="-85.33" font-family="Times,serif" font-size="14.00">9: return result;</text>
</g>
<!-- node4&#45;&gt;node7 -->
<g id="edge5" class="edge">
<title>node4&#45;&gt;node7</title>
<path fill="none" stroke="blue" d="M214.86,-143.7C226.27,-135.11 240.23,-124.61 252.67,-115.24"/>
<polygon fill="blue" stroke="blue" points="254.73,-118.07 260.62,-109.26 250.52,-112.47 254.73,-118.07"/>
</g>
<!-- node6 -->
<g id="node7" class="node">
<title>node6</title>
<polygon fill="none" stroke="black" points="143.12,-36 44.62,-36 44.62,0 143.12,0 143.12,-36"/>
<text text-anchor="middle" x="93.88" y="-13.32" font-family="Times,serif" font-size="14.00">7: i = i + 1;</text>
</g>
<!-- node5&#45;&gt;node6 -->
<g id="edge6" class="edge">
<title>node5&#45;&gt;node6</title>
<path fill="none" stroke="blue" d="M84.84,-71.7C86.11,-64.32 87.61,-55.52 89.03,-47.25"/>
<polygon fill="blue" stroke="blue" points="92.45,-48.04 90.69,-37.6 85.55,-46.86 92.45,-48.04"/>
</g>
<!-- node6&#45;&gt;node4 -->
<g id="edge7" class="edge">
<title>node6&#45;&gt;node4</title>
<path fill="none" stroke="blue" d="M131.71,-36.37C146.67,-45.05 162.69,-56.96 172.88,-72 184.94,-89.82 189.54,-113.86 191.21,-132.47"/>
<polygon fill="blue" stroke="blue" points="187.71,-132.52 191.84,-142.28 194.69,-132.07 187.71,-132.52"/>
</g>
<!-- node7&#45;&gt;node1 -->
<g id="edge8" class="edge">
<title>node7&#45;&gt;node1</title>
<path fill="none" stroke="blue" d="M284.88,-71.7C284.88,-64.41 284.88,-55.73 284.88,-47.54"/>
<polygon fill="blue" stroke="blue" points="288.38,-47.62 284.88,-37.62 281.38,-47.62 288.38,-47.62"/>
</g>
</g>
</svg>
